<?xml version="1.0" encoding="utf-8" standalone="no"?>
<!DOCTYPE svg PUBLIC "-//W3C//DTD SVG 1.1//EN"
  "http://www.w3.org/Graphics/SVG/1.1/DTD/svg11.dtd">
<svg xmlns:xlink="http://www.w3.org/1999/xlink" width="864pt" height="432pt" viewBox="0 0 864 432" xmlns="http://www.w3.org/2000/svg" version="1.1">
 <metadata>
  <rdf:RDF xmlns:dc="http://purl.org/dc/elements/1.1/" xmlns:cc="http://creativecommons.org/ns#" xmlns:rdf="http://www.w3.org/1999/02/22-rdf-syntax-ns#">
   <cc:Work>
    <dc:type rdf:resource="http://purl.org/dc/dcmitype/StillImage"/>
    <dc:date>2024-01-06T21:57:53.584060</dc:date>
    <dc:format>image/svg+xml</dc:format>
    <dc:creator>
     <cc:Agent>
      <dc:title>Matplotlib v3.8.1, https://matplotlib.org/</dc:title>
     </cc:Agent>
    </dc:creator>
   </cc:Work>
  </rdf:RDF>
 </metadata>
 <defs>
  <style type="text/css">*{stroke-linejoin: round; stroke-linecap: butt}</style>
 </defs>
 <g id="figure_1">
  <g id="patch_1">
   <path d="M 0 432 
L 864 432 
L 864 0 
L 0 0 
z
" style="fill: #ffffff"/>
  </g>
  <g id="axes_1">
   <g id="patch_2">
    <path d="M 56.378 389.752 
L 423.45 389.752 
L 423.45 10.8 
L 56.378 10.8 
z
" style="fill: #ffffff"/>
   </g>
   <g id="line2d_1">
    <path d="M 292.687972 288.146261 
L 151.911691 372.526909 
M 306.426493 268.31875 
L 292.687972 288.146261 
M 314.387146 255.557765 
L 306.426493 268.31875 
M 320.559448 241.689713 
L 306.426493 268.31875 
M 320.559448 241.689713 
L 314.387146 255.557765 
M 325.568518 227.569932 
L 320.559448 241.689713 
M 340.60453 177.100302 
L 325.568518 227.569932 
M 338.706809 119.591158 
L 325.568518 227.569932 
M 338.706809 119.591158 
L 340.60453 177.100302 
M 222.95463 55.718647 
L 151.911691 372.526909 
M 222.95463 55.718647 
L 292.687972 288.146261 
M 222.95463 55.718647 
L 306.426493 268.31875 
M 222.95463 55.718647 
L 320.559448 241.689713 
M 222.95463 55.718647 
L 325.568518 227.569932 
M 222.95463 55.718647 
L 338.706809 119.591158 
M 155.45975 32.367181 
L 222.95463 55.718647 
M 118.258916 28.788742 
L 155.45975 32.367181 
M 90.345724 28.025091 
L 118.258916 28.788742 
M 79.29905 38.977806 
L 90.345724 28.025091 
M 76.897047 47.348412 
L 90.345724 28.025091 
M 76.897047 47.348412 
L 79.29905 38.977806 
M 72.944091 81.060908 
L 118.258916 28.788742 
M 72.944091 81.060908 
L 90.345724 28.025091 
M 72.944091 81.060908 
L 76.897047 47.348412 
M 71.330947 129.721308 
L 155.45975 32.367181 
M 71.330947 129.721308 
L 118.258916 28.788742 
M 71.330947 129.721308 
L 72.944091 81.060908 
M 71.207937 136.692712 
L 155.45975 32.367181 
M 71.207937 136.692712 
L 71.330947 129.721308 
M 70.985929 160.3241 
L 155.45975 32.367181 
M 70.985929 160.3241 
L 71.207937 136.692712 
M 71.759628 177.90484 
L 155.45975 32.367181 
M 71.759628 177.90484 
L 70.985929 160.3241 
M 74.254855 209.163782 
L 151.911691 372.526909 
M 74.254855 209.163782 
L 222.95463 55.718647 
M 74.254855 209.163782 
L 155.45975 32.367181 
M 74.254855 209.163782 
L 71.759628 177.90484 
M 80.950839 272.936894 
L 151.911691 372.526909 
M 80.950839 272.936894 
L 74.254855 209.163782 
M 85.192846 294.735932 
L 151.911691 372.526909 
M 85.192846 294.735932 
L 80.950839 272.936894 
M 110.447837 359.797888 
L 151.911691 372.526909 
M 110.447837 359.797888 
L 85.192846 294.735932 
L 85.192846 294.735932 
" clip-path="url(#p0a996e85a7)" style="fill: none; stroke: #1f77b4; stroke-width: 1.5; stroke-linecap: square"/>
   </g>
   <g id="matplotlib.axis_1">
    <g id="xtick_1">
     <g id="line2d_2">
      <defs>
       <path id="ma448220fff" d="M 0 0 
L 0 3.5 
" style="stroke: #000000; stroke-width: 0.8"/>
      </defs>
      <g>
       <use xlink:href="#ma448220fff" x="70.496154" y="389.752" style="stroke: #000000; stroke-width: 0.8"/>
      </g>
     </g>
     <g id="text_1">
      <!-- 0 -->
      <g transform="translate(67.314904 404.350437) scale(0.1 -0.1)">
       <defs>
        <path id="DejaVuSans-30" d="M 2034 4250 
Q 1547 4250 1301 3770 
Q 1056 3291 1056 2328 
Q 1056 1369 1301 889 
Q 1547 409 2034 409 
Q 2525 409 2770 889 
Q 3016 1369 3016 2328 
Q 3016 3291 2770 3770 
Q 2525 4250 2034 4250 
z
M 2034 4750 
Q 2819 4750 3233 4129 
Q 3647 3509 3647 2328 
Q 3647 1150 3233 529 
Q 2819 -91 2034 -91 
Q 1250 -91 836 529 
Q 422 1150 422 2328 
Q 422 3509 836 4129 
Q 1250 4750 2034 4750 
z
" transform="scale(0.015625)"/>
       </defs>
       <use xlink:href="#DejaVuSans-30"/>
      </g>
     </g>
    </g>
    <g id="xtick_2">
     <g id="line2d_3">
      <g>
       <use xlink:href="#ma448220fff" x="141.086923" y="389.752" style="stroke: #000000; stroke-width: 0.8"/>
      </g>
     </g>
     <g id="text_2">
      <!-- 1 -->
      <g transform="translate(137.905673 404.350437) scale(0.1 -0.1)">
       <defs>
        <path id="DejaVuSans-31" d="M 794 531 
L 1825 531 
L 1825 4091 
L 703 3866 
L 703 4441 
L 1819 4666 
L 2450 4666 
L 2450 531 
L 3481 531 
L 3481 0 
L 794 0 
L 794 531 
z
" transform="scale(0.015625)"/>
       </defs>
       <use xlink:href="#DejaVuSans-31"/>
      </g>
     </g>
    </g>
    <g id="xtick_3">
     <g id="line2d_4">
      <g>
       <use xlink:href="#ma448220fff" x="211.677692" y="389.752" style="stroke: #000000; stroke-width: 0.8"/>
      </g>
     </g>
     <g id="text_3">
      <!-- 2 -->
      <g transform="translate(208.496442 404.350437) scale(0.1 -0.1)">
       <defs>
        <path id="DejaVuSans-32" d="M 1228 531 
L 3431 531 
L 3431 0 
L 469 0 
L 469 531 
Q 828 903 1448 1529 
Q 2069 2156 2228 2338 
Q 2531 2678 2651 2914 
Q 2772 3150 2772 3378 
Q 2772 3750 2511 3984 
Q 2250 4219 1831 4219 
Q 1534 4219 1204 4116 
Q 875 4013 500 3803 
L 500 4441 
Q 881 4594 1212 4672 
Q 1544 4750 1819 4750 
Q 2544 4750 2975 4387 
Q 3406 4025 3406 3419 
Q 3406 3131 3298 2873 
Q 3191 2616 2906 2266 
Q 2828 2175 2409 1742 
Q 1991 1309 1228 531 
z
" transform="scale(0.015625)"/>
       </defs>
       <use xlink:href="#DejaVuSans-32"/>
      </g>
     </g>
    </g>
    <g id="xtick_4">
     <g id="line2d_5">
      <g>
       <use xlink:href="#ma448220fff" x="282.268462" y="389.752" style="stroke: #000000; stroke-width: 0.8"/>
      </g>
     </g>
     <g id="text_4">
      <!-- 3 -->
      <g transform="translate(279.087212 404.350437) scale(0.1 -0.1)">
       <defs>
        <path id="DejaVuSans-33" d="M 2597 2516 
Q 3050 2419 3304 2112 
Q 3559 1806 3559 1356 
Q 3559 666 3084 287 
Q 2609 -91 1734 -91 
Q 1441 -91 1130 -33 
Q 819 25 488 141 
L 488 750 
Q 750 597 1062 519 
Q 1375 441 1716 441 
Q 2309 441 2620 675 
Q 2931 909 2931 1356 
Q 2931 1769 2642 2001 
Q 2353 2234 1838 2234 
L 1294 2234 
L 1294 2753 
L 1863 2753 
Q 2328 2753 2575 2939 
Q 2822 3125 2822 3475 
Q 2822 3834 2567 4026 
Q 2313 4219 1838 4219 
Q 1578 4219 1281 4162 
Q 984 4106 628 3988 
L 628 4550 
Q 988 4650 1302 4700 
Q 1616 4750 1894 4750 
Q 2613 4750 3031 4423 
Q 3450 4097 3450 3541 
Q 3450 3153 3228 2886 
Q 3006 2619 2597 2516 
z
" transform="scale(0.015625)"/>
       </defs>
       <use xlink:href="#DejaVuSans-33"/>
      </g>
     </g>
    </g>
    <g id="xtick_5">
     <g id="line2d_6">
      <g>
       <use xlink:href="#ma448220fff" x="352.859231" y="389.752" style="stroke: #000000; stroke-width: 0.8"/>
      </g>
     </g>
     <g id="text_5">
      <!-- 4 -->
      <g transform="translate(349.677981 404.350437) scale(0.1 -0.1)">
       <defs>
        <path id="DejaVuSans-34" d="M 2419 4116 
L 825 1625 
L 2419 1625 
L 2419 4116 
z
M 2253 4666 
L 3047 4666 
L 3047 1625 
L 3713 1625 
L 3713 1100 
L 3047 1100 
L 3047 0 
L 2419 0 
L 2419 1100 
L 313 1100 
L 313 1709 
L 2253 4666 
z
" transform="scale(0.015625)"/>
       </defs>
       <use xlink:href="#DejaVuSans-34"/>
      </g>
     </g>
    </g>
    <g id="xtick_6">
     <g id="line2d_7">
      <g>
       <use xlink:href="#ma448220fff" x="423.45" y="389.752" style="stroke: #000000; stroke-width: 0.8"/>
      </g>
     </g>
     <g id="text_6">
      <!-- 5 -->
      <g transform="translate(420.26875 404.350437) scale(0.1 -0.1)">
       <defs>
        <path id="DejaVuSans-35" d="M 691 4666 
L 3169 4666 
L 3169 4134 
L 1269 4134 
L 1269 2991 
Q 1406 3038 1543 3061 
Q 1681 3084 1819 3084 
Q 2600 3084 3056 2656 
Q 3513 2228 3513 1497 
Q 3513 744 3044 326 
Q 2575 -91 1722 -91 
Q 1428 -91 1123 -41 
Q 819 9 494 109 
L 494 744 
Q 775 591 1075 516 
Q 1375 441 1709 441 
Q 2250 441 2565 725 
Q 2881 1009 2881 1497 
Q 2881 1984 2565 2268 
Q 2250 2553 1709 2553 
Q 1456 2553 1204 2497 
Q 953 2441 691 2322 
L 691 4666 
z
" transform="scale(0.015625)"/>
       </defs>
       <use xlink:href="#DejaVuSans-35"/>
      </g>
     </g>
    </g>
    <g id="text_7">
     <!-- $a_1$ -->
     <g transform="translate(234.464 418.028563) scale(0.1 -0.1)">
      <defs>
       <path id="DejaVuSans-Oblique-61" d="M 3438 1997 
L 3047 0 
L 2472 0 
L 2578 531 
Q 2325 219 2001 64 
Q 1678 -91 1281 -91 
Q 834 -91 548 182 
Q 263 456 263 884 
Q 263 1497 752 1853 
Q 1241 2209 2100 2209 
L 2900 2209 
L 2931 2363 
Q 2938 2388 2941 2417 
Q 2944 2447 2944 2509 
Q 2944 2788 2717 2942 
Q 2491 3097 2081 3097 
Q 1800 3097 1504 3025 
Q 1209 2953 897 2809 
L 997 3341 
Q 1322 3463 1633 3523 
Q 1944 3584 2234 3584 
Q 2853 3584 3176 3315 
Q 3500 3047 3500 2534 
Q 3500 2431 3484 2292 
Q 3469 2153 3438 1997 
z
M 2816 1759 
L 2241 1759 
Q 1534 1759 1195 1570 
Q 856 1381 856 984 
Q 856 709 1029 553 
Q 1203 397 1509 397 
Q 1978 397 2328 733 
Q 2678 1069 2791 1631 
L 2816 1759 
z
" transform="scale(0.015625)"/>
      </defs>
      <use xlink:href="#DejaVuSans-Oblique-61"/>
      <use xlink:href="#DejaVuSans-31" transform="translate(61.279297 -16.40625) scale(0.7)"/>
     </g>
    </g>
   </g>
   <g id="matplotlib.axis_2">
    <g id="ytick_1">
     <g id="line2d_8">
      <defs>
       <path id="m43defe7532" d="M 0 0 
L -3.5 0 
" style="stroke: #000000; stroke-width: 0.8"/>
      </defs>
      <g>
       <use xlink:href="#m43defe7532" x="56.378" y="372.828526" style="stroke: #000000; stroke-width: 0.8"/>
      </g>
     </g>
     <g id="text_8">
      <!-- −2.0 -->
      <g transform="translate(25.095187 376.627745) scale(0.1 -0.1)">
       <defs>
        <path id="DejaVuSans-2212" d="M 678 2272 
L 4684 2272 
L 4684 1741 
L 678 1741 
L 678 2272 
z
" transform="scale(0.015625)"/>
        <path id="DejaVuSans-2e" d="M 684 794 
L 1344 794 
L 1344 0 
L 684 0 
L 684 794 
z
" transform="scale(0.015625)"/>
       </defs>
       <use xlink:href="#DejaVuSans-2212"/>
       <use xlink:href="#DejaVuSans-32" x="83.789062"/>
       <use xlink:href="#DejaVuSans-2e" x="147.412109"/>
       <use xlink:href="#DejaVuSans-30" x="179.199219"/>
      </g>
     </g>
    </g>
    <g id="ytick_2">
     <g id="line2d_9">
      <g>
       <use xlink:href="#m43defe7532" x="56.378" y="313.600626" style="stroke: #000000; stroke-width: 0.8"/>
      </g>
     </g>
     <g id="text_9">
      <!-- −1.5 -->
      <g transform="translate(25.095187 317.399845) scale(0.1 -0.1)">
       <use xlink:href="#DejaVuSans-2212"/>
       <use xlink:href="#DejaVuSans-31" x="83.789062"/>
       <use xlink:href="#DejaVuSans-2e" x="147.412109"/>
       <use xlink:href="#DejaVuSans-35" x="179.199219"/>
      </g>
     </g>
    </g>
    <g id="ytick_3">
     <g id="line2d_10">
      <g>
       <use xlink:href="#m43defe7532" x="56.378" y="254.372725" style="stroke: #000000; stroke-width: 0.8"/>
      </g>
     </g>
     <g id="text_10">
      <!-- −1.0 -->
      <g transform="translate(25.095187 258.171944) scale(0.1 -0.1)">
       <use xlink:href="#DejaVuSans-2212"/>
       <use xlink:href="#DejaVuSans-31" x="83.789062"/>
       <use xlink:href="#DejaVuSans-2e" x="147.412109"/>
       <use xlink:href="#DejaVuSans-30" x="179.199219"/>
      </g>
     </g>
    </g>
    <g id="ytick_4">
     <g id="line2d_11">
      <g>
       <use xlink:href="#m43defe7532" x="56.378" y="195.144825" style="stroke: #000000; stroke-width: 0.8"/>
      </g>
     </g>
     <g id="text_11">
      <!-- −0.5 -->
      <g transform="translate(25.095187 198.944043) scale(0.1 -0.1)">
       <use xlink:href="#DejaVuSans-2212"/>
       <use xlink:href="#DejaVuSans-30" x="83.789062"/>
       <use xlink:href="#DejaVuSans-2e" x="147.412109"/>
       <use xlink:href="#DejaVuSans-35" x="179.199219"/>
      </g>
     </g>
    </g>
    <g id="ytick_5">
     <g id="line2d_12">
      <g>
       <use xlink:href="#m43defe7532" x="56.378" y="135.916924" style="stroke: #000000; stroke-width: 0.8"/>
      </g>
     </g>
     <g id="text_12">
      <!-- 0.0 -->
      <g transform="translate(33.474875 139.716143) scale(0.1 -0.1)">
       <use xlink:href="#DejaVuSans-30"/>
       <use xlink:href="#DejaVuSans-2e" x="63.623047"/>
       <use xlink:href="#DejaVuSans-30" x="95.410156"/>
      </g>
     </g>
    </g>
    <g id="ytick_6">
     <g id="line2d_13">
      <g>
       <use xlink:href="#m43defe7532" x="56.378" y="76.689024" style="stroke: #000000; stroke-width: 0.8"/>
      </g>
     </g>
     <g id="text_13">
      <!-- 0.5 -->
      <g transform="translate(33.474875 80.488242) scale(0.1 -0.1)">
       <use xlink:href="#DejaVuSans-30"/>
       <use xlink:href="#DejaVuSans-2e" x="63.623047"/>
       <use xlink:href="#DejaVuSans-35" x="95.410156"/>
      </g>
     </g>
    </g>
    <g id="ytick_7">
     <g id="line2d_14">
      <g>
       <use xlink:href="#m43defe7532" x="56.378" y="17.461123" style="stroke: #000000; stroke-width: 0.8"/>
      </g>
     </g>
     <g id="text_14">
      <!-- 1.0 -->
      <g transform="translate(33.474875 21.260342) scale(0.1 -0.1)">
       <use xlink:href="#DejaVuSans-31"/>
       <use xlink:href="#DejaVuSans-2e" x="63.623047"/>
       <use xlink:href="#DejaVuSans-30" x="95.410156"/>
      </g>
     </g>
    </g>
    <g id="text_15">
     <!-- $a_2$ -->
     <g transform="translate(19.0155 205.726) rotate(-90) scale(0.1 -0.1)">
      <use xlink:href="#DejaVuSans-Oblique-61"/>
      <use xlink:href="#DejaVuSans-32" transform="translate(61.279297 -16.40625) scale(0.7)"/>
     </g>
    </g>
   </g>
   <g id="line2d_15"/>
   <g id="line2d_16">
    <defs>
     <path id="m59bd433f41" d="M 0 3 
C 0.795609 3 1.55874 2.683901 2.12132 2.12132 
C 2.683901 1.55874 3 0.795609 3 0 
C 3 -0.795609 2.683901 -1.55874 2.12132 -2.12132 
C 1.55874 -2.683901 0.795609 -3 0 -3 
C -0.795609 -3 -1.55874 -2.683901 -2.12132 -2.12132 
C -2.683901 -1.55874 -3 -0.795609 -3 0 
C -3 0.795609 -2.683901 1.55874 -2.12132 2.12132 
C -1.55874 2.683901 -0.795609 3 0 3 
z
" style="stroke: #2ca02c"/>
    </defs>
    <g clip-path="url(#p0a996e85a7)">
     <use xlink:href="#m59bd433f41" x="151.911691" y="372.526909" style="fill: #2ca02c; stroke: #2ca02c"/>
     <use xlink:href="#m59bd433f41" x="292.687972" y="288.146261" style="fill: #2ca02c; stroke: #2ca02c"/>
     <use xlink:href="#m59bd433f41" x="306.426493" y="268.31875" style="fill: #2ca02c; stroke: #2ca02c"/>
     <use xlink:href="#m59bd433f41" x="314.387146" y="255.557765" style="fill: #2ca02c; stroke: #2ca02c"/>
     <use xlink:href="#m59bd433f41" x="320.559448" y="241.689713" style="fill: #2ca02c; stroke: #2ca02c"/>
     <use xlink:href="#m59bd433f41" x="325.568518" y="227.569932" style="fill: #2ca02c; stroke: #2ca02c"/>
     <use xlink:href="#m59bd433f41" x="340.60453" y="177.100302" style="fill: #2ca02c; stroke: #2ca02c"/>
     <use xlink:href="#m59bd433f41" x="338.706809" y="119.591158" style="fill: #2ca02c; stroke: #2ca02c"/>
     <use xlink:href="#m59bd433f41" x="222.95463" y="55.718647" style="fill: #2ca02c; stroke: #2ca02c"/>
     <use xlink:href="#m59bd433f41" x="155.45975" y="32.367181" style="fill: #2ca02c; stroke: #2ca02c"/>
     <use xlink:href="#m59bd433f41" x="118.258916" y="28.788742" style="fill: #2ca02c; stroke: #2ca02c"/>
     <use xlink:href="#m59bd433f41" x="90.345724" y="28.025091" style="fill: #2ca02c; stroke: #2ca02c"/>
     <use xlink:href="#m59bd433f41" x="79.29905" y="38.977806" style="fill: #2ca02c; stroke: #2ca02c"/>
     <use xlink:href="#m59bd433f41" x="76.897047" y="47.348412" style="fill: #2ca02c; stroke: #2ca02c"/>
     <use xlink:href="#m59bd433f41" x="72.944091" y="81.060908" style="fill: #2ca02c; stroke: #2ca02c"/>
     <use xlink:href="#m59bd433f41" x="71.330947" y="129.721308" style="fill: #2ca02c; stroke: #2ca02c"/>
     <use xlink:href="#m59bd433f41" x="71.207937" y="136.692712" style="fill: #2ca02c; stroke: #2ca02c"/>
     <use xlink:href="#m59bd433f41" x="70.985929" y="160.3241" style="fill: #2ca02c; stroke: #2ca02c"/>
     <use xlink:href="#m59bd433f41" x="71.759628" y="177.90484" style="fill: #2ca02c; stroke: #2ca02c"/>
     <use xlink:href="#m59bd433f41" x="74.254855" y="209.163782" style="fill: #2ca02c; stroke: #2ca02c"/>
     <use xlink:href="#m59bd433f41" x="80.950839" y="272.936894" style="fill: #2ca02c; stroke: #2ca02c"/>
     <use xlink:href="#m59bd433f41" x="85.192846" y="294.735932" style="fill: #2ca02c; stroke: #2ca02c"/>
     <use xlink:href="#m59bd433f41" x="110.447837" y="359.797888" style="fill: #2ca02c; stroke: #2ca02c"/>
    </g>
   </g>
   <g id="patch_3">
    <path d="M 56.378 389.752 
L 56.378 10.8 
" style="fill: none; stroke: #000000; stroke-width: 0.8; stroke-linejoin: miter; stroke-linecap: square"/>
   </g>
   <g id="patch_4">
    <path d="M 423.45 389.752 
L 423.45 10.8 
" style="fill: none; stroke: #000000; stroke-width: 0.8; stroke-linejoin: miter; stroke-linecap: square"/>
   </g>
   <g id="patch_5">
    <path d="M 56.378 389.752 
L 423.45 389.752 
" style="fill: none; stroke: #000000; stroke-width: 0.8; stroke-linejoin: miter; stroke-linecap: square"/>
   </g>
   <g id="patch_6">
    <path d="M 56.378 10.8 
L 423.45 10.8 
" style="fill: none; stroke: #000000; stroke-width: 0.8; stroke-linejoin: miter; stroke-linecap: square"/>
   </g>
  </g>
  <g id="axes_2">
   <g id="patch_7">
    <path d="M 482.978 389.752 
L 850.05 389.752 
L 850.05 10.8 
L 482.978 10.8 
z
" style="fill: #ffffff"/>
   </g>
   <g id="line2d_17">
    <path d="M 789.878742 288.146261 
L 649.10246 372.526909 
M 803.617262 268.31875 
L 789.878742 288.146261 
M 811.577915 255.557765 
L 803.617262 268.31875 
M 817.750217 241.689713 
L 803.617262 268.31875 
M 817.750217 241.689713 
L 811.577915 255.557765 
M 822.759287 227.569932 
L 817.750217 241.689713 
M 837.795299 177.100302 
L 822.759287 227.569932 
M 835.897578 119.591158 
L 822.759287 227.569932 
M 835.897578 119.591158 
L 837.795299 177.100302 
M 720.145399 55.718647 
L 649.10246 372.526909 
M 720.145399 55.718647 
L 789.878742 288.146261 
M 720.145399 55.718647 
L 803.617262 268.31875 
M 720.145399 55.718647 
L 817.750217 241.689713 
M 720.145399 55.718647 
L 822.759287 227.569932 
M 720.145399 55.718647 
L 835.897578 119.591158 
M 652.65052 32.367181 
L 720.145399 55.718647 
M 615.449685 28.788742 
L 652.65052 32.367181 
M 587.536493 28.025091 
L 615.449685 28.788742 
M 576.489819 38.977806 
L 587.536493 28.025091 
M 574.087816 47.348412 
L 587.536493 28.025091 
M 574.087816 47.348412 
L 576.489819 38.977806 
M 570.13486 81.060908 
L 615.449685 28.788742 
M 570.13486 81.060908 
L 587.536493 28.025091 
M 570.13486 81.060908 
L 574.087816 47.348412 
M 568.521716 129.721308 
L 652.65052 32.367181 
M 568.521716 129.721308 
L 615.449685 28.788742 
M 568.521716 129.721308 
L 570.13486 81.060908 
M 568.398706 136.692712 
L 652.65052 32.367181 
M 568.398706 136.692712 
L 568.521716 129.721308 
M 568.176699 160.3241 
L 652.65052 32.367181 
M 568.176699 160.3241 
L 568.398706 136.692712 
M 568.950398 177.90484 
L 652.65052 32.367181 
M 568.950398 177.90484 
L 568.176699 160.3241 
M 571.445625 209.163782 
L 649.10246 372.526909 
M 571.445625 209.163782 
L 720.145399 55.718647 
M 571.445625 209.163782 
L 652.65052 32.367181 
M 571.445625 209.163782 
L 568.950398 177.90484 
M 578.141608 272.936894 
L 649.10246 372.526909 
M 578.141608 272.936894 
L 571.445625 209.163782 
M 582.383616 294.735932 
L 649.10246 372.526909 
M 582.383616 294.735932 
L 578.141608 272.936894 
M 607.638606 359.797888 
L 649.10246 372.526909 
M 607.638606 359.797888 
L 582.383616 294.735932 
L 582.383616 294.735932 
" clip-path="url(#pedfc97e72b)" style="fill: none; stroke: #1f77b4; stroke-width: 1.5; stroke-linecap: square"/>
   </g>
   <g id="matplotlib.axis_3">
    <g id="xtick_7">
     <g id="line2d_18">
      <g>
       <use xlink:href="#ma448220fff" x="497.096154" y="389.752" style="stroke: #000000; stroke-width: 0.8"/>
      </g>
     </g>
     <g id="text_16">
      <!-- 0 -->
      <g transform="translate(493.914904 404.350437) scale(0.1 -0.1)">
       <use xlink:href="#DejaVuSans-30"/>
      </g>
     </g>
    </g>
    <g id="xtick_8">
     <g id="line2d_19">
      <g>
       <use xlink:href="#ma448220fff" x="567.686923" y="389.752" style="stroke: #000000; stroke-width: 0.8"/>
      </g>
     </g>
     <g id="text_17">
      <!-- 1 -->
      <g transform="translate(564.505673 404.350437) scale(0.1 -0.1)">
       <use xlink:href="#DejaVuSans-31"/>
      </g>
     </g>
    </g>
    <g id="xtick_9">
     <g id="line2d_20">
      <g>
       <use xlink:href="#ma448220fff" x="638.277692" y="389.752" style="stroke: #000000; stroke-width: 0.8"/>
      </g>
     </g>
     <g id="text_18">
      <!-- 2 -->
      <g transform="translate(635.096442 404.350437) scale(0.1 -0.1)">
       <use xlink:href="#DejaVuSans-32"/>
      </g>
     </g>
    </g>
    <g id="xtick_10">
     <g id="line2d_21">
      <g>
       <use xlink:href="#ma448220fff" x="708.868462" y="389.752" style="stroke: #000000; stroke-width: 0.8"/>
      </g>
     </g>
     <g id="text_19">
      <!-- 3 -->
      <g transform="translate(705.687212 404.350437) scale(0.1 -0.1)">
       <use xlink:href="#DejaVuSans-33"/>
      </g>
     </g>
    </g>
    <g id="xtick_11">
     <g id="line2d_22">
      <g>
       <use xlink:href="#ma448220fff" x="779.459231" y="389.752" style="stroke: #000000; stroke-width: 0.8"/>
      </g>
     </g>
     <g id="text_20">
      <!-- 4 -->
      <g transform="translate(776.277981 404.350437) scale(0.1 -0.1)">
       <use xlink:href="#DejaVuSans-34"/>
      </g>
     </g>
    </g>
    <g id="xtick_12">
     <g id="line2d_23">
      <g>
       <use xlink:href="#ma448220fff" x="850.05" y="389.752" style="stroke: #000000; stroke-width: 0.8"/>
      </g>
     </g>
     <g id="text_21">
      <!-- 5 -->
      <g transform="translate(846.86875 404.350437) scale(0.1 -0.1)">
       <use xlink:href="#DejaVuSans-35"/>
      </g>
     </g>
    </g>
    <g id="text_22">
     <!-- $a_1$ -->
     <g transform="translate(661.064 418.028563) scale(0.1 -0.1)">
      <use xlink:href="#DejaVuSans-Oblique-61"/>
      <use xlink:href="#DejaVuSans-31" transform="translate(61.279297 -16.40625) scale(0.7)"/>
     </g>
    </g>
   </g>
   <g id="matplotlib.axis_4">
    <g id="ytick_8">
     <g id="line2d_24">
      <g>
       <use xlink:href="#m43defe7532" x="482.978" y="372.828526" style="stroke: #000000; stroke-width: 0.8"/>
      </g>
     </g>
     <g id="text_23">
      <!-- −2.0 -->
      <g transform="translate(451.695187 376.627745) scale(0.1 -0.1)">
       <use xlink:href="#DejaVuSans-2212"/>
       <use xlink:href="#DejaVuSans-32" x="83.789062"/>
       <use xlink:href="#DejaVuSans-2e" x="147.412109"/>
       <use xlink:href="#DejaVuSans-30" x="179.199219"/>
      </g>
     </g>
    </g>
    <g id="ytick_9">
     <g id="line2d_25">
      <g>
       <use xlink:href="#m43defe7532" x="482.978" y="313.600626" style="stroke: #000000; stroke-width: 0.8"/>
      </g>
     </g>
     <g id="text_24">
      <!-- −1.5 -->
      <g transform="translate(451.695187 317.399845) scale(0.1 -0.1)">
       <use xlink:href="#DejaVuSans-2212"/>
       <use xlink:href="#DejaVuSans-31" x="83.789062"/>
       <use xlink:href="#DejaVuSans-2e" x="147.412109"/>
       <use xlink:href="#DejaVuSans-35" x="179.199219"/>
      </g>
     </g>
    </g>
    <g id="ytick_10">
     <g id="line2d_26">
      <g>
       <use xlink:href="#m43defe7532" x="482.978" y="254.372725" style="stroke: #000000; stroke-width: 0.8"/>
      </g>
     </g>
     <g id="text_25">
      <!-- −1.0 -->
      <g transform="translate(451.695187 258.171944) scale(0.1 -0.1)">
       <use xlink:href="#DejaVuSans-2212"/>
       <use xlink:href="#DejaVuSans-31" x="83.789062"/>
       <use xlink:href="#DejaVuSans-2e" x="147.412109"/>
       <use xlink:href="#DejaVuSans-30" x="179.199219"/>
      </g>
     </g>
    </g>
    <g id="ytick_11">
     <g id="line2d_27">
      <g>
       <use xlink:href="#m43defe7532" x="482.978" y="195.144825" style="stroke: #000000; stroke-width: 0.8"/>
      </g>
     </g>
     <g id="text_26">
      <!-- −0.5 -->
      <g transform="translate(451.695187 198.944043) scale(0.1 -0.1)">
       <use xlink:href="#DejaVuSans-2212"/>
       <use xlink:href="#DejaVuSans-30" x="83.789062"/>
       <use xlink:href="#DejaVuSans-2e" x="147.412109"/>
       <use xlink:href="#DejaVuSans-35" x="179.199219"/>
      </g>
     </g>
    </g>
    <g id="ytick_12">
     <g id="line2d_28">
      <g>
       <use xlink:href="#m43defe7532" x="482.978" y="135.916924" style="stroke: #000000; stroke-width: 0.8"/>
      </g>
     </g>
     <g id="text_27">
      <!-- 0.0 -->
      <g transform="translate(460.074875 139.716143) scale(0.1 -0.1)">
       <use xlink:href="#DejaVuSans-30"/>
       <use xlink:href="#DejaVuSans-2e" x="63.623047"/>
       <use xlink:href="#DejaVuSans-30" x="95.410156"/>
      </g>
     </g>
    </g>
    <g id="ytick_13">
     <g id="line2d_29">
      <g>
       <use xlink:href="#m43defe7532" x="482.978" y="76.689024" style="stroke: #000000; stroke-width: 0.8"/>
      </g>
     </g>
     <g id="text_28">
      <!-- 0.5 -->
      <g transform="translate(460.074875 80.488242) scale(0.1 -0.1)">
       <use xlink:href="#DejaVuSans-30"/>
       <use xlink:href="#DejaVuSans-2e" x="63.623047"/>
       <use xlink:href="#DejaVuSans-35" x="95.410156"/>
      </g>
     </g>
    </g>
    <g id="ytick_14">
     <g id="line2d_30">
      <g>
       <use xlink:href="#m43defe7532" x="482.978" y="17.461123" style="stroke: #000000; stroke-width: 0.8"/>
      </g>
     </g>
     <g id="text_29">
      <!-- 1.0 -->
      <g transform="translate(460.074875 21.260342) scale(0.1 -0.1)">
       <use xlink:href="#DejaVuSans-31"/>
       <use xlink:href="#DejaVuSans-2e" x="63.623047"/>
       <use xlink:href="#DejaVuSans-30" x="95.410156"/>
      </g>
     </g>
    </g>
    <g id="text_30">
     <!-- $a_2$ -->
     <g transform="translate(445.6155 205.726) rotate(-90) scale(0.1 -0.1)">
      <use xlink:href="#DejaVuSans-Oblique-61"/>
      <use xlink:href="#DejaVuSans-32" transform="translate(61.279297 -16.40625) scale(0.7)"/>
     </g>
    </g>
   </g>
   <g id="line2d_31"/>
   <g id="line2d_32">
    <g clip-path="url(#pedfc97e72b)">
     <use xlink:href="#m59bd433f41" x="649.10246" y="372.526909" style="fill: #2ca02c; stroke: #2ca02c"/>
     <use xlink:href="#m59bd433f41" x="789.878742" y="288.146261" style="fill: #2ca02c; stroke: #2ca02c"/>
     <use xlink:href="#m59bd433f41" x="803.617262" y="268.31875" style="fill: #2ca02c; stroke: #2ca02c"/>
     <use xlink:href="#m59bd433f41" x="811.577915" y="255.557765" style="fill: #2ca02c; stroke: #2ca02c"/>
     <use xlink:href="#m59bd433f41" x="817.750217" y="241.689713" style="fill: #2ca02c; stroke: #2ca02c"/>
     <use xlink:href="#m59bd433f41" x="822.759287" y="227.569932" style="fill: #2ca02c; stroke: #2ca02c"/>
     <use xlink:href="#m59bd433f41" x="837.795299" y="177.100302" style="fill: #2ca02c; stroke: #2ca02c"/>
     <use xlink:href="#m59bd433f41" x="835.897578" y="119.591158" style="fill: #2ca02c; stroke: #2ca02c"/>
     <use xlink:href="#m59bd433f41" x="720.145399" y="55.718647" style="fill: #2ca02c; stroke: #2ca02c"/>
     <use xlink:href="#m59bd433f41" x="652.65052" y="32.367181" style="fill: #2ca02c; stroke: #2ca02c"/>
     <use xlink:href="#m59bd433f41" x="615.449685" y="28.788742" style="fill: #2ca02c; stroke: #2ca02c"/>
     <use xlink:href="#m59bd433f41" x="587.536493" y="28.025091" style="fill: #2ca02c; stroke: #2ca02c"/>
     <use xlink:href="#m59bd433f41" x="576.489819" y="38.977806" style="fill: #2ca02c; stroke: #2ca02c"/>
     <use xlink:href="#m59bd433f41" x="574.087816" y="47.348412" style="fill: #2ca02c; stroke: #2ca02c"/>
     <use xlink:href="#m59bd433f41" x="570.13486" y="81.060908" style="fill: #2ca02c; stroke: #2ca02c"/>
     <use xlink:href="#m59bd433f41" x="568.521716" y="129.721308" style="fill: #2ca02c; stroke: #2ca02c"/>
     <use xlink:href="#m59bd433f41" x="568.398706" y="136.692712" style="fill: #2ca02c; stroke: #2ca02c"/>
     <use xlink:href="#m59bd433f41" x="568.176699" y="160.3241" style="fill: #2ca02c; stroke: #2ca02c"/>
     <use xlink:href="#m59bd433f41" x="568.950398" y="177.90484" style="fill: #2ca02c; stroke: #2ca02c"/>
     <use xlink:href="#m59bd433f41" x="571.445625" y="209.163782" style="fill: #2ca02c; stroke: #2ca02c"/>
     <use xlink:href="#m59bd433f41" x="578.141608" y="272.936894" style="fill: #2ca02c; stroke: #2ca02c"/>
     <use xlink:href="#m59bd433f41" x="582.383616" y="294.735932" style="fill: #2ca02c; stroke: #2ca02c"/>
     <use xlink:href="#m59bd433f41" x="607.638606" y="359.797888" style="fill: #2ca02c; stroke: #2ca02c"/>
    </g>
   </g>
   <g id="line2d_33">
    <path d="M 497.585929 389.752 
L 497.585929 10.8 
" clip-path="url(#pedfc97e72b)" style="fill: none; stroke-dasharray: 5.55,2.4; stroke-dashoffset: 0; stroke: #008000; stroke-width: 1.5"/>
   </g>
   <g id="line2d_34">
    <path d="M 568.176699 389.752 
L 568.176699 10.8 
" clip-path="url(#pedfc97e72b)" style="fill: none; stroke-dasharray: 5.55,2.4; stroke-dashoffset: 0; stroke: #008000; stroke-width: 1.5"/>
   </g>
   <g id="patch_8">
    <path d="M 482.978 389.752 
L 482.978 10.8 
" style="fill: none; stroke: #000000; stroke-width: 0.8; stroke-linejoin: miter; stroke-linecap: square"/>
   </g>
   <g id="patch_9">
    <path d="M 850.05 389.752 
L 850.05 10.8 
" style="fill: none; stroke: #000000; stroke-width: 0.8; stroke-linejoin: miter; stroke-linecap: square"/>
   </g>
   <g id="patch_10">
    <path d="M 482.978 389.752 
L 850.05 389.752 
" style="fill: none; stroke: #000000; stroke-width: 0.8; stroke-linejoin: miter; stroke-linecap: square"/>
   </g>
   <g id="patch_11">
    <path d="M 482.978 10.8 
L 850.05 10.8 
" style="fill: none; stroke: #000000; stroke-width: 0.8; stroke-linejoin: miter; stroke-linecap: square"/>
   </g>
   <g id="patch_12">
    <path d="M 501.114606 172.089784 
Q 526.878958 172.089784 552.64331 172.089784 
L 552.64331 168.089784 
Q 558.643812 171.089784 564.644314 174.089784 
Q 558.643812 177.089784 552.64331 180.089784 
L 552.64331 176.089784 
Q 526.878958 176.089784 501.114606 176.089784 
L 501.114606 172.089784 
z
" style="stroke: #000000; stroke-linecap: round"/>
   </g>
   <g id="text_31">
    <!-- $\delta$ -->
    <g transform="translate(527.921314 164.839494) scale(0.16 -0.16)">
     <defs>
      <path id="DejaVuSans-Oblique-3b4" d="M 3472 4053 
Q 3197 4272 2450 4272 
Q 1659 4272 1588 3906 
Q 1531 3619 2328 3469 
Q 2953 3353 3253 3003 
Q 3616 2581 3447 1716 
Q 3284 888 2763 400 
Q 2238 -91 1488 -91 
Q 741 -91 406 400 
Q 72 888 241 1747 
Q 363 2384 891 2900 
Q 1097 3100 1353 3213 
Q 913 3459 1000 3900 
Q 1166 4750 2544 4750 
Q 3234 4750 3566 4531 
L 3472 4053 
z
M 1753 3056 
Q 1525 2966 1306 2738 
Q 969 2384 847 1747 
Q 722 1113 919 756 
Q 1119 397 1584 397 
Q 2044 397 2381 759 
Q 2722 1122 2838 1716 
Q 2956 2338 2731 2638 
Q 2491 2959 2103 2994 
Q 1906 3013 1753 3056 
z
" transform="scale(0.015625)"/>
     </defs>
     <use xlink:href="#DejaVuSans-Oblique-3b4" transform="translate(0 0.78125)"/>
    </g>
   </g>
  </g>
 </g>
 <defs>
  <clipPath id="p0a996e85a7">
   <rect x="56.378" y="10.8" width="367.072" height="378.952"/>
  </clipPath>
  <clipPath id="pedfc97e72b">
   <rect x="482.978" y="10.8" width="367.072" height="378.952"/>
  </clipPath>
 </defs>
</svg>
