<?xml version="1.0" encoding="utf-8" standalone="no"?>
<!DOCTYPE svg PUBLIC "-//W3C//DTD SVG 1.1//EN"
  "http://www.w3.org/Graphics/SVG/1.1/DTD/svg11.dtd">
<svg xmlns:xlink="http://www.w3.org/1999/xlink" width="864pt" height="432pt" viewBox="0 0 864 432" xmlns="http://www.w3.org/2000/svg" version="1.1">
 <metadata>
  <rdf:RDF xmlns:dc="http://purl.org/dc/elements/1.1/" xmlns:cc="http://creativecommons.org/ns#" xmlns:rdf="http://www.w3.org/1999/02/22-rdf-syntax-ns#">
   <cc:Work>
    <dc:type rdf:resource="http://purl.org/dc/dcmitype/StillImage"/>
    <dc:date>2023-12-24T14:17:09.810648</dc:date>
    <dc:format>image/svg+xml</dc:format>
    <dc:creator>
     <cc:Agent>
      <dc:title>Matplotlib v3.7.1, https://matplotlib.org/</dc:title>
     </cc:Agent>
    </dc:creator>
   </cc:Work>
  </rdf:RDF>
 </metadata>
 <defs>
  <style type="text/css">*{stroke-linejoin: round; stroke-linecap: butt}</style>
 </defs>
 <g id="figure_1">
  <g id="patch_1">
   <path d="M 0 432 
L 864 432 
L 864 0 
L 0 0 
z
" style="fill: #ffffff"/>
  </g>
  <g id="axes_1">
   <g id="patch_2">
    <path d="M 47.855 390.04 
L 423.4275 390.04 
L 423.4275 10.8 
L 47.855 10.8 
z
" style="fill: #ffffff"/>
   </g>
   <g id="line2d_1">
    <path d="M 218.289142 116.531728 
L 336.721861 320.633547 
M 149.231244 41.913142 
L 218.289142 116.531728 
M 111.168928 30.478394 
L 149.231244 41.913142 
M 82.609334 28.038182 
L 111.168928 30.478394 
M 71.306846 63.037105 
L 82.609334 28.038182 
M 68.849219 89.785009 
L 82.609334 28.038182 
M 68.849219 89.785009 
L 71.306846 63.037105 
M 64.804721 197.511816 
L 111.168928 30.478394 
M 64.804721 197.511816 
L 82.609334 28.038182 
M 64.804721 197.511816 
L 68.849219 89.785009 
M 63.154221 353.003998 
L 64.804721 197.511816 
M 63.164817 358.69497 
L 63.154221 353.003998 
M 63.747222 369.541537 
L 63.164817 358.69497 
M 68.111676 372.629945 
L 63.154221 353.003998 
M 68.111676 372.629945 
L 63.164817 358.69497 
M 68.111676 372.629945 
L 63.747222 369.541537 
M 71.143986 372.727117 
L 64.804721 197.511816 
M 71.143986 372.727117 
L 63.154221 353.003998 
M 71.143986 372.727117 
L 68.111676 372.629945 
M 109.133582 372.797723 
L 111.168928 30.478394 
M 109.133582 372.797723 
L 64.804721 197.511816 
M 109.133582 372.797723 
L 71.143986 372.727117 
M 121.591874 372.801223 
L 111.168928 30.478394 
M 121.591874 372.801223 
L 109.133582 372.797723 
M 125.382168 372.801809 
L 111.168928 30.478394 
M 125.382168 372.801809 
L 121.591874 372.801223 
M 128.32964 372.801818 
L 218.289142 116.531728 
M 128.32964 372.801818 
L 149.231244 41.913142 
M 128.32964 372.801818 
L 111.168928 30.478394 
M 128.32964 372.801818 
L 125.382168 372.801809 
M 332.613544 372.801818 
L 336.721861 320.633547 
M 332.613544 372.801818 
L 218.289142 116.531728 
M 332.613544 372.801818 
L 128.32964 372.801818 
" clip-path="url(#p904a1f9961)" style="fill: none; stroke: #1f77b4; stroke-width: 1.5; stroke-linecap: square"/>
   </g>
   <g id="matplotlib.axis_1">
    <g id="xtick_1">
     <g id="line2d_2">
      <defs>
       <path id="m4e1ebf4579" d="M 0 0 
L 0 3.5 
" style="stroke: #000000; stroke-width: 0.8"/>
      </defs>
      <g>
       <use xlink:href="#m4e1ebf4579" x="62.300096" y="390.04" style="stroke: #000000; stroke-width: 0.8"/>
      </g>
     </g>
     <g id="text_1">
      <!-- 0 -->
      <g transform="translate(59.118846 404.638438) scale(0.1 -0.1)">
       <defs>
        <path id="DejaVuSans-30" d="M 2034 4250 
Q 1547 4250 1301 3770 
Q 1056 3291 1056 2328 
Q 1056 1369 1301 889 
Q 1547 409 2034 409 
Q 2525 409 2770 889 
Q 3016 1369 3016 2328 
Q 3016 3291 2770 3770 
Q 2525 4250 2034 4250 
z
M 2034 4750 
Q 2819 4750 3233 4129 
Q 3647 3509 3647 2328 
Q 3647 1150 3233 529 
Q 2819 -91 2034 -91 
Q 1250 -91 836 529 
Q 422 1150 422 2328 
Q 422 3509 836 4129 
Q 1250 4750 2034 4750 
z
" transform="scale(0.015625)"/>
       </defs>
       <use xlink:href="#DejaVuSans-30"/>
      </g>
     </g>
    </g>
    <g id="xtick_2">
     <g id="line2d_3">
      <g>
       <use xlink:href="#m4e1ebf4579" x="134.525577" y="390.04" style="stroke: #000000; stroke-width: 0.8"/>
      </g>
     </g>
     <g id="text_2">
      <!-- 1 -->
      <g transform="translate(131.344327 404.638438) scale(0.1 -0.1)">
       <defs>
        <path id="DejaVuSans-31" d="M 794 531 
L 1825 531 
L 1825 4091 
L 703 3866 
L 703 4441 
L 1819 4666 
L 2450 4666 
L 2450 531 
L 3481 531 
L 3481 0 
L 794 0 
L 794 531 
z
" transform="scale(0.015625)"/>
       </defs>
       <use xlink:href="#DejaVuSans-31"/>
      </g>
     </g>
    </g>
    <g id="xtick_3">
     <g id="line2d_4">
      <g>
       <use xlink:href="#m4e1ebf4579" x="206.751058" y="390.04" style="stroke: #000000; stroke-width: 0.8"/>
      </g>
     </g>
     <g id="text_3">
      <!-- 2 -->
      <g transform="translate(203.569808 404.638438) scale(0.1 -0.1)">
       <defs>
        <path id="DejaVuSans-32" d="M 1228 531 
L 3431 531 
L 3431 0 
L 469 0 
L 469 531 
Q 828 903 1448 1529 
Q 2069 2156 2228 2338 
Q 2531 2678 2651 2914 
Q 2772 3150 2772 3378 
Q 2772 3750 2511 3984 
Q 2250 4219 1831 4219 
Q 1534 4219 1204 4116 
Q 875 4013 500 3803 
L 500 4441 
Q 881 4594 1212 4672 
Q 1544 4750 1819 4750 
Q 2544 4750 2975 4387 
Q 3406 4025 3406 3419 
Q 3406 3131 3298 2873 
Q 3191 2616 2906 2266 
Q 2828 2175 2409 1742 
Q 1991 1309 1228 531 
z
" transform="scale(0.015625)"/>
       </defs>
       <use xlink:href="#DejaVuSans-32"/>
      </g>
     </g>
    </g>
    <g id="xtick_4">
     <g id="line2d_5">
      <g>
       <use xlink:href="#m4e1ebf4579" x="278.976538" y="390.04" style="stroke: #000000; stroke-width: 0.8"/>
      </g>
     </g>
     <g id="text_4">
      <!-- 3 -->
      <g transform="translate(275.795288 404.638438) scale(0.1 -0.1)">
       <defs>
        <path id="DejaVuSans-33" d="M 2597 2516 
Q 3050 2419 3304 2112 
Q 3559 1806 3559 1356 
Q 3559 666 3084 287 
Q 2609 -91 1734 -91 
Q 1441 -91 1130 -33 
Q 819 25 488 141 
L 488 750 
Q 750 597 1062 519 
Q 1375 441 1716 441 
Q 2309 441 2620 675 
Q 2931 909 2931 1356 
Q 2931 1769 2642 2001 
Q 2353 2234 1838 2234 
L 1294 2234 
L 1294 2753 
L 1863 2753 
Q 2328 2753 2575 2939 
Q 2822 3125 2822 3475 
Q 2822 3834 2567 4026 
Q 2313 4219 1838 4219 
Q 1578 4219 1281 4162 
Q 984 4106 628 3988 
L 628 4550 
Q 988 4650 1302 4700 
Q 1616 4750 1894 4750 
Q 2613 4750 3031 4423 
Q 3450 4097 3450 3541 
Q 3450 3153 3228 2886 
Q 3006 2619 2597 2516 
z
" transform="scale(0.015625)"/>
       </defs>
       <use xlink:href="#DejaVuSans-33"/>
      </g>
     </g>
    </g>
    <g id="xtick_5">
     <g id="line2d_6">
      <g>
       <use xlink:href="#m4e1ebf4579" x="351.202019" y="390.04" style="stroke: #000000; stroke-width: 0.8"/>
      </g>
     </g>
     <g id="text_5">
      <!-- 4 -->
      <g transform="translate(348.020769 404.638438) scale(0.1 -0.1)">
       <defs>
        <path id="DejaVuSans-34" d="M 2419 4116 
L 825 1625 
L 2419 1625 
L 2419 4116 
z
M 2253 4666 
L 3047 4666 
L 3047 1625 
L 3713 1625 
L 3713 1100 
L 3047 1100 
L 3047 0 
L 2419 0 
L 2419 1100 
L 313 1100 
L 313 1709 
L 2253 4666 
z
" transform="scale(0.015625)"/>
       </defs>
       <use xlink:href="#DejaVuSans-34"/>
      </g>
     </g>
    </g>
    <g id="xtick_6">
     <g id="line2d_7">
      <g>
       <use xlink:href="#m4e1ebf4579" x="423.4275" y="390.04" style="stroke: #000000; stroke-width: 0.8"/>
      </g>
     </g>
     <g id="text_6">
      <!-- 5 -->
      <g transform="translate(420.24625 404.638438) scale(0.1 -0.1)">
       <defs>
        <path id="DejaVuSans-35" d="M 691 4666 
L 3169 4666 
L 3169 4134 
L 1269 4134 
L 1269 2991 
Q 1406 3038 1543 3061 
Q 1681 3084 1819 3084 
Q 2600 3084 3056 2656 
Q 3513 2228 3513 1497 
Q 3513 744 3044 326 
Q 2575 -91 1722 -91 
Q 1428 -91 1123 -41 
Q 819 9 494 109 
L 494 744 
Q 775 591 1075 516 
Q 1375 441 1709 441 
Q 2250 441 2565 725 
Q 2881 1009 2881 1497 
Q 2881 1984 2565 2268 
Q 2250 2553 1709 2553 
Q 1456 2553 1204 2497 
Q 953 2441 691 2322 
L 691 4666 
z
" transform="scale(0.015625)"/>
       </defs>
       <use xlink:href="#DejaVuSans-35"/>
      </g>
     </g>
    </g>
    <g id="text_7">
     <!-- $a_1$ -->
     <g transform="translate(230.19125 418.316562) scale(0.1 -0.1)">
      <defs>
       <path id="DejaVuSans-Oblique-61" d="M 3438 1997 
L 3047 0 
L 2472 0 
L 2578 531 
Q 2325 219 2001 64 
Q 1678 -91 1281 -91 
Q 834 -91 548 182 
Q 263 456 263 884 
Q 263 1497 752 1853 
Q 1241 2209 2100 2209 
L 2900 2209 
L 2931 2363 
Q 2938 2388 2941 2417 
Q 2944 2447 2944 2509 
Q 2944 2788 2717 2942 
Q 2491 3097 2081 3097 
Q 1800 3097 1504 3025 
Q 1209 2953 897 2809 
L 997 3341 
Q 1322 3463 1633 3523 
Q 1944 3584 2234 3584 
Q 2853 3584 3176 3315 
Q 3500 3047 3500 2534 
Q 3500 2431 3484 2292 
Q 3469 2153 3438 1997 
z
M 2816 1759 
L 2241 1759 
Q 1534 1759 1195 1570 
Q 856 1381 856 984 
Q 856 709 1029 553 
Q 1203 397 1509 397 
Q 1978 397 2328 733 
Q 2678 1069 2791 1631 
L 2816 1759 
z
" transform="scale(0.015625)"/>
      </defs>
      <use xlink:href="#DejaVuSans-Oblique-61"/>
      <use xlink:href="#DejaVuSans-31" transform="translate(61.279297 -16.40625) scale(0.7)"/>
     </g>
    </g>
   </g>
   <g id="matplotlib.axis_2">
    <g id="ytick_1">
     <g id="line2d_8">
      <defs>
       <path id="mdcf94ae579" d="M 0 0 
L -3.5 0 
" style="stroke: #000000; stroke-width: 0.8"/>
      </defs>
      <g>
       <use xlink:href="#mdcf94ae579" x="47.855" y="372.801818" style="stroke: #000000; stroke-width: 0.8"/>
      </g>
     </g>
     <g id="text_8">
      <!-- 0.0 -->
      <g transform="translate(24.951875 376.601037) scale(0.1 -0.1)">
       <defs>
        <path id="DejaVuSans-2e" d="M 684 794 
L 1344 794 
L 1344 0 
L 684 0 
L 684 794 
z
" transform="scale(0.015625)"/>
       </defs>
       <use xlink:href="#DejaVuSans-30"/>
       <use xlink:href="#DejaVuSans-2e" x="63.623047"/>
       <use xlink:href="#DejaVuSans-30" x="95.410156"/>
      </g>
     </g>
    </g>
    <g id="ytick_2">
     <g id="line2d_9">
      <g>
       <use xlink:href="#mdcf94ae579" x="47.855" y="297.097751" style="stroke: #000000; stroke-width: 0.8"/>
      </g>
     </g>
     <g id="text_9">
      <!-- 0.2 -->
      <g transform="translate(24.951875 300.89697) scale(0.1 -0.1)">
       <use xlink:href="#DejaVuSans-30"/>
       <use xlink:href="#DejaVuSans-2e" x="63.623047"/>
       <use xlink:href="#DejaVuSans-32" x="95.410156"/>
      </g>
     </g>
    </g>
    <g id="ytick_3">
     <g id="line2d_10">
      <g>
       <use xlink:href="#mdcf94ae579" x="47.855" y="221.393685" style="stroke: #000000; stroke-width: 0.8"/>
      </g>
     </g>
     <g id="text_10">
      <!-- 0.4 -->
      <g transform="translate(24.951875 225.192903) scale(0.1 -0.1)">
       <use xlink:href="#DejaVuSans-30"/>
       <use xlink:href="#DejaVuSans-2e" x="63.623047"/>
       <use xlink:href="#DejaVuSans-34" x="95.410156"/>
      </g>
     </g>
    </g>
    <g id="ytick_4">
     <g id="line2d_11">
      <g>
       <use xlink:href="#mdcf94ae579" x="47.855" y="145.689618" style="stroke: #000000; stroke-width: 0.8"/>
      </g>
     </g>
     <g id="text_11">
      <!-- 0.6 -->
      <g transform="translate(24.951875 149.488837) scale(0.1 -0.1)">
       <defs>
        <path id="DejaVuSans-36" d="M 2113 2584 
Q 1688 2584 1439 2293 
Q 1191 2003 1191 1497 
Q 1191 994 1439 701 
Q 1688 409 2113 409 
Q 2538 409 2786 701 
Q 3034 994 3034 1497 
Q 3034 2003 2786 2293 
Q 2538 2584 2113 2584 
z
M 3366 4563 
L 3366 3988 
Q 3128 4100 2886 4159 
Q 2644 4219 2406 4219 
Q 1781 4219 1451 3797 
Q 1122 3375 1075 2522 
Q 1259 2794 1537 2939 
Q 1816 3084 2150 3084 
Q 2853 3084 3261 2657 
Q 3669 2231 3669 1497 
Q 3669 778 3244 343 
Q 2819 -91 2113 -91 
Q 1303 -91 875 529 
Q 447 1150 447 2328 
Q 447 3434 972 4092 
Q 1497 4750 2381 4750 
Q 2619 4750 2861 4703 
Q 3103 4656 3366 4563 
z
" transform="scale(0.015625)"/>
       </defs>
       <use xlink:href="#DejaVuSans-30"/>
       <use xlink:href="#DejaVuSans-2e" x="63.623047"/>
       <use xlink:href="#DejaVuSans-36" x="95.410156"/>
      </g>
     </g>
    </g>
    <g id="ytick_5">
     <g id="line2d_12">
      <g>
       <use xlink:href="#mdcf94ae579" x="47.855" y="69.985551" style="stroke: #000000; stroke-width: 0.8"/>
      </g>
     </g>
     <g id="text_12">
      <!-- 0.8 -->
      <g transform="translate(24.951875 73.78477) scale(0.1 -0.1)">
       <defs>
        <path id="DejaVuSans-38" d="M 2034 2216 
Q 1584 2216 1326 1975 
Q 1069 1734 1069 1313 
Q 1069 891 1326 650 
Q 1584 409 2034 409 
Q 2484 409 2743 651 
Q 3003 894 3003 1313 
Q 3003 1734 2745 1975 
Q 2488 2216 2034 2216 
z
M 1403 2484 
Q 997 2584 770 2862 
Q 544 3141 544 3541 
Q 544 4100 942 4425 
Q 1341 4750 2034 4750 
Q 2731 4750 3128 4425 
Q 3525 4100 3525 3541 
Q 3525 3141 3298 2862 
Q 3072 2584 2669 2484 
Q 3125 2378 3379 2068 
Q 3634 1759 3634 1313 
Q 3634 634 3220 271 
Q 2806 -91 2034 -91 
Q 1263 -91 848 271 
Q 434 634 434 1313 
Q 434 1759 690 2068 
Q 947 2378 1403 2484 
z
M 1172 3481 
Q 1172 3119 1398 2916 
Q 1625 2713 2034 2713 
Q 2441 2713 2670 2916 
Q 2900 3119 2900 3481 
Q 2900 3844 2670 4047 
Q 2441 4250 2034 4250 
Q 1625 4250 1398 4047 
Q 1172 3844 1172 3481 
z
" transform="scale(0.015625)"/>
       </defs>
       <use xlink:href="#DejaVuSans-30"/>
       <use xlink:href="#DejaVuSans-2e" x="63.623047"/>
       <use xlink:href="#DejaVuSans-38" x="95.410156"/>
      </g>
     </g>
    </g>
    <g id="text_13">
     <!-- $a_2$ -->
     <g transform="translate(18.872188 205.87) rotate(-90) scale(0.1 -0.1)">
      <use xlink:href="#DejaVuSans-Oblique-61"/>
      <use xlink:href="#DejaVuSans-32" transform="translate(61.279297 -16.40625) scale(0.7)"/>
     </g>
    </g>
   </g>
   <g id="line2d_13"/>
   <g id="line2d_14">
    <defs>
     <path id="m53d6cbea43" d="M 0 3 
C 0.795609 3 1.55874 2.683901 2.12132 2.12132 
C 2.683901 1.55874 3 0.795609 3 0 
C 3 -0.795609 2.683901 -1.55874 2.12132 -2.12132 
C 1.55874 -2.683901 0.795609 -3 0 -3 
C -0.795609 -3 -1.55874 -2.683901 -2.12132 -2.12132 
C -2.683901 -1.55874 -3 -0.795609 -3 0 
C -3 0.795609 -2.683901 1.55874 -2.12132 2.12132 
C -1.55874 2.683901 -0.795609 3 0 3 
z
" style="stroke: #2ca02c"/>
    </defs>
    <g clip-path="url(#p904a1f9961)">
     <use xlink:href="#m53d6cbea43" x="336.721861" y="320.633547" style="fill: #2ca02c; stroke: #2ca02c"/>
     <use xlink:href="#m53d6cbea43" x="218.289142" y="116.531728" style="fill: #2ca02c; stroke: #2ca02c"/>
     <use xlink:href="#m53d6cbea43" x="149.231244" y="41.913142" style="fill: #2ca02c; stroke: #2ca02c"/>
     <use xlink:href="#m53d6cbea43" x="111.168928" y="30.478394" style="fill: #2ca02c; stroke: #2ca02c"/>
     <use xlink:href="#m53d6cbea43" x="82.609334" y="28.038182" style="fill: #2ca02c; stroke: #2ca02c"/>
     <use xlink:href="#m53d6cbea43" x="71.306846" y="63.037105" style="fill: #2ca02c; stroke: #2ca02c"/>
     <use xlink:href="#m53d6cbea43" x="68.849219" y="89.785009" style="fill: #2ca02c; stroke: #2ca02c"/>
     <use xlink:href="#m53d6cbea43" x="64.804721" y="197.511816" style="fill: #2ca02c; stroke: #2ca02c"/>
     <use xlink:href="#m53d6cbea43" x="63.154221" y="353.003998" style="fill: #2ca02c; stroke: #2ca02c"/>
     <use xlink:href="#m53d6cbea43" x="63.164817" y="358.69497" style="fill: #2ca02c; stroke: #2ca02c"/>
     <use xlink:href="#m53d6cbea43" x="63.747222" y="369.541537" style="fill: #2ca02c; stroke: #2ca02c"/>
     <use xlink:href="#m53d6cbea43" x="68.111676" y="372.629945" style="fill: #2ca02c; stroke: #2ca02c"/>
     <use xlink:href="#m53d6cbea43" x="71.143986" y="372.727117" style="fill: #2ca02c; stroke: #2ca02c"/>
     <use xlink:href="#m53d6cbea43" x="109.133582" y="372.797723" style="fill: #2ca02c; stroke: #2ca02c"/>
     <use xlink:href="#m53d6cbea43" x="121.591874" y="372.801223" style="fill: #2ca02c; stroke: #2ca02c"/>
     <use xlink:href="#m53d6cbea43" x="125.382168" y="372.801809" style="fill: #2ca02c; stroke: #2ca02c"/>
     <use xlink:href="#m53d6cbea43" x="128.32964" y="372.801818" style="fill: #2ca02c; stroke: #2ca02c"/>
     <use xlink:href="#m53d6cbea43" x="332.613544" y="372.801818" style="fill: #2ca02c; stroke: #2ca02c"/>
    </g>
   </g>
   <g id="patch_3">
    <path d="M 47.855 390.04 
L 47.855 10.8 
" style="fill: none; stroke: #000000; stroke-width: 0.8; stroke-linejoin: miter; stroke-linecap: square"/>
   </g>
   <g id="patch_4">
    <path d="M 423.4275 390.04 
L 423.4275 10.8 
" style="fill: none; stroke: #000000; stroke-width: 0.8; stroke-linejoin: miter; stroke-linecap: square"/>
   </g>
   <g id="patch_5">
    <path d="M 47.855 390.04 
L 423.4275 390.04 
" style="fill: none; stroke: #000000; stroke-width: 0.8; stroke-linejoin: miter; stroke-linecap: square"/>
   </g>
   <g id="patch_6">
    <path d="M 47.855 10.8 
L 423.4275 10.8 
" style="fill: none; stroke: #000000; stroke-width: 0.8; stroke-linejoin: miter; stroke-linecap: square"/>
   </g>
  </g>
  <g id="axes_2">
   <g id="patch_7">
    <path d="M 474.455 390.04 
L 850.0275 390.04 
L 850.0275 10.8 
L 474.455 10.8 
z
" style="fill: #ffffff"/>
   </g>
   <g id="line2d_15">
    <path d="M 717.114623 116.531728 
L 835.547342 320.633547 
M 648.056725 41.913142 
L 717.114623 116.531728 
M 609.994409 30.478394 
L 648.056725 41.913142 
M 581.434815 28.038182 
L 609.994409 30.478394 
M 570.132327 63.037105 
L 581.434815 28.038182 
M 567.674699 89.785009 
L 581.434815 28.038182 
M 567.674699 89.785009 
L 570.132327 63.037105 
M 563.630202 197.511816 
L 609.994409 30.478394 
M 563.630202 197.511816 
L 581.434815 28.038182 
M 563.630202 197.511816 
L 567.674699 89.785009 
M 561.979702 353.003998 
L 563.630202 197.511816 
M 561.990298 358.69497 
L 561.979702 353.003998 
M 562.572703 369.541537 
L 561.990298 358.69497 
M 566.937157 372.629945 
L 561.979702 353.003998 
M 566.937157 372.629945 
L 561.990298 358.69497 
M 566.937157 372.629945 
L 562.572703 369.541537 
M 569.969467 372.727117 
L 563.630202 197.511816 
M 569.969467 372.727117 
L 561.979702 353.003998 
M 569.969467 372.727117 
L 566.937157 372.629945 
M 607.959062 372.797723 
L 609.994409 30.478394 
M 607.959062 372.797723 
L 563.630202 197.511816 
M 607.959062 372.797723 
L 569.969467 372.727117 
M 620.417355 372.801223 
L 609.994409 30.478394 
M 620.417355 372.801223 
L 607.959062 372.797723 
M 624.207649 372.801809 
L 609.994409 30.478394 
M 624.207649 372.801809 
L 620.417355 372.801223 
M 627.155121 372.801818 
L 717.114623 116.531728 
M 627.155121 372.801818 
L 648.056725 41.913142 
M 627.155121 372.801818 
L 609.994409 30.478394 
M 627.155121 372.801818 
L 624.207649 372.801809 
M 831.439024 372.801818 
L 835.547342 320.633547 
M 831.439024 372.801818 
L 717.114623 116.531728 
M 831.439024 372.801818 
L 627.155121 372.801818 
" clip-path="url(#p1f08aa7ee9)" style="fill: none; stroke: #1f77b4; stroke-width: 1.5; stroke-linecap: square"/>
   </g>
   <g id="matplotlib.axis_3">
    <g id="xtick_7">
     <g id="line2d_16">
      <g>
       <use xlink:href="#m4e1ebf4579" x="488.900096" y="390.04" style="stroke: #000000; stroke-width: 0.8"/>
      </g>
     </g>
     <g id="text_14">
      <!-- 0 -->
      <g transform="translate(485.718846 404.638438) scale(0.1 -0.1)">
       <use xlink:href="#DejaVuSans-30"/>
      </g>
     </g>
    </g>
    <g id="xtick_8">
     <g id="line2d_17">
      <g>
       <use xlink:href="#m4e1ebf4579" x="561.125577" y="390.04" style="stroke: #000000; stroke-width: 0.8"/>
      </g>
     </g>
     <g id="text_15">
      <!-- 1 -->
      <g transform="translate(557.944327 404.638438) scale(0.1 -0.1)">
       <use xlink:href="#DejaVuSans-31"/>
      </g>
     </g>
    </g>
    <g id="xtick_9">
     <g id="line2d_18">
      <g>
       <use xlink:href="#m4e1ebf4579" x="633.351058" y="390.04" style="stroke: #000000; stroke-width: 0.8"/>
      </g>
     </g>
     <g id="text_16">
      <!-- 2 -->
      <g transform="translate(630.169808 404.638438) scale(0.1 -0.1)">
       <use xlink:href="#DejaVuSans-32"/>
      </g>
     </g>
    </g>
    <g id="xtick_10">
     <g id="line2d_19">
      <g>
       <use xlink:href="#m4e1ebf4579" x="705.576538" y="390.04" style="stroke: #000000; stroke-width: 0.8"/>
      </g>
     </g>
     <g id="text_17">
      <!-- 3 -->
      <g transform="translate(702.395288 404.638438) scale(0.1 -0.1)">
       <use xlink:href="#DejaVuSans-33"/>
      </g>
     </g>
    </g>
    <g id="xtick_11">
     <g id="line2d_20">
      <g>
       <use xlink:href="#m4e1ebf4579" x="777.802019" y="390.04" style="stroke: #000000; stroke-width: 0.8"/>
      </g>
     </g>
     <g id="text_18">
      <!-- 4 -->
      <g transform="translate(774.620769 404.638438) scale(0.1 -0.1)">
       <use xlink:href="#DejaVuSans-34"/>
      </g>
     </g>
    </g>
    <g id="xtick_12">
     <g id="line2d_21">
      <g>
       <use xlink:href="#m4e1ebf4579" x="850.0275" y="390.04" style="stroke: #000000; stroke-width: 0.8"/>
      </g>
     </g>
     <g id="text_19">
      <!-- 5 -->
      <g transform="translate(846.84625 404.638438) scale(0.1 -0.1)">
       <use xlink:href="#DejaVuSans-35"/>
      </g>
     </g>
    </g>
    <g id="text_20">
     <!-- $a_1$ -->
     <g transform="translate(656.79125 418.316562) scale(0.1 -0.1)">
      <use xlink:href="#DejaVuSans-Oblique-61"/>
      <use xlink:href="#DejaVuSans-31" transform="translate(61.279297 -16.40625) scale(0.7)"/>
     </g>
    </g>
   </g>
   <g id="matplotlib.axis_4">
    <g id="ytick_6">
     <g id="line2d_22">
      <g>
       <use xlink:href="#mdcf94ae579" x="474.455" y="372.801818" style="stroke: #000000; stroke-width: 0.8"/>
      </g>
     </g>
     <g id="text_21">
      <!-- 0.0 -->
      <g transform="translate(451.551875 376.601037) scale(0.1 -0.1)">
       <use xlink:href="#DejaVuSans-30"/>
       <use xlink:href="#DejaVuSans-2e" x="63.623047"/>
       <use xlink:href="#DejaVuSans-30" x="95.410156"/>
      </g>
     </g>
    </g>
    <g id="ytick_7">
     <g id="line2d_23">
      <g>
       <use xlink:href="#mdcf94ae579" x="474.455" y="297.097751" style="stroke: #000000; stroke-width: 0.8"/>
      </g>
     </g>
     <g id="text_22">
      <!-- 0.2 -->
      <g transform="translate(451.551875 300.89697) scale(0.1 -0.1)">
       <use xlink:href="#DejaVuSans-30"/>
       <use xlink:href="#DejaVuSans-2e" x="63.623047"/>
       <use xlink:href="#DejaVuSans-32" x="95.410156"/>
      </g>
     </g>
    </g>
    <g id="ytick_8">
     <g id="line2d_24">
      <g>
       <use xlink:href="#mdcf94ae579" x="474.455" y="221.393685" style="stroke: #000000; stroke-width: 0.8"/>
      </g>
     </g>
     <g id="text_23">
      <!-- 0.4 -->
      <g transform="translate(451.551875 225.192903) scale(0.1 -0.1)">
       <use xlink:href="#DejaVuSans-30"/>
       <use xlink:href="#DejaVuSans-2e" x="63.623047"/>
       <use xlink:href="#DejaVuSans-34" x="95.410156"/>
      </g>
     </g>
    </g>
    <g id="ytick_9">
     <g id="line2d_25">
      <g>
       <use xlink:href="#mdcf94ae579" x="474.455" y="145.689618" style="stroke: #000000; stroke-width: 0.8"/>
      </g>
     </g>
     <g id="text_24">
      <!-- 0.6 -->
      <g transform="translate(451.551875 149.488837) scale(0.1 -0.1)">
       <use xlink:href="#DejaVuSans-30"/>
       <use xlink:href="#DejaVuSans-2e" x="63.623047"/>
       <use xlink:href="#DejaVuSans-36" x="95.410156"/>
      </g>
     </g>
    </g>
    <g id="ytick_10">
     <g id="line2d_26">
      <g>
       <use xlink:href="#mdcf94ae579" x="474.455" y="69.985551" style="stroke: #000000; stroke-width: 0.8"/>
      </g>
     </g>
     <g id="text_25">
      <!-- 0.8 -->
      <g transform="translate(451.551875 73.78477) scale(0.1 -0.1)">
       <use xlink:href="#DejaVuSans-30"/>
       <use xlink:href="#DejaVuSans-2e" x="63.623047"/>
       <use xlink:href="#DejaVuSans-38" x="95.410156"/>
      </g>
     </g>
    </g>
    <g id="text_26">
     <!-- $a_2$ -->
     <g transform="translate(445.472187 205.87) rotate(-90) scale(0.1 -0.1)">
      <use xlink:href="#DejaVuSans-Oblique-61"/>
      <use xlink:href="#DejaVuSans-32" transform="translate(61.279297 -16.40625) scale(0.7)"/>
     </g>
    </g>
   </g>
   <g id="line2d_27"/>
   <g id="line2d_28">
    <g clip-path="url(#p1f08aa7ee9)">
     <use xlink:href="#m53d6cbea43" x="835.547342" y="320.633547" style="fill: #2ca02c; stroke: #2ca02c"/>
     <use xlink:href="#m53d6cbea43" x="717.114623" y="116.531728" style="fill: #2ca02c; stroke: #2ca02c"/>
     <use xlink:href="#m53d6cbea43" x="648.056725" y="41.913142" style="fill: #2ca02c; stroke: #2ca02c"/>
     <use xlink:href="#m53d6cbea43" x="609.994409" y="30.478394" style="fill: #2ca02c; stroke: #2ca02c"/>
     <use xlink:href="#m53d6cbea43" x="581.434815" y="28.038182" style="fill: #2ca02c; stroke: #2ca02c"/>
     <use xlink:href="#m53d6cbea43" x="570.132327" y="63.037105" style="fill: #2ca02c; stroke: #2ca02c"/>
     <use xlink:href="#m53d6cbea43" x="567.674699" y="89.785009" style="fill: #2ca02c; stroke: #2ca02c"/>
     <use xlink:href="#m53d6cbea43" x="563.630202" y="197.511816" style="fill: #2ca02c; stroke: #2ca02c"/>
     <use xlink:href="#m53d6cbea43" x="561.979702" y="353.003998" style="fill: #2ca02c; stroke: #2ca02c"/>
     <use xlink:href="#m53d6cbea43" x="561.990298" y="358.69497" style="fill: #2ca02c; stroke: #2ca02c"/>
     <use xlink:href="#m53d6cbea43" x="562.572703" y="369.541537" style="fill: #2ca02c; stroke: #2ca02c"/>
     <use xlink:href="#m53d6cbea43" x="566.937157" y="372.629945" style="fill: #2ca02c; stroke: #2ca02c"/>
     <use xlink:href="#m53d6cbea43" x="569.969467" y="372.727117" style="fill: #2ca02c; stroke: #2ca02c"/>
     <use xlink:href="#m53d6cbea43" x="607.959062" y="372.797723" style="fill: #2ca02c; stroke: #2ca02c"/>
     <use xlink:href="#m53d6cbea43" x="620.417355" y="372.801223" style="fill: #2ca02c; stroke: #2ca02c"/>
     <use xlink:href="#m53d6cbea43" x="624.207649" y="372.801809" style="fill: #2ca02c; stroke: #2ca02c"/>
     <use xlink:href="#m53d6cbea43" x="627.155121" y="372.801818" style="fill: #2ca02c; stroke: #2ca02c"/>
     <use xlink:href="#m53d6cbea43" x="831.439024" y="372.801818" style="fill: #2ca02c; stroke: #2ca02c"/>
    </g>
   </g>
   <g id="line2d_29">
    <path d="M 489.754221 390.04 
L 489.754221 10.8 
" clip-path="url(#p1f08aa7ee9)" style="fill: none; stroke-dasharray: 5.55,2.4; stroke-dashoffset: 0; stroke: #008000; stroke-width: 1.5"/>
   </g>
   <g id="line2d_30">
    <path d="M 561.979702 390.04 
L 561.979702 10.8 
" clip-path="url(#p1f08aa7ee9)" style="fill: none; stroke-dasharray: 5.55,2.4; stroke-dashoffset: 0; stroke: #008000; stroke-width: 1.5"/>
   </g>
   <g id="patch_8">
    <path d="M 474.455 390.04 
L 474.455 10.8 
" style="fill: none; stroke: #000000; stroke-width: 0.8; stroke-linejoin: miter; stroke-linecap: square"/>
   </g>
   <g id="patch_9">
    <path d="M 850.0275 390.04 
L 850.0275 10.8 
" style="fill: none; stroke: #000000; stroke-width: 0.8; stroke-linejoin: miter; stroke-linecap: square"/>
   </g>
   <g id="patch_10">
    <path d="M 474.455 390.04 
L 850.0275 390.04 
" style="fill: none; stroke: #000000; stroke-width: 0.8; stroke-linejoin: miter; stroke-linecap: square"/>
   </g>
   <g id="patch_11">
    <path d="M 474.455 10.8 
L 850.0275 10.8 
" style="fill: none; stroke: #000000; stroke-width: 0.8; stroke-linejoin: miter; stroke-linecap: square"/>
   </g>
   <g id="patch_12">
    <path d="M 493.364613 252.362827 
Q 519.864463 252.362827 546.364312 252.362827 
L 546.364312 248.362827 
Q 552.364914 251.362827 558.365516 254.362827 
Q 552.364914 257.362827 546.364312 260.362827 
L 546.364312 256.362827 
Q 519.864463 256.362827 493.364613 256.362827 
L 493.364613 252.362827 
z
" style="stroke: #000000; stroke-linecap: round"/>
   </g>
   <g id="text_27">
    <!-- $\delta$ -->
    <g transform="translate(520.906961 232.10931) scale(0.16 -0.16)">
     <defs>
      <path id="DejaVuSans-Oblique-3b4" d="M 3472 4053 
Q 3197 4272 2450 4272 
Q 1659 4272 1588 3906 
Q 1531 3619 2328 3469 
Q 2953 3353 3253 3003 
Q 3616 2581 3447 1716 
Q 3284 888 2763 400 
Q 2238 -91 1488 -91 
Q 741 -91 406 400 
Q 72 888 241 1747 
Q 363 2384 891 2900 
Q 1097 3100 1353 3213 
Q 913 3459 1000 3900 
Q 1166 4750 2544 4750 
Q 3234 4750 3566 4531 
L 3472 4053 
z
M 1753 3056 
Q 1525 2966 1306 2738 
Q 969 2384 847 1747 
Q 722 1113 919 756 
Q 1119 397 1584 397 
Q 2044 397 2381 759 
Q 2722 1122 2838 1716 
Q 2956 2338 2731 2638 
Q 2491 2959 2103 2994 
Q 1906 3013 1753 3056 
z
" transform="scale(0.015625)"/>
     </defs>
     <use xlink:href="#DejaVuSans-Oblique-3b4" transform="translate(0 0.78125)"/>
    </g>
   </g>
  </g>
 </g>
 <defs>
  <clipPath id="p904a1f9961">
   <rect x="47.855" y="10.8" width="375.5725" height="379.24"/>
  </clipPath>
  <clipPath id="p1f08aa7ee9">
   <rect x="474.455" y="10.8" width="375.5725" height="379.24"/>
  </clipPath>
 </defs>
</svg>
