<?xml version="1.0" encoding="utf-8" standalone="no"?>
<!DOCTYPE svg PUBLIC "-//W3C//DTD SVG 1.1//EN"
  "http://www.w3.org/Graphics/SVG/1.1/DTD/svg11.dtd">
<svg xmlns:xlink="http://www.w3.org/1999/xlink" width="864pt" height="432pt" viewBox="0 0 864 432" xmlns="http://www.w3.org/2000/svg" version="1.1">
 <metadata>
  <rdf:RDF xmlns:dc="http://purl.org/dc/elements/1.1/" xmlns:cc="http://creativecommons.org/ns#" xmlns:rdf="http://www.w3.org/1999/02/22-rdf-syntax-ns#">
   <cc:Work>
    <dc:type rdf:resource="http://purl.org/dc/dcmitype/StillImage"/>
    <dc:date>2024-01-12T17:38:11.881992</dc:date>
    <dc:format>image/svg+xml</dc:format>
    <dc:creator>
     <cc:Agent>
      <dc:title>Matplotlib v3.8.1, https://matplotlib.org/</dc:title>
     </cc:Agent>
    </dc:creator>
   </cc:Work>
  </rdf:RDF>
 </metadata>
 <defs>
  <style type="text/css">*{stroke-linejoin: round; stroke-linecap: butt}</style>
 </defs>
 <g id="figure_1">
  <g id="patch_1">
   <path d="M 0 432 
L 864 432 
L 864 0 
L 0 0 
z
" style="fill: #ffffff"/>
  </g>
  <g id="axes_1">
   <g id="patch_2">
    <path d="M 56.378 389.752 
L 423.45 389.752 
L 423.45 10.8 
L 56.378 10.8 
z
" style="fill: #ffffff"/>
   </g>
   <g id="line2d_1">
    <path d="M 231.855273 60.561267 
L 380.286145 165.995976 
M 121.130117 28.025091 
L 231.855273 60.561267 
M 110.764303 31.930478 
L 121.130117 28.025091 
M 103.328705 36.100643 
L 110.764303 31.930478 
M 79.204807 58.872533 
L 103.328705 36.100643 
M 74.542312 74.19413 
L 103.328705 36.100643 
M 74.542312 74.19413 
L 79.204807 58.872533 
M 72.363874 107.333469 
L 121.130117 28.025091 
M 72.363874 107.333469 
L 110.764303 31.930478 
M 72.363874 107.333469 
L 103.328705 36.100643 
M 72.363874 107.333469 
L 74.542312 74.19413 
M 71.864832 133.707108 
L 121.130117 28.025091 
M 71.864832 133.707108 
L 72.363874 107.333469 
M 71.685972 151.135747 
L 121.130117 28.025091 
M 71.685972 151.135747 
L 71.864832 133.707108 
M 71.622365 166.712168 
L 231.855273 60.561267 
M 71.622365 166.712168 
L 121.130117 28.025091 
M 71.622365 166.712168 
L 71.685972 151.135747 
M 72.307694 192.175375 
L 231.855273 60.561267 
M 72.307694 192.175375 
L 71.622365 166.712168 
M 78.527098 290.718534 
L 72.307694 192.175375 
M 100.023077 333.677046 
L 72.307694 192.175375 
M 100.023077 333.677046 
L 78.527098 290.718534 
M 106.438444 343.710596 
L 100.023077 333.677046 
M 123.575374 369.735693 
L 106.438444 343.710596 
M 183.461334 372.526909 
L 231.855273 60.561267 
M 183.461334 372.526909 
L 72.307694 192.175375 
M 183.461334 372.526909 
L 100.023077 333.677046 
M 183.461334 372.526909 
L 106.438444 343.710596 
M 183.461334 372.526909 
L 123.575374 369.735693 
M 234.517266 348.075884 
L 231.855273 60.561267 
M 234.517266 348.075884 
L 183.461334 372.526909 
M 283.616542 305.040263 
L 231.855273 60.561267 
M 283.616542 305.040263 
L 234.517266 348.075884 
M 302.130247 284.977985 
L 380.286145 165.995976 
M 302.130247 284.977985 
L 231.855273 60.561267 
M 302.130247 284.977985 
L 283.616542 305.040263 
" clip-path="url(#pbaf623a8eb)" style="fill: none; stroke: #1f77b4; stroke-width: 1.5; stroke-linecap: square"/>
   </g>
   <g id="matplotlib.axis_1">
    <g id="xtick_1">
     <g id="line2d_2">
      <defs>
       <path id="md8f77e7783" d="M 0 0 
L 0 3.5 
" style="stroke: #000000; stroke-width: 0.8"/>
      </defs>
      <g>
       <use xlink:href="#md8f77e7783" x="70.496154" y="389.752" style="stroke: #000000; stroke-width: 0.8"/>
      </g>
     </g>
     <g id="text_1">
      <!-- 0 -->
      <g transform="translate(67.314904 404.350437) scale(0.1 -0.1)">
       <defs>
        <path id="DejaVuSans-30" d="M 2034 4250 
Q 1547 4250 1301 3770 
Q 1056 3291 1056 2328 
Q 1056 1369 1301 889 
Q 1547 409 2034 409 
Q 2525 409 2770 889 
Q 3016 1369 3016 2328 
Q 3016 3291 2770 3770 
Q 2525 4250 2034 4250 
z
M 2034 4750 
Q 2819 4750 3233 4129 
Q 3647 3509 3647 2328 
Q 3647 1150 3233 529 
Q 2819 -91 2034 -91 
Q 1250 -91 836 529 
Q 422 1150 422 2328 
Q 422 3509 836 4129 
Q 1250 4750 2034 4750 
z
" transform="scale(0.015625)"/>
       </defs>
       <use xlink:href="#DejaVuSans-30"/>
      </g>
     </g>
    </g>
    <g id="xtick_2">
     <g id="line2d_3">
      <g>
       <use xlink:href="#md8f77e7783" x="141.086923" y="389.752" style="stroke: #000000; stroke-width: 0.8"/>
      </g>
     </g>
     <g id="text_2">
      <!-- 1 -->
      <g transform="translate(137.905673 404.350437) scale(0.1 -0.1)">
       <defs>
        <path id="DejaVuSans-31" d="M 794 531 
L 1825 531 
L 1825 4091 
L 703 3866 
L 703 4441 
L 1819 4666 
L 2450 4666 
L 2450 531 
L 3481 531 
L 3481 0 
L 794 0 
L 794 531 
z
" transform="scale(0.015625)"/>
       </defs>
       <use xlink:href="#DejaVuSans-31"/>
      </g>
     </g>
    </g>
    <g id="xtick_3">
     <g id="line2d_4">
      <g>
       <use xlink:href="#md8f77e7783" x="211.677692" y="389.752" style="stroke: #000000; stroke-width: 0.8"/>
      </g>
     </g>
     <g id="text_3">
      <!-- 2 -->
      <g transform="translate(208.496442 404.350437) scale(0.1 -0.1)">
       <defs>
        <path id="DejaVuSans-32" d="M 1228 531 
L 3431 531 
L 3431 0 
L 469 0 
L 469 531 
Q 828 903 1448 1529 
Q 2069 2156 2228 2338 
Q 2531 2678 2651 2914 
Q 2772 3150 2772 3378 
Q 2772 3750 2511 3984 
Q 2250 4219 1831 4219 
Q 1534 4219 1204 4116 
Q 875 4013 500 3803 
L 500 4441 
Q 881 4594 1212 4672 
Q 1544 4750 1819 4750 
Q 2544 4750 2975 4387 
Q 3406 4025 3406 3419 
Q 3406 3131 3298 2873 
Q 3191 2616 2906 2266 
Q 2828 2175 2409 1742 
Q 1991 1309 1228 531 
z
" transform="scale(0.015625)"/>
       </defs>
       <use xlink:href="#DejaVuSans-32"/>
      </g>
     </g>
    </g>
    <g id="xtick_4">
     <g id="line2d_5">
      <g>
       <use xlink:href="#md8f77e7783" x="282.268462" y="389.752" style="stroke: #000000; stroke-width: 0.8"/>
      </g>
     </g>
     <g id="text_4">
      <!-- 3 -->
      <g transform="translate(279.087212 404.350437) scale(0.1 -0.1)">
       <defs>
        <path id="DejaVuSans-33" d="M 2597 2516 
Q 3050 2419 3304 2112 
Q 3559 1806 3559 1356 
Q 3559 666 3084 287 
Q 2609 -91 1734 -91 
Q 1441 -91 1130 -33 
Q 819 25 488 141 
L 488 750 
Q 750 597 1062 519 
Q 1375 441 1716 441 
Q 2309 441 2620 675 
Q 2931 909 2931 1356 
Q 2931 1769 2642 2001 
Q 2353 2234 1838 2234 
L 1294 2234 
L 1294 2753 
L 1863 2753 
Q 2328 2753 2575 2939 
Q 2822 3125 2822 3475 
Q 2822 3834 2567 4026 
Q 2313 4219 1838 4219 
Q 1578 4219 1281 4162 
Q 984 4106 628 3988 
L 628 4550 
Q 988 4650 1302 4700 
Q 1616 4750 1894 4750 
Q 2613 4750 3031 4423 
Q 3450 4097 3450 3541 
Q 3450 3153 3228 2886 
Q 3006 2619 2597 2516 
z
" transform="scale(0.015625)"/>
       </defs>
       <use xlink:href="#DejaVuSans-33"/>
      </g>
     </g>
    </g>
    <g id="xtick_5">
     <g id="line2d_6">
      <g>
       <use xlink:href="#md8f77e7783" x="352.859231" y="389.752" style="stroke: #000000; stroke-width: 0.8"/>
      </g>
     </g>
     <g id="text_5">
      <!-- 4 -->
      <g transform="translate(349.677981 404.350437) scale(0.1 -0.1)">
       <defs>
        <path id="DejaVuSans-34" d="M 2419 4116 
L 825 1625 
L 2419 1625 
L 2419 4116 
z
M 2253 4666 
L 3047 4666 
L 3047 1625 
L 3713 1625 
L 3713 1100 
L 3047 1100 
L 3047 0 
L 2419 0 
L 2419 1100 
L 313 1100 
L 313 1709 
L 2253 4666 
z
" transform="scale(0.015625)"/>
       </defs>
       <use xlink:href="#DejaVuSans-34"/>
      </g>
     </g>
    </g>
    <g id="xtick_6">
     <g id="line2d_7">
      <g>
       <use xlink:href="#md8f77e7783" x="423.45" y="389.752" style="stroke: #000000; stroke-width: 0.8"/>
      </g>
     </g>
     <g id="text_6">
      <!-- 5 -->
      <g transform="translate(420.26875 404.350437) scale(0.1 -0.1)">
       <defs>
        <path id="DejaVuSans-35" d="M 691 4666 
L 3169 4666 
L 3169 4134 
L 1269 4134 
L 1269 2991 
Q 1406 3038 1543 3061 
Q 1681 3084 1819 3084 
Q 2600 3084 3056 2656 
Q 3513 2228 3513 1497 
Q 3513 744 3044 326 
Q 2575 -91 1722 -91 
Q 1428 -91 1123 -41 
Q 819 9 494 109 
L 494 744 
Q 775 591 1075 516 
Q 1375 441 1709 441 
Q 2250 441 2565 725 
Q 2881 1009 2881 1497 
Q 2881 1984 2565 2268 
Q 2250 2553 1709 2553 
Q 1456 2553 1204 2497 
Q 953 2441 691 2322 
L 691 4666 
z
" transform="scale(0.015625)"/>
       </defs>
       <use xlink:href="#DejaVuSans-35"/>
      </g>
     </g>
    </g>
    <g id="text_7">
     <!-- $a_1$ -->
     <g transform="translate(234.464 418.028563) scale(0.1 -0.1)">
      <defs>
       <path id="DejaVuSans-Oblique-61" d="M 3438 1997 
L 3047 0 
L 2472 0 
L 2578 531 
Q 2325 219 2001 64 
Q 1678 -91 1281 -91 
Q 834 -91 548 182 
Q 263 456 263 884 
Q 263 1497 752 1853 
Q 1241 2209 2100 2209 
L 2900 2209 
L 2931 2363 
Q 2938 2388 2941 2417 
Q 2944 2447 2944 2509 
Q 2944 2788 2717 2942 
Q 2491 3097 2081 3097 
Q 1800 3097 1504 3025 
Q 1209 2953 897 2809 
L 997 3341 
Q 1322 3463 1633 3523 
Q 1944 3584 2234 3584 
Q 2853 3584 3176 3315 
Q 3500 3047 3500 2534 
Q 3500 2431 3484 2292 
Q 3469 2153 3438 1997 
z
M 2816 1759 
L 2241 1759 
Q 1534 1759 1195 1570 
Q 856 1381 856 984 
Q 856 709 1029 553 
Q 1203 397 1509 397 
Q 1978 397 2328 733 
Q 2678 1069 2791 1631 
L 2816 1759 
z
" transform="scale(0.015625)"/>
      </defs>
      <use xlink:href="#DejaVuSans-Oblique-61"/>
      <use xlink:href="#DejaVuSans-31" transform="translate(61.279297 -16.40625) scale(0.7)"/>
     </g>
    </g>
   </g>
   <g id="matplotlib.axis_2">
    <g id="ytick_1">
     <g id="line2d_8">
      <defs>
       <path id="m1c01967a59" d="M 0 0 
L -3.5 0 
" style="stroke: #000000; stroke-width: 0.8"/>
      </defs>
      <g>
       <use xlink:href="#m1c01967a59" x="56.378" y="378.837267" style="stroke: #000000; stroke-width: 0.8"/>
      </g>
     </g>
     <g id="text_8">
      <!-- −2.0 -->
      <g transform="translate(25.095187 382.636486) scale(0.1 -0.1)">
       <defs>
        <path id="DejaVuSans-2212" d="M 678 2272 
L 4684 2272 
L 4684 1741 
L 678 1741 
L 678 2272 
z
" transform="scale(0.015625)"/>
        <path id="DejaVuSans-2e" d="M 684 794 
L 1344 794 
L 1344 0 
L 684 0 
L 684 794 
z
" transform="scale(0.015625)"/>
       </defs>
       <use xlink:href="#DejaVuSans-2212"/>
       <use xlink:href="#DejaVuSans-32" x="83.789062"/>
       <use xlink:href="#DejaVuSans-2e" x="147.412109"/>
       <use xlink:href="#DejaVuSans-30" x="179.199219"/>
      </g>
     </g>
    </g>
    <g id="ytick_2">
     <g id="line2d_9">
      <g>
       <use xlink:href="#m1c01967a59" x="56.378" y="321.719423" style="stroke: #000000; stroke-width: 0.8"/>
      </g>
     </g>
     <g id="text_9">
      <!-- −1.5 -->
      <g transform="translate(25.095187 325.518642) scale(0.1 -0.1)">
       <use xlink:href="#DejaVuSans-2212"/>
       <use xlink:href="#DejaVuSans-31" x="83.789062"/>
       <use xlink:href="#DejaVuSans-2e" x="147.412109"/>
       <use xlink:href="#DejaVuSans-35" x="179.199219"/>
      </g>
     </g>
    </g>
    <g id="ytick_3">
     <g id="line2d_10">
      <g>
       <use xlink:href="#m1c01967a59" x="56.378" y="264.601579" style="stroke: #000000; stroke-width: 0.8"/>
      </g>
     </g>
     <g id="text_10">
      <!-- −1.0 -->
      <g transform="translate(25.095187 268.400798) scale(0.1 -0.1)">
       <use xlink:href="#DejaVuSans-2212"/>
       <use xlink:href="#DejaVuSans-31" x="83.789062"/>
       <use xlink:href="#DejaVuSans-2e" x="147.412109"/>
       <use xlink:href="#DejaVuSans-30" x="179.199219"/>
      </g>
     </g>
    </g>
    <g id="ytick_4">
     <g id="line2d_11">
      <g>
       <use xlink:href="#m1c01967a59" x="56.378" y="207.483735" style="stroke: #000000; stroke-width: 0.8"/>
      </g>
     </g>
     <g id="text_11">
      <!-- −0.5 -->
      <g transform="translate(25.095187 211.282954) scale(0.1 -0.1)">
       <use xlink:href="#DejaVuSans-2212"/>
       <use xlink:href="#DejaVuSans-30" x="83.789062"/>
       <use xlink:href="#DejaVuSans-2e" x="147.412109"/>
       <use xlink:href="#DejaVuSans-35" x="179.199219"/>
      </g>
     </g>
    </g>
    <g id="ytick_5">
     <g id="line2d_12">
      <g>
       <use xlink:href="#m1c01967a59" x="56.378" y="150.365891" style="stroke: #000000; stroke-width: 0.8"/>
      </g>
     </g>
     <g id="text_12">
      <!-- 0.0 -->
      <g transform="translate(33.474875 154.16511) scale(0.1 -0.1)">
       <use xlink:href="#DejaVuSans-30"/>
       <use xlink:href="#DejaVuSans-2e" x="63.623047"/>
       <use xlink:href="#DejaVuSans-30" x="95.410156"/>
      </g>
     </g>
    </g>
    <g id="ytick_6">
     <g id="line2d_13">
      <g>
       <use xlink:href="#m1c01967a59" x="56.378" y="93.248047" style="stroke: #000000; stroke-width: 0.8"/>
      </g>
     </g>
     <g id="text_13">
      <!-- 0.5 -->
      <g transform="translate(33.474875 97.047266) scale(0.1 -0.1)">
       <use xlink:href="#DejaVuSans-30"/>
       <use xlink:href="#DejaVuSans-2e" x="63.623047"/>
       <use xlink:href="#DejaVuSans-35" x="95.410156"/>
      </g>
     </g>
    </g>
    <g id="ytick_7">
     <g id="line2d_14">
      <g>
       <use xlink:href="#m1c01967a59" x="56.378" y="36.130203" style="stroke: #000000; stroke-width: 0.8"/>
      </g>
     </g>
     <g id="text_14">
      <!-- 1.0 -->
      <g transform="translate(33.474875 39.929422) scale(0.1 -0.1)">
       <use xlink:href="#DejaVuSans-31"/>
       <use xlink:href="#DejaVuSans-2e" x="63.623047"/>
       <use xlink:href="#DejaVuSans-30" x="95.410156"/>
      </g>
     </g>
    </g>
    <g id="text_15">
     <!-- $a_2$ -->
     <g transform="translate(19.0155 205.726) rotate(-90) scale(0.1 -0.1)">
      <use xlink:href="#DejaVuSans-Oblique-61"/>
      <use xlink:href="#DejaVuSans-32" transform="translate(61.279297 -16.40625) scale(0.7)"/>
     </g>
    </g>
   </g>
   <g id="line2d_15"/>
   <g id="line2d_16">
    <defs>
     <path id="m0d214fd1dd" d="M 0 3 
C 0.795609 3 1.55874 2.683901 2.12132 2.12132 
C 2.683901 1.55874 3 0.795609 3 0 
C 3 -0.795609 2.683901 -1.55874 2.12132 -2.12132 
C 1.55874 -2.683901 0.795609 -3 0 -3 
C -0.795609 -3 -1.55874 -2.683901 -2.12132 -2.12132 
C -2.683901 -1.55874 -3 -0.795609 -3 0 
C -3 0.795609 -2.683901 1.55874 -2.12132 2.12132 
C -1.55874 2.683901 -0.795609 3 0 3 
z
" style="stroke: #2ca02c"/>
    </defs>
    <g clip-path="url(#pbaf623a8eb)">
     <use xlink:href="#m0d214fd1dd" x="380.286145" y="165.995976" style="fill: #2ca02c; stroke: #2ca02c"/>
     <use xlink:href="#m0d214fd1dd" x="231.855273" y="60.561267" style="fill: #2ca02c; stroke: #2ca02c"/>
     <use xlink:href="#m0d214fd1dd" x="121.130117" y="28.025091" style="fill: #2ca02c; stroke: #2ca02c"/>
     <use xlink:href="#m0d214fd1dd" x="110.764303" y="31.930478" style="fill: #2ca02c; stroke: #2ca02c"/>
     <use xlink:href="#m0d214fd1dd" x="103.328705" y="36.100643" style="fill: #2ca02c; stroke: #2ca02c"/>
     <use xlink:href="#m0d214fd1dd" x="79.204807" y="58.872533" style="fill: #2ca02c; stroke: #2ca02c"/>
     <use xlink:href="#m0d214fd1dd" x="74.542312" y="74.19413" style="fill: #2ca02c; stroke: #2ca02c"/>
     <use xlink:href="#m0d214fd1dd" x="72.363874" y="107.333469" style="fill: #2ca02c; stroke: #2ca02c"/>
     <use xlink:href="#m0d214fd1dd" x="71.864832" y="133.707108" style="fill: #2ca02c; stroke: #2ca02c"/>
     <use xlink:href="#m0d214fd1dd" x="71.685972" y="151.135747" style="fill: #2ca02c; stroke: #2ca02c"/>
     <use xlink:href="#m0d214fd1dd" x="71.622365" y="166.712168" style="fill: #2ca02c; stroke: #2ca02c"/>
     <use xlink:href="#m0d214fd1dd" x="72.307694" y="192.175375" style="fill: #2ca02c; stroke: #2ca02c"/>
     <use xlink:href="#m0d214fd1dd" x="78.527098" y="290.718534" style="fill: #2ca02c; stroke: #2ca02c"/>
     <use xlink:href="#m0d214fd1dd" x="100.023077" y="333.677046" style="fill: #2ca02c; stroke: #2ca02c"/>
     <use xlink:href="#m0d214fd1dd" x="106.438444" y="343.710596" style="fill: #2ca02c; stroke: #2ca02c"/>
     <use xlink:href="#m0d214fd1dd" x="123.575374" y="369.735693" style="fill: #2ca02c; stroke: #2ca02c"/>
     <use xlink:href="#m0d214fd1dd" x="183.461334" y="372.526909" style="fill: #2ca02c; stroke: #2ca02c"/>
     <use xlink:href="#m0d214fd1dd" x="234.517266" y="348.075884" style="fill: #2ca02c; stroke: #2ca02c"/>
     <use xlink:href="#m0d214fd1dd" x="283.616542" y="305.040263" style="fill: #2ca02c; stroke: #2ca02c"/>
     <use xlink:href="#m0d214fd1dd" x="302.130247" y="284.977985" style="fill: #2ca02c; stroke: #2ca02c"/>
    </g>
   </g>
   <g id="patch_3">
    <path d="M 56.378 389.752 
L 56.378 10.8 
" style="fill: none; stroke: #000000; stroke-width: 0.8; stroke-linejoin: miter; stroke-linecap: square"/>
   </g>
   <g id="patch_4">
    <path d="M 423.45 389.752 
L 423.45 10.8 
" style="fill: none; stroke: #000000; stroke-width: 0.8; stroke-linejoin: miter; stroke-linecap: square"/>
   </g>
   <g id="patch_5">
    <path d="M 56.378 389.752 
L 423.45 389.752 
" style="fill: none; stroke: #000000; stroke-width: 0.8; stroke-linejoin: miter; stroke-linecap: square"/>
   </g>
   <g id="patch_6">
    <path d="M 56.378 10.8 
L 423.45 10.8 
" style="fill: none; stroke: #000000; stroke-width: 0.8; stroke-linejoin: miter; stroke-linecap: square"/>
   </g>
  </g>
  <g id="axes_2">
   <g id="patch_7">
    <path d="M 482.978 389.752 
L 850.05 389.752 
L 850.05 10.8 
L 482.978 10.8 
z
" style="fill: #ffffff"/>
   </g>
   <g id="line2d_17">
    <path d="M 729.046042 60.561267 
L 865 157.133266 
M 618.320886 28.025091 
L 729.046042 60.561267 
M 607.955072 31.930478 
L 618.320886 28.025091 
M 600.519474 36.100643 
L 607.955072 31.930478 
M 576.395576 58.872533 
L 600.519474 36.100643 
M 571.733081 74.19413 
L 600.519474 36.100643 
M 571.733081 74.19413 
L 576.395576 58.872533 
M 569.554643 107.333469 
L 618.320886 28.025091 
M 569.554643 107.333469 
L 607.955072 31.930478 
M 569.554643 107.333469 
L 600.519474 36.100643 
M 569.554643 107.333469 
L 571.733081 74.19413 
M 569.055601 133.707108 
L 618.320886 28.025091 
M 569.055601 133.707108 
L 569.554643 107.333469 
M 568.876741 151.135747 
L 618.320886 28.025091 
M 568.876741 151.135747 
L 569.055601 133.707108 
M 568.813134 166.712168 
L 729.046042 60.561267 
M 568.813134 166.712168 
L 618.320886 28.025091 
M 568.813134 166.712168 
L 568.876741 151.135747 
M 569.498464 192.175375 
L 729.046042 60.561267 
M 569.498464 192.175375 
L 568.813134 166.712168 
M 575.717867 290.718534 
L 569.498464 192.175375 
M 597.213846 333.677046 
L 569.498464 192.175375 
M 597.213846 333.677046 
L 575.717867 290.718534 
M 603.629213 343.710596 
L 597.213846 333.677046 
M 620.766143 369.735693 
L 603.629213 343.710596 
M 680.652103 372.526909 
L 729.046042 60.561267 
M 680.652103 372.526909 
L 569.498464 192.175375 
M 680.652103 372.526909 
L 597.213846 333.677046 
M 680.652103 372.526909 
L 603.629213 343.710596 
M 680.652103 372.526909 
L 620.766143 369.735693 
M 731.708035 348.075884 
L 729.046042 60.561267 
M 731.708035 348.075884 
L 680.652103 372.526909 
M 780.807311 305.040263 
L 729.046042 60.561267 
M 780.807311 305.040263 
L 731.708035 348.075884 
M 799.321016 284.977985 
L 865 184.990426 
M 799.321016 284.977985 
L 729.046042 60.561267 
M 799.321016 284.977985 
L 780.807311 305.040263 
" clip-path="url(#pae15562a4c)" style="fill: none; stroke: #1f77b4; stroke-width: 1.5; stroke-linecap: square"/>
   </g>
   <g id="matplotlib.axis_3">
    <g id="xtick_7">
     <g id="line2d_18">
      <g>
       <use xlink:href="#md8f77e7783" x="497.096154" y="389.752" style="stroke: #000000; stroke-width: 0.8"/>
      </g>
     </g>
     <g id="text_16">
      <!-- 0 -->
      <g transform="translate(493.914904 404.350437) scale(0.1 -0.1)">
       <use xlink:href="#DejaVuSans-30"/>
      </g>
     </g>
    </g>
    <g id="xtick_8">
     <g id="line2d_19">
      <g>
       <use xlink:href="#md8f77e7783" x="567.686923" y="389.752" style="stroke: #000000; stroke-width: 0.8"/>
      </g>
     </g>
     <g id="text_17">
      <!-- 1 -->
      <g transform="translate(564.505673 404.350437) scale(0.1 -0.1)">
       <use xlink:href="#DejaVuSans-31"/>
      </g>
     </g>
    </g>
    <g id="xtick_9">
     <g id="line2d_20">
      <g>
       <use xlink:href="#md8f77e7783" x="638.277692" y="389.752" style="stroke: #000000; stroke-width: 0.8"/>
      </g>
     </g>
     <g id="text_18">
      <!-- 2 -->
      <g transform="translate(635.096442 404.350437) scale(0.1 -0.1)">
       <use xlink:href="#DejaVuSans-32"/>
      </g>
     </g>
    </g>
    <g id="xtick_10">
     <g id="line2d_21">
      <g>
       <use xlink:href="#md8f77e7783" x="708.868462" y="389.752" style="stroke: #000000; stroke-width: 0.8"/>
      </g>
     </g>
     <g id="text_19">
      <!-- 3 -->
      <g transform="translate(705.687212 404.350437) scale(0.1 -0.1)">
       <use xlink:href="#DejaVuSans-33"/>
      </g>
     </g>
    </g>
    <g id="xtick_11">
     <g id="line2d_22">
      <g>
       <use xlink:href="#md8f77e7783" x="779.459231" y="389.752" style="stroke: #000000; stroke-width: 0.8"/>
      </g>
     </g>
     <g id="text_20">
      <!-- 4 -->
      <g transform="translate(776.277981 404.350437) scale(0.1 -0.1)">
       <use xlink:href="#DejaVuSans-34"/>
      </g>
     </g>
    </g>
    <g id="xtick_12">
     <g id="line2d_23">
      <g>
       <use xlink:href="#md8f77e7783" x="850.05" y="389.752" style="stroke: #000000; stroke-width: 0.8"/>
      </g>
     </g>
     <g id="text_21">
      <!-- 5 -->
      <g transform="translate(846.86875 404.350437) scale(0.1 -0.1)">
       <use xlink:href="#DejaVuSans-35"/>
      </g>
     </g>
    </g>
    <g id="text_22">
     <!-- $a_1$ -->
     <g transform="translate(661.064 418.028563) scale(0.1 -0.1)">
      <use xlink:href="#DejaVuSans-Oblique-61"/>
      <use xlink:href="#DejaVuSans-31" transform="translate(61.279297 -16.40625) scale(0.7)"/>
     </g>
    </g>
   </g>
   <g id="matplotlib.axis_4">
    <g id="ytick_8">
     <g id="line2d_24">
      <g>
       <use xlink:href="#m1c01967a59" x="482.978" y="378.837267" style="stroke: #000000; stroke-width: 0.8"/>
      </g>
     </g>
     <g id="text_23">
      <!-- −2.0 -->
      <g transform="translate(451.695187 382.636486) scale(0.1 -0.1)">
       <use xlink:href="#DejaVuSans-2212"/>
       <use xlink:href="#DejaVuSans-32" x="83.789062"/>
       <use xlink:href="#DejaVuSans-2e" x="147.412109"/>
       <use xlink:href="#DejaVuSans-30" x="179.199219"/>
      </g>
     </g>
    </g>
    <g id="ytick_9">
     <g id="line2d_25">
      <g>
       <use xlink:href="#m1c01967a59" x="482.978" y="321.719423" style="stroke: #000000; stroke-width: 0.8"/>
      </g>
     </g>
     <g id="text_24">
      <!-- −1.5 -->
      <g transform="translate(451.695187 325.518642) scale(0.1 -0.1)">
       <use xlink:href="#DejaVuSans-2212"/>
       <use xlink:href="#DejaVuSans-31" x="83.789062"/>
       <use xlink:href="#DejaVuSans-2e" x="147.412109"/>
       <use xlink:href="#DejaVuSans-35" x="179.199219"/>
      </g>
     </g>
    </g>
    <g id="ytick_10">
     <g id="line2d_26">
      <g>
       <use xlink:href="#m1c01967a59" x="482.978" y="264.601579" style="stroke: #000000; stroke-width: 0.8"/>
      </g>
     </g>
     <g id="text_25">
      <!-- −1.0 -->
      <g transform="translate(451.695187 268.400798) scale(0.1 -0.1)">
       <use xlink:href="#DejaVuSans-2212"/>
       <use xlink:href="#DejaVuSans-31" x="83.789062"/>
       <use xlink:href="#DejaVuSans-2e" x="147.412109"/>
       <use xlink:href="#DejaVuSans-30" x="179.199219"/>
      </g>
     </g>
    </g>
    <g id="ytick_11">
     <g id="line2d_27">
      <g>
       <use xlink:href="#m1c01967a59" x="482.978" y="207.483735" style="stroke: #000000; stroke-width: 0.8"/>
      </g>
     </g>
     <g id="text_26">
      <!-- −0.5 -->
      <g transform="translate(451.695187 211.282954) scale(0.1 -0.1)">
       <use xlink:href="#DejaVuSans-2212"/>
       <use xlink:href="#DejaVuSans-30" x="83.789062"/>
       <use xlink:href="#DejaVuSans-2e" x="147.412109"/>
       <use xlink:href="#DejaVuSans-35" x="179.199219"/>
      </g>
     </g>
    </g>
    <g id="ytick_12">
     <g id="line2d_28">
      <g>
       <use xlink:href="#m1c01967a59" x="482.978" y="150.365891" style="stroke: #000000; stroke-width: 0.8"/>
      </g>
     </g>
     <g id="text_27">
      <!-- 0.0 -->
      <g transform="translate(460.074875 154.16511) scale(0.1 -0.1)">
       <use xlink:href="#DejaVuSans-30"/>
       <use xlink:href="#DejaVuSans-2e" x="63.623047"/>
       <use xlink:href="#DejaVuSans-30" x="95.410156"/>
      </g>
     </g>
    </g>
    <g id="ytick_13">
     <g id="line2d_29">
      <g>
       <use xlink:href="#m1c01967a59" x="482.978" y="93.248047" style="stroke: #000000; stroke-width: 0.8"/>
      </g>
     </g>
     <g id="text_28">
      <!-- 0.5 -->
      <g transform="translate(460.074875 97.047266) scale(0.1 -0.1)">
       <use xlink:href="#DejaVuSans-30"/>
       <use xlink:href="#DejaVuSans-2e" x="63.623047"/>
       <use xlink:href="#DejaVuSans-35" x="95.410156"/>
      </g>
     </g>
    </g>
    <g id="ytick_14">
     <g id="line2d_30">
      <g>
       <use xlink:href="#m1c01967a59" x="482.978" y="36.130203" style="stroke: #000000; stroke-width: 0.8"/>
      </g>
     </g>
     <g id="text_29">
      <!-- 1.0 -->
      <g transform="translate(460.074875 39.929422) scale(0.1 -0.1)">
       <use xlink:href="#DejaVuSans-31"/>
       <use xlink:href="#DejaVuSans-2e" x="63.623047"/>
       <use xlink:href="#DejaVuSans-30" x="95.410156"/>
      </g>
     </g>
    </g>
    <g id="text_30">
     <!-- $a_2$ -->
     <g transform="translate(445.6155 205.726) rotate(-90) scale(0.1 -0.1)">
      <use xlink:href="#DejaVuSans-Oblique-61"/>
      <use xlink:href="#DejaVuSans-32" transform="translate(61.279297 -16.40625) scale(0.7)"/>
     </g>
    </g>
   </g>
   <g id="line2d_31"/>
   <g id="line2d_32">
    <g clip-path="url(#pae15562a4c)">
     <use xlink:href="#m0d214fd1dd" x="877.476914" y="165.995976" style="fill: #2ca02c; stroke: #2ca02c"/>
     <use xlink:href="#m0d214fd1dd" x="729.046042" y="60.561267" style="fill: #2ca02c; stroke: #2ca02c"/>
     <use xlink:href="#m0d214fd1dd" x="618.320886" y="28.025091" style="fill: #2ca02c; stroke: #2ca02c"/>
     <use xlink:href="#m0d214fd1dd" x="607.955072" y="31.930478" style="fill: #2ca02c; stroke: #2ca02c"/>
     <use xlink:href="#m0d214fd1dd" x="600.519474" y="36.100643" style="fill: #2ca02c; stroke: #2ca02c"/>
     <use xlink:href="#m0d214fd1dd" x="576.395576" y="58.872533" style="fill: #2ca02c; stroke: #2ca02c"/>
     <use xlink:href="#m0d214fd1dd" x="571.733081" y="74.19413" style="fill: #2ca02c; stroke: #2ca02c"/>
     <use xlink:href="#m0d214fd1dd" x="569.554643" y="107.333469" style="fill: #2ca02c; stroke: #2ca02c"/>
     <use xlink:href="#m0d214fd1dd" x="569.055601" y="133.707108" style="fill: #2ca02c; stroke: #2ca02c"/>
     <use xlink:href="#m0d214fd1dd" x="568.876741" y="151.135747" style="fill: #2ca02c; stroke: #2ca02c"/>
     <use xlink:href="#m0d214fd1dd" x="568.813134" y="166.712168" style="fill: #2ca02c; stroke: #2ca02c"/>
     <use xlink:href="#m0d214fd1dd" x="569.498464" y="192.175375" style="fill: #2ca02c; stroke: #2ca02c"/>
     <use xlink:href="#m0d214fd1dd" x="575.717867" y="290.718534" style="fill: #2ca02c; stroke: #2ca02c"/>
     <use xlink:href="#m0d214fd1dd" x="597.213846" y="333.677046" style="fill: #2ca02c; stroke: #2ca02c"/>
     <use xlink:href="#m0d214fd1dd" x="603.629213" y="343.710596" style="fill: #2ca02c; stroke: #2ca02c"/>
     <use xlink:href="#m0d214fd1dd" x="620.766143" y="369.735693" style="fill: #2ca02c; stroke: #2ca02c"/>
     <use xlink:href="#m0d214fd1dd" x="680.652103" y="372.526909" style="fill: #2ca02c; stroke: #2ca02c"/>
     <use xlink:href="#m0d214fd1dd" x="731.708035" y="348.075884" style="fill: #2ca02c; stroke: #2ca02c"/>
     <use xlink:href="#m0d214fd1dd" x="780.807311" y="305.040263" style="fill: #2ca02c; stroke: #2ca02c"/>
     <use xlink:href="#m0d214fd1dd" x="799.321016" y="284.977985" style="fill: #2ca02c; stroke: #2ca02c"/>
    </g>
   </g>
   <g id="line2d_33">
    <path d="M 498.222365 389.752 
L 498.222365 10.8 
" clip-path="url(#pae15562a4c)" style="fill: none; stroke-dasharray: 5.55,2.4; stroke-dashoffset: 0; stroke: #008000; stroke-width: 1.5"/>
   </g>
   <g id="line2d_34">
    <path d="M 568.813134 389.752 
L 568.813134 10.8 
" clip-path="url(#pae15562a4c)" style="fill: none; stroke-dasharray: 5.55,2.4; stroke-dashoffset: 0; stroke: #008000; stroke-width: 1.5"/>
   </g>
   <g id="patch_8">
    <path d="M 482.978 389.752 
L 482.978 10.8 
" style="fill: none; stroke: #000000; stroke-width: 0.8; stroke-linejoin: miter; stroke-linecap: square"/>
   </g>
   <g id="patch_9">
    <path d="M 850.05 389.752 
L 850.05 10.8 
" style="fill: none; stroke: #000000; stroke-width: 0.8; stroke-linejoin: miter; stroke-linecap: square"/>
   </g>
   <g id="patch_10">
    <path d="M 482.978 389.752 
L 850.05 389.752 
" style="fill: none; stroke: #000000; stroke-width: 0.8; stroke-linejoin: miter; stroke-linecap: square"/>
   </g>
   <g id="patch_11">
    <path d="M 482.978 10.8 
L 850.05 10.8 
" style="fill: none; stroke: #000000; stroke-width: 0.8; stroke-linejoin: miter; stroke-linecap: square"/>
   </g>
   <g id="patch_12">
    <path d="M 501.751041 190.760345 
Q 527.515394 190.760345 553.279746 190.760345 
L 553.279746 186.760345 
Q 559.280248 189.760345 565.280749 192.760345 
Q 559.280248 195.760345 553.279746 198.760345 
L 553.279746 194.760345 
Q 527.515394 194.760345 501.751041 194.760345 
L 501.751041 190.760345 
z
" style="stroke: #000000; stroke-linecap: round"/>
   </g>
   <g id="text_31">
    <!-- $\delta$ -->
    <g transform="translate(528.557749 183.72106) scale(0.16 -0.16)">
     <defs>
      <path id="DejaVuSans-Oblique-3b4" d="M 3472 4053 
Q 3197 4272 2450 4272 
Q 1659 4272 1588 3906 
Q 1531 3619 2328 3469 
Q 2953 3353 3253 3003 
Q 3616 2581 3447 1716 
Q 3284 888 2763 400 
Q 2238 -91 1488 -91 
Q 741 -91 406 400 
Q 72 888 241 1747 
Q 363 2384 891 2900 
Q 1097 3100 1353 3213 
Q 913 3459 1000 3900 
Q 1166 4750 2544 4750 
Q 3234 4750 3566 4531 
L 3472 4053 
z
M 1753 3056 
Q 1525 2966 1306 2738 
Q 969 2384 847 1747 
Q 722 1113 919 756 
Q 1119 397 1584 397 
Q 2044 397 2381 759 
Q 2722 1122 2838 1716 
Q 2956 2338 2731 2638 
Q 2491 2959 2103 2994 
Q 1906 3013 1753 3056 
z
" transform="scale(0.015625)"/>
     </defs>
     <use xlink:href="#DejaVuSans-Oblique-3b4" transform="translate(0 0.78125)"/>
    </g>
   </g>
  </g>
 </g>
 <defs>
  <clipPath id="pbaf623a8eb">
   <rect x="56.378" y="10.8" width="367.072" height="378.952"/>
  </clipPath>
  <clipPath id="pae15562a4c">
   <rect x="482.978" y="10.8" width="367.072" height="378.952"/>
  </clipPath>
 </defs>
</svg>
