<?xml version="1.0" encoding="utf-8" standalone="no"?>
<!DOCTYPE svg PUBLIC "-//W3C//DTD SVG 1.1//EN"
  "http://www.w3.org/Graphics/SVG/1.1/DTD/svg11.dtd">
<svg xmlns:xlink="http://www.w3.org/1999/xlink" width="460.8pt" height="345.6pt" viewBox="0 0 460.8 345.6" xmlns="http://www.w3.org/2000/svg" version="1.1">
 <metadata>
  <rdf:RDF xmlns:dc="http://purl.org/dc/elements/1.1/" xmlns:cc="http://creativecommons.org/ns#" xmlns:rdf="http://www.w3.org/1999/02/22-rdf-syntax-ns#">
   <cc:Work>
    <dc:type rdf:resource="http://purl.org/dc/dcmitype/StillImage"/>
    <dc:date>2023-11-01T01:38:58.298145</dc:date>
    <dc:format>image/svg+xml</dc:format>
    <dc:creator>
     <cc:Agent>
      <dc:title>Matplotlib v3.8.0, https://matplotlib.org/</dc:title>
     </cc:Agent>
    </dc:creator>
   </cc:Work>
  </rdf:RDF>
 </metadata>
 <defs>
  <style type="text/css">*{stroke-linejoin: round; stroke-linecap: butt}</style>
 </defs>
 <g id="figure_1">
  <g id="patch_1">
   <path d="M 0 345.6 
L 460.8 345.6 
L 460.8 0 
L 0 0 
z
" style="fill: #ffffff"/>
  </g>
  <g id="patch_2">
   <path d="M 103.104 307.584 
L 369.216 307.584 
L 369.216 41.472 
L 103.104 41.472 
z
" style="fill: #ffffff"/>
  </g>
  <g id="pane3d_1">
   <g id="patch_3">
    <path d="M 211.076164 168.307495 
L 123.197291 241.969309 
L 117.770234 129.272941 
L 209.854564 62.073991 
" style="fill: #f2f2f2; opacity: 0.5; stroke: #f2f2f2; stroke-linejoin: miter"/>
   </g>
  </g>
  <g id="pane3d_2">
   <g id="patch_4">
    <path d="M 211.076164 168.307495 
L 352.090401 209.294766 
L 357.122702 99.402171 
L 209.854564 62.073991 
" style="fill: #e6e6e6; opacity: 0.5; stroke: #e6e6e6; stroke-linejoin: miter"/>
   </g>
  </g>
  <g id="pane3d_3">
   <g id="patch_5">
    <path d="M 211.076164 168.307495 
L 352.090401 209.294766 
L 272.679269 290.790123 
L 123.197291 241.969309 
" style="fill: #ececec; opacity: 0.5; stroke: #ececec; stroke-linejoin: miter"/>
   </g>
  </g>
  <g id="grid3d_1">
   <g id="Line3DCollection_1">
    <path d="M 144.643342 248.973589 
L 231.383983 174.210176 
L 231.024727 67.44001 
" style="fill: none; stroke: #b0b0b0; stroke-width: 0.8"/>
    <path d="M 163.899216 255.262557 
L 249.595924 179.503668 
L 250.020956 72.255001 
" style="fill: none; stroke: #b0b0b0; stroke-width: 0.8"/>
    <path d="M 183.423532 261.639199 
L 268.040594 184.864806 
L 269.270494 77.134197 
" style="fill: none; stroke: #b0b0b0; stroke-width: 0.8"/>
    <path d="M 203.221943 268.10536 
L 286.722484 190.294894 
L 288.778439 82.078893 
" style="fill: none; stroke: #b0b0b0; stroke-width: 0.8"/>
    <path d="M 223.300263 274.662939 
L 305.646199 195.79527 
L 308.550031 87.090415 
" style="fill: none; stroke: #b0b0b0; stroke-width: 0.8"/>
    <path d="M 243.664468 281.313889 
L 324.816466 201.36731 
L 328.590651 92.170128 
" style="fill: none; stroke: #b0b0b0; stroke-width: 0.8"/>
    <path d="M 264.32071 288.060217 
L 344.238133 207.012422 
L 348.905827 97.319433 
" style="fill: none; stroke: #b0b0b0; stroke-width: 0.8"/>
   </g>
  </g>
  <g id="grid3d_2">
   <g id="Line3DCollection_2">
    <path d="M 208.039063 63.398861 
L 209.337116 169.7652 
L 350.525708 210.900526 
" style="fill: none; stroke: #b0b0b0; stroke-width: 0.8"/>
    <path d="M 196.683189 71.68586 
L 198.465363 178.878118 
L 340.737763 220.945366 
" style="fill: none; stroke: #b0b0b0; stroke-width: 0.8"/>
    <path d="M 185.063958 80.165046 
L 187.352029 188.193536 
L 330.721279 231.224742 
" style="fill: none; stroke: #b0b0b0; stroke-width: 0.8"/>
    <path d="M 173.172101 88.843181 
L 175.98897 197.718277 
L 320.468158 241.746967 
" style="fill: none; stroke: #b0b0b0; stroke-width: 0.8"/>
    <path d="M 160.997909 97.727352 
L 164.367674 207.459478 
L 309.969913 252.520748 
" style="fill: none; stroke: #b0b0b0; stroke-width: 0.8"/>
    <path d="M 148.531207 106.824984 
L 152.479236 217.424602 
L 299.217649 263.555216 
" style="fill: none; stroke: #b0b0b0; stroke-width: 0.8"/>
    <path d="M 135.761324 116.143863 
L 140.314338 227.621461 
L 288.202032 274.859949 
" style="fill: none; stroke: #b0b0b0; stroke-width: 0.8"/>
    <path d="M 122.677064 125.69216 
L 127.863223 238.058232 
L 276.913267 286.444999 
" style="fill: none; stroke: #b0b0b0; stroke-width: 0.8"/>
   </g>
  </g>
  <g id="grid3d_3">
   <g id="Line3DCollection_3">
    <path d="M 352.546166 199.342016 
L 210.965314 158.667653 
L 122.706527 231.778267 
" style="fill: none; stroke: #b0b0b0; stroke-width: 0.8"/>
    <path d="M 353.194653 185.180715 
L 210.807663 144.957933 
L 122.007983 217.272549 
" style="fill: none; stroke: #b0b0b0; stroke-width: 0.8"/>
    <path d="M 353.85064 170.855631 
L 210.648276 131.097245 
L 121.301051 202.592654 
" style="fill: none; stroke: #b0b0b0; stroke-width: 0.8"/>
    <path d="M 354.514258 156.363907 
L 210.487125 117.083081 
L 120.58558 187.735424 
" style="fill: none; stroke: #b0b0b0; stroke-width: 0.8"/>
    <path d="M 355.185641 141.702618 
L 210.324179 102.912877 
L 119.861413 172.697628 
" style="fill: none; stroke: #b0b0b0; stroke-width: 0.8"/>
    <path d="M 355.864926 126.86877 
L 210.159408 88.584014 
L 119.128391 157.475954 
" style="fill: none; stroke: #b0b0b0; stroke-width: 0.8"/>
    <path d="M 356.552254 111.859298 
L 209.992782 74.093812 
L 118.38635 142.067007 
" style="fill: none; stroke: #b0b0b0; stroke-width: 0.8"/>
   </g>
  </g>
  <g id="axis3d_1">
   <g id="line2d_1">
    <path d="M 123.197291 241.969309 
L 272.679269 290.790123 
" style="fill: none; stroke: #000000; stroke-width: 0.8; stroke-linecap: square"/>
   </g>
   <g id="xtick_1">
    <g id="line2d_2">
     <path d="M 145.398949 248.322317 
L 143.128871 250.278941 
" style="fill: none; stroke: #000000; stroke-width: 0.8; stroke-linecap: square"/>
    </g>
    <g id="text_1">
     <!-- −8 -->
     <g transform="translate(129.755655 272.368417) scale(0.1 -0.1)">
      <defs>
       <path id="DejaVuSans-2212" d="M 678 2272 
L 4684 2272 
L 4684 1741 
L 678 1741 
L 678 2272 
z
" transform="scale(0.015625)"/>
       <path id="DejaVuSans-38" d="M 2034 2216 
Q 1584 2216 1326 1975 
Q 1069 1734 1069 1313 
Q 1069 891 1326 650 
Q 1584 409 2034 409 
Q 2484 409 2743 651 
Q 3003 894 3003 1313 
Q 3003 1734 2745 1975 
Q 2488 2216 2034 2216 
z
M 1403 2484 
Q 997 2584 770 2862 
Q 544 3141 544 3541 
Q 544 4100 942 4425 
Q 1341 4750 2034 4750 
Q 2731 4750 3128 4425 
Q 3525 4100 3525 3541 
Q 3525 3141 3298 2862 
Q 3072 2584 2669 2484 
Q 3125 2378 3379 2068 
Q 3634 1759 3634 1313 
Q 3634 634 3220 271 
Q 2806 -91 2034 -91 
Q 1263 -91 848 271 
Q 434 634 434 1313 
Q 434 1759 690 2068 
Q 947 2378 1403 2484 
z
M 1172 3481 
Q 1172 3119 1398 2916 
Q 1625 2713 2034 2713 
Q 2441 2713 2670 2916 
Q 2900 3119 2900 3481 
Q 2900 3844 2670 4047 
Q 2441 4250 2034 4250 
Q 1625 4250 1398 4047 
Q 1172 3844 1172 3481 
z
" transform="scale(0.015625)"/>
      </defs>
      <use xlink:href="#DejaVuSans-2212"/>
      <use xlink:href="#DejaVuSans-38" x="83.789062"/>
     </g>
    </g>
   </g>
   <g id="xtick_2">
    <g id="line2d_3">
     <path d="M 164.64615 254.602241 
L 162.402104 256.586057 
" style="fill: none; stroke: #000000; stroke-width: 0.8; stroke-linecap: square"/>
    </g>
    <g id="text_2">
     <!-- −6 -->
     <g transform="translate(149.031702 278.790788) scale(0.1 -0.1)">
      <defs>
       <path id="DejaVuSans-36" d="M 2113 2584 
Q 1688 2584 1439 2293 
Q 1191 2003 1191 1497 
Q 1191 994 1439 701 
Q 1688 409 2113 409 
Q 2538 409 2786 701 
Q 3034 994 3034 1497 
Q 3034 2003 2786 2293 
Q 2538 2584 2113 2584 
z
M 3366 4563 
L 3366 3988 
Q 3128 4100 2886 4159 
Q 2644 4219 2406 4219 
Q 1781 4219 1451 3797 
Q 1122 3375 1075 2522 
Q 1259 2794 1537 2939 
Q 1816 3084 2150 3084 
Q 2853 3084 3261 2657 
Q 3669 2231 3669 1497 
Q 3669 778 3244 343 
Q 2819 -91 2113 -91 
Q 1303 -91 875 529 
Q 447 1150 447 2328 
Q 447 3434 972 4092 
Q 1497 4750 2381 4750 
Q 2619 4750 2861 4703 
Q 3103 4656 3366 4563 
z
" transform="scale(0.015625)"/>
      </defs>
      <use xlink:href="#DejaVuSans-2212"/>
      <use xlink:href="#DejaVuSans-36" x="83.789062"/>
     </g>
    </g>
   </g>
   <g id="xtick_3">
    <g id="line2d_4">
     <path d="M 184.161478 260.969648 
L 181.944413 262.981227 
" style="fill: none; stroke: #000000; stroke-width: 0.8; stroke-linecap: square"/>
    </g>
    <g id="text_3">
     <!-- −4 -->
     <g transform="translate(168.57749 285.30303) scale(0.1 -0.1)">
      <defs>
       <path id="DejaVuSans-34" d="M 2419 4116 
L 825 1625 
L 2419 1625 
L 2419 4116 
z
M 2253 4666 
L 3047 4666 
L 3047 1625 
L 3713 1625 
L 3713 1100 
L 3047 1100 
L 3047 0 
L 2419 0 
L 2419 1100 
L 313 1100 
L 313 1709 
L 2253 4666 
z
" transform="scale(0.015625)"/>
      </defs>
      <use xlink:href="#DejaVuSans-2212"/>
      <use xlink:href="#DejaVuSans-34" x="83.789062"/>
     </g>
    </g>
   </g>
   <g id="xtick_4">
    <g id="line2d_5">
     <path d="M 203.950575 267.42638 
L 201.761473 269.466308 
" style="fill: none; stroke: #000000; stroke-width: 0.8; stroke-linecap: square"/>
    </g>
    <g id="text_4">
     <!-- −2 -->
     <g transform="translate(188.398722 291.907044) scale(0.1 -0.1)">
      <defs>
       <path id="DejaVuSans-32" d="M 1228 531 
L 3431 531 
L 3431 0 
L 469 0 
L 469 531 
Q 828 903 1448 1529 
Q 2069 2156 2228 2338 
Q 2531 2678 2651 2914 
Q 2772 3150 2772 3378 
Q 2772 3750 2511 3984 
Q 2250 4219 1831 4219 
Q 1534 4219 1204 4116 
Q 875 4013 500 3803 
L 500 4441 
Q 881 4594 1212 4672 
Q 1544 4750 1819 4750 
Q 2544 4750 2975 4387 
Q 3406 4025 3406 3419 
Q 3406 3131 3298 2873 
Q 3191 2616 2906 2266 
Q 2828 2175 2409 1742 
Q 1991 1309 1228 531 
z
" transform="scale(0.015625)"/>
      </defs>
      <use xlink:href="#DejaVuSans-2212"/>
      <use xlink:href="#DejaVuSans-32" x="83.789062"/>
     </g>
    </g>
   </g>
   <g id="xtick_5">
    <g id="line2d_6">
     <path d="M 224.019242 273.97433 
L 221.859118 276.04321 
" style="fill: none; stroke: #000000; stroke-width: 0.8; stroke-linecap: square"/>
    </g>
    <g id="text_5">
     <!-- 0 -->
     <g transform="translate(212.691103 298.604784) scale(0.1 -0.1)">
      <defs>
       <path id="DejaVuSans-30" d="M 2034 4250 
Q 1547 4250 1301 3770 
Q 1056 3291 1056 2328 
Q 1056 1369 1301 889 
Q 1547 409 2034 409 
Q 2525 409 2770 889 
Q 3016 1369 3016 2328 
Q 3016 3291 2770 3770 
Q 2525 4250 2034 4250 
z
M 2034 4750 
Q 2819 4750 3233 4129 
Q 3647 3509 3647 2328 
Q 3647 1150 3233 529 
Q 2819 -91 2034 -91 
Q 1250 -91 836 529 
Q 422 1150 422 2328 
Q 422 3509 836 4129 
Q 1250 4750 2034 4750 
z
" transform="scale(0.015625)"/>
      </defs>
      <use xlink:href="#DejaVuSans-30"/>
     </g>
    </g>
   </g>
   <g id="xtick_6">
    <g id="line2d_7">
     <path d="M 244.373445 280.615443 
L 242.24335 282.713898 
" style="fill: none; stroke: #000000; stroke-width: 0.8; stroke-linecap: square"/>
    </g>
    <g id="text_6">
     <!-- 2 -->
     <g transform="translate(233.08098 305.398258) scale(0.1 -0.1)">
      <use xlink:href="#DejaVuSans-32"/>
     </g>
    </g>
   </g>
   <g id="xtick_7">
    <g id="line2d_8">
     <path d="M 265.019323 287.351724 
L 262.920344 289.480391 
" style="fill: none; stroke: #000000; stroke-width: 0.8; stroke-linecap: square"/>
    </g>
    <g id="text_7">
     <!-- 4 -->
     <g transform="translate(253.764399 312.289536) scale(0.1 -0.1)">
      <use xlink:href="#DejaVuSans-34"/>
     </g>
    </g>
   </g>
   <g id="text_8">
    <!-- X -->
    <g transform="translate(176.251428 303.76759) scale(0.1 -0.1)">
     <defs>
      <path id="DejaVuSans-58" d="M 403 4666 
L 1081 4666 
L 2241 2931 
L 3406 4666 
L 4084 4666 
L 2584 2425 
L 4184 0 
L 3506 0 
L 2194 1984 
L 872 0 
L 191 0 
L 1856 2491 
L 403 4666 
z
" transform="scale(0.015625)"/>
     </defs>
     <use xlink:href="#DejaVuSans-58"/>
    </g>
   </g>
  </g>
  <g id="axis3d_2">
   <g id="line2d_9">
    <path d="M 352.090401 209.294766 
L 272.679269 290.790123 
" style="fill: none; stroke: #000000; stroke-width: 0.8; stroke-linecap: square"/>
   </g>
   <g id="xtick_8">
    <g id="line2d_10">
     <path d="M 349.340644 210.555257 
L 352.898659 211.591885 
" style="fill: none; stroke: #000000; stroke-width: 0.8; stroke-linecap: square"/>
    </g>
    <g id="text_9">
     <!-- −8 -->
     <g transform="translate(355.062229 230.825683) scale(0.1 -0.1)">
      <use xlink:href="#DejaVuSans-2212"/>
      <use xlink:href="#DejaVuSans-38" x="83.789062"/>
     </g>
    </g>
   </g>
   <g id="xtick_9">
    <g id="line2d_11">
     <path d="M 339.542956 220.592084 
L 343.130255 221.65278 
" style="fill: none; stroke: #000000; stroke-width: 0.8; stroke-linecap: square"/>
    </g>
    <g id="text_10">
     <!-- −6 -->
     <g transform="translate(345.406309 241.018456) scale(0.1 -0.1)">
      <use xlink:href="#DejaVuSans-2212"/>
      <use xlink:href="#DejaVuSans-36" x="83.789062"/>
     </g>
    </g>
   </g>
   <g id="xtick_10">
    <g id="line2d_12">
     <path d="M 329.516595 230.863165 
L 333.133583 231.948777 
" style="fill: none; stroke: #000000; stroke-width: 0.8; stroke-linecap: square"/>
    </g>
    <g id="text_11">
     <!-- −4 -->
     <g transform="translate(335.524806 251.449353) scale(0.1 -0.1)">
      <use xlink:href="#DejaVuSans-2212"/>
      <use xlink:href="#DejaVuSans-34" x="83.789062"/>
     </g>
    </g>
   </g>
   <g id="xtick_11">
    <g id="line2d_13">
     <path d="M 319.253461 241.376799 
L 322.900548 242.488215 
" style="fill: none; stroke: #000000; stroke-width: 0.8; stroke-linecap: square"/>
    </g>
    <g id="text_12">
     <!-- −2 -->
     <g transform="translate(325.409722 262.126819) scale(0.1 -0.1)">
      <use xlink:href="#DejaVuSans-2212"/>
      <use xlink:href="#DejaVuSans-32" x="83.789062"/>
     </g>
    </g>
   </g>
   <g id="xtick_12">
    <g id="line2d_14">
     <path d="M 308.745065 252.14168 
L 312.422667 253.279831 
" style="fill: none; stroke: #000000; stroke-width: 0.8; stroke-linecap: square"/>
    </g>
    <g id="text_13">
     <!-- 0 -->
     <g transform="translate(319.242518 273.059701) scale(0.1 -0.1)">
      <use xlink:href="#DejaVuSans-30"/>
     </g>
    </g>
   </g>
   <g id="xtick_13">
    <g id="line2d_15">
     <path d="M 297.982512 263.166923 
L 301.691044 264.332786 
" style="fill: none; stroke: #000000; stroke-width: 0.8; stroke-linecap: square"/>
    </g>
    <g id="text_14">
     <!-- 2 -->
     <g transform="translate(308.63472 284.257274) scale(0.1 -0.1)">
      <use xlink:href="#DejaVuSans-32"/>
     </g>
    </g>
   </g>
   <g id="xtick_14">
    <g id="line2d_16">
     <path d="M 286.956466 274.462089 
L 290.696351 275.656688 
" style="fill: none; stroke: #000000; stroke-width: 0.8; stroke-linecap: square"/>
    </g>
    <g id="text_15">
     <!-- 4 -->
     <g transform="translate(297.766954 295.729268) scale(0.1 -0.1)">
      <use xlink:href="#DejaVuSans-34"/>
     </g>
    </g>
   </g>
   <g id="xtick_15">
    <g id="line2d_17">
     <path d="M 275.657131 286.037214 
L 279.428793 287.261625 
" style="fill: none; stroke: #000000; stroke-width: 0.8; stroke-linecap: square"/>
    </g>
    <g id="text_16">
     <!-- 6 -->
     <g transform="translate(286.629546 307.485898) scale(0.1 -0.1)">
      <use xlink:href="#DejaVuSans-36"/>
     </g>
    </g>
   </g>
   <g id="text_17">
    <!-- Y -->
    <g transform="translate(338.078875 278.988697) scale(0.1 -0.1)">
     <defs>
      <path id="DejaVuSans-59" d="M -13 4666 
L 666 4666 
L 1959 2747 
L 3244 4666 
L 3922 4666 
L 2272 2222 
L 2272 0 
L 1638 0 
L 1638 2222 
L -13 4666 
z
" transform="scale(0.015625)"/>
     </defs>
     <use xlink:href="#DejaVuSans-59"/>
    </g>
   </g>
  </g>
  <g id="axis3d_3">
   <g id="line2d_18">
    <path d="M 352.090401 209.294766 
L 357.122702 99.402171 
" style="fill: none; stroke: #000000; stroke-width: 0.8; stroke-linecap: square"/>
   </g>
   <g id="xtick_16">
    <g id="line2d_19">
     <path d="M 351.357687 199.000581 
L 354.925962 200.025701 
" style="fill: none; stroke: #000000; stroke-width: 0.8; stroke-linecap: square"/>
    </g>
    <g id="text_18">
     <!-- −2 -->
     <g transform="translate(363.496155 204.35488) scale(0.1 -0.1)">
      <use xlink:href="#DejaVuSans-2212"/>
      <use xlink:href="#DejaVuSans-32" x="83.789062"/>
     </g>
    </g>
   </g>
   <g id="xtick_17">
    <g id="line2d_20">
     <path d="M 351.999084 184.84298 
L 355.588662 185.856996 
" style="fill: none; stroke: #000000; stroke-width: 0.8; stroke-linecap: square"/>
    </g>
    <g id="text_19">
     <!-- 0 -->
     <g transform="translate(368.437541 190.221633) scale(0.1 -0.1)">
      <use xlink:href="#DejaVuSans-30"/>
     </g>
    </g>
   </g>
   <g id="xtick_18">
    <g id="line2d_21">
     <path d="M 352.647897 170.521704 
L 356.259032 171.524292 
" style="fill: none; stroke: #000000; stroke-width: 0.8; stroke-linecap: square"/>
    </g>
    <g id="text_20">
     <!-- 2 -->
     <g transform="translate(369.197749 175.925426) scale(0.1 -0.1)">
      <use xlink:href="#DejaVuSans-32"/>
     </g>
    </g>
   </g>
   <g id="xtick_19">
    <g id="line2d_22">
     <path d="M 353.304254 156.0339 
L 356.937207 157.024723 
" style="fill: none; stroke: #000000; stroke-width: 0.8; stroke-linecap: square"/>
    </g>
    <g id="text_21">
     <!-- 4 -->
     <g transform="translate(369.966772 161.463423) scale(0.1 -0.1)">
      <use xlink:href="#DejaVuSans-34"/>
     </g>
    </g>
   </g>
   <g id="xtick_20">
    <g id="line2d_23">
     <path d="M 353.968288 141.376646 
L 357.623324 142.355359 
" style="fill: none; stroke: #000000; stroke-width: 0.8; stroke-linecap: square"/>
    </g>
    <g id="text_22">
     <!-- 6 -->
     <g transform="translate(370.744766 146.832724) scale(0.1 -0.1)">
      <use xlink:href="#DejaVuSans-36"/>
     </g>
    </g>
   </g>
   <g id="xtick_21">
    <g id="line2d_24">
     <path d="M 354.640134 126.54695 
L 358.317523 127.5132 
" style="fill: none; stroke: #000000; stroke-width: 0.8; stroke-linecap: square"/>
    </g>
    <g id="text_23">
     <!-- 8 -->
     <g transform="translate(371.531889 132.03036) scale(0.1 -0.1)">
      <use xlink:href="#DejaVuSans-38"/>
     </g>
    </g>
   </g>
   <g id="xtick_22">
    <g id="line2d_25">
     <path d="M 355.31993 111.541753 
L 359.019947 112.495174 
" style="fill: none; stroke: #000000; stroke-width: 0.8; stroke-linecap: square"/>
    </g>
    <g id="text_24">
     <!-- 10 -->
     <g transform="translate(369.147052 117.053292) scale(0.1 -0.1)">
      <defs>
       <path id="DejaVuSans-31" d="M 794 531 
L 1825 531 
L 1825 4091 
L 703 3866 
L 703 4441 
L 1819 4666 
L 2450 4666 
L 2450 531 
L 3481 531 
L 3481 0 
L 794 0 
L 794 531 
z
" transform="scale(0.015625)"/>
      </defs>
      <use xlink:href="#DejaVuSans-31"/>
      <use xlink:href="#DejaVuSans-30" x="63.623047"/>
     </g>
    </g>
   </g>
   <g id="text_25">
    <!-- Altitude -->
    <g transform="translate(396.789938 169.786959) rotate(-87.378092) scale(0.1 -0.1)">
     <defs>
      <path id="DejaVuSans-41" d="M 2188 4044 
L 1331 1722 
L 3047 1722 
L 2188 4044 
z
M 1831 4666 
L 2547 4666 
L 4325 0 
L 3669 0 
L 3244 1197 
L 1141 1197 
L 716 0 
L 50 0 
L 1831 4666 
z
" transform="scale(0.015625)"/>
      <path id="DejaVuSans-6c" d="M 603 4863 
L 1178 4863 
L 1178 0 
L 603 0 
L 603 4863 
z
" transform="scale(0.015625)"/>
      <path id="DejaVuSans-74" d="M 1172 4494 
L 1172 3500 
L 2356 3500 
L 2356 3053 
L 1172 3053 
L 1172 1153 
Q 1172 725 1289 603 
Q 1406 481 1766 481 
L 2356 481 
L 2356 0 
L 1766 0 
Q 1100 0 847 248 
Q 594 497 594 1153 
L 594 3053 
L 172 3053 
L 172 3500 
L 594 3500 
L 594 4494 
L 1172 4494 
z
" transform="scale(0.015625)"/>
      <path id="DejaVuSans-69" d="M 603 3500 
L 1178 3500 
L 1178 0 
L 603 0 
L 603 3500 
z
M 603 4863 
L 1178 4863 
L 1178 4134 
L 603 4134 
L 603 4863 
z
" transform="scale(0.015625)"/>
      <path id="DejaVuSans-75" d="M 544 1381 
L 544 3500 
L 1119 3500 
L 1119 1403 
Q 1119 906 1312 657 
Q 1506 409 1894 409 
Q 2359 409 2629 706 
Q 2900 1003 2900 1516 
L 2900 3500 
L 3475 3500 
L 3475 0 
L 2900 0 
L 2900 538 
Q 2691 219 2414 64 
Q 2138 -91 1772 -91 
Q 1169 -91 856 284 
Q 544 659 544 1381 
z
M 1991 3584 
L 1991 3584 
z
" transform="scale(0.015625)"/>
      <path id="DejaVuSans-64" d="M 2906 2969 
L 2906 4863 
L 3481 4863 
L 3481 0 
L 2906 0 
L 2906 525 
Q 2725 213 2448 61 
Q 2172 -91 1784 -91 
Q 1150 -91 751 415 
Q 353 922 353 1747 
Q 353 2572 751 3078 
Q 1150 3584 1784 3584 
Q 2172 3584 2448 3432 
Q 2725 3281 2906 2969 
z
M 947 1747 
Q 947 1113 1208 752 
Q 1469 391 1925 391 
Q 2381 391 2643 752 
Q 2906 1113 2906 1747 
Q 2906 2381 2643 2742 
Q 2381 3103 1925 3103 
Q 1469 3103 1208 2742 
Q 947 2381 947 1747 
z
" transform="scale(0.015625)"/>
      <path id="DejaVuSans-65" d="M 3597 1894 
L 3597 1613 
L 953 1613 
Q 991 1019 1311 708 
Q 1631 397 2203 397 
Q 2534 397 2845 478 
Q 3156 559 3463 722 
L 3463 178 
Q 3153 47 2828 -22 
Q 2503 -91 2169 -91 
Q 1331 -91 842 396 
Q 353 884 353 1716 
Q 353 2575 817 3079 
Q 1281 3584 2069 3584 
Q 2775 3584 3186 3129 
Q 3597 2675 3597 1894 
z
M 3022 2063 
Q 3016 2534 2758 2815 
Q 2500 3097 2075 3097 
Q 1594 3097 1305 2825 
Q 1016 2553 972 2059 
L 3022 2063 
z
" transform="scale(0.015625)"/>
     </defs>
     <use xlink:href="#DejaVuSans-41"/>
     <use xlink:href="#DejaVuSans-6c" x="68.408203"/>
     <use xlink:href="#DejaVuSans-74" x="96.191406"/>
     <use xlink:href="#DejaVuSans-69" x="135.400391"/>
     <use xlink:href="#DejaVuSans-74" x="163.183594"/>
     <use xlink:href="#DejaVuSans-75" x="202.392578"/>
     <use xlink:href="#DejaVuSans-64" x="265.771484"/>
     <use xlink:href="#DejaVuSans-65" x="329.248047"/>
    </g>
   </g>
  </g>
  <g id="axes_1">
   <g id="line2d_26">
    <path d="M 303.442164 187.918361 
L 301.933991 191.104083 
L 300.253946 194.267035 
L 298.448669 197.32617 
L 296.542383 200.252126 
L 294.559157 203.016683 
L 292.522533 205.593213 
L 290.455141 207.957105 
L 288.378346 210.086173 
L 286.311906 211.961024 
L 284.273667 213.565375 
L 282.279302 214.88632 
L 280.342087 215.914527 
L 278.47274 216.644368 
L 276.67931 217.073972 
L 274.967134 217.205205 
L 273.338845 217.043574 
L 271.794446 216.598063 
L 270.331437 215.880901 
L 268.944998 214.907275 
L 267.628213 213.694999 
L 266.372334 212.264135 
L 265.167081 210.636604 
L 262.861583 206.885987 
L 260.611238 202.63976 
L 255.86869 193.451875 
L 253.200627 188.874895 
L 250.253513 184.514032 
L 248.666604 182.452105 
L 247.003804 180.4849 
L 245.267755 178.621429 
L 243.463489 176.868445 
L 241.59845 175.230461 
L 239.682485 173.709778 
L 235.748897 171.018871 
L 231.787019 168.772954 
L 227.952929 166.920514 
L 219.091935 162.902974 
L 218.258923 162.331121 
L 217.671975 161.754931 
L 217.350991 161.16371 
L 217.313476 160.547949 
L 217.574128 159.899583 
L 218.14447 159.212224 
L 219.03253 158.481356 
L 220.242577 157.7045 
L 221.774929 156.881334 
L 225.787437 155.105949 
L 230.991123 153.197275 
L 237.244705 151.231383 
L 244.352137 149.313662 
L 252.074235 147.571589 
L 260.143038 146.14569 
L 264.219691 145.596336 
L 268.277433 145.179552 
L 272.281603 144.912108 
L 276.19858 144.80973 
L 279.996178 144.886829 
L 283.643997 145.156249 
L 287.113737 145.629034 
L 290.379474 146.314223 
L 293.417887 147.218673 
L 296.208445 148.346899 
L 298.733564 149.700945 
L 300.978709 151.280287 
L 302.932479 153.081752 
L 304.586646 155.099475 
L 305.936167 157.324877 
L 306.979163 159.746678 
L 307.716872 162.350938 
L 308.153565 165.121134 
L 308.296445 168.038271 
L 308.155506 171.081026 
L 307.743367 174.225932 
L 307.075076 177.447607 
L 306.167887 180.719008 
L 305.041002 184.011737 
L 303.715287 187.296378 
L 302.212965 190.542866 
L 300.557282 193.720888 
L 298.772147 196.800311 
L 296.881768 199.751615 
L 294.910272 202.546351 
L 292.881318 205.157579 
L 290.817722 207.560307 
L 288.741097 209.731898 
L 286.671502 211.652444 
L 284.62714 213.3051 
L 282.62408 214.676352 
L 280.67603 215.756233 
L 278.794164 216.53846 
L 276.987005 217.020507 
L 275.260363 217.20359 
L 273.61734 217.092591 
L 272.05839 216.6959 
L 270.581442 216.025199 
L 269.182063 215.09518 
L 267.853688 213.923224 
L 266.587866 212.52903 
L 265.374564 210.934221 
L 263.059345 207.236399 
L 260.808342 203.025469 
L 256.090181 193.857456 
L 253.444312 189.268159 
L 250.523008 184.883317 
L 248.94946 182.805927 
L 247.299799 180.821455 
L 245.576258 178.939302 
L 243.783446 177.166621 
L 241.928385 175.508311 
L 240.020506 173.967056 
L 236.095794 171.235731 
L 232.130584 168.952601 
L 228.278414 167.068465 
L 219.261181 163.003325 
L 218.387359 162.431059 
L 217.75591 161.856428 
L 217.387109 161.268556 
L 217.298907 160.657709 
L 217.506523 160.015553 
L 218.022059 159.33539 
L 218.854175 158.612364 
L 220.007811 157.843631 
L 221.483988 157.028484 
L 225.387719 155.267259 
L 230.492085 153.367666 
L 236.661018 151.402952 
L 243.702843 149.476199 
L 251.381604 147.713295 
L 259.431238 146.254015 
L 263.507586 145.683273 
L 267.571155 145.242086 
L 271.587147 144.947375 
L 275.52173 144.815068 
L 279.342439 144.859827 
L 283.018538 145.094784 
L 286.521341 145.531316 
L 289.824489 146.178825 
L 292.904193 147.044562 
L 295.739422 148.133459 
L 298.312067 149.448002 
L 300.607054 150.988122 
L 302.612431 152.751114 
L 304.319414 154.731583 
L 305.722403 156.921427 
L 306.818968 159.309834 
L 307.609808 161.883325 
L 308.098672 164.625822 
L 308.292258 167.518753 
L 308.200084 170.541187 
L 307.834323 173.67002 
L 307.209615 176.880184 
L 306.342845 180.144908 
L 305.252895 183.436008 
L 303.960361 186.724217 
L 302.487253 189.979557 
L 300.856662 193.171729 
L 299.092409 196.270535 
L 297.218678 199.246319 
L 295.259634 202.070409 
L 293.239048 204.715572 
L 291.17991 207.156444 
L 289.104067 209.369947 
L 287.031874 211.335674 
L 284.98188 213.036221 
L 282.970544 214.457475 
L 281.012 215.588837 
L 279.117877 216.423374 
L 277.297166 216.957901 
L 275.556152 217.192984 
L 273.898408 217.132873 
L 272.324845 216.78536 
L 270.833821 216.161569 
L 269.421302 215.27569 
L 268.081077 214.144657 
L 266.805005 212.787793 
L 265.583308 211.226415 
L 264.404875 209.483424 
L 262.128715 205.549628 
L 253.685875 189.663003 
L 250.790176 185.25509 
L 249.229986 183.162593 
L 247.593533 181.16114 
L 245.882638 179.260526 
L 244.101495 177.468295 
L 242.256701 175.789741 
L 240.357268 174.22793 
L 236.442362 171.456032 
L 232.474996 169.13531 
L 228.60612 167.218918 
L 219.437156 163.10396 
L 218.523203 162.530923 
L 217.847873 161.957518 
L 217.431803 161.372697 
L 217.293382 160.76651 
L 217.448332 160.130357 
L 217.909327 159.457241 
L 218.68565 158.74197 
L 219.782908 157.981338 
L 221.202817 157.174257 
L 224.997209 155.427489 
L 230.001212 153.537541 
L 236.084024 151.574796 
L 243.058432 149.639978 
L 250.691814 147.857317 
L 258.720127 146.36576 
L 262.795089 145.77417 
L 266.863422 145.309097 
L 270.890201 144.987605 
L 274.841396 144.825818 
L 278.684277 144.838638 
L 282.38778 145.039481 
L 285.922839 145.440048 
L 289.262673 146.050098 
L 292.383024 146.877272 
L 295.262371 147.926918 
L 297.882081 149.201956 
L 300.226546 150.702772 
L 302.283262 152.427125 
L 304.042889 154.370094 
L 305.499271 156.524048 
L 306.649427 158.878649 
L 307.493514 161.420881 
L 308.034752 164.135111 
L 308.279336 167.003195 
L 308.236299 170.004603 
L 307.917364 173.116596 
L 307.336755 176.314432 
L 306.510982 179.571617 
L 305.458596 182.860191 
L 304.199917 186.151053 
L 302.756729 189.414318 
L 301.15196 192.619716 
L 299.409328 195.737 
L 297.552982 198.736385 
L 295.607119 201.588997 
L 293.595603 204.267319 
L 291.54159 206.745628 
L 289.467152 209.000421 
L 287.39293 211.010795 
L 285.337807 212.758802 
L 283.318627 214.229734 
L 281.349945 215.412365 
L 279.443839 216.299115 
L 277.609767 216.886139 
L 275.854491 217.173352 
L 274.182054 217.164369 
L 272.593827 216.866374 
L 271.088603 216.289927 
L 271.088603 216.289927 
" clip-path="url(#pf2f471c88e)" style="fill: none; stroke-dasharray: 1.3,2.145; stroke-dashoffset: 0; stroke: #008000; stroke-width: 1.3"/>
   </g>
   <g id="line2d_27">
    <path d="M 257.630275 205.876609 
L 255.772255 205.970326 
L 257.469142 206.836249 
" clip-path="url(#pf2f471c88e)" style="fill: none; stroke: #ff0000; stroke-width: 2; stroke-linecap: square"/>
   </g>
   <g id="line2d_28">
    <path d="M 253.981099 205.894408 
L 255.772255 205.970326 
L 254.150578 204.937112 
" clip-path="url(#pf2f471c88e)" style="fill: none; stroke: #0000ff; stroke-width: 2; stroke-linecap: square"/>
   </g>
   <g id="line2d_29">
    <path d="M 262.164444 213.034906 
L 262.039712 217.040056 
L 261.879864 218.079983 
L 261.28637 219.898129 
L 259.436825 224.104855 
L 258.841757 225.127386 
L 258.177904 225.917858 
L 257.447402 226.373114 
L 256.66181 226.448122 
L 255.836572 226.14277 
L 254.986341 225.474111 
L 254.123199 224.462965 
L 253.256241 223.136828 
L 252.391397 221.535124 
L 250.677175 217.707355 
L 248.129083 211.089762 
L 241.625299 193.671497 
L 239.268587 188.000377 
L 236.500949 182.063487 
L 234.952698 179.078732 
L 233.304927 176.144161 
L 231.574886 173.307368 
L 229.784045 170.61036 
L 227.954056 168.084889 
L 226.105026 165.752452 
L 224.255358 163.626709 
L 222.421672 161.715976 
L 220.618414 160.025102 
L 218.857492 158.556708 
L 217.148445 157.311705 
L 215.499133 156.289288 
L 213.916509 155.486903 
L 212.407521 154.899936 
L 210.980303 154.520872 
L 209.645496 154.338026 
L 208.417553 154.333934 
L 207.31598 154.483376 
L 206.366301 154.751177 
L 205.054578 155.441695 
L 204.767151 155.736639 
L 204.774526 155.89953 
L 205.108485 155.852579 
L 205.7919 155.52493 
L 208.238672 153.847006 
L 217.036313 147.105526 
L 219.892987 145.159133 
L 222.979167 143.235851 
L 226.28316 141.379085 
L 229.77897 139.637376 
L 233.415228 138.072286 
L 237.118659 136.753746 
L 240.828288 135.732599 
L 244.514629 135.029533 
L 248.169498 134.647327 
L 251.794798 134.581204 
L 255.395806 134.824106 
L 258.977751 135.368925 
L 262.544056 136.209345 
L 266.09512 137.340368 
L 269.628695 138.758013 
L 273.147698 140.4536 
L 283.91251 146.405753 
L 293.591141 151.166994 
L 296.150115 152.681563 
L 298.299323 154.230428 
L 299.943993 155.794111 
L 300.98883 157.348106 
L 301.378389 158.882697 
L 301.124827 160.413979 
L 300.316274 161.98668 
L 299.088125 163.661958 
L 294.058209 169.806785 
L 292.17318 172.328578 
L 290.244214 175.110385 
L 288.283436 178.153392 
L 284.262317 184.979997 
L 279.995845 192.483841 
L 277.734543 196.200648 
L 273.245567 202.851519 
L 269.597648 208.023222 
L 268.421706 209.92527 
L 267.845834 211.289954 
L 267.931144 212.09169 
L 268.655811 212.349263 
L 269.927896 212.116166 
L 271.621618 211.457097 
L 273.607526 210.428459 
L 275.763611 209.077448 
L 277.979809 207.44923 
L 280.162725 205.592129 
L 282.239297 203.557767 
L 284.156739 201.397922 
L 285.874966 199.152004 
L 287.350581 196.829275 
L 288.518304 194.395588 
L 289.28513 191.778268 
L 289.563227 188.909628 
L 289.327175 185.784117 
L 288.625769 182.460306 
L 287.544839 179.018173 
L 286.177452 175.530951 
L 284.616082 172.062115 
L 281.258119 165.400558 
L 276.565551 156.788519 
L 273.907037 152.344775 
L 272.690608 150.55631 
L 271.523 149.060892 
L 270.384401 147.856869 
L 269.258213 146.940957 
L 268.131993 146.309913 
L 266.997375 145.961767 
L 265.849368 145.896118 
L 264.685287 146.113116 
L 263.503484 146.612074 
L 262.301935 147.389519 
L 261.076719 148.436391 
L 259.82025 149.733781 
L 254.128784 156.341833 
L 252.426392 157.819308 
L 250.59401 158.882449 
L 248.681155 159.342211 
L 246.791885 159.102533 
L 245.060105 158.189941 
L 243.612923 156.718287 
L 242.545626 154.838893 
L 241.912047 152.706324 
L 241.733499 150.452686 
L 242.012585 148.178966 
L 242.736997 145.961372 
L 243.878836 143.858404 
L 245.39339 141.915789 
L 247.213802 140.172071 
L 249.25509 138.661419 
L 251.431527 137.412552 
L 253.676605 136.445711 
L 255.950185 135.771693 
L 258.231254 135.394499 
L 260.508282 135.314718 
L 262.775572 135.530277 
L 265.032662 136.034776 
L 267.281821 136.814917 
L 269.524724 137.838584 
L 276.8863 141.746455 
L 277.554895 142.233413 
L 277.54645 142.636042 
L 276.737083 143.029258 
L 272.478392 144.245474 
L 269.20237 145.323409 
L 265.413551 146.818436 
L 261.321521 148.733763 
L 257.084758 151.035747 
L 252.794426 153.68647 
L 248.494646 156.658529 
L 244.207409 159.933575 
L 239.947611 163.498896 
L 235.73869 167.342546 
L 231.640575 171.424197 
L 227.760116 175.628573 
L 224.185664 179.790124 
L 217.85112 187.693206 
L 212.18693 194.941054 
L 209.519009 198.016916 
L 206.904763 200.444605 
L 204.288111 202.121726 
L 201.631383 203.047113 
L 198.926883 203.246357 
L 196.200225 202.752995 
L 193.508081 201.636995 
L 190.920054 200.030338 
L 188.495264 198.091129 
L 186.275008 195.955573 
L 184.28697 193.724193 
L 182.550538 191.466784 
L 181.081204 189.22926 
L 179.895358 187.037482 
L 179.01627 184.898089 
L 178.479178 182.798424 
L 178.33178 180.707507 
L 178.628475 178.577587 
L 179.408893 176.35323 
L 180.656028 173.997872 
L 182.28153 171.509969 
L 188.081943 163.415271 
L 189.837237 160.567612 
L 191.279327 157.695206 
L 192.311478 154.839811 
L 192.870235 152.046835 
L 192.93541 149.366345 
L 192.548722 146.854039 
L 191.790428 144.559497 
L 190.736988 142.517771 
L 189.445997 140.751826 
L 187.961179 139.277216 
L 186.321117 138.104586 
L 184.563919 137.24029 
L 182.726941 136.686724 
L 180.844453 136.443092 
L 178.94675 136.505819 
L 177.061568 136.868571 
L 175.217335 137.521507 
L 173.447552 138.449228 
L 171.795023 139.627525 
L 170.313593 141.019852 
L 169.069526 142.572625 
L 168.145863 144.206639 
L 167.639231 145.811028 
L 167.634322 147.257215 
L 168.170997 148.432383 
L 169.237937 149.26196 
L 170.79142 149.706755 
L 172.777778 149.746768 
L 175.14542 149.371515 
L 177.848473 148.582833 
L 180.843231 147.416109 
L 187.534679 144.315011 
L 194.973518 140.827552 
L 198.94162 139.110424 
L 203.060596 137.48449 
L 207.303991 136.009711 
L 211.629048 134.748696 
L 215.984233 133.757581 
L 220.32579 133.074178 
L 224.629892 132.713899 
L 228.889227 132.677775 
L 233.104924 132.96084 
L 237.281746 133.556057 
L 241.426209 134.455459 
L 245.545283 135.650604 
L 249.643908 137.133559 
L 253.722104 138.898334 
L 257.777241 140.939626 
L 270.099087 147.864416 
L 274.152221 149.730598 
L 281.161266 152.709052 
L 283.969022 154.020044 
L 286.230652 155.278553 
L 287.845914 156.48648 
L 288.717818 157.642951 
L 288.802564 158.766468 
L 288.168909 159.911463 
L 286.985716 161.154888 
L 283.653958 164.187867 
L 281.754401 166.060394 
L 279.797619 168.202025 
L 277.813439 170.620869 
L 275.815161 173.3185 
L 273.808026 176.292668 
L 271.791916 179.537355 
L 267.690426 186.75403 
L 263.344047 194.334313 
L 259.059116 200.940062 
L 257.232332 203.666319 
L 257.232332 203.666319 
" clip-path="url(#pf2f471c88e)" style="fill: none; stroke-dasharray: 3.7,1.6; stroke-dashoffset: 0; stroke: #0000ff"/>
   </g>
   <g id="line2d_30">
    <path d="M 255.752995 206.002644 
L 255.733735 206.034964 
L 255.703338 206.085987 
L 255.662029 206.155355 
L 255.610129 206.242555 
L 255.548053 206.346918 
L 255.476305 206.467618 
L 255.395472 206.603681 
L 255.306217 206.753994 
L 255.209262 206.917321 
L 255.105389 207.092293 
L 254.995443 207.277352 
L 254.880365 207.470637 
L 254.761234 207.669816 
L 254.639295 207.871908 
L 254.515961 208.073192 
L 254.392693 208.26941 
L 254.270705 208.45662 
L 254.151016 208.631031 
L 254.034507 208.788762 
L 253.921933 208.925744 
L 253.813913 209.037684 
L 253.710907 209.120075 
L 253.613195 209.16821 
L 253.520869 209.177186 
L 253.433822 209.141904 
L 253.351751 209.057076 
L 253.274146 208.917225 
L 253.200273 208.716692 
L 253.129178 208.449588 
L 253.059696 208.109726 
L 252.990422 207.692231 
L 252.919687 207.204967 
L 252.846172 206.661355 
L 252.76899 206.074882 
L 252.687547 205.456672 
L 252.60139 204.815017 
L 252.510075 204.15569 
L 252.413094 203.482433 
L 252.309818 202.797397 
L 252.199464 202.101513 
L 252.081075 201.394791 
L 251.953513 200.676571 
L 251.815458 199.945717 
L 251.665406 199.200756 
L 251.501673 198.439965 
L 251.322389 197.661421 
L 251.125502 196.863041 
L 250.908773 196.042628 
L 250.669791 195.197935 
L 250.40599 194.326768 
L 250.114686 193.427104 
L 249.793115 192.497229 
L 249.43849 191.53588 
L 249.048065 190.542382 
L 248.619193 189.516768 
L 248.149398 188.459874 
L 247.636437 187.373403 
L 247.078353 186.259938 
L 246.473523 185.12292 
L 245.820688 183.966573 
L 245.118967 182.795795 
L 244.367859 181.616008 
L 243.567237 180.433004 
L 242.717323 179.252774 
L 241.818686 178.081373 
L 240.87224 176.924823 
L 239.879276 175.789087 
L 238.841451 174.680004 
L 237.760694 173.60266 
L 236.639449 172.561086 
L 235.480808 171.558313 
L 234.288611 170.596435 
L 233.06752 169.67665 
L 231.823064 168.799305 
L 230.561669 167.963968 
L 229.290657 167.169538 
L 228.018208 166.41438 
L 226.753293 165.696487 
L 225.505569 165.013657 
L 224.285242 164.363666 
L 223.102926 163.744415 
L 221.969495 163.154031 
L 220.895983 162.590895 
L 219.893527 162.053586 
L 218.973323 161.540635 
L 218.146597 161.050192 
L 217.424796 160.579696 
L 216.819846 160.125525 
L 216.344413 159.682687 
L 216.012115 159.244619 
L 215.837598 158.803159 
L 215.836397 158.348779 
L 216.024506 157.871117 
L 216.417628 157.359836 
L 217.030152 156.805723 
L 217.873985 156.201893 
L 218.957485 155.544855 
L 220.284724 154.835228 
L 221.855331 154.077848 
L 223.665492 153.280615 
" clip-path="url(#pf2f471c88e)" style="fill: none; stroke: #000000; stroke-width: 1.5; stroke-linecap: square"/>
   </g>
   <g id="Path3DCollection_1">
    <defs>
     <path id="m74293e325e" d="M 0 2.5 
C 0.663008 2.5 1.29895 2.236584 1.767767 1.767767 
C 2.236584 1.29895 2.5 0.663008 2.5 0 
C 2.5 -0.663008 2.236584 -1.29895 1.767767 -1.767767 
C 1.29895 -2.236584 0.663008 -2.5 0 -2.5 
C -0.663008 -2.5 -1.29895 -2.236584 -1.767767 -1.767767 
C -2.236584 -1.29895 -2.5 -0.663008 -2.5 0 
C -2.5 0.663008 -2.236584 1.29895 -1.767767 1.767767 
C -1.29895 2.236584 -0.663008 2.5 0 2.5 
z
" style="stroke: #ff00ff"/>
    </defs>
    <g clip-path="url(#pf2f471c88e)">
     <use xlink:href="#m74293e325e" x="272.593827" y="216.866374" style="fill: #ff00ff; stroke: #ff00ff"/>
    </g>
   </g>
   <g id="text_26">
    <!-- Time = 19.90 s -->
    <g transform="translate(116.4096 54.7776) scale(0.1 -0.1)">
     <defs>
      <path id="DejaVuSans-54" d="M -19 4666 
L 3928 4666 
L 3928 4134 
L 2272 4134 
L 2272 0 
L 1638 0 
L 1638 4134 
L -19 4134 
L -19 4666 
z
" transform="scale(0.015625)"/>
      <path id="DejaVuSans-6d" d="M 3328 2828 
Q 3544 3216 3844 3400 
Q 4144 3584 4550 3584 
Q 5097 3584 5394 3201 
Q 5691 2819 5691 2113 
L 5691 0 
L 5113 0 
L 5113 2094 
Q 5113 2597 4934 2840 
Q 4756 3084 4391 3084 
Q 3944 3084 3684 2787 
Q 3425 2491 3425 1978 
L 3425 0 
L 2847 0 
L 2847 2094 
Q 2847 2600 2669 2842 
Q 2491 3084 2119 3084 
Q 1678 3084 1418 2786 
Q 1159 2488 1159 1978 
L 1159 0 
L 581 0 
L 581 3500 
L 1159 3500 
L 1159 2956 
Q 1356 3278 1631 3431 
Q 1906 3584 2284 3584 
Q 2666 3584 2933 3390 
Q 3200 3197 3328 2828 
z
" transform="scale(0.015625)"/>
      <path id="DejaVuSans-20" transform="scale(0.015625)"/>
      <path id="DejaVuSans-3d" d="M 678 2906 
L 4684 2906 
L 4684 2381 
L 678 2381 
L 678 2906 
z
M 678 1631 
L 4684 1631 
L 4684 1100 
L 678 1100 
L 678 1631 
z
" transform="scale(0.015625)"/>
      <path id="DejaVuSans-39" d="M 703 97 
L 703 672 
Q 941 559 1184 500 
Q 1428 441 1663 441 
Q 2288 441 2617 861 
Q 2947 1281 2994 2138 
Q 2813 1869 2534 1725 
Q 2256 1581 1919 1581 
Q 1219 1581 811 2004 
Q 403 2428 403 3163 
Q 403 3881 828 4315 
Q 1253 4750 1959 4750 
Q 2769 4750 3195 4129 
Q 3622 3509 3622 2328 
Q 3622 1225 3098 567 
Q 2575 -91 1691 -91 
Q 1453 -91 1209 -44 
Q 966 3 703 97 
z
M 1959 2075 
Q 2384 2075 2632 2365 
Q 2881 2656 2881 3163 
Q 2881 3666 2632 3958 
Q 2384 4250 1959 4250 
Q 1534 4250 1286 3958 
Q 1038 3666 1038 3163 
Q 1038 2656 1286 2365 
Q 1534 2075 1959 2075 
z
" transform="scale(0.015625)"/>
      <path id="DejaVuSans-2e" d="M 684 794 
L 1344 794 
L 1344 0 
L 684 0 
L 684 794 
z
" transform="scale(0.015625)"/>
      <path id="DejaVuSans-73" d="M 2834 3397 
L 2834 2853 
Q 2591 2978 2328 3040 
Q 2066 3103 1784 3103 
Q 1356 3103 1142 2972 
Q 928 2841 928 2578 
Q 928 2378 1081 2264 
Q 1234 2150 1697 2047 
L 1894 2003 
Q 2506 1872 2764 1633 
Q 3022 1394 3022 966 
Q 3022 478 2636 193 
Q 2250 -91 1575 -91 
Q 1294 -91 989 -36 
Q 684 19 347 128 
L 347 722 
Q 666 556 975 473 
Q 1284 391 1588 391 
Q 1994 391 2212 530 
Q 2431 669 2431 922 
Q 2431 1156 2273 1281 
Q 2116 1406 1581 1522 
L 1381 1569 
Q 847 1681 609 1914 
Q 372 2147 372 2553 
Q 372 3047 722 3315 
Q 1072 3584 1716 3584 
Q 2034 3584 2315 3537 
Q 2597 3491 2834 3397 
z
" transform="scale(0.015625)"/>
     </defs>
     <use xlink:href="#DejaVuSans-54"/>
     <use xlink:href="#DejaVuSans-69" x="57.958984"/>
     <use xlink:href="#DejaVuSans-6d" x="85.742188"/>
     <use xlink:href="#DejaVuSans-65" x="183.154297"/>
     <use xlink:href="#DejaVuSans-20" x="244.677734"/>
     <use xlink:href="#DejaVuSans-3d" x="276.464844"/>
     <use xlink:href="#DejaVuSans-20" x="360.253906"/>
     <use xlink:href="#DejaVuSans-31" x="392.041016"/>
     <use xlink:href="#DejaVuSans-39" x="455.664062"/>
     <use xlink:href="#DejaVuSans-2e" x="519.287109"/>
     <use xlink:href="#DejaVuSans-39" x="551.074219"/>
     <use xlink:href="#DejaVuSans-30" x="614.697266"/>
     <use xlink:href="#DejaVuSans-20" x="678.320312"/>
     <use xlink:href="#DejaVuSans-73" x="710.107422"/>
    </g>
   </g>
   <g id="text_27">
    <!-- fig8 -->
    <g transform="translate(336.901025 54.7776) scale(0.1 -0.1)">
     <defs>
      <path id="DejaVuSans-66" d="M 2375 4863 
L 2375 4384 
L 1825 4384 
Q 1516 4384 1395 4259 
Q 1275 4134 1275 3809 
L 1275 3500 
L 2222 3500 
L 2222 3053 
L 1275 3053 
L 1275 0 
L 697 0 
L 697 3053 
L 147 3053 
L 147 3500 
L 697 3500 
L 697 3744 
Q 697 4328 969 4595 
Q 1241 4863 1831 4863 
L 2375 4863 
z
" transform="scale(0.015625)"/>
      <path id="DejaVuSans-67" d="M 2906 1791 
Q 2906 2416 2648 2759 
Q 2391 3103 1925 3103 
Q 1463 3103 1205 2759 
Q 947 2416 947 1791 
Q 947 1169 1205 825 
Q 1463 481 1925 481 
Q 2391 481 2648 825 
Q 2906 1169 2906 1791 
z
M 3481 434 
Q 3481 -459 3084 -895 
Q 2688 -1331 1869 -1331 
Q 1566 -1331 1297 -1286 
Q 1028 -1241 775 -1147 
L 775 -588 
Q 1028 -725 1275 -790 
Q 1522 -856 1778 -856 
Q 2344 -856 2625 -561 
Q 2906 -266 2906 331 
L 2906 616 
Q 2728 306 2450 153 
Q 2172 0 1784 0 
Q 1141 0 747 490 
Q 353 981 353 1791 
Q 353 2603 747 3093 
Q 1141 3584 1784 3584 
Q 2172 3584 2450 3431 
Q 2728 3278 2906 2969 
L 2906 3500 
L 3481 3500 
L 3481 434 
z
" transform="scale(0.015625)"/>
     </defs>
     <use xlink:href="#DejaVuSans-66"/>
     <use xlink:href="#DejaVuSans-69" x="35.205078"/>
     <use xlink:href="#DejaVuSans-67" x="62.988281"/>
     <use xlink:href="#DejaVuSans-38" x="126.464844"/>
    </g>
   </g>
  </g>
 </g>
 <defs>
  <clipPath id="pf2f471c88e">
   <rect x="103.104" y="41.472" width="266.112" height="266.112"/>
  </clipPath>
 </defs>
</svg>
