<?xml version="1.0" encoding="utf-8" standalone="no"?>
<!DOCTYPE svg PUBLIC "-//W3C//DTD SVG 1.1//EN"
  "http://www.w3.org/Graphics/SVG/1.1/DTD/svg11.dtd">
<svg xmlns:xlink="http://www.w3.org/1999/xlink" width="460.8pt" height="345.6pt" viewBox="0 0 460.8 345.6" xmlns="http://www.w3.org/2000/svg" version="1.1">
 <metadata>
  <rdf:RDF xmlns:dc="http://purl.org/dc/elements/1.1/" xmlns:cc="http://creativecommons.org/ns#" xmlns:rdf="http://www.w3.org/1999/02/22-rdf-syntax-ns#">
   <cc:Work>
    <dc:type rdf:resource="http://purl.org/dc/dcmitype/StillImage"/>
    <dc:date>2023-09-18T15:35:30.072815</dc:date>
    <dc:format>image/svg+xml</dc:format>
    <dc:creator>
     <cc:Agent>
      <dc:title>Matplotlib v3.7.1, https://matplotlib.org/</dc:title>
     </cc:Agent>
    </dc:creator>
   </cc:Work>
  </rdf:RDF>
 </metadata>
 <defs>
  <style type="text/css">*{stroke-linejoin: round; stroke-linecap: butt}</style>
 </defs>
 <g id="figure_1">
  <g id="patch_1">
   <path d="M 0 345.6 
L 460.8 345.6 
L 460.8 0 
L 0 0 
z
" style="fill: #ffffff"/>
  </g>
  <g id="patch_2">
   <path d="M 103.104 307.584 
L 369.216 307.584 
L 369.216 41.472 
L 103.104 41.472 
z
" style="fill: #ffffff"/>
  </g>
  <g id="pane3d_1">
   <g id="patch_3">
    <path d="M 211.076164 168.307495 
L 123.197291 241.969309 
L 117.770234 129.272941 
L 209.854564 62.073991 
" style="fill: #f2f2f2; opacity: 0.5; stroke: #f2f2f2; stroke-linejoin: miter"/>
   </g>
  </g>
  <g id="pane3d_2">
   <g id="patch_4">
    <path d="M 211.076164 168.307495 
L 352.090401 209.294766 
L 357.122702 99.402171 
L 209.854564 62.073991 
" style="fill: #e6e6e6; opacity: 0.5; stroke: #e6e6e6; stroke-linejoin: miter"/>
   </g>
  </g>
  <g id="pane3d_3">
   <g id="patch_5">
    <path d="M 211.076164 168.307495 
L 352.090401 209.294766 
L 272.679269 290.790123 
L 123.197291 241.969309 
" style="fill: #ececec; opacity: 0.5; stroke: #ececec; stroke-linejoin: miter"/>
   </g>
  </g>
  <g id="axis3d_1">
   <g id="line2d_1">
    <path d="M 123.197291 241.969309 
L 272.679269 290.790123 
" style="fill: none; stroke: #000000; stroke-width: 0.8; stroke-linecap: square"/>
   </g>
   <g id="text_1">
    <!-- X -->
    <g transform="translate(176.251428 303.76759) scale(0.1 -0.1)">
     <defs>
      <path id="DejaVuSans-58" d="M 403 4666 
L 1081 4666 
L 2241 2931 
L 3406 4666 
L 4084 4666 
L 2584 2425 
L 4184 0 
L 3506 0 
L 2194 1984 
L 872 0 
L 191 0 
L 1856 2491 
L 403 4666 
z
" transform="scale(0.015625)"/>
     </defs>
     <use xlink:href="#DejaVuSans-58"/>
    </g>
   </g>
   <g id="Line3DCollection_1">
    <path d="M 127.029325 243.220851 
L 214.706708 169.36275 
L 213.638329 63.033065 
" style="fill: none; stroke: #b0b0b0; stroke-width: 0.8"/>
    <path d="M 150.455486 250.871835 
L 236.883215 175.808586 
L 236.75969 68.893656 
" style="fill: none; stroke: #b0b0b0; stroke-width: 0.8"/>
    <path d="M 174.282113 258.653612 
L 259.407324 182.355455 
L 260.259172 74.85009 
" style="fill: none; stroke: #b0b0b0; stroke-width: 0.8"/>
    <path d="M 198.519563 266.569563 
L 282.287271 189.005752 
L 284.146127 80.904737 
" style="fill: none; stroke: #b0b0b0; stroke-width: 0.8"/>
    <path d="M 223.178554 274.623189 
L 305.531558 195.761949 
L 308.430219 87.060046 
" style="fill: none; stroke: #b0b0b0; stroke-width: 0.8"/>
    <path d="M 248.27018 282.818114 
L 329.148955 202.626594 
L 333.121435 93.31855 
" style="fill: none; stroke: #b0b0b0; stroke-width: 0.8"/>
   </g>
   <g id="xtick_1">
    <g id="line2d_2">
     <path d="M 127.792698 242.577798 
L 125.49931 244.509713 
" style="fill: none; stroke: #000000; stroke-width: 0.8; stroke-linecap: square"/>
    </g>
    <g id="text_2">
     <!-- −6 -->
     <g transform="translate(112.124057 266.493942) scale(0.1 -0.1)">
      <defs>
       <path id="DejaVuSans-2212" d="M 678 2272 
L 4684 2272 
L 4684 1741 
L 678 1741 
L 678 2272 
z
" transform="scale(0.015625)"/>
       <path id="DejaVuSans-36" d="M 2113 2584 
Q 1688 2584 1439 2293 
Q 1191 2003 1191 1497 
Q 1191 994 1439 701 
Q 1688 409 2113 409 
Q 2538 409 2786 701 
Q 3034 994 3034 1497 
Q 3034 2003 2786 2293 
Q 2538 2584 2113 2584 
z
M 3366 4563 
L 3366 3988 
Q 3128 4100 2886 4159 
Q 2644 4219 2406 4219 
Q 1781 4219 1451 3797 
Q 1122 3375 1075 2522 
Q 1259 2794 1537 2939 
Q 1816 3084 2150 3084 
Q 2853 3084 3261 2657 
Q 3669 2231 3669 1497 
Q 3669 778 3244 343 
Q 2819 -91 2113 -91 
Q 1303 -91 875 529 
Q 447 1150 447 2328 
Q 447 3434 972 4092 
Q 1497 4750 2381 4750 
Q 2619 4750 2861 4703 
Q 3103 4656 3366 4563 
z
" transform="scale(0.015625)"/>
      </defs>
      <use xlink:href="#DejaVuSans-2212"/>
      <use xlink:href="#DejaVuSans-36" x="83.789062"/>
     </g>
    </g>
   </g>
   <g id="xtick_2">
    <g id="line2d_3">
     <path d="M 151.208496 250.21784 
L 148.946214 252.182651 
" style="fill: none; stroke: #000000; stroke-width: 0.8; stroke-linecap: square"/>
    </g>
    <g id="text_3">
     <!-- −4 -->
     <g transform="translate(135.573783 274.306894) scale(0.1 -0.1)">
      <defs>
       <path id="DejaVuSans-34" d="M 2419 4116 
L 825 1625 
L 2419 1625 
L 2419 4116 
z
M 2253 4666 
L 3047 4666 
L 3047 1625 
L 3713 1625 
L 3713 1100 
L 3047 1100 
L 3047 0 
L 2419 0 
L 2419 1100 
L 313 1100 
L 313 1709 
L 2253 4666 
z
" transform="scale(0.015625)"/>
      </defs>
      <use xlink:href="#DejaVuSans-2212"/>
      <use xlink:href="#DejaVuSans-34" x="83.789062"/>
     </g>
    </g>
   </g>
   <g id="xtick_3">
    <g id="line2d_4">
     <path d="M 175.024293 257.988393 
L 172.794521 259.986948 
" style="fill: none; stroke: #000000; stroke-width: 0.8; stroke-linecap: square"/>
    </g>
    <g id="text_4">
     <!-- −2 -->
     <g transform="translate(159.425891 282.253911) scale(0.1 -0.1)">
      <defs>
       <path id="DejaVuSans-32" d="M 1228 531 
L 3431 531 
L 3431 0 
L 469 0 
L 469 531 
Q 828 903 1448 1529 
Q 2069 2156 2228 2338 
Q 2531 2678 2651 2914 
Q 2772 3150 2772 3378 
Q 2772 3750 2511 3984 
Q 2250 4219 1831 4219 
Q 1534 4219 1204 4116 
Q 875 4013 500 3803 
L 500 4441 
Q 881 4594 1212 4672 
Q 1544 4750 1819 4750 
Q 2544 4750 2975 4387 
Q 3406 4025 3406 3419 
Q 3406 3131 3298 2873 
Q 3191 2616 2906 2266 
Q 2828 2175 2409 1742 
Q 1991 1309 1228 531 
z
" transform="scale(0.015625)"/>
      </defs>
      <use xlink:href="#DejaVuSans-2212"/>
      <use xlink:href="#DejaVuSans-32" x="83.789062"/>
     </g>
    </g>
   </g>
   <g id="xtick_4">
    <g id="line2d_5">
     <path d="M 199.250426 265.892829 
L 197.054627 267.926005 
" style="fill: none; stroke: #000000; stroke-width: 0.8; stroke-linecap: square"/>
    </g>
    <g id="text_5">
     <!-- 0 -->
     <g transform="translate(187.88067 290.338473) scale(0.1 -0.1)">
      <defs>
       <path id="DejaVuSans-30" d="M 2034 4250 
Q 1547 4250 1301 3770 
Q 1056 3291 1056 2328 
Q 1056 1369 1301 889 
Q 1547 409 2034 409 
Q 2525 409 2770 889 
Q 3016 1369 3016 2328 
Q 3016 3291 2770 3770 
Q 2525 4250 2034 4250 
z
M 2034 4750 
Q 2819 4750 3233 4129 
Q 3647 3509 3647 2328 
Q 3647 1150 3233 529 
Q 2819 -91 2034 -91 
Q 1250 -91 836 529 
Q 422 1150 422 2328 
Q 422 3509 836 4129 
Q 1250 4750 2034 4750 
z
" transform="scale(0.015625)"/>
      </defs>
      <use xlink:href="#DejaVuSans-30"/>
     </g>
    </g>
   </g>
   <g id="xtick_5">
    <g id="line2d_6">
     <path d="M 223.897593 273.934638 
L 221.737291 276.003343 
" style="fill: none; stroke: #000000; stroke-width: 0.8; stroke-linecap: square"/>
    </g>
    <g id="text_6">
     <!-- 2 -->
     <g transform="translate(212.569245 298.564183) scale(0.1 -0.1)">
      <use xlink:href="#DejaVuSans-32"/>
     </g>
    </g>
   </g>
   <g id="xtick_6">
    <g id="line2d_7">
     <path d="M 248.976865 282.117434 
L 246.853651 284.222607 
" style="fill: none; stroke: #000000; stroke-width: 0.8; stroke-linecap: square"/>
    </g>
    <g id="text_7">
     <!-- 4 -->
     <g transform="translate(237.692652 306.93477) scale(0.1 -0.1)">
      <use xlink:href="#DejaVuSans-34"/>
     </g>
    </g>
   </g>
  </g>
  <g id="axis3d_2">
   <g id="line2d_8">
    <path d="M 352.090401 209.294766 
L 272.679269 290.790123 
" style="fill: none; stroke: #000000; stroke-width: 0.8; stroke-linecap: square"/>
   </g>
   <g id="text_8">
    <!-- Y -->
    <g transform="translate(338.078875 278.988697) scale(0.1 -0.1)">
     <defs>
      <path id="DejaVuSans-59" d="M -13 4666 
L 666 4666 
L 1959 2747 
L 3244 4666 
L 3922 4666 
L 2272 2222 
L 2272 0 
L 1638 0 
L 1638 2222 
L -13 4666 
z
" transform="scale(0.015625)"/>
     </defs>
     <use xlink:href="#DejaVuSans-59"/>
    </g>
   </g>
   <g id="Line3DCollection_2">
    <path d="M 208.159951 63.310642 
L 209.452905 169.668143 
L 350.629897 210.793602 
" style="fill: none; stroke: #b0b0b0; stroke-width: 0.8"/>
    <path d="M 194.1561 73.530015 
L 196.047396 180.904907 
L 338.559391 223.180911 
" style="fill: none; stroke: #b0b0b0; stroke-width: 0.8"/>
    <path d="M 179.750617 84.04248 
L 182.27358 192.450393 
L 326.140335 235.925917 
" style="fill: none; stroke: #b0b0b0; stroke-width: 0.8"/>
    <path d="M 164.925973 94.86083 
L 168.116068 204.3175 
L 313.357411 249.044342 
" style="fill: none; stroke: #b0b0b0; stroke-width: 0.8"/>
    <path d="M 149.663601 105.998614 
L 153.5586 216.519858 
L 300.194389 262.552841 
" style="fill: none; stroke: #b0b0b0; stroke-width: 0.8"/>
    <path d="M 133.943825 117.47019 
L 138.583985 229.071877 
L 286.63406 276.469075 
" style="fill: none; stroke: #b0b0b0; stroke-width: 0.8"/>
   </g>
   <g id="xtick_7">
    <g id="line2d_9">
     <path d="M 349.444937 210.448419 
L 353.002639 211.484792 
" style="fill: none; stroke: #000000; stroke-width: 0.8; stroke-linecap: square"/>
    </g>
    <g id="text_9">
     <!-- −6 -->
     <g transform="translate(355.165012 230.717186) scale(0.1 -0.1)">
      <use xlink:href="#DejaVuSans-2212"/>
      <use xlink:href="#DejaVuSans-36" x="83.789062"/>
     </g>
    </g>
   </g>
   <g id="xtick_8">
    <g id="line2d_10">
     <path d="M 337.362429 222.825833 
L 340.956208 223.891923 
" style="fill: none; stroke: #000000; stroke-width: 0.8; stroke-linecap: square"/>
    </g>
    <g id="text_10">
     <!-- −4 -->
     <g transform="translate(343.257304 243.286942) scale(0.1 -0.1)">
      <use xlink:href="#DejaVuSans-2212"/>
      <use xlink:href="#DejaVuSans-34" x="83.789062"/>
     </g>
    </g>
   </g>
   <g id="xtick_9">
    <g id="line2d_11">
     <path d="M 324.931166 235.560514 
L 328.561639 236.657618 
" style="fill: none; stroke: #000000; stroke-width: 0.8; stroke-linecap: square"/>
    </g>
    <g id="text_11">
     <!-- −2 -->
     <g transform="translate(331.005552 256.21987) scale(0.1 -0.1)">
      <use xlink:href="#DejaVuSans-2212"/>
      <use xlink:href="#DejaVuSans-32" x="83.789062"/>
     </g>
    </g>
   </g>
   <g id="xtick_10">
    <g id="line2d_12">
     <path d="M 312.135827 248.668157 
L 315.803617 249.797647 
" style="fill: none; stroke: #000000; stroke-width: 0.8; stroke-linecap: square"/>
    </g>
    <g id="text_12">
     <!-- 0 -->
     <g transform="translate(322.584471 269.531941) scale(0.1 -0.1)">
      <use xlink:href="#DejaVuSans-30"/>
     </g>
    </g>
   </g>
   <g id="xtick_11">
    <g id="line2d_13">
     <path d="M 298.960182 262.16539 
L 302.665918 263.328721 
" style="fill: none; stroke: #000000; stroke-width: 0.8; stroke-linecap: square"/>
    </g>
    <g id="text_13">
     <!-- 2 -->
     <g transform="translate(309.598343 283.240075) scale(0.1 -0.1)">
      <use xlink:href="#DejaVuSans-32"/>
     </g>
    </g>
   </g>
   <g id="xtick_12">
    <g id="line2d_14">
     <path d="M 285.387018 276.069843 
L 289.131338 277.268561 
" style="fill: none; stroke: #000000; stroke-width: 0.8; stroke-linecap: square"/>
    </g>
    <g id="text_14">
     <!-- 4 -->
     <g transform="translate(296.220015 297.362215) scale(0.1 -0.1)">
      <use xlink:href="#DejaVuSans-34"/>
     </g>
    </g>
   </g>
  </g>
  <g id="axis3d_3">
   <g id="line2d_15">
    <path d="M 352.090401 209.294766 
L 357.122702 99.402171 
" style="fill: none; stroke: #000000; stroke-width: 0.8; stroke-linecap: square"/>
   </g>
   <g id="text_15">
    <!-- Altitude -->
    <g transform="translate(396.789938 169.786959) rotate(-87.378092) scale(0.1 -0.1)">
     <defs>
      <path id="DejaVuSans-41" d="M 2188 4044 
L 1331 1722 
L 3047 1722 
L 2188 4044 
z
M 1831 4666 
L 2547 4666 
L 4325 0 
L 3669 0 
L 3244 1197 
L 1141 1197 
L 716 0 
L 50 0 
L 1831 4666 
z
" transform="scale(0.015625)"/>
      <path id="DejaVuSans-6c" d="M 603 4863 
L 1178 4863 
L 1178 0 
L 603 0 
L 603 4863 
z
" transform="scale(0.015625)"/>
      <path id="DejaVuSans-74" d="M 1172 4494 
L 1172 3500 
L 2356 3500 
L 2356 3053 
L 1172 3053 
L 1172 1153 
Q 1172 725 1289 603 
Q 1406 481 1766 481 
L 2356 481 
L 2356 0 
L 1766 0 
Q 1100 0 847 248 
Q 594 497 594 1153 
L 594 3053 
L 172 3053 
L 172 3500 
L 594 3500 
L 594 4494 
L 1172 4494 
z
" transform="scale(0.015625)"/>
      <path id="DejaVuSans-69" d="M 603 3500 
L 1178 3500 
L 1178 0 
L 603 0 
L 603 3500 
z
M 603 4863 
L 1178 4863 
L 1178 4134 
L 603 4134 
L 603 4863 
z
" transform="scale(0.015625)"/>
      <path id="DejaVuSans-75" d="M 544 1381 
L 544 3500 
L 1119 3500 
L 1119 1403 
Q 1119 906 1312 657 
Q 1506 409 1894 409 
Q 2359 409 2629 706 
Q 2900 1003 2900 1516 
L 2900 3500 
L 3475 3500 
L 3475 0 
L 2900 0 
L 2900 538 
Q 2691 219 2414 64 
Q 2138 -91 1772 -91 
Q 1169 -91 856 284 
Q 544 659 544 1381 
z
M 1991 3584 
L 1991 3584 
z
" transform="scale(0.015625)"/>
      <path id="DejaVuSans-64" d="M 2906 2969 
L 2906 4863 
L 3481 4863 
L 3481 0 
L 2906 0 
L 2906 525 
Q 2725 213 2448 61 
Q 2172 -91 1784 -91 
Q 1150 -91 751 415 
Q 353 922 353 1747 
Q 353 2572 751 3078 
Q 1150 3584 1784 3584 
Q 2172 3584 2448 3432 
Q 2725 3281 2906 2969 
z
M 947 1747 
Q 947 1113 1208 752 
Q 1469 391 1925 391 
Q 2381 391 2643 752 
Q 2906 1113 2906 1747 
Q 2906 2381 2643 2742 
Q 2381 3103 1925 3103 
Q 1469 3103 1208 2742 
Q 947 2381 947 1747 
z
" transform="scale(0.015625)"/>
      <path id="DejaVuSans-65" d="M 3597 1894 
L 3597 1613 
L 953 1613 
Q 991 1019 1311 708 
Q 1631 397 2203 397 
Q 2534 397 2845 478 
Q 3156 559 3463 722 
L 3463 178 
Q 3153 47 2828 -22 
Q 2503 -91 2169 -91 
Q 1331 -91 842 396 
Q 353 884 353 1716 
Q 353 2575 817 3079 
Q 1281 3584 2069 3584 
Q 2775 3584 3186 3129 
Q 3597 2675 3597 1894 
z
M 3022 2063 
Q 3016 2534 2758 2815 
Q 2500 3097 2075 3097 
Q 1594 3097 1305 2825 
Q 1016 2553 972 2059 
L 3022 2063 
z
" transform="scale(0.015625)"/>
     </defs>
     <use xlink:href="#DejaVuSans-41"/>
     <use xlink:href="#DejaVuSans-6c" x="68.408203"/>
     <use xlink:href="#DejaVuSans-74" x="96.191406"/>
     <use xlink:href="#DejaVuSans-69" x="135.400391"/>
     <use xlink:href="#DejaVuSans-74" x="163.183594"/>
     <use xlink:href="#DejaVuSans-75" x="202.392578"/>
     <use xlink:href="#DejaVuSans-64" x="265.771484"/>
     <use xlink:href="#DejaVuSans-65" x="329.248047"/>
    </g>
   </g>
   <g id="Line3DCollection_3">
    <path d="M 352.894974 191.72494 
L 210.880506 151.292546 
L 122.330832 223.976719 
" style="fill: none; stroke: #b0b0b0; stroke-width: 0.8"/>
    <path d="M 353.698785 174.171754 
L 210.685165 134.305186 
L 121.464727 205.991486 
" style="fill: none; stroke: #b0b0b0; stroke-width: 0.8"/>
    <path d="M 354.5141 156.367366 
L 210.487163 117.086424 
L 120.58575 187.738971 
" style="fill: none; stroke: #b0b0b0; stroke-width: 0.8"/>
    <path d="M 355.341167 138.306343 
L 210.286445 99.6315 
L 119.693613 169.21317 
" style="fill: none; stroke: #b0b0b0; stroke-width: 0.8"/>
    <path d="M 356.180241 119.983097 
L 210.082956 81.935522 
L 118.788018 150.407901 
" style="fill: none; stroke: #b0b0b0; stroke-width: 0.8"/>
   </g>
   <g id="xtick_13">
    <g id="line2d_16">
     <path d="M 351.702682 191.385487 
L 355.282414 192.404658 
" style="fill: none; stroke: #000000; stroke-width: 0.8; stroke-linecap: square"/>
    </g>
    <g id="text_16">
     <!-- 0 -->
     <g transform="translate(368.090242 196.752833) scale(0.1 -0.1)">
      <use xlink:href="#DejaVuSans-30"/>
     </g>
    </g>
   </g>
   <g id="xtick_14">
    <g id="line2d_17">
     <path d="M 352.497703 173.83694 
L 356.103847 174.842191 
" style="fill: none; stroke: #000000; stroke-width: 0.8; stroke-linecap: square"/>
    </g>
    <g id="text_17">
     <!-- 2 -->
     <g transform="translate(369.02177 179.234819) scale(0.1 -0.1)">
      <use xlink:href="#DejaVuSans-32"/>
     </g>
    </g>
   </g>
   <g id="xtick_15">
    <g id="line2d_18">
     <path d="M 353.304097 156.037358 
L 356.937045 157.028183 
" style="fill: none; stroke: #000000; stroke-width: 0.8; stroke-linecap: square"/>
    </g>
    <g id="text_18">
     <!-- 4 -->
     <g transform="translate(369.966589 161.466874) scale(0.1 -0.1)">
      <use xlink:href="#DejaVuSans-34"/>
     </g>
    </g>
   </g>
   <g id="xtick_16">
    <g id="line2d_19">
     <path d="M 354.12211 137.981315 
L 357.782263 138.957194 
" style="fill: none; stroke: #000000; stroke-width: 0.8; stroke-linecap: square"/>
    </g>
    <g id="text_19">
     <!-- 6 -->
     <g transform="translate(370.924984 143.44361) scale(0.1 -0.1)">
      <use xlink:href="#DejaVuSans-36"/>
     </g>
    </g>
   </g>
   <g id="xtick_17">
    <g id="line2d_20">
     <path d="M 354.951994 119.663229 
L 358.639763 120.623621 
" style="fill: none; stroke: #000000; stroke-width: 0.8; stroke-linecap: square"/>
    </g>
    <g id="text_20">
     <!-- 8 -->
     <g transform="translate(371.897251 125.159484) scale(0.1 -0.1)">
      <defs>
       <path id="DejaVuSans-38" d="M 2034 2216 
Q 1584 2216 1326 1975 
Q 1069 1734 1069 1313 
Q 1069 891 1326 650 
Q 1584 409 2034 409 
Q 2484 409 2743 651 
Q 3003 894 3003 1313 
Q 3003 1734 2745 1975 
Q 2488 2216 2034 2216 
z
M 1403 2484 
Q 997 2584 770 2862 
Q 544 3141 544 3541 
Q 544 4100 942 4425 
Q 1341 4750 2034 4750 
Q 2731 4750 3128 4425 
Q 3525 4100 3525 3541 
Q 3525 3141 3298 2862 
Q 3072 2584 2669 2484 
Q 3125 2378 3379 2068 
Q 3634 1759 3634 1313 
Q 3634 634 3220 271 
Q 2806 -91 2034 -91 
Q 1263 -91 848 271 
Q 434 634 434 1313 
Q 434 1759 690 2068 
Q 947 2378 1403 2484 
z
M 1172 3481 
Q 1172 3119 1398 2916 
Q 1625 2713 2034 2713 
Q 2441 2713 2670 2916 
Q 2900 3119 2900 3481 
Q 2900 3844 2670 4047 
Q 2441 4250 2034 4250 
Q 1625 4250 1398 4047 
Q 1172 3844 1172 3481 
z
" transform="scale(0.015625)"/>
      </defs>
      <use xlink:href="#DejaVuSans-38"/>
     </g>
    </g>
   </g>
  </g>
  <g id="axes_1">
   <g id="line2d_21">
    <path d="M 290.994311 178.305822 
L 288.612622 183.216347 
L 285.959746 187.974257 
L 283.093924 192.508376 
L 280.073633 196.750102 
L 276.956128 200.635131 
L 273.795979 204.105132 
L 270.643683 207.109308 
L 267.544375 209.605771 
L 264.536725 211.56266 
L 261.652048 212.958953 
L 260.263439 213.443389 
L 258.913676 213.784919 
L 257.604374 213.984106 
L 256.33662 214.042207 
L 255.110986 213.961159 
L 253.927534 213.743553 
L 252.785831 213.392608 
L 251.684971 212.912138 
L 250.623597 212.306514 
L 249.599926 211.580627 
L 247.656619 209.789953 
L 245.833479 207.587895 
L 244.104297 205.027538 
L 242.439466 202.165666 
L 239.993286 197.436532 
L 233.969933 185.385597 
L 231.028168 180.220397 
L 228.895722 176.890884 
L 226.613193 173.694714 
L 224.176491 170.661126 
L 221.588326 167.812967 
L 218.858503 165.166615 
L 216.004071 162.732023 
L 213.049325 160.512883 
L 210.025652 158.506886 
L 206.971213 156.706095 
L 202.430628 154.359754 
L 196.728032 151.790679 
L 190.824097 149.195996 
L 189.039693 148.259727 
L 187.674351 147.338922 
L 186.782587 146.407104 
L 186.529755 145.929517 
L 186.412973 145.440554 
L 186.4371 144.937843 
L 186.606416 144.419304 
L 186.924577 143.883174 
L 188.018687 142.752811 
L 189.734736 141.539787 
L 192.075924 140.243371 
L 195.032806 138.869353 
L 198.583161 137.430093 
L 202.692284 135.944341 
L 207.313687 134.436818 
L 212.390175 132.937581 
L 217.855256 131.481207 
L 223.634795 130.105822 
L 229.648859 128.852026 
L 235.813651 127.761746 
L 242.043471 126.877067 
L 248.252617 126.239082 
L 254.357175 125.88678 
L 260.276659 125.856009 
L 265.93545 126.178528 
L 271.264031 126.881164 
L 273.784696 127.381874 
L 276.200017 127.985065 
L 278.503445 128.69239 
L 280.688966 129.505076 
L 282.751117 130.423906 
L 284.685001 131.449213 
L 286.486293 132.580862 
L 288.151251 133.81825 
L 289.676717 135.160291 
L 291.060126 136.605414 
L 292.299499 138.151564 
L 293.393449 139.796191 
L 294.341172 141.536258 
L 295.142448 143.368241 
L 295.797629 145.288133 
L 296.307631 147.291451 
L 296.673927 149.373244 
L 296.898531 151.528108 
L 296.983984 153.750194 
L 296.933339 156.033231 
L 296.750143 158.370541 
L 296.438413 160.755063 
L 296.002619 163.17938 
L 294.778808 168.116103 
L 293.122462 173.115352 
L 291.082722 178.108158 
L 288.713018 183.023268 
L 286.069833 187.788627 
L 283.211369 192.33299 
L 280.196121 196.587622 
L 277.081421 200.488013 
L 273.921973 203.975565 
L 270.768462 206.999152 
L 267.666259 209.516508 
L 264.65431 211.495357 
L 261.764237 212.914232 
L 260.372619 213.410051 
L 259.019697 213.76295 
L 257.707125 213.973435 
L 256.436036 214.042709 
L 255.207039 213.972656 
L 254.020236 213.765814 
L 252.875236 213.425355 
L 251.771168 212.955046 
L 250.706709 212.359216 
L 249.680111 211.642716 
L 247.731537 209.869451 
L 245.904088 207.682788 
L 244.171712 205.135631 
L 242.504915 202.284648 
L 240.058201 197.56741 
L 234.044244 185.524426 
L 231.110095 180.355248 
L 228.983448 177.021119 
L 226.707017 173.819039 
L 224.276447 170.778498 
L 221.694173 167.9226 
L 218.969713 165.26798 
L 216.119826 162.824846 
L 213.16852 160.597133 
L 210.146906 158.582765 
L 207.092882 156.774021 
L 202.549326 154.416955 
L 196.835074 151.836649 
L 190.903005 149.233988 
L 189.103109 148.296528 
L 187.720005 147.375628 
L 186.808411 146.444723 
L 186.544971 145.967932 
L 186.41717 145.479966 
L 186.429911 144.978429 
L 186.587523 144.46122 
L 186.893712 143.926548 
L 187.963298 142.799371 
L 189.65444 141.589695 
L 191.970833 140.296533 
L 194.903541 138.925411 
L 198.430849 137.488432 
L 202.518537 136.004097 
L 207.120569 134.496899 
L 212.180152 132.996698 
L 217.631133 131.537908 
L 223.399647 130.158536 
L 229.405956 128.899102 
L 235.566379 127.801504 
L 241.795254 126.907843 
L 248.006843 126.259273 
L 254.117132 125.894887 
L 260.045468 125.850676 
L 265.716011 126.158581 
L 271.058983 126.845637 
L 273.587739 127.33827 
L 276.011696 127.933234 
L 278.324262 128.632216 
L 280.519379 129.436477 
L 282.591542 130.346837 
L 284.535806 131.363663 
L 286.347802 132.48686 
L 288.023739 133.715861 
L 289.560416 135.049619 
L 290.955217 136.486603 
L 292.206119 138.024794 
L 293.311686 139.661684 
L 294.27107 141.394274 
L 295.084003 143.219078 
L 295.750791 145.132128 
L 296.272307 147.128977 
L 296.64998 149.204714 
L 296.885781 151.353967 
L 296.98221 153.570924 
L 296.942279 155.849347 
L 296.769497 158.182589 
L 296.467845 160.563619 
L 296.041757 162.985047 
L 294.836113 167.917899 
L 293.196081 172.915957 
L 291.17061 177.910372 
L 288.81298 182.829952 
L 286.179579 187.602646 
L 283.328565 192.157144 
L 280.318452 196.424579 
L 277.206643 200.34024 
L 274.047978 203.845261 
L 270.893324 206.888192 
L 267.788287 209.426391 
L 264.77209 211.427165 
L 261.876657 212.868606 
L 260.482045 213.375807 
L 259.125973 213.740078 
L 257.81014 213.961869 
L 256.535718 214.042328 
L 255.303359 213.983284 
L 254.113205 213.787228 
L 252.964901 213.457279 
L 251.857616 212.997159 
L 250.790062 212.411153 
L 249.760522 211.704072 
L 247.806649 209.948292 
L 245.974847 207.777109 
L 244.239231 205.243242 
L 242.570418 202.40324 
L 240.123093 197.698041 
L 234.118376 185.663306 
L 231.1918 180.490253 
L 229.070935 177.151564 
L 226.800595 173.943621 
L 224.376162 170.896164 
L 221.799794 168.032553 
L 220.457238 166.675222 
L 220.457238 166.675222 
" clip-path="url(#p85f5508099)" style="fill: none; stroke-dasharray: 1.3,2.145; stroke-dashoffset: 0; stroke: #008000; stroke-width: 1.3"/>
   </g>
   <g id="line2d_22">
    <path d="M 224.363141 164.465288 
L 221.314905 164.118589 
L 220.59673 166.513966 
" clip-path="url(#p85f5508099)" style="fill: none; stroke: #ff0000; stroke-width: 2; stroke-linecap: square"/>
   </g>
   <g id="line2d_23">
    <path d="M 218.221858 163.694457 
L 221.314905 164.118589 
L 221.983569 161.65063 
" clip-path="url(#p85f5508099)" style="fill: none; stroke: #0000ff; stroke-width: 2; stroke-linecap: square"/>
   </g>
   <g id="line2d_24">
    <path d="M 241.395451 209.080591 
L 241.293058 212.200558 
L 240.879357 213.860342 
L 239.669224 217.233164 
L 238.636595 219.429589 
L 237.796167 220.661657 
L 236.834557 221.512041 
L 236.312933 221.749577 
L 235.7683 221.844925 
L 235.204635 221.790869 
L 234.626203 221.584565 
L 234.037174 221.226557 
L 232.842253 220.071367 
L 231.644707 218.38314 
L 230.460264 216.246128 
L 229.295963 213.747996 
L 227.586092 209.492572 
L 225.337854 203.176578 
L 220.51873 189.270634 
L 218.376297 183.776568 
L 216.776115 180.091106 
L 215.013982 176.4418 
L 213.07936 172.888825 
L 210.974029 169.498109 
L 208.711968 166.330936 
L 206.317352 163.428702 
L 203.823329 160.811761 
L 201.270824 158.484494 
L 198.706556 156.439462 
L 196.180834 154.661107 
L 192.578008 152.448894 
L 188.388069 150.232408 
L 184.186403 148.062651 
L 183.534515 147.507762 
L 183.380659 147.234581 
L 183.352569 146.954166 
L 183.459052 146.65847 
L 184.111865 145.988386 
L 185.408909 145.161674 
L 188.680664 143.524194 
L 193.579084 141.379638 
L 199.912879 138.89081 
L 207.379249 136.286279 
L 212.831507 134.592088 
L 218.55564 133.007122 
L 224.465718 131.59458 
L 230.485179 130.414557 
L 236.548029 129.523618 
L 242.598753 128.975203 
L 248.593416 128.816154 
L 254.502861 129.072519 
L 260.311844 129.737928 
L 266.011774 130.770341 
L 271.588252 132.096967 
L 277.005601 133.630787 
L 282.19418 135.293455 
L 287.044796 137.03432 
L 291.413257 138.843316 
L 295.141287 140.755393 
L 296.722225 141.771683 
L 298.101312 142.843086 
L 299.278131 143.981622 
L 300.25797 145.197869 
L 301.048258 146.499485 
L 301.656929 147.891316 
L 302.092232 149.375957 
L 302.362826 150.954297 
L 302.477702 152.625959 
L 302.445914 154.389558 
L 302.27627 156.242909 
L 301.556162 160.206972 
L 300.376275 164.489282 
L 298.78404 169.053564 
L 296.814665 173.855626 
L 294.49046 178.840322 
L 291.819654 183.934901 
L 288.798067 189.039656 
L 285.418305 194.022246 
L 283.59475 196.417784 
L 281.68555 198.719899 
L 279.696127 200.905528 
L 277.634577 202.951856 
L 275.511762 204.837243 
L 273.341186 206.542243 
L 271.138559 208.050604 
L 268.921136 209.35016 
L 266.706845 210.433519 
L 264.513322 211.298404 
L 262.356983 211.947614 
L 260.252269 212.388719 
L 258.211119 212.633575 
L 256.242722 212.697562 
L 254.353703 212.597424 
L 252.548486 212.348356 
L 250.829816 211.962826 
L 249.199051 211.451072 
L 247.656312 210.821895 
L 246.200603 210.08321 
L 244.829954 209.242284 
L 243.541573 208.305807 
L 242.331992 207.279943 
L 240.132609 204.982521 
L 238.194331 202.391764 
L 236.474505 199.546215 
L 234.927363 196.482873 
L 233.505751 193.237656 
L 231.505385 188.102137 
L 227.400744 177.216109 
L 225.833338 173.52061 
L 224.099057 169.86665 
L 222.171574 166.313889 
L 220.03948 162.925713 
L 217.707493 159.762848 
L 215.194366 156.876381 
L 212.528669 154.295386 
L 209.747257 152.026922 
L 206.894886 150.063163 
L 204.022309 148.386318 
L 201.183968 146.97242 
L 197.112853 145.285847 
L 193.429846 144.040566 
L 188.626088 142.709044 
L 186.440898 142.021426 
L 186.060416 141.67643 
L 186.078229 141.477536 
L 186.575959 140.986615 
L 187.747858 140.321265 
L 190.88419 138.898649 
L 195.691785 136.953234 
L 201.952623 134.668104 
L 209.357607 132.269991 
L 214.773971 130.713377 
L 220.466313 129.264365 
L 226.349583 127.984122 
L 232.348015 126.930917 
L 238.395329 126.161065 
L 244.434274 125.730122 
L 250.419461 125.685146 
L 256.3214 126.048902 
L 262.124672 126.810365 
L 267.819645 127.923583 
L 273.389705 129.314873 
L 278.796559 130.899277 
L 283.968238 132.601252 
L 288.793305 134.373026 
L 293.125435 136.2083 
L 295.056147 137.160505 
L 296.804583 138.146731 
L 298.355927 139.177653 
L 299.701861 140.265251 
L 300.842324 141.421881 
L 301.783407 142.658438 
L 302.533461 143.982759 
L 303.10117 145.399736 
L 303.495343 146.911883 
L 303.72502 148.519975 
L 303.799463 150.223472 
L 303.727915 152.020796 
L 303.519311 153.909602 
L 302.72392 157.949088 
L 301.472421 162.311841 
L 299.812202 166.96065 
L 297.778432 171.850739 
L 295.393336 176.926752 
L 292.664546 182.115593 
L 289.586843 187.317106 
L 286.151676 192.398377 
L 284.30029 194.843691 
L 282.362987 197.195625 
L 280.345084 199.430859 
L 278.254608 201.526266 
L 276.102426 203.459863 
L 273.90211 205.211816 
L 271.669528 206.765509 
L 269.42215 208.108403 
L 267.178189 209.232816 
L 264.955591 210.136249 
L 262.771085 210.821407 
L 260.639386 211.295871 
L 258.572653 211.571627 
L 256.580213 211.664309 
L 254.668736 211.591117 
L 252.842658 211.367732 
L 251.104696 211.00699 
L 249.456183 210.51935 
L 247.89721 209.91375 
L 246.426742 209.198172 
L 245.04277 208.379925 
L 243.742457 207.46571 
L 242.522285 206.461675 
L 240.305551 204.206449 
L 238.354668 201.655574 
L 236.62649 198.847142 
L 235.074692 195.81781 
L 233.651521 192.603294 
L 231.653295 187.508129 
L 227.563156 176.687729 
L 226.002154 173.009836 
L 224.274295 169.37118 
L 222.352711 165.831442 
L 222.352711 165.831442 
" clip-path="url(#p85f5508099)" style="fill: none; stroke-dasharray: 3.7,1.6; stroke-dashoffset: 0; stroke: #0000ff"/>
   </g>
   <g id="line2d_25">
    <path d="M 221.314905 164.118589 
L 221.047361 163.697656 
L 220.608548 163.020585 
L 219.990034 162.096097 
L 219.180102 160.938178 
L 218.164408 159.56775 
L 216.926235 158.013556 
L 215.446711 156.311859 
L 213.707268 154.506318 
L 211.694724 152.648293 
L 209.406903 150.794492 
L 206.857731 149.001242 
L 204.082577 147.317572 
L 201.14393 145.779319 
L 198.136349 144.405949 
L 195.189169 143.201165 
L 192.466495 142.156427 
L 190.167095 141.251165 
L 188.526007 140.441862 
L 187.827142 139.643738 
L 188.414591 138.71731 
L 190.674537 137.482727 
L 194.962655 135.773763 
L 201.458169 133.547787 
L 210.105233 130.904847 
L 220.59958 128.094966 
L 232.404555 125.583969 
L 244.922811 123.979573 
L 257.703846 123.796597 
L 270.504402 125.121093 
L 283.105841 127.598903 
" clip-path="url(#p85f5508099)" style="fill: none; stroke: #000000; stroke-width: 1.5; stroke-linecap: square"/>
   </g>
   <g id="Path3DCollection_1">
    <defs>
     <path id="mb6db69bce7" d="M 0 2.5 
C 0.663008 2.5 1.29895 2.236584 1.767767 1.767767 
C 2.236584 1.29895 2.5 0.663008 2.5 0 
C 2.5 -0.663008 2.236584 -1.29895 1.767767 -1.767767 
C 1.29895 -2.236584 0.663008 -2.5 0 -2.5 
C -0.663008 -2.5 -1.29895 -2.236584 -1.767767 -1.767767 
C -2.236584 -1.29895 -2.5 -0.663008 -2.5 0 
C -2.5 0.663008 -2.236584 1.29895 -1.767767 1.767767 
C -1.29895 2.236584 -0.663008 2.5 0 2.5 
z
" style="stroke: #ff00ff"/>
    </defs>
    <g clip-path="url(#p85f5508099)">
     <use xlink:href="#mb6db69bce7" x="221.799794" y="168.032553" style="fill: #ff00ff; stroke: #ff00ff"/>
    </g>
   </g>
   <g id="text_21">
    <!-- Time = 14.92 s -->
    <g transform="translate(116.4096 54.7776) scale(0.1 -0.1)">
     <defs>
      <path id="DejaVuSans-54" d="M -19 4666 
L 3928 4666 
L 3928 4134 
L 2272 4134 
L 2272 0 
L 1638 0 
L 1638 4134 
L -19 4134 
L -19 4666 
z
" transform="scale(0.015625)"/>
      <path id="DejaVuSans-6d" d="M 3328 2828 
Q 3544 3216 3844 3400 
Q 4144 3584 4550 3584 
Q 5097 3584 5394 3201 
Q 5691 2819 5691 2113 
L 5691 0 
L 5113 0 
L 5113 2094 
Q 5113 2597 4934 2840 
Q 4756 3084 4391 3084 
Q 3944 3084 3684 2787 
Q 3425 2491 3425 1978 
L 3425 0 
L 2847 0 
L 2847 2094 
Q 2847 2600 2669 2842 
Q 2491 3084 2119 3084 
Q 1678 3084 1418 2786 
Q 1159 2488 1159 1978 
L 1159 0 
L 581 0 
L 581 3500 
L 1159 3500 
L 1159 2956 
Q 1356 3278 1631 3431 
Q 1906 3584 2284 3584 
Q 2666 3584 2933 3390 
Q 3200 3197 3328 2828 
z
" transform="scale(0.015625)"/>
      <path id="DejaVuSans-20" transform="scale(0.015625)"/>
      <path id="DejaVuSans-3d" d="M 678 2906 
L 4684 2906 
L 4684 2381 
L 678 2381 
L 678 2906 
z
M 678 1631 
L 4684 1631 
L 4684 1100 
L 678 1100 
L 678 1631 
z
" transform="scale(0.015625)"/>
      <path id="DejaVuSans-31" d="M 794 531 
L 1825 531 
L 1825 4091 
L 703 3866 
L 703 4441 
L 1819 4666 
L 2450 4666 
L 2450 531 
L 3481 531 
L 3481 0 
L 794 0 
L 794 531 
z
" transform="scale(0.015625)"/>
      <path id="DejaVuSans-2e" d="M 684 794 
L 1344 794 
L 1344 0 
L 684 0 
L 684 794 
z
" transform="scale(0.015625)"/>
      <path id="DejaVuSans-39" d="M 703 97 
L 703 672 
Q 941 559 1184 500 
Q 1428 441 1663 441 
Q 2288 441 2617 861 
Q 2947 1281 2994 2138 
Q 2813 1869 2534 1725 
Q 2256 1581 1919 1581 
Q 1219 1581 811 2004 
Q 403 2428 403 3163 
Q 403 3881 828 4315 
Q 1253 4750 1959 4750 
Q 2769 4750 3195 4129 
Q 3622 3509 3622 2328 
Q 3622 1225 3098 567 
Q 2575 -91 1691 -91 
Q 1453 -91 1209 -44 
Q 966 3 703 97 
z
M 1959 2075 
Q 2384 2075 2632 2365 
Q 2881 2656 2881 3163 
Q 2881 3666 2632 3958 
Q 2384 4250 1959 4250 
Q 1534 4250 1286 3958 
Q 1038 3666 1038 3163 
Q 1038 2656 1286 2365 
Q 1534 2075 1959 2075 
z
" transform="scale(0.015625)"/>
      <path id="DejaVuSans-73" d="M 2834 3397 
L 2834 2853 
Q 2591 2978 2328 3040 
Q 2066 3103 1784 3103 
Q 1356 3103 1142 2972 
Q 928 2841 928 2578 
Q 928 2378 1081 2264 
Q 1234 2150 1697 2047 
L 1894 2003 
Q 2506 1872 2764 1633 
Q 3022 1394 3022 966 
Q 3022 478 2636 193 
Q 2250 -91 1575 -91 
Q 1294 -91 989 -36 
Q 684 19 347 128 
L 347 722 
Q 666 556 975 473 
Q 1284 391 1588 391 
Q 1994 391 2212 530 
Q 2431 669 2431 922 
Q 2431 1156 2273 1281 
Q 2116 1406 1581 1522 
L 1381 1569 
Q 847 1681 609 1914 
Q 372 2147 372 2553 
Q 372 3047 722 3315 
Q 1072 3584 1716 3584 
Q 2034 3584 2315 3537 
Q 2597 3491 2834 3397 
z
" transform="scale(0.015625)"/>
     </defs>
     <use xlink:href="#DejaVuSans-54"/>
     <use xlink:href="#DejaVuSans-69" x="57.958984"/>
     <use xlink:href="#DejaVuSans-6d" x="85.742188"/>
     <use xlink:href="#DejaVuSans-65" x="183.154297"/>
     <use xlink:href="#DejaVuSans-20" x="244.677734"/>
     <use xlink:href="#DejaVuSans-3d" x="276.464844"/>
     <use xlink:href="#DejaVuSans-20" x="360.253906"/>
     <use xlink:href="#DejaVuSans-31" x="392.041016"/>
     <use xlink:href="#DejaVuSans-34" x="455.664062"/>
     <use xlink:href="#DejaVuSans-2e" x="519.287109"/>
     <use xlink:href="#DejaVuSans-39" x="551.074219"/>
     <use xlink:href="#DejaVuSans-32" x="614.697266"/>
     <use xlink:href="#DejaVuSans-20" x="678.320312"/>
     <use xlink:href="#DejaVuSans-73" x="710.107422"/>
    </g>
   </g>
   <g id="text_22">
    <!-- fig8 -->
    <g transform="translate(336.901025 54.7776) scale(0.1 -0.1)">
     <defs>
      <path id="DejaVuSans-66" d="M 2375 4863 
L 2375 4384 
L 1825 4384 
Q 1516 4384 1395 4259 
Q 1275 4134 1275 3809 
L 1275 3500 
L 2222 3500 
L 2222 3053 
L 1275 3053 
L 1275 0 
L 697 0 
L 697 3053 
L 147 3053 
L 147 3500 
L 697 3500 
L 697 3744 
Q 697 4328 969 4595 
Q 1241 4863 1831 4863 
L 2375 4863 
z
" transform="scale(0.015625)"/>
      <path id="DejaVuSans-67" d="M 2906 1791 
Q 2906 2416 2648 2759 
Q 2391 3103 1925 3103 
Q 1463 3103 1205 2759 
Q 947 2416 947 1791 
Q 947 1169 1205 825 
Q 1463 481 1925 481 
Q 2391 481 2648 825 
Q 2906 1169 2906 1791 
z
M 3481 434 
Q 3481 -459 3084 -895 
Q 2688 -1331 1869 -1331 
Q 1566 -1331 1297 -1286 
Q 1028 -1241 775 -1147 
L 775 -588 
Q 1028 -725 1275 -790 
Q 1522 -856 1778 -856 
Q 2344 -856 2625 -561 
Q 2906 -266 2906 331 
L 2906 616 
Q 2728 306 2450 153 
Q 2172 0 1784 0 
Q 1141 0 747 490 
Q 353 981 353 1791 
Q 353 2603 747 3093 
Q 1141 3584 1784 3584 
Q 2172 3584 2450 3431 
Q 2728 3278 2906 2969 
L 2906 3500 
L 3481 3500 
L 3481 434 
z
" transform="scale(0.015625)"/>
     </defs>
     <use xlink:href="#DejaVuSans-66"/>
     <use xlink:href="#DejaVuSans-69" x="35.205078"/>
     <use xlink:href="#DejaVuSans-67" x="62.988281"/>
     <use xlink:href="#DejaVuSans-38" x="126.464844"/>
    </g>
   </g>
  </g>
 </g>
 <defs>
  <clipPath id="p85f5508099">
   <rect x="103.104" y="41.472" width="266.112" height="266.112"/>
  </clipPath>
 </defs>
</svg>
