<?xml version="1.0" encoding="utf-8" standalone="no"?>
<!DOCTYPE svg PUBLIC "-//W3C//DTD SVG 1.1//EN"
  "http://www.w3.org/Graphics/SVG/1.1/DTD/svg11.dtd">
<svg xmlns:xlink="http://www.w3.org/1999/xlink" width="460.8pt" height="345.6pt" viewBox="0 0 460.8 345.6" xmlns="http://www.w3.org/2000/svg" version="1.1">
 <metadata>
  <rdf:RDF xmlns:dc="http://purl.org/dc/elements/1.1/" xmlns:cc="http://creativecommons.org/ns#" xmlns:rdf="http://www.w3.org/1999/02/22-rdf-syntax-ns#">
   <cc:Work>
    <dc:type rdf:resource="http://purl.org/dc/dcmitype/StillImage"/>
    <dc:date>2023-11-08T10:18:55.495107</dc:date>
    <dc:format>image/svg+xml</dc:format>
    <dc:creator>
     <cc:Agent>
      <dc:title>Matplotlib v3.8.0, https://matplotlib.org/</dc:title>
     </cc:Agent>
    </dc:creator>
   </cc:Work>
  </rdf:RDF>
 </metadata>
 <defs>
  <style type="text/css">*{stroke-linejoin: round; stroke-linecap: butt}</style>
 </defs>
 <g id="figure_1">
  <g id="patch_1">
   <path d="M 0 345.6 
L 460.8 345.6 
L 460.8 0 
L 0 0 
z
" style="fill: #ffffff"/>
  </g>
  <g id="patch_2">
   <path d="M 103.104 307.584 
L 369.216 307.584 
L 369.216 41.472 
L 103.104 41.472 
z
" style="fill: #ffffff"/>
  </g>
  <g id="pane3d_1">
   <g id="patch_3">
    <path d="M 211.076164 168.307495 
L 123.197291 241.969309 
L 117.770234 129.272941 
L 209.854564 62.073991 
" style="fill: #f2f2f2; opacity: 0.5; stroke: #f2f2f2; stroke-linejoin: miter"/>
   </g>
  </g>
  <g id="pane3d_2">
   <g id="patch_4">
    <path d="M 211.076164 168.307495 
L 352.090401 209.294766 
L 357.122702 99.402171 
L 209.854564 62.073991 
" style="fill: #e6e6e6; opacity: 0.5; stroke: #e6e6e6; stroke-linejoin: miter"/>
   </g>
  </g>
  <g id="pane3d_3">
   <g id="patch_5">
    <path d="M 211.076164 168.307495 
L 352.090401 209.294766 
L 272.679269 290.790123 
L 123.197291 241.969309 
" style="fill: #ececec; opacity: 0.5; stroke: #ececec; stroke-linejoin: miter"/>
   </g>
  </g>
  <g id="grid3d_1">
   <g id="Line3DCollection_1">
    <path d="M 136.838308 246.424465 
L 223.996178 172.062833 
L 223.32172 65.487522 
" style="fill: none; stroke: #b0b0b0; stroke-width: 0.8"/>
    <path d="M 157.739705 253.250861 
L 243.772599 177.811058 
L 243.945727 70.715107 
" style="fill: none; stroke: #b0b0b0; stroke-width: 0.8"/>
    <path d="M 178.958471 260.18091 
L 263.824317 183.639301 
L 264.869295 76.018622 
" style="fill: none; stroke: #b0b0b0; stroke-width: 0.8"/>
    <path d="M 200.501889 267.21699 
L 284.157121 189.549244 
L 286.098997 81.399732 
" style="fill: none; stroke: #b0b0b0; stroke-width: 0.8"/>
    <path d="M 222.377467 274.361554 
L 304.776961 195.542617 
L 307.641601 86.860154 
" style="fill: none; stroke: #b0b0b0; stroke-width: 0.8"/>
    <path d="M 244.592948 281.61713 
L 325.68996 201.6212 
L 329.504077 92.401655 
" style="fill: none; stroke: #b0b0b0; stroke-width: 0.8"/>
    <path d="M 267.156315 288.986326 
L 346.902414 207.786823 
L 351.693603 98.026053 
" style="fill: none; stroke: #b0b0b0; stroke-width: 0.8"/>
   </g>
  </g>
  <g id="grid3d_2">
   <g id="Line3DCollection_2">
    <path d="M 197.962214 70.752486 
L 199.689352 177.852147 
L 341.840265 219.813927 
" style="fill: none; stroke: #b0b0b0; stroke-width: 0.8"/>
    <path d="M 185.305895 79.988491 
L 187.583323 187.99966 
L 330.929859 231.010688 
" style="fill: none; stroke: #b0b0b0; stroke-width: 0.8"/>
    <path d="M 172.325352 89.4611 
L 175.180299 198.396121 
L 319.738031 242.496256 
" style="fill: none; stroke: #b0b0b0; stroke-width: 0.8"/>
    <path d="M 159.007966 99.179522 
L 162.469214 209.050805 
L 308.25375 254.281954 
" style="fill: none; stroke: #b0b0b0; stroke-width: 0.8"/>
    <path d="M 145.340452 109.153451 
L 149.438446 219.973452 
L 296.465402 266.379699 
" style="fill: none; stroke: #b0b0b0; stroke-width: 0.8"/>
    <path d="M 131.308819 119.393098 
L 136.075783 231.174302 
L 284.360748 278.802052 
" style="fill: none; stroke: #b0b0b0; stroke-width: 0.8"/>
   </g>
  </g>
  <g id="grid3d_3">
   <g id="Line3DCollection_3">
    <path d="M 352.410946 202.29488 
L 210.998198 161.527296 
L 122.852146 234.802154 
" style="fill: none; stroke: #b0b0b0; stroke-width: 0.8"/>
    <path d="M 353.117054 186.875269 
L 210.826523 146.598058 
L 122.091587 219.008649 
" style="fill: none; stroke: #b0b0b0; stroke-width: 0.8"/>
    <path d="M 353.832071 171.261143 
L 210.652787 131.489505 
L 121.321067 203.008298 
" style="fill: none; stroke: #b0b0b0; stroke-width: 0.8"/>
    <path d="M 354.556164 155.448796 
L 210.476951 116.198387 
L 120.540389 186.79701 
" style="fill: none; stroke: #b0b0b0; stroke-width: 0.8"/>
    <path d="M 355.289508 139.434429 
L 210.298978 100.721375 
L 119.749351 170.370588 
" style="fill: none; stroke: #b0b0b0; stroke-width: 0.8"/>
    <path d="M 356.032282 123.214148 
L 210.118828 85.055059 
L 118.947744 153.724719 
" style="fill: none; stroke: #b0b0b0; stroke-width: 0.8"/>
    <path d="M 356.784668 106.783954 
L 209.936461 69.195943 
L 118.135357 136.854976 
" style="fill: none; stroke: #b0b0b0; stroke-width: 0.8"/>
   </g>
  </g>
  <g id="axis3d_1">
   <g id="line2d_1">
    <path d="M 123.197291 241.969309 
L 272.679269 290.790123 
" style="fill: none; stroke: #000000; stroke-width: 0.8; stroke-linecap: square"/>
   </g>
   <g id="xtick_1">
    <g id="line2d_2">
     <path d="M 137.597376 245.776841 
L 135.316909 247.722497 
" style="fill: none; stroke: #000000; stroke-width: 0.8; stroke-linecap: square"/>
    </g>
    <g id="text_1">
     <!-- −6 -->
     <g transform="translate(121.942728 269.765315) scale(0.1 -0.1)">
      <defs>
       <path id="DejaVuSans-2212" d="M 678 2272 
L 4684 2272 
L 4684 1741 
L 678 1741 
L 678 2272 
z
" transform="scale(0.015625)"/>
       <path id="DejaVuSans-36" d="M 2113 2584 
Q 1688 2584 1439 2293 
Q 1191 2003 1191 1497 
Q 1191 994 1439 701 
Q 1688 409 2113 409 
Q 2538 409 2786 701 
Q 3034 994 3034 1497 
Q 3034 2003 2786 2293 
Q 2538 2584 2113 2584 
z
M 3366 4563 
L 3366 3988 
Q 3128 4100 2886 4159 
Q 2644 4219 2406 4219 
Q 1781 4219 1451 3797 
Q 1122 3375 1075 2522 
Q 1259 2794 1537 2939 
Q 1816 3084 2150 3084 
Q 2853 3084 3261 2657 
Q 3669 2231 3669 1497 
Q 3669 778 3244 343 
Q 2819 -91 2113 -91 
Q 1303 -91 875 529 
Q 447 1150 447 2328 
Q 447 3434 972 4092 
Q 1497 4750 2381 4750 
Q 2619 4750 2861 4703 
Q 3103 4656 3366 4563 
z
" transform="scale(0.015625)"/>
      </defs>
      <use xlink:href="#DejaVuSans-2212"/>
      <use xlink:href="#DejaVuSans-36" x="83.789062"/>
     </g>
    </g>
   </g>
   <g id="xtick_2">
    <g id="line2d_3">
     <path d="M 158.489435 252.593445 
L 156.236999 254.568542 
" style="fill: none; stroke: #000000; stroke-width: 0.8; stroke-linecap: square"/>
    </g>
    <g id="text_2">
     <!-- −4 -->
     <g transform="translate(142.86563 276.736383) scale(0.1 -0.1)">
      <defs>
       <path id="DejaVuSans-34" d="M 2419 4116 
L 825 1625 
L 2419 1625 
L 2419 4116 
z
M 2253 4666 
L 3047 4666 
L 3047 1625 
L 3713 1625 
L 3713 1100 
L 3047 1100 
L 3047 0 
L 2419 0 
L 2419 1100 
L 313 1100 
L 313 1709 
L 2253 4666 
z
" transform="scale(0.015625)"/>
      </defs>
      <use xlink:href="#DejaVuSans-2212"/>
      <use xlink:href="#DejaVuSans-34" x="83.789062"/>
     </g>
    </g>
   </g>
   <g id="xtick_3">
    <g id="line2d_4">
     <path d="M 179.69849 259.513477 
L 177.475203 261.518689 
" style="fill: none; stroke: #000000; stroke-width: 0.8; stroke-linecap: square"/>
    </g>
    <g id="text_3">
     <!-- −2 -->
     <g transform="translate(164.107429 283.8137) scale(0.1 -0.1)">
      <defs>
       <path id="DejaVuSans-32" d="M 1228 531 
L 3431 531 
L 3431 0 
L 469 0 
L 469 531 
Q 828 903 1448 1529 
Q 2069 2156 2228 2338 
Q 2531 2678 2651 2914 
Q 2772 3150 2772 3378 
Q 2772 3750 2511 3984 
Q 2250 4219 1831 4219 
Q 1534 4219 1204 4116 
Q 875 4013 500 3803 
L 500 4441 
Q 881 4594 1212 4672 
Q 1544 4750 1819 4750 
Q 2544 4750 2975 4387 
Q 3406 4025 3406 3419 
Q 3406 3131 3298 2873 
Q 3191 2616 2906 2266 
Q 2828 2175 2409 1742 
Q 1991 1309 1228 531 
z
" transform="scale(0.015625)"/>
      </defs>
      <use xlink:href="#DejaVuSans-2212"/>
      <use xlink:href="#DejaVuSans-32" x="83.789062"/>
     </g>
    </g>
   </g>
   <g id="xtick_4">
    <g id="line2d_5">
     <path d="M 201.231812 266.53931 
L 199.038832 268.575331 
" style="fill: none; stroke: #000000; stroke-width: 0.8; stroke-linecap: square"/>
    </g>
    <g id="text_4">
     <!-- 0 -->
     <g transform="translate(189.865313 290.999714) scale(0.1 -0.1)">
      <defs>
       <path id="DejaVuSans-30" d="M 2034 4250 
Q 1547 4250 1301 3770 
Q 1056 3291 1056 2328 
Q 1056 1369 1301 889 
Q 1547 409 2034 409 
Q 2525 409 2770 889 
Q 3016 1369 3016 2328 
Q 3016 3291 2770 3770 
Q 2525 4250 2034 4250 
z
M 2034 4750 
Q 2819 4750 3233 4129 
Q 3647 3509 3647 2328 
Q 3647 1150 3233 529 
Q 2819 -91 2034 -91 
Q 1250 -91 836 529 
Q 422 1150 422 2328 
Q 422 3509 836 4129 
Q 1250 4750 2034 4750 
z
" transform="scale(0.015625)"/>
      </defs>
      <use xlink:href="#DejaVuSans-30"/>
     </g>
    </g>
   </g>
   <g id="xtick_5">
    <g id="line2d_6">
     <path d="M 223.096894 273.673389 
L 220.935425 275.740934 
" style="fill: none; stroke: #000000; stroke-width: 0.8; stroke-linecap: square"/>
    </g>
    <g id="text_5">
     <!-- 2 -->
     <g transform="translate(211.767171 298.296949) scale(0.1 -0.1)">
      <use xlink:href="#DejaVuSans-32"/>
     </g>
    </g>
   </g>
   <g id="xtick_6">
    <g id="line2d_7">
     <path d="M 245.301463 280.918235 
L 243.172753 283.018042 
" style="fill: none; stroke: #000000; stroke-width: 0.8; stroke-linecap: square"/>
    </g>
    <g id="text_6">
     <!-- 4 -->
     <g transform="translate(234.010656 305.708007) scale(0.1 -0.1)">
      <use xlink:href="#DejaVuSans-34"/>
     </g>
    </g>
   </g>
   <g id="xtick_7">
    <g id="line2d_8">
     <path d="M 267.853487 288.276447 
L 265.758832 290.409278 
" style="fill: none; stroke: #000000; stroke-width: 0.8; stroke-linecap: square"/>
    </g>
    <g id="text_7">
     <!-- 6 -->
     <g transform="translate(256.603824 313.235572) scale(0.1 -0.1)">
      <use xlink:href="#DejaVuSans-36"/>
     </g>
    </g>
   </g>
   <g id="text_8">
    <!-- X -->
    <g transform="translate(176.251428 303.76759) scale(0.1 -0.1)">
     <defs>
      <path id="DejaVuSans-58" d="M 403 4666 
L 1081 4666 
L 2241 2931 
L 3406 4666 
L 4084 4666 
L 2584 2425 
L 4184 0 
L 3506 0 
L 2194 1984 
L 872 0 
L 191 0 
L 1856 2491 
L 403 4666 
z
" transform="scale(0.015625)"/>
     </defs>
     <use xlink:href="#DejaVuSans-58"/>
    </g>
   </g>
  </g>
  <g id="axis3d_2">
   <g id="line2d_9">
    <path d="M 352.090401 209.294766 
L 272.679269 290.790123 
" style="fill: none; stroke: #000000; stroke-width: 0.8; stroke-linecap: square"/>
   </g>
   <g id="xtick_8">
    <g id="line2d_10">
     <path d="M 340.646551 219.461553 
L 344.230565 220.519524 
" style="fill: none; stroke: #000000; stroke-width: 0.8; stroke-linecap: square"/>
    </g>
    <g id="text_9">
     <!-- −4 -->
     <g transform="translate(346.493946 239.870348) scale(0.1 -0.1)">
      <use xlink:href="#DejaVuSans-2212"/>
      <use xlink:href="#DejaVuSans-34" x="83.789062"/>
     </g>
    </g>
   </g>
   <g id="xtick_9">
    <g id="line2d_11">
     <path d="M 329.72538 230.649285 
L 333.341753 231.734375 
" style="fill: none; stroke: #000000; stroke-width: 0.8; stroke-linecap: square"/>
    </g>
    <g id="text_10">
     <!-- −2 -->
     <g transform="translate(335.730577 251.232142) scale(0.1 -0.1)">
      <use xlink:href="#DejaVuSans-2212"/>
      <use xlink:href="#DejaVuSans-32" x="83.789062"/>
     </g>
    </g>
   </g>
   <g id="xtick_10">
    <g id="line2d_12">
     <path d="M 318.522625 242.125473 
L 322.171844 243.238738 
" style="fill: none; stroke: #000000; stroke-width: 0.8; stroke-linecap: square"/>
    </g>
    <g id="text_11">
     <!-- 0 -->
     <g transform="translate(328.879263 262.887169) scale(0.1 -0.1)">
      <use xlink:href="#DejaVuSans-30"/>
     </g>
    </g>
   </g>
   <g id="xtick_11">
    <g id="line2d_13">
     <path d="M 307.027253 253.90142 
L 310.709813 255.043972 
" style="fill: none; stroke: #000000; stroke-width: 0.8; stroke-linecap: square"/>
    </g>
    <g id="text_12">
     <!-- 2 -->
     <g transform="translate(317.549423 274.846929) scale(0.1 -0.1)">
      <use xlink:href="#DejaVuSans-32"/>
     </g>
    </g>
   </g>
   <g id="xtick_12">
    <g id="line2d_14">
     <path d="M 295.227648 265.989026 
L 298.944046 267.162036 
" style="fill: none; stroke: #000000; stroke-width: 0.8; stroke-linecap: square"/>
    </g>
    <g id="text_13">
     <!-- 4 -->
     <g transform="translate(305.919428 287.123531) scale(0.1 -0.1)">
      <use xlink:href="#DejaVuSans-34"/>
     </g>
    </g>
   </g>
   <g id="xtick_13">
    <g id="line2d_15">
     <path d="M 283.111571 278.400828 
L 286.862309 279.60553 
" style="fill: none; stroke: #000000; stroke-width: 0.8; stroke-linecap: square"/>
    </g>
    <g id="text_14">
     <!-- 6 -->
     <g transform="translate(293.977191 299.729736) scale(0.1 -0.1)">
      <use xlink:href="#DejaVuSans-36"/>
     </g>
    </g>
   </g>
   <g id="text_15">
    <!-- Y -->
    <g transform="translate(338.078875 278.988697) scale(0.1 -0.1)">
     <defs>
      <path id="DejaVuSans-59" d="M -13 4666 
L 666 4666 
L 1959 2747 
L 3244 4666 
L 3922 4666 
L 2272 2222 
L 2272 0 
L 1638 0 
L 1638 2222 
L -13 4666 
z
" transform="scale(0.015625)"/>
     </defs>
     <use xlink:href="#DejaVuSans-59"/>
    </g>
   </g>
  </g>
  <g id="axis3d_3">
   <g id="line2d_16">
    <path d="M 352.090401 209.294766 
L 357.122702 99.402171 
" style="fill: none; stroke: #000000; stroke-width: 0.8; stroke-linecap: square"/>
   </g>
   <g id="xtick_14">
    <g id="line2d_17">
     <path d="M 351.223945 201.952682 
L 354.787779 202.980092 
" style="fill: none; stroke: #000000; stroke-width: 0.8; stroke-linecap: square"/>
    </g>
    <g id="text_16">
     <!-- 0 -->
     <g transform="translate(367.529287 207.301956) scale(0.1 -0.1)">
      <use xlink:href="#DejaVuSans-30"/>
     </g>
    </g>
   </g>
   <g id="xtick_15">
    <g id="line2d_18">
     <path d="M 351.922334 186.537088 
L 355.509362 187.552444 
" style="fill: none; stroke: #000000; stroke-width: 0.8; stroke-linecap: square"/>
    </g>
    <g id="text_17">
     <!-- 2 -->
     <g transform="translate(368.347612 191.912805) scale(0.1 -0.1)">
      <use xlink:href="#DejaVuSans-32"/>
     </g>
    </g>
   </g>
   <g id="xtick_16">
    <g id="line2d_19">
     <path d="M 352.629531 170.927107 
L 356.240055 171.930021 
" style="fill: none; stroke: #000000; stroke-width: 0.8; stroke-linecap: square"/>
    </g>
    <g id="text_18">
     <!-- 4 -->
     <g transform="translate(369.176229 176.330113) scale(0.1 -0.1)">
      <use xlink:href="#DejaVuSans-34"/>
     </g>
    </g>
   </g>
   <g id="xtick_17">
    <g id="line2d_20">
     <path d="M 353.345701 155.119038 
L 356.980032 156.109112 
" style="fill: none; stroke: #000000; stroke-width: 0.8; stroke-linecap: square"/>
    </g>
    <g id="text_19">
     <!-- 6 -->
     <g transform="translate(370.015333 160.550205) scale(0.1 -0.1)">
      <use xlink:href="#DejaVuSans-36"/>
     </g>
    </g>
   </g>
   <g id="xtick_18">
    <g id="line2d_21">
     <path d="M 354.071017 139.109087 
L 357.729471 140.085909 
" style="fill: none; stroke: #000000; stroke-width: 0.8; stroke-linecap: square"/>
    </g>
    <g id="text_20">
     <!-- 8 -->
     <g transform="translate(370.865124 144.569315) scale(0.1 -0.1)">
      <defs>
       <path id="DejaVuSans-38" d="M 2034 2216 
Q 1584 2216 1326 1975 
Q 1069 1734 1069 1313 
Q 1069 891 1326 650 
Q 1584 409 2034 409 
Q 2484 409 2743 651 
Q 3003 894 3003 1313 
Q 3003 1734 2745 1975 
Q 2488 2216 2034 2216 
z
M 1403 2484 
Q 997 2584 770 2862 
Q 544 3141 544 3541 
Q 544 4100 942 4425 
Q 1341 4750 2034 4750 
Q 2731 4750 3128 4425 
Q 3525 4100 3525 3541 
Q 3525 3141 3298 2862 
Q 3072 2584 2669 2484 
Q 3125 2378 3379 2068 
Q 3634 1759 3634 1313 
Q 3634 634 3220 271 
Q 2806 -91 2034 -91 
Q 1263 -91 848 271 
Q 434 634 434 1313 
Q 434 1759 690 2068 
Q 947 2378 1403 2484 
z
M 1172 3481 
Q 1172 3119 1398 2916 
Q 1625 2713 2034 2713 
Q 2441 2713 2670 2916 
Q 2900 3119 2900 3481 
Q 2900 3844 2670 4047 
Q 2441 4250 2034 4250 
Q 1625 4250 1398 4047 
Q 1172 3844 1172 3481 
z
" transform="scale(0.015625)"/>
      </defs>
      <use xlink:href="#DejaVuSans-38"/>
     </g>
    </g>
   </g>
   <g id="xtick_19">
    <g id="line2d_22">
     <path d="M 354.805656 122.893362 
L 358.488554 123.856509 
" style="fill: none; stroke: #000000; stroke-width: 0.8; stroke-linecap: square"/>
    </g>
    <g id="text_21">
     <!-- 10 -->
     <g transform="translate(368.544558 128.383578) scale(0.1 -0.1)">
      <defs>
       <path id="DejaVuSans-31" d="M 794 531 
L 1825 531 
L 1825 4091 
L 703 3866 
L 703 4441 
L 1819 4666 
L 2450 4666 
L 2450 531 
L 3481 531 
L 3481 0 
L 794 0 
L 794 531 
z
" transform="scale(0.015625)"/>
      </defs>
      <use xlink:href="#DejaVuSans-31"/>
      <use xlink:href="#DejaVuSans-30" x="63.623047"/>
     </g>
    </g>
   </g>
   <g id="xtick_20">
    <g id="line2d_23">
     <path d="M 355.549798 106.46787 
L 359.257468 107.416904 
" style="fill: none; stroke: #000000; stroke-width: 0.8; stroke-linecap: square"/>
    </g>
    <g id="text_22">
     <!-- 12 -->
     <g transform="translate(369.416346 111.989029) scale(0.1 -0.1)">
      <use xlink:href="#DejaVuSans-31"/>
      <use xlink:href="#DejaVuSans-32" x="63.623047"/>
     </g>
    </g>
   </g>
   <g id="text_23">
    <!-- Altitude -->
    <g transform="translate(396.789938 169.786959) rotate(-87.378092) scale(0.1 -0.1)">
     <defs>
      <path id="DejaVuSans-41" d="M 2188 4044 
L 1331 1722 
L 3047 1722 
L 2188 4044 
z
M 1831 4666 
L 2547 4666 
L 4325 0 
L 3669 0 
L 3244 1197 
L 1141 1197 
L 716 0 
L 50 0 
L 1831 4666 
z
" transform="scale(0.015625)"/>
      <path id="DejaVuSans-6c" d="M 603 4863 
L 1178 4863 
L 1178 0 
L 603 0 
L 603 4863 
z
" transform="scale(0.015625)"/>
      <path id="DejaVuSans-74" d="M 1172 4494 
L 1172 3500 
L 2356 3500 
L 2356 3053 
L 1172 3053 
L 1172 1153 
Q 1172 725 1289 603 
Q 1406 481 1766 481 
L 2356 481 
L 2356 0 
L 1766 0 
Q 1100 0 847 248 
Q 594 497 594 1153 
L 594 3053 
L 172 3053 
L 172 3500 
L 594 3500 
L 594 4494 
L 1172 4494 
z
" transform="scale(0.015625)"/>
      <path id="DejaVuSans-69" d="M 603 3500 
L 1178 3500 
L 1178 0 
L 603 0 
L 603 3500 
z
M 603 4863 
L 1178 4863 
L 1178 4134 
L 603 4134 
L 603 4863 
z
" transform="scale(0.015625)"/>
      <path id="DejaVuSans-75" d="M 544 1381 
L 544 3500 
L 1119 3500 
L 1119 1403 
Q 1119 906 1312 657 
Q 1506 409 1894 409 
Q 2359 409 2629 706 
Q 2900 1003 2900 1516 
L 2900 3500 
L 3475 3500 
L 3475 0 
L 2900 0 
L 2900 538 
Q 2691 219 2414 64 
Q 2138 -91 1772 -91 
Q 1169 -91 856 284 
Q 544 659 544 1381 
z
M 1991 3584 
L 1991 3584 
z
" transform="scale(0.015625)"/>
      <path id="DejaVuSans-64" d="M 2906 2969 
L 2906 4863 
L 3481 4863 
L 3481 0 
L 2906 0 
L 2906 525 
Q 2725 213 2448 61 
Q 2172 -91 1784 -91 
Q 1150 -91 751 415 
Q 353 922 353 1747 
Q 353 2572 751 3078 
Q 1150 3584 1784 3584 
Q 2172 3584 2448 3432 
Q 2725 3281 2906 2969 
z
M 947 1747 
Q 947 1113 1208 752 
Q 1469 391 1925 391 
Q 2381 391 2643 752 
Q 2906 1113 2906 1747 
Q 2906 2381 2643 2742 
Q 2381 3103 1925 3103 
Q 1469 3103 1208 2742 
Q 947 2381 947 1747 
z
" transform="scale(0.015625)"/>
      <path id="DejaVuSans-65" d="M 3597 1894 
L 3597 1613 
L 953 1613 
Q 991 1019 1311 708 
Q 1631 397 2203 397 
Q 2534 397 2845 478 
Q 3156 559 3463 722 
L 3463 178 
Q 3153 47 2828 -22 
Q 2503 -91 2169 -91 
Q 1331 -91 842 396 
Q 353 884 353 1716 
Q 353 2575 817 3079 
Q 1281 3584 2069 3584 
Q 2775 3584 3186 3129 
Q 3597 2675 3597 1894 
z
M 3022 2063 
Q 3016 2534 2758 2815 
Q 2500 3097 2075 3097 
Q 1594 3097 1305 2825 
Q 1016 2553 972 2059 
L 3022 2063 
z
" transform="scale(0.015625)"/>
     </defs>
     <use xlink:href="#DejaVuSans-41"/>
     <use xlink:href="#DejaVuSans-6c" x="68.408203"/>
     <use xlink:href="#DejaVuSans-74" x="96.191406"/>
     <use xlink:href="#DejaVuSans-69" x="135.400391"/>
     <use xlink:href="#DejaVuSans-74" x="163.183594"/>
     <use xlink:href="#DejaVuSans-75" x="202.392578"/>
     <use xlink:href="#DejaVuSans-64" x="265.771484"/>
     <use xlink:href="#DejaVuSans-65" x="329.248047"/>
    </g>
   </g>
  </g>
  <g id="axes_1">
   <g id="line2d_24">
    <path d="M 293.653222 187.450369 
L 292.119282 190.68387 
L 290.445136 193.849925 
L 288.652024 196.922049 
L 286.761421 199.874272 
L 284.794734 202.681499 
L 282.773002 205.31984 
L 280.716609 207.766977 
L 278.644975 210.002465 
L 276.576306 212.008045 
L 274.527318 213.767916 
L 272.51303 215.268962 
L 270.546552 216.500941 
L 268.638939 217.456618 
L 266.799067 218.13185 
L 265.033564 218.525622 
L 263.346777 218.640007 
L 261.740793 218.480088 
L 260.215487 218.053826 
L 258.76864 217.371871 
L 257.396073 216.447348 
L 256.091814 215.295588 
L 254.848317 213.933849 
L 253.656673 212.380992 
L 251.388068 208.783525 
L 249.197364 204.674059 
L 243.457222 193.303076 
L 240.842779 188.740031 
L 237.959713 184.373604 
L 234.783486 180.306728 
L 233.085689 178.410098 
L 231.318765 176.614064 
L 229.488222 174.923393 
L 227.601549 173.341007 
L 223.699789 170.504004 
L 219.712375 168.09208 
L 215.766507 166.069519 
L 210.260851 163.637079 
L 205.766917 161.695458 
L 203.628777 160.530362 
L 202.880615 159.954425 
L 202.371987 159.369658 
L 202.119941 158.767143 
L 202.139401 158.139021 
L 202.442865 157.478686 
L 203.040102 156.780941 
L 203.937902 156.04218 
L 205.139903 155.260474 
L 208.454297 153.569489 
L 212.944627 151.728922 
L 218.518085 149.788732 
L 225.031404 147.825683 
L 232.298253 145.938826 
L 240.099194 144.243458 
L 248.193324 142.863853 
L 252.272313 142.331836 
L 256.330903 141.925489 
L 260.33842 141.659402 
L 264.265181 141.547323 
L 268.082601 141.601908 
L 271.763578 141.834549 
L 275.28279 142.25519 
L 278.616847 142.872184 
L 281.744424 143.692127 
L 284.646498 144.719737 
L 287.306422 145.957747 
L 289.710107 147.40688 
L 291.845962 149.065679 
L 293.705007 150.930501 
L 295.280947 152.995541 
L 296.57006 155.252739 
L 297.57125 157.691837 
L 298.285979 160.300378 
L 298.718237 163.063859 
L 298.874395 165.965688 
L 298.763163 168.987334 
L 298.395418 172.108555 
L 297.784097 175.307418 
L 296.943996 178.560581 
L 295.891603 181.843461 
L 294.644862 185.130605 
L 293.222964 188.395791 
L 291.646107 191.612413 
L 289.935167 194.753883 
L 288.111494 197.793802 
L 286.196585 200.706395 
L 284.211746 203.466933 
L 282.177868 206.051919 
L 280.115085 208.439548 
L 278.042512 210.609962 
L 275.977906 212.545632 
L 273.937535 214.231491 
L 271.935893 215.655231 
L 269.985478 216.807498 
L 268.096739 217.681937 
L 266.2779 218.275313 
L 264.534945 218.587511 
L 262.871528 218.621498 
L 261.289103 218.383203 
L 259.786933 217.881397 
L 258.362192 217.127468 
L 257.010169 216.13521 
L 255.724415 214.920547 
L 254.496969 213.501244 
L 253.318563 211.896557 
L 251.067004 208.213827 
L 248.879835 204.044588 
L 243.092199 192.632261 
L 240.441281 188.090398 
L 237.516461 183.761761 
L 235.943818 181.709432 
L 234.297275 179.745323 
L 232.578929 177.877335 
L 230.792852 176.111523 
L 228.945153 174.45213 
L 227.04386 172.901519 
L 223.122782 170.127598 
L 219.132877 167.77503 
L 215.205146 165.804797 
L 209.771484 163.43197 
L 205.407571 161.522661 
L 203.387657 160.363277 
L 202.707263 159.785748 
L 202.271555 159.196696 
L 202.097001 158.587494 
L 202.197856 157.95063 
L 202.58584 157.279892 
L 202.58584 157.279892 
" clip-path="url(#pbaebf6b3bb)" style="fill: none; stroke-dasharray: 1.3,2.145; stroke-dashoffset: 0; stroke: #008000; stroke-width: 1.3"/>
   </g>
   <g id="line2d_25">
    <path d="M 209.544116 146.485416 
L 206.85299 146.936294 
L 207.31185 149.155444 
" clip-path="url(#pbaebf6b3bb)" style="fill: none; stroke: #ff0000; stroke-width: 2; stroke-linecap: square"/>
   </g>
   <g id="line2d_26">
    <path d="M 204.120662 147.368733 
L 206.85299 146.936294 
L 206.352694 144.70158 
" clip-path="url(#pbaebf6b3bb)" style="fill: none; stroke: #0000ff; stroke-width: 2; stroke-linecap: square"/>
   </g>
   <g id="line2d_27">
    <path d="M 250.062403 214.169487 
L 250.098587 213.947039 
L 250.153047 214.036697 
L 250.268757 214.822976 
L 250.155799 216.5339 
L 249.868948 217.716748 
L 249.368642 219.034838 
L 248.534624 220.364565 
L 246.008931 223.078657 
L 244.496665 224.435897 
L 241.220589 226.895377 
L 237.970915 228.873727 
L 236.44769 229.59277 
L 235.028607 230.084146 
L 233.739598 230.310988 
L 232.609765 230.235291 
L 231.670906 229.825944 
L 230.954266 229.065044 
L 230.484584 227.947399 
L 230.270223 226.467594 
L 230.302111 224.627678 
L 230.560895 222.439524 
L 231.026079 219.911989 
L 232.499366 213.893013 
L 234.567614 206.737469 
L 236.982547 198.656062 
L 238.187033 194.315768 
L 239.29425 189.821472 
L 240.225906 185.203537 
L 240.906328 180.490222 
L 241.28699 175.762123 
L 241.356741 171.137724 
L 241.14432 166.710873 
L 240.693549 162.535096 
L 240.04402 158.63638 
L 239.234121 155.027549 
L 238.299987 151.714468 
L 237.254602 148.692827 
L 236.094868 145.953492 
L 234.814955 143.487741 
L 233.410134 141.288853 
L 231.878431 139.351199 
L 230.225433 137.669466 
L 228.47296 136.240188 
L 226.656274 135.06 
L 224.802799 134.123204 
L 222.923874 133.422448 
L 221.020079 132.949368 
L 219.085364 132.69347 
L 217.109 132.642638 
L 215.07777 132.783321 
L 212.984897 133.10296 
L 210.837988 133.59043 
L 208.672218 134.230012 
L 204.446424 135.860797 
L 197.357568 138.986568 
L 194.271354 140.215838 
L 193.65039 140.623491 
L 193.195829 141.093335 
L 192.882969 141.660665 
L 192.692186 142.352179 
L 192.628485 143.154543 
L 192.700323 144.05043 
L 192.911605 145.031144 
L 193.264943 146.090932 
L 194.404998 148.433025 
L 196.138334 151.050646 
L 198.495075 153.918753 
L 201.532647 156.98986 
L 203.338774 158.574586 
L 205.368919 160.157275 
L 207.653345 161.703807 
L 210.211092 163.194926 
L 213.044222 164.632796 
L 216.197589 165.985108 
L 219.706963 167.243922 
L 223.613976 168.41242 
L 245.102002 174.226731 
L 248.902959 175.582786 
L 252.325789 177.017808 
L 255.334473 178.52519 
L 257.909249 180.094658 
L 260.030287 181.709183 
L 261.669537 183.34519 
L 262.80696 184.983897 
L 263.428984 186.611121 
L 263.528837 188.217241 
L 263.132511 189.809137 
L 262.303472 191.397643 
L 261.119351 192.959293 
L 259.671643 194.436764 
L 256.446395 197.066237 
L 253.35884 199.455378 
L 251.018045 200.849973 
L 249.614419 201.254528 
L 248.962552 201.247193 
L 248.195031 200.978181 
L 244.578209 198.963525 
L 242.921403 197.959076 
L 241.190184 196.68081 
L 239.531497 195.068153 
L 238.059151 193.115733 
L 236.844129 190.842834 
L 235.925427 188.277917 
L 235.310619 185.479802 
L 234.995505 182.508915 
L 234.970243 179.416375 
L 235.222052 176.247901 
L 235.727645 173.060446 
L 236.465276 169.884319 
L 237.38537 166.743175 
L 241.176325 155.335872 
L 241.714584 152.956727 
L 241.956113 150.774071 
L 241.90005 148.791963 
L 241.523721 147.000316 
L 240.833974 145.40057 
L 239.863336 144.002775 
L 238.629303 142.81255 
L 237.140236 141.831478 
L 235.413401 141.059536 
L 233.48589 140.496785 
L 231.408358 140.143332 
L 229.224968 139.999495 
L 226.961469 140.061817 
L 224.630074 140.323044 
L 222.235798 140.773861 
L 219.780032 141.4038 
L 217.266794 142.203232 
L 214.704672 143.163585 
L 212.105328 144.277195 
L 209.482134 145.537003 
L 209.482134 145.537003 
" clip-path="url(#pbaebf6b3bb)" style="fill: none; stroke-dasharray: 3.7,1.6; stroke-dashoffset: 0; stroke: #0000ff"/>
   </g>
   <g id="Path3DCollection_1">
    <defs>
     <path id="mb2a83d46ae" d="M 0 2.5 
C 0.663008 2.5 1.29895 2.236584 1.767767 1.767767 
C 2.236584 1.29895 2.5 0.663008 2.5 0 
C 2.5 -0.663008 2.236584 -1.29895 1.767767 -1.767767 
C 1.29895 -2.236584 0.663008 -2.5 0 -2.5 
C -0.663008 -2.5 -1.29895 -2.236584 -1.767767 -1.767767 
C -2.236584 -1.29895 -2.5 -0.663008 -2.5 0 
C -2.5 0.663008 -2.236584 1.29895 -1.767767 1.767767 
C -1.29895 2.236584 -0.663008 2.5 0 2.5 
z
" style="stroke: #ff00ff"/>
    </defs>
    <g clip-path="url(#pbaebf6b3bb)">
     <use xlink:href="#mb2a83d46ae" x="202.197856" y="157.95063" style="fill: #ff00ff; stroke: #ff00ff"/>
    </g>
   </g>
   <g id="text_24">
    <!-- Time = 9.90 s -->
    <g transform="translate(116.4096 54.7776) scale(0.1 -0.1)">
     <defs>
      <path id="DejaVuSans-54" d="M -19 4666 
L 3928 4666 
L 3928 4134 
L 2272 4134 
L 2272 0 
L 1638 0 
L 1638 4134 
L -19 4134 
L -19 4666 
z
" transform="scale(0.015625)"/>
      <path id="DejaVuSans-6d" d="M 3328 2828 
Q 3544 3216 3844 3400 
Q 4144 3584 4550 3584 
Q 5097 3584 5394 3201 
Q 5691 2819 5691 2113 
L 5691 0 
L 5113 0 
L 5113 2094 
Q 5113 2597 4934 2840 
Q 4756 3084 4391 3084 
Q 3944 3084 3684 2787 
Q 3425 2491 3425 1978 
L 3425 0 
L 2847 0 
L 2847 2094 
Q 2847 2600 2669 2842 
Q 2491 3084 2119 3084 
Q 1678 3084 1418 2786 
Q 1159 2488 1159 1978 
L 1159 0 
L 581 0 
L 581 3500 
L 1159 3500 
L 1159 2956 
Q 1356 3278 1631 3431 
Q 1906 3584 2284 3584 
Q 2666 3584 2933 3390 
Q 3200 3197 3328 2828 
z
" transform="scale(0.015625)"/>
      <path id="DejaVuSans-20" transform="scale(0.015625)"/>
      <path id="DejaVuSans-3d" d="M 678 2906 
L 4684 2906 
L 4684 2381 
L 678 2381 
L 678 2906 
z
M 678 1631 
L 4684 1631 
L 4684 1100 
L 678 1100 
L 678 1631 
z
" transform="scale(0.015625)"/>
      <path id="DejaVuSans-39" d="M 703 97 
L 703 672 
Q 941 559 1184 500 
Q 1428 441 1663 441 
Q 2288 441 2617 861 
Q 2947 1281 2994 2138 
Q 2813 1869 2534 1725 
Q 2256 1581 1919 1581 
Q 1219 1581 811 2004 
Q 403 2428 403 3163 
Q 403 3881 828 4315 
Q 1253 4750 1959 4750 
Q 2769 4750 3195 4129 
Q 3622 3509 3622 2328 
Q 3622 1225 3098 567 
Q 2575 -91 1691 -91 
Q 1453 -91 1209 -44 
Q 966 3 703 97 
z
M 1959 2075 
Q 2384 2075 2632 2365 
Q 2881 2656 2881 3163 
Q 2881 3666 2632 3958 
Q 2384 4250 1959 4250 
Q 1534 4250 1286 3958 
Q 1038 3666 1038 3163 
Q 1038 2656 1286 2365 
Q 1534 2075 1959 2075 
z
" transform="scale(0.015625)"/>
      <path id="DejaVuSans-2e" d="M 684 794 
L 1344 794 
L 1344 0 
L 684 0 
L 684 794 
z
" transform="scale(0.015625)"/>
      <path id="DejaVuSans-73" d="M 2834 3397 
L 2834 2853 
Q 2591 2978 2328 3040 
Q 2066 3103 1784 3103 
Q 1356 3103 1142 2972 
Q 928 2841 928 2578 
Q 928 2378 1081 2264 
Q 1234 2150 1697 2047 
L 1894 2003 
Q 2506 1872 2764 1633 
Q 3022 1394 3022 966 
Q 3022 478 2636 193 
Q 2250 -91 1575 -91 
Q 1294 -91 989 -36 
Q 684 19 347 128 
L 347 722 
Q 666 556 975 473 
Q 1284 391 1588 391 
Q 1994 391 2212 530 
Q 2431 669 2431 922 
Q 2431 1156 2273 1281 
Q 2116 1406 1581 1522 
L 1381 1569 
Q 847 1681 609 1914 
Q 372 2147 372 2553 
Q 372 3047 722 3315 
Q 1072 3584 1716 3584 
Q 2034 3584 2315 3537 
Q 2597 3491 2834 3397 
z
" transform="scale(0.015625)"/>
     </defs>
     <use xlink:href="#DejaVuSans-54"/>
     <use xlink:href="#DejaVuSans-69" x="57.958984"/>
     <use xlink:href="#DejaVuSans-6d" x="85.742188"/>
     <use xlink:href="#DejaVuSans-65" x="183.154297"/>
     <use xlink:href="#DejaVuSans-20" x="244.677734"/>
     <use xlink:href="#DejaVuSans-3d" x="276.464844"/>
     <use xlink:href="#DejaVuSans-20" x="360.253906"/>
     <use xlink:href="#DejaVuSans-39" x="392.041016"/>
     <use xlink:href="#DejaVuSans-2e" x="455.664062"/>
     <use xlink:href="#DejaVuSans-39" x="487.451172"/>
     <use xlink:href="#DejaVuSans-30" x="551.074219"/>
     <use xlink:href="#DejaVuSans-20" x="614.697266"/>
     <use xlink:href="#DejaVuSans-73" x="646.484375"/>
    </g>
   </g>
   <g id="text_25">
    <!-- fig8 -->
    <g transform="translate(336.901025 54.7776) scale(0.1 -0.1)">
     <defs>
      <path id="DejaVuSans-66" d="M 2375 4863 
L 2375 4384 
L 1825 4384 
Q 1516 4384 1395 4259 
Q 1275 4134 1275 3809 
L 1275 3500 
L 2222 3500 
L 2222 3053 
L 1275 3053 
L 1275 0 
L 697 0 
L 697 3053 
L 147 3053 
L 147 3500 
L 697 3500 
L 697 3744 
Q 697 4328 969 4595 
Q 1241 4863 1831 4863 
L 2375 4863 
z
" transform="scale(0.015625)"/>
      <path id="DejaVuSans-67" d="M 2906 1791 
Q 2906 2416 2648 2759 
Q 2391 3103 1925 3103 
Q 1463 3103 1205 2759 
Q 947 2416 947 1791 
Q 947 1169 1205 825 
Q 1463 481 1925 481 
Q 2391 481 2648 825 
Q 2906 1169 2906 1791 
z
M 3481 434 
Q 3481 -459 3084 -895 
Q 2688 -1331 1869 -1331 
Q 1566 -1331 1297 -1286 
Q 1028 -1241 775 -1147 
L 775 -588 
Q 1028 -725 1275 -790 
Q 1522 -856 1778 -856 
Q 2344 -856 2625 -561 
Q 2906 -266 2906 331 
L 2906 616 
Q 2728 306 2450 153 
Q 2172 0 1784 0 
Q 1141 0 747 490 
Q 353 981 353 1791 
Q 353 2603 747 3093 
Q 1141 3584 1784 3584 
Q 2172 3584 2450 3431 
Q 2728 3278 2906 2969 
L 2906 3500 
L 3481 3500 
L 3481 434 
z
" transform="scale(0.015625)"/>
     </defs>
     <use xlink:href="#DejaVuSans-66"/>
     <use xlink:href="#DejaVuSans-69" x="35.205078"/>
     <use xlink:href="#DejaVuSans-67" x="62.988281"/>
     <use xlink:href="#DejaVuSans-38" x="126.464844"/>
    </g>
   </g>
  </g>
 </g>
 <defs>
  <clipPath id="pbaebf6b3bb">
   <rect x="103.104" y="41.472" width="266.112" height="266.112"/>
  </clipPath>
 </defs>
</svg>
