<?xml version="1.0" encoding="utf-8" standalone="no"?>
<!DOCTYPE svg PUBLIC "-//W3C//DTD SVG 1.1//EN"
  "http://www.w3.org/Graphics/SVG/1.1/DTD/svg11.dtd">
<svg xmlns:xlink="http://www.w3.org/1999/xlink" width="460.8pt" height="345.6pt" viewBox="0 0 460.8 345.6" xmlns="http://www.w3.org/2000/svg" version="1.1">
 <metadata>
  <rdf:RDF xmlns:dc="http://purl.org/dc/elements/1.1/" xmlns:cc="http://creativecommons.org/ns#" xmlns:rdf="http://www.w3.org/1999/02/22-rdf-syntax-ns#">
   <cc:Work>
    <dc:type rdf:resource="http://purl.org/dc/dcmitype/StillImage"/>
    <dc:date>2023-09-26T18:29:34.737663</dc:date>
    <dc:format>image/svg+xml</dc:format>
    <dc:creator>
     <cc:Agent>
      <dc:title>Matplotlib v3.7.1, https://matplotlib.org/</dc:title>
     </cc:Agent>
    </dc:creator>
   </cc:Work>
  </rdf:RDF>
 </metadata>
 <defs>
  <style type="text/css">*{stroke-linejoin: round; stroke-linecap: butt}</style>
 </defs>
 <g id="figure_1">
  <g id="patch_1">
   <path d="M 0 345.6 
L 460.8 345.6 
L 460.8 0 
L 0 0 
z
" style="fill: #ffffff"/>
  </g>
  <g id="patch_2">
   <path d="M 103.104 307.584 
L 369.216 307.584 
L 369.216 41.472 
L 103.104 41.472 
z
" style="fill: #ffffff"/>
  </g>
  <g id="pane3d_1">
   <g id="patch_3">
    <path d="M 211.076164 168.307495 
L 123.197291 241.969309 
L 117.770234 129.272941 
L 209.854564 62.073991 
" style="fill: #f2f2f2; opacity: 0.5; stroke: #f2f2f2; stroke-linejoin: miter"/>
   </g>
  </g>
  <g id="pane3d_2">
   <g id="patch_4">
    <path d="M 211.076164 168.307495 
L 352.090401 209.294766 
L 357.122702 99.402171 
L 209.854564 62.073991 
" style="fill: #e6e6e6; opacity: 0.5; stroke: #e6e6e6; stroke-linejoin: miter"/>
   </g>
  </g>
  <g id="pane3d_3">
   <g id="patch_5">
    <path d="M 211.076164 168.307495 
L 352.090401 209.294766 
L 272.679269 290.790123 
L 123.197291 241.969309 
" style="fill: #ececec; opacity: 0.5; stroke: #ececec; stroke-linejoin: miter"/>
   </g>
  </g>
  <g id="axis3d_1">
   <g id="line2d_1">
    <path d="M 123.197291 241.969309 
L 272.679269 290.790123 
" style="fill: none; stroke: #000000; stroke-width: 0.8; stroke-linecap: square"/>
   </g>
   <g id="text_1">
    <!-- X -->
    <g transform="translate(176.251428 303.76759) scale(0.1 -0.1)">
     <defs>
      <path id="DejaVuSans-58" d="M 403 4666 
L 1081 4666 
L 2241 2931 
L 3406 4666 
L 4084 4666 
L 2584 2425 
L 4184 0 
L 3506 0 
L 2194 1984 
L 872 0 
L 191 0 
L 1856 2491 
L 403 4666 
z
" transform="scale(0.015625)"/>
     </defs>
     <use xlink:href="#DejaVuSans-58"/>
    </g>
   </g>
   <g id="Line3DCollection_1">
    <path d="M 137.166727 246.531727 
L 224.30711 172.153208 
L 223.645884 65.569689 
" style="fill: none; stroke: #b0b0b0; stroke-width: 0.8"/>
    <path d="M 155.920363 252.656664 
L 242.052151 177.310991 
L 242.151059 70.260211 
" style="fill: none; stroke: #b0b0b0; stroke-width: 0.8"/>
    <path d="M 174.929266 258.864972 
L 260.018656 182.533145 
L 260.897198 75.011811 
" style="fill: none; stroke: #b0b0b0; stroke-width: 0.8"/>
    <path d="M 194.198682 265.158363 
L 278.210796 187.820882 
L 279.889037 79.825688 
" style="fill: none; stroke: #b0b0b0; stroke-width: 0.8"/>
    <path d="M 213.734005 271.538599 
L 296.632847 193.175445 
L 299.131439 84.703076 
" style="fill: none; stroke: #b0b0b0; stroke-width: 0.8"/>
    <path d="M 233.540776 278.007491 
L 315.289198 198.598109 
L 318.629395 89.64524 
" style="fill: none; stroke: #b0b0b0; stroke-width: 0.8"/>
    <path d="M 253.624694 284.566898 
L 334.184345 204.090183 
L 338.388032 94.653478 
" style="fill: none; stroke: #b0b0b0; stroke-width: 0.8"/>
   </g>
   <g id="xtick_1">
    <g id="line2d_2">
     <path d="M 137.92565 245.88395 
L 135.645619 247.830066 
" style="fill: none; stroke: #000000; stroke-width: 0.8; stroke-linecap: square"/>
    </g>
    <g id="text_2">
     <!-- −6 -->
     <g transform="translate(122.271476 269.874847) scale(0.1 -0.1)">
      <defs>
       <path id="DejaVuSans-2212" d="M 678 2272 
L 4684 2272 
L 4684 1741 
L 678 1741 
L 678 2272 
z
" transform="scale(0.015625)"/>
       <path id="DejaVuSans-36" d="M 2113 2584 
Q 1688 2584 1439 2293 
Q 1191 2003 1191 1497 
Q 1191 994 1439 701 
Q 1688 409 2113 409 
Q 2538 409 2786 701 
Q 3034 994 3034 1497 
Q 3034 2003 2786 2293 
Q 2538 2584 2113 2584 
z
M 3366 4563 
L 3366 3988 
Q 3128 4100 2886 4159 
Q 2644 4219 2406 4219 
Q 1781 4219 1451 3797 
Q 1122 3375 1075 2522 
Q 1259 2794 1537 2939 
Q 1816 3084 2150 3084 
Q 2853 3084 3261 2657 
Q 3669 2231 3669 1497 
Q 3669 778 3244 343 
Q 2819 -91 2113 -91 
Q 1303 -91 875 529 
Q 447 1150 447 2328 
Q 447 3434 972 4092 
Q 1497 4750 2381 4750 
Q 2619 4750 2861 4703 
Q 3103 4656 3366 4563 
z
" transform="scale(0.015625)"/>
      </defs>
      <use xlink:href="#DejaVuSans-2212"/>
      <use xlink:href="#DejaVuSans-36" x="83.789062"/>
     </g>
    </g>
   </g>
   <g id="xtick_2">
    <g id="line2d_3">
     <path d="M 156.670915 252.000103 
L 154.416012 253.972629 
" style="fill: none; stroke: #000000; stroke-width: 0.8; stroke-linecap: square"/>
    </g>
    <g id="text_3">
     <!-- −4 -->
     <g transform="translate(141.04437 276.129578) scale(0.1 -0.1)">
      <defs>
       <path id="DejaVuSans-34" d="M 2419 4116 
L 825 1625 
L 2419 1625 
L 2419 4116 
z
M 2253 4666 
L 3047 4666 
L 3047 1625 
L 3713 1625 
L 3713 1100 
L 3047 1100 
L 3047 0 
L 2419 0 
L 2419 1100 
L 313 1100 
L 313 1709 
L 2253 4666 
z
" transform="scale(0.015625)"/>
      </defs>
      <use xlink:href="#DejaVuSans-2212"/>
      <use xlink:href="#DejaVuSans-34" x="83.789062"/>
     </g>
    </g>
   </g>
   <g id="xtick_3">
    <g id="line2d_4">
     <path d="M 175.671147 258.199446 
L 173.442271 260.198923 
" style="fill: none; stroke: #000000; stroke-width: 0.8; stroke-linecap: square"/>
    </g>
    <g id="text_4">
     <!-- −2 -->
     <g transform="translate(160.073757 282.469766) scale(0.1 -0.1)">
      <defs>
       <path id="DejaVuSans-32" d="M 1228 531 
L 3431 531 
L 3431 0 
L 469 0 
L 469 531 
Q 828 903 1448 1529 
Q 2069 2156 2228 2338 
Q 2531 2678 2651 2914 
Q 2772 3150 2772 3378 
Q 2772 3750 2511 3984 
Q 2250 4219 1831 4219 
Q 1534 4219 1204 4116 
Q 875 4013 500 3803 
L 500 4441 
Q 881 4594 1212 4672 
Q 1544 4750 1819 4750 
Q 2544 4750 2975 4387 
Q 3406 4025 3406 3419 
Q 3406 3131 3298 2873 
Q 3191 2616 2906 2266 
Q 2828 2175 2409 1742 
Q 1991 1309 1228 531 
z
" transform="scale(0.015625)"/>
      </defs>
      <use xlink:href="#DejaVuSans-2212"/>
      <use xlink:href="#DejaVuSans-32" x="83.789062"/>
     </g>
    </g>
   </g>
   <g id="xtick_4">
    <g id="line2d_5">
     <path d="M 194.931584 264.483689 
L 192.729662 266.510672 
" style="fill: none; stroke: #000000; stroke-width: 0.8; stroke-linecap: square"/>
    </g>
    <g id="text_5">
     <!-- 0 -->
     <g transform="translate(183.554773 288.897176) scale(0.1 -0.1)">
      <defs>
       <path id="DejaVuSans-30" d="M 2034 4250 
Q 1547 4250 1301 3770 
Q 1056 3291 1056 2328 
Q 1056 1369 1301 889 
Q 1547 409 2034 409 
Q 2525 409 2770 889 
Q 3016 1369 3016 2328 
Q 3016 3291 2770 3770 
Q 2525 4250 2034 4250 
z
M 2034 4750 
Q 2819 4750 3233 4129 
Q 3647 3509 3647 2328 
Q 3647 1150 3233 529 
Q 2819 -91 2034 -91 
Q 1250 -91 836 529 
Q 422 1150 422 2328 
Q 422 3509 836 4129 
Q 1250 4750 2034 4750 
z
" transform="scale(0.015625)"/>
      </defs>
      <use xlink:href="#DejaVuSans-30"/>
     </g>
    </g>
   </g>
   <g id="xtick_5">
    <g id="line2d_6">
     <path d="M 214.457609 270.854586 
L 212.2836 272.909647 
" style="fill: none; stroke: #000000; stroke-width: 0.8; stroke-linecap: square"/>
    </g>
    <g id="text_6">
     <!-- 2 -->
     <g transform="translate(203.113172 295.41362) scale(0.1 -0.1)">
      <use xlink:href="#DejaVuSans-32"/>
     </g>
    </g>
   </g>
   <g id="xtick_6">
    <g id="line2d_7">
     <path d="M 234.254752 277.313944 
L 232.109649 279.39767 
" style="fill: none; stroke: #000000; stroke-width: 0.8; stroke-linecap: square"/>
    </g>
    <g id="text_7">
     <!-- 4 -->
     <g transform="translate(222.944386 302.02096) scale(0.1 -0.1)">
      <use xlink:href="#DejaVuSans-34"/>
     </g>
    </g>
   </g>
   <g id="xtick_7">
    <g id="line2d_8">
     <path d="M 254.3287 283.863617 
L 252.213527 285.976612 
" style="fill: none; stroke: #000000; stroke-width: 0.8; stroke-linecap: square"/>
    </g>
    <g id="text_8">
     <!-- 6 -->
     <g transform="translate(243.054166 308.721113) scale(0.1 -0.1)">
      <use xlink:href="#DejaVuSans-36"/>
     </g>
    </g>
   </g>
  </g>
  <g id="axis3d_2">
   <g id="line2d_9">
    <path d="M 352.090401 209.294766 
L 272.679269 290.790123 
" style="fill: none; stroke: #000000; stroke-width: 0.8; stroke-linecap: square"/>
   </g>
   <g id="text_9">
    <!-- Y -->
    <g transform="translate(338.078875 278.988697) scale(0.1 -0.1)">
     <defs>
      <path id="DejaVuSans-59" d="M -13 4666 
L 666 4666 
L 1959 2747 
L 3244 4666 
L 3922 4666 
L 2272 2222 
L 2272 0 
L 1638 0 
L 1638 2222 
L -13 4666 
z
" transform="scale(0.015625)"/>
     </defs>
     <use xlink:href="#DejaVuSans-59"/>
    </g>
   </g>
   <g id="Line3DCollection_2">
    <path d="M 207.594435 63.72333 
L 208.911251 170.122168 
L 350.142498 211.293793 
" style="fill: none; stroke: #b0b0b0; stroke-width: 0.8"/>
    <path d="M 196.465859 71.844458 
L 198.257398 179.052439 
L 340.550425 221.13762 
" style="fill: none; stroke: #b0b0b0; stroke-width: 0.8"/>
    <path d="M 185.084537 80.150028 
L 187.371703 188.177045 
L 330.739021 231.206535 
" style="fill: none; stroke: #b0b0b0; stroke-width: 0.8"/>
    <path d="M 173.441759 88.646397 
L 176.246514 197.502399 
L 320.700674 241.508347 
" style="fill: none; stroke: #b0b0b0; stroke-width: 0.8"/>
    <path d="M 161.528412 97.340216 
L 164.87384 207.035199 
L 310.42742 252.051233 
" style="fill: none; stroke: #b0b0b0; stroke-width: 0.8"/>
    <path d="M 149.334951 106.238448 
L 153.245331 216.782447 
L 299.910916 262.843754 
" style="fill: none; stroke: #b0b0b0; stroke-width: 0.8"/>
    <path d="M 136.851382 115.348388 
L 141.352254 226.751459 
L 289.142417 273.894883 
" style="fill: none; stroke: #b0b0b0; stroke-width: 0.8"/>
    <path d="M 124.067225 124.677683 
L 129.185478 236.949892 
L 278.112757 285.214027 
" style="fill: none; stroke: #b0b0b0; stroke-width: 0.8"/>
   </g>
   <g id="xtick_8">
    <g id="line2d_10">
     <path d="M 348.957052 210.948212 
L 352.516218 211.985778 
" style="fill: none; stroke: #000000; stroke-width: 0.8; stroke-linecap: square"/>
    </g>
    <g id="text_10">
     <!-- −8 -->
     <g transform="translate(354.684191 231.22474) scale(0.1 -0.1)">
      <defs>
       <path id="DejaVuSans-38" d="M 2034 2216 
Q 1584 2216 1326 1975 
Q 1069 1734 1069 1313 
Q 1069 891 1326 650 
Q 1584 409 2034 409 
Q 2484 409 2743 651 
Q 3003 894 3003 1313 
Q 3003 1734 2745 1975 
Q 2488 2216 2034 2216 
z
M 1403 2484 
Q 997 2584 770 2862 
Q 544 3141 544 3541 
Q 544 4100 942 4425 
Q 1341 4750 2034 4750 
Q 2731 4750 3128 4425 
Q 3525 4100 3525 3541 
Q 3525 3141 3298 2862 
Q 3072 2584 2669 2484 
Q 3125 2378 3379 2068 
Q 3634 1759 3634 1313 
Q 3634 634 3220 271 
Q 2806 -91 2034 -91 
Q 1263 -91 848 271 
Q 434 634 434 1313 
Q 434 1759 690 2068 
Q 947 2378 1403 2484 
z
M 1172 3481 
Q 1172 3119 1398 2916 
Q 1625 2713 2034 2713 
Q 2441 2713 2670 2916 
Q 2900 3119 2900 3481 
Q 2900 3844 2670 4047 
Q 2441 4250 2034 4250 
Q 1625 4250 1398 4047 
Q 1172 3844 1172 3481 
z
" transform="scale(0.015625)"/>
      </defs>
      <use xlink:href="#DejaVuSans-2212"/>
      <use xlink:href="#DejaVuSans-38" x="83.789062"/>
     </g>
    </g>
   </g>
   <g id="xtick_9">
    <g id="line2d_11">
     <path d="M 339.355433 220.784184 
L 342.94329 221.845343 
" style="fill: none; stroke: #000000; stroke-width: 0.8; stroke-linecap: square"/>
    </g>
    <g id="text_11">
     <!-- −6 -->
     <g transform="translate(345.221498 241.213542) scale(0.1 -0.1)">
      <use xlink:href="#DejaVuSans-2212"/>
      <use xlink:href="#DejaVuSans-36" x="83.789062"/>
     </g>
    </g>
   </g>
   <g id="xtick_10">
    <g id="line2d_12">
     <path d="M 329.534354 230.844973 
L 333.15129 231.93054 
" style="fill: none; stroke: #000000; stroke-width: 0.8; stroke-linecap: square"/>
    </g>
    <g id="text_12">
     <!-- −4 -->
     <g transform="translate(335.542309 251.430877) scale(0.1 -0.1)">
      <use xlink:href="#DejaVuSans-2212"/>
      <use xlink:href="#DejaVuSans-34" x="83.789062"/>
     </g>
    </g>
   </g>
   <g id="xtick_11">
    <g id="line2d_13">
     <path d="M 319.486203 241.138376 
L 323.132612 242.249203 
" style="fill: none; stroke: #000000; stroke-width: 0.8; stroke-linecap: square"/>
    </g>
    <g id="text_13">
     <!-- −2 -->
     <g transform="translate(325.639109 261.884678) scale(0.1 -0.1)">
      <use xlink:href="#DejaVuSans-2212"/>
      <use xlink:href="#DejaVuSans-32" x="83.789062"/>
     </g>
    </g>
   </g>
   <g id="xtick_12">
    <g id="line2d_14">
     <path d="M 309.203013 251.672555 
L 312.879291 252.809535 
" style="fill: none; stroke: #000000; stroke-width: 0.8; stroke-linecap: square"/>
    </g>
    <g id="text_14">
     <!-- 0 -->
     <g transform="translate(319.693875 272.583249) scale(0.1 -0.1)">
      <use xlink:href="#DejaVuSans-30"/>
     </g>
    </g>
   </g>
   <g id="xtick_13">
    <g id="line2d_15">
     <path d="M 298.676439 262.456058 
L 302.382987 263.620125 
" style="fill: none; stroke: #000000; stroke-width: 0.8; stroke-linecap: square"/>
    </g>
    <g id="text_15">
     <!-- 2 -->
     <g transform="translate(309.318677 283.53529) scale(0.1 -0.1)">
      <use xlink:href="#DejaVuSans-32"/>
     </g>
    </g>
   </g>
   <g id="xtick_14">
    <g id="line2d_16">
     <path d="M 287.897736 273.497844 
L 291.634958 274.689976 
" style="fill: none; stroke: #000000; stroke-width: 0.8; stroke-linecap: square"/>
    </g>
    <g id="text_16">
     <!-- 4 -->
     <g transform="translate(298.694724 294.749917) scale(0.1 -0.1)">
      <use xlink:href="#DejaVuSans-34"/>
     </g>
    </g>
   </g>
   <g id="xtick_15">
    <g id="line2d_17">
     <path d="M 276.857738 284.807302 
L 280.626041 286.028528 
" style="fill: none; stroke: #000000; stroke-width: 0.8; stroke-linecap: square"/>
    </g>
    <g id="text_17">
     <!-- 6 -->
     <g transform="translate(287.812961 306.236687) scale(0.1 -0.1)">
      <use xlink:href="#DejaVuSans-36"/>
     </g>
    </g>
   </g>
  </g>
  <g id="axis3d_3">
   <g id="line2d_18">
    <path d="M 352.090401 209.294766 
L 357.122702 99.402171 
" style="fill: none; stroke: #000000; stroke-width: 0.8; stroke-linecap: square"/>
   </g>
   <g id="text_18">
    <!-- Altitude -->
    <g transform="translate(396.789938 169.786959) rotate(-87.378092) scale(0.1 -0.1)">
     <defs>
      <path id="DejaVuSans-41" d="M 2188 4044 
L 1331 1722 
L 3047 1722 
L 2188 4044 
z
M 1831 4666 
L 2547 4666 
L 4325 0 
L 3669 0 
L 3244 1197 
L 1141 1197 
L 716 0 
L 50 0 
L 1831 4666 
z
" transform="scale(0.015625)"/>
      <path id="DejaVuSans-6c" d="M 603 4863 
L 1178 4863 
L 1178 0 
L 603 0 
L 603 4863 
z
" transform="scale(0.015625)"/>
      <path id="DejaVuSans-74" d="M 1172 4494 
L 1172 3500 
L 2356 3500 
L 2356 3053 
L 1172 3053 
L 1172 1153 
Q 1172 725 1289 603 
Q 1406 481 1766 481 
L 2356 481 
L 2356 0 
L 1766 0 
Q 1100 0 847 248 
Q 594 497 594 1153 
L 594 3053 
L 172 3053 
L 172 3500 
L 594 3500 
L 594 4494 
L 1172 4494 
z
" transform="scale(0.015625)"/>
      <path id="DejaVuSans-69" d="M 603 3500 
L 1178 3500 
L 1178 0 
L 603 0 
L 603 3500 
z
M 603 4863 
L 1178 4863 
L 1178 4134 
L 603 4134 
L 603 4863 
z
" transform="scale(0.015625)"/>
      <path id="DejaVuSans-75" d="M 544 1381 
L 544 3500 
L 1119 3500 
L 1119 1403 
Q 1119 906 1312 657 
Q 1506 409 1894 409 
Q 2359 409 2629 706 
Q 2900 1003 2900 1516 
L 2900 3500 
L 3475 3500 
L 3475 0 
L 2900 0 
L 2900 538 
Q 2691 219 2414 64 
Q 2138 -91 1772 -91 
Q 1169 -91 856 284 
Q 544 659 544 1381 
z
M 1991 3584 
L 1991 3584 
z
" transform="scale(0.015625)"/>
      <path id="DejaVuSans-64" d="M 2906 2969 
L 2906 4863 
L 3481 4863 
L 3481 0 
L 2906 0 
L 2906 525 
Q 2725 213 2448 61 
Q 2172 -91 1784 -91 
Q 1150 -91 751 415 
Q 353 922 353 1747 
Q 353 2572 751 3078 
Q 1150 3584 1784 3584 
Q 2172 3584 2448 3432 
Q 2725 3281 2906 2969 
z
M 947 1747 
Q 947 1113 1208 752 
Q 1469 391 1925 391 
Q 2381 391 2643 752 
Q 2906 1113 2906 1747 
Q 2906 2381 2643 2742 
Q 2381 3103 1925 3103 
Q 1469 3103 1208 2742 
Q 947 2381 947 1747 
z
" transform="scale(0.015625)"/>
      <path id="DejaVuSans-65" d="M 3597 1894 
L 3597 1613 
L 953 1613 
Q 991 1019 1311 708 
Q 1631 397 2203 397 
Q 2534 397 2845 478 
Q 3156 559 3463 722 
L 3463 178 
Q 3153 47 2828 -22 
Q 2503 -91 2169 -91 
Q 1331 -91 842 396 
Q 353 884 353 1716 
Q 353 2575 817 3079 
Q 1281 3584 2069 3584 
Q 2775 3584 3186 3129 
Q 3597 2675 3597 1894 
z
M 3022 2063 
Q 3016 2534 2758 2815 
Q 2500 3097 2075 3097 
Q 1594 3097 1305 2825 
Q 1016 2553 972 2059 
L 3022 2063 
z
" transform="scale(0.015625)"/>
     </defs>
     <use xlink:href="#DejaVuSans-41"/>
     <use xlink:href="#DejaVuSans-6c" x="68.408203"/>
     <use xlink:href="#DejaVuSans-74" x="96.191406"/>
     <use xlink:href="#DejaVuSans-69" x="135.400391"/>
     <use xlink:href="#DejaVuSans-74" x="163.183594"/>
     <use xlink:href="#DejaVuSans-75" x="202.392578"/>
     <use xlink:href="#DejaVuSans-64" x="265.771484"/>
     <use xlink:href="#DejaVuSans-65" x="329.248047"/>
    </g>
   </g>
   <g id="Line3DCollection_3">
    <path d="M 352.464236 201.131166 
L 210.985238 160.400282 
L 122.79476 233.610483 
" style="fill: none; stroke: #b0b0b0; stroke-width: 0.8"/>
    <path d="M 353.098319 187.284393 
L 210.831077 146.994057 
L 122.111771 219.42779 
" style="fill: none; stroke: #b0b0b0; stroke-width: 0.8"/>
    <path d="M 353.739578 173.280938 
L 210.675255 133.443391 
L 121.42076 205.078486 
" style="fill: none; stroke: #b0b0b0; stroke-width: 0.8"/>
    <path d="M 354.388135 159.118126 
L 210.517745 119.745937 
L 120.721583 190.559618 
" style="fill: none; stroke: #b0b0b0; stroke-width: 0.8"/>
    <path d="M 355.044114 144.793222 
L 210.35852 105.899296 
L 120.014094 175.868163 
" style="fill: none; stroke: #b0b0b0; stroke-width: 0.8"/>
    <path d="M 355.707643 130.303426 
L 210.197551 91.901019 
L 119.298146 161.001024 
" style="fill: none; stroke: #b0b0b0; stroke-width: 0.8"/>
    <path d="M 356.378855 115.645875 
L 210.034809 77.7486 
L 118.573584 145.955033 
" style="fill: none; stroke: #b0b0b0; stroke-width: 0.8"/>
   </g>
   <g id="xtick_16">
    <g id="line2d_19">
     <path d="M 351.276652 200.789269 
L 354.842236 201.815777 
" style="fill: none; stroke: #000000; stroke-width: 0.8; stroke-linecap: square"/>
    </g>
    <g id="text_19">
     <!-- −2 -->
     <g transform="translate(363.401203 206.140521) scale(0.1 -0.1)">
      <use xlink:href="#DejaVuSans-2212"/>
      <use xlink:href="#DejaVuSans-32" x="83.789062"/>
     </g>
    </g>
   </g>
   <g id="xtick_17">
    <g id="line2d_20">
     <path d="M 351.903804 186.946105 
L 355.490216 187.961783 
" style="fill: none; stroke: #000000; stroke-width: 0.8; stroke-linecap: square"/>
    </g>
    <g id="text_20">
     <!-- 0 -->
     <g transform="translate(368.3259 192.321113) scale(0.1 -0.1)">
      <use xlink:href="#DejaVuSans-30"/>
     </g>
    </g>
   </g>
   <g id="xtick_18">
    <g id="line2d_21">
     <path d="M 352.53805 172.946362 
L 356.145535 173.950899 
" style="fill: none; stroke: #000000; stroke-width: 0.8; stroke-linecap: square"/>
    </g>
    <g id="text_21">
     <!-- 2 -->
     <g transform="translate(369.069044 178.345809) scale(0.1 -0.1)">
      <use xlink:href="#DejaVuSans-32"/>
     </g>
    </g>
   </g>
   <g id="xtick_19">
    <g id="line2d_22">
     <path d="M 353.17951 158.787369 
L 356.808316 159.780444 
" style="fill: none; stroke: #000000; stroke-width: 0.8; stroke-linecap: square"/>
    </g>
    <g id="text_22">
     <!-- 4 -->
     <g transform="translate(369.820618 164.211954) scale(0.1 -0.1)">
      <use xlink:href="#DejaVuSans-34"/>
     </g>
    </g>
   </g>
   <g id="xtick_20">
    <g id="line2d_23">
     <path d="M 353.828309 144.466393 
L 357.47869 145.447677 
" style="fill: none; stroke: #000000; stroke-width: 0.8; stroke-linecap: square"/>
    </g>
    <g id="text_23">
     <!-- 6 -->
     <g transform="translate(370.580767 149.916836) scale(0.1 -0.1)">
      <use xlink:href="#DejaVuSans-36"/>
     </g>
    </g>
   </g>
   <g id="xtick_21">
    <g id="line2d_24">
     <path d="M 354.484573 129.980638 
L 358.156786 130.949793 
" style="fill: none; stroke: #000000; stroke-width: 0.8; stroke-linecap: square"/>
    </g>
    <g id="text_24">
     <!-- 8 -->
     <g transform="translate(371.34964 135.457679) scale(0.1 -0.1)">
      <use xlink:href="#DejaVuSans-38"/>
     </g>
    </g>
   </g>
   <g id="xtick_22">
    <g id="line2d_25">
     <path d="M 355.148432 115.327244 
L 358.842739 116.283922 
" style="fill: none; stroke: #000000; stroke-width: 0.8; stroke-linecap: square"/>
    </g>
    <g id="text_25">
     <!-- 10 -->
     <g transform="translate(368.946136 120.831642) scale(0.1 -0.1)">
      <defs>
       <path id="DejaVuSans-31" d="M 794 531 
L 1825 531 
L 1825 4091 
L 703 3866 
L 703 4441 
L 1819 4666 
L 2450 4666 
L 2450 531 
L 3481 531 
L 3481 0 
L 794 0 
L 794 531 
z
" transform="scale(0.015625)"/>
      </defs>
      <use xlink:href="#DejaVuSans-31"/>
      <use xlink:href="#DejaVuSans-30" x="63.623047"/>
     </g>
    </g>
   </g>
  </g>
  <g id="axes_1">
   <g id="line2d_26">
    <path d="M 273.166477 181.621054 
L 271.75954 184.553382 
L 270.226826 187.424489 
L 268.587964 190.210517 
L 266.86276 192.888097 
L 265.070919 195.434649 
L 263.231771 197.828703 
L 261.363995 200.050199 
L 259.485359 202.080761 
L 257.612465 203.903979 
L 255.760533 205.505633 
L 253.94318 206.8739 
L 252.172254 207.999524 
L 250.457695 208.875927 
L 248.807426 209.499288 
L 247.227298 209.86857 
L 245.721051 209.985497 
L 244.290341 209.854481 
L 242.934811 209.482511 
L 241.652159 208.878993 
L 240.438281 208.055554 
L 239.287439 207.02582 
L 238.192435 205.805161 
L 237.144833 204.410424 
L 235.153264 201.171767 
L 233.229293 197.463215 
L 228.147835 187.167334 
L 225.806799 183.02417 
L 223.208196 179.053877 
L 220.328964 175.350953 
L 217.173349 171.984299 
L 213.77487 168.996212 
L 210.196751 166.402533 
L 206.530931 164.194017 
L 202.895439 162.338761 
L 197.809319 160.102195 
L 193.639871 158.312452 
L 191.641597 157.237823 
L 190.935215 156.706979 
L 190.447451 156.168492 
L 190.193918 155.614309 
L 190.188279 155.037343 
L 190.441969 154.431635 
L 190.963937 153.792512 
L 191.760427 153.116721 
L 192.834794 152.402534 
L 195.815437 150.860126 
L 199.871265 149.184197 
L 204.918446 147.419849 
L 210.827264 145.636323 
L 217.428556 143.923072 
L 224.522734 142.384286 
L 231.890165 141.132436 
L 239.302474 140.28125 
L 242.954408 140.04005 
L 246.533538 139.938675 
L 250.013551 139.988634 
L 253.369544 140.200283 
L 256.578172 140.582675 
L 259.617775 141.143393 
L 262.468736 141.888435 
L 265.11343 142.822074 
L 267.536531 143.94683 
L 269.724938 145.263267 
L 271.66799 146.770055 
L 273.357438 148.463882 
L 274.78744 150.339372 
L 275.954658 152.389179 
L 276.858133 154.603899 
L 277.499335 156.9722 
L 277.882052 159.480839 
L 278.012314 162.114673 
L 277.898304 164.856913 
L 277.550239 167.689082 
L 276.980209 170.591309 
L 276.202036 173.54246 
L 275.231089 176.520258 
L 274.084058 179.50168 
L 272.778784 182.463013 
L 271.333963 185.380304 
L 269.768924 188.229555 
L 268.103398 190.986971 
L 266.357165 193.629416 
L 264.549875 196.134558 
L 262.700676 198.48134 
L 260.828039 200.650113 
L 258.94941 202.623059 
L 257.081008 204.384382 
L 255.23764 205.9205 
L 253.432403 207.220333 
L 251.676648 208.275356 
L 249.979731 209.079787 
L 248.348974 209.630601 
L 246.789651 209.927545 
L 245.30488 209.973123 
L 243.895765 209.7725 
L 242.56136 209.333369 
L 241.298827 208.665787 
L 240.103601 207.781987 
L 238.969485 206.696105 
L 237.888928 205.42398 
L 236.853168 203.982817 
L 234.876541 200.66748 
L 232.955052 196.904779 
L 228.93007 188.667651 
L 226.67076 184.490169 
L 224.168147 180.445983 
L 221.390165 176.638272 
L 218.330976 173.14522 
L 215.013547 170.018722 
L 211.490514 167.283943 
L 207.843742 164.940363 
L 204.182396 162.963865 
L 200.639026 161.309692 
L 192.27072 157.617305 
L 190.772959 156.554404 
L 190.35055 156.012214 
L 190.166481 155.4522 
L 190.233812 154.86759 
L 190.563293 154.252755 
L 191.16312 153.603429 
L 192.038733 152.916779 
L 193.192615 152.191546 
L 196.330024 150.628296 
L 200.533594 148.9364 
L 205.712724 147.16455 
L 211.731532 145.385181 
L 218.415974 143.69019 
L 225.562947 142.185365 
L 232.950791 140.983813 
L 236.663593 140.532357 
L 240.35091 140.198843 
L 243.984767 139.996324 
L 247.538234 139.937028 
L 250.985348 140.032147 
L 254.301599 140.29168 
L 257.464052 140.724269 
L 260.451735 141.337073 
L 263.245514 142.135598 
L 265.828387 143.123619 
L 268.185724 144.303112 
L 270.305088 145.674131 
L 272.176458 147.234727 
L 273.792329 148.981051 
L 275.147554 150.907155 
L 276.239468 153.005095 
L 277.06782 155.26492 
L 277.634737 157.674696 
L 277.944668 160.220657 
L 278.004271 162.887244 
L 277.822316 165.65711 
L 277.409567 168.511391 
L 276.778632 171.429809 
L 275.943804 174.390835 
L 274.920827 177.372068 
L 273.726776 180.350149 
L 272.379712 183.301387 
L 270.898571 186.201711 
L 269.302821 189.027154 
L 267.612227 191.754094 
L 265.8466 194.359532 
L 264.025408 196.821573 
L 262.1677 199.119432 
L 260.291605 201.234052 
L 258.414291 203.148113 
L 256.551591 204.846425 
L 254.717834 206.316116 
L 252.92568 207.546792 
L 251.185837 208.530755 
L 249.507168 209.262962 
L 247.896355 209.741205 
L 246.358079 209.966017 
L 244.894884 209.940669 
L 243.507267 209.671059 
L 242.193762 209.165588 
L 240.951002 208.434955 
L 239.773909 207.491938 
L 238.655909 206.351207 
L 237.58907 205.029003 
L 235.571818 201.911459 
L 233.640742 198.290425 
L 227.503441 185.973358 
L 225.092715 181.868515 
L 222.415192 177.965981 
L 219.455378 174.35319 
L 216.225721 171.091478 
L 212.768204 168.215487 
L 209.154452 165.733742 
L 205.484221 163.630252 
L 201.882225 161.867204 
L 195.476521 159.125655 
L 192.99596 158.000787 
L 191.212474 156.935167 
L 190.628899 156.400993 
L 190.273077 155.854471 
L 190.15955 155.288076 
L 190.300727 154.695365 
L 190.706667 154.071056 
L 191.384794 153.411297 
L 192.339729 152.713691 
L 195.083532 151.20329 
L 198.914082 149.5531 
L 203.758059 147.802657 
L 209.49509 146.016312 
L 215.963708 144.279631 
L 222.970175 142.694111 
L 230.29813 141.371059 
L 237.720013 140.42454 
L 241.3949 140.127115 
L 245.008564 139.964277 
L 248.534255 139.947968 
L 251.946442 140.089065 
L 255.221059 140.397186 
L 258.33572 140.880564 
L 261.269809 141.54588 
L 264.005029 142.398194 
L 266.524948 143.440773 
L 268.815507 144.675025 
L 270.864996 146.100448 
L 272.664111 147.714572 
L 274.205983 149.512917 
L 275.486163 151.488908 
L 276.502762 153.63416 
L 277.256167 155.938104 
L 277.749176 158.388281 
L 277.986871 160.970379 
L 277.976526 163.668286 
L 277.7275 166.46424 
L 277.251116 169.338862 
L 276.560448 172.271697 
L 275.670232 175.24086 
L 274.596623 178.223606 
L 273.35699 181.196497 
L 271.969688 184.135655 
L 270.453823 187.017037 
L 268.829028 189.816655 
L 267.114996 192.511227 
L 265.331512 195.077951 
L 263.497979 197.495179 
L 261.633187 199.742627 
L 259.755049 201.801665 
L 257.880355 203.655583 
L 256.024586 205.289783 
L 254.20149 206.692197 
L 252.423232 207.853126 
L 250.700039 208.765611 
L 249.040124 209.425428 
L 247.449639 209.831143 
L 245.932677 209.984085 
L 244.491094 209.888296 
L 243.124862 209.550393 
L 241.831952 208.979448 
L 241.831952 208.979448 
" clip-path="url(#p3630f1a0c2)" style="fill: none; stroke-dasharray: 1.3,2.145; stroke-dashoffset: 0; stroke: #008000; stroke-width: 1.3"/>
   </g>
   <g id="line2d_27">
    <path d="M 275.303497 210.847502 
L 272.751786 210.919802 
L 273.38307 211.207057 
" clip-path="url(#p3630f1a0c2)" style="fill: none; stroke: #ff0000; stroke-width: 2; stroke-linecap: square"/>
   </g>
   <g id="line2d_28">
    <path d="M 270.209006 210.803316 
L 272.751786 210.919802 
L 272.133374 210.445053 
" clip-path="url(#p3630f1a0c2)" style="fill: none; stroke: #0000ff; stroke-width: 2; stroke-linecap: square"/>
   </g>
   <g id="line2d_29">
    <path d="M 234.03339 206.116349 
L 234.042463 206.017809 
L 234.01795 207.28198 
L 233.80081 208.175004 
L 233.39257 209.312942 
L 232.725058 210.581536 
L 231.802183 211.878908 
L 230.6588 213.127326 
L 229.371475 214.296258 
L 226.652672 216.343895 
L 224.158563 217.806866 
L 222.285863 218.606506 
L 221.659095 218.716843 
L 221.265449 218.596102 
L 221.115195 218.215832 
L 221.211851 217.539425 
L 222.060652 215.178945 
L 223.461059 211.446589 
L 225.092429 206.460925 
L 226.827057 200.403022 
L 228.597871 193.521496 
L 230.337129 186.193123 
L 231.879672 178.518251 
L 233.108895 170.739239 
L 233.912123 163.552074 
L 234.28866 157.351134 
L 234.326402 152.219928 
L 234.10115 148.134016 
L 233.646868 145.039726 
L 232.960221 142.865465 
L 232.540984 142.105486 
L 232.081843 141.557703 
L 231.595604 141.218592 
L 231.099079 141.083359 
L 230.609943 141.145652 
L 230.138482 141.40285 
L 229.675151 141.850381 
L 228.636893 143.283215 
L 226.333887 146.610667 
L 221.922063 152.286923 
L 218.951039 155.969999 
L 218.269946 157.024488 
L 217.780805 158.024633 
L 217.47708 159.001341 
L 217.350729 159.973799 
L 217.398465 160.948013 
L 217.619459 161.923739 
L 218.010523 162.903001 
L 218.566687 163.88997 
L 219.28234 164.889605 
L 220.152764 165.905593 
L 221.179619 166.932617 
L 222.367807 167.960631 
L 223.722147 168.979594 
L 225.247337 169.979327 
L 226.947582 170.949722 
L 228.824453 171.883178 
L 230.879109 172.770551 
L 233.109781 173.602695 
L 238.053292 175.081482 
L 243.477523 176.350702 
L 249.212603 177.410299 
L 252.143025 177.761683 
L 263.195043 178.586228 
L 265.735892 178.885154 
L 268.172662 179.313839 
L 270.489704 179.903742 
L 272.676197 180.674581 
L 274.716472 181.63288 
L 276.587094 182.778366 
L 278.252957 184.106184 
L 279.663129 185.606213 
L 280.755968 187.261717 
L 281.449048 189.032377 
L 281.724337 190.873564 
L 281.532423 192.718645 
L 280.887411 194.502828 
L 279.859165 196.163614 
L 278.51497 197.641613 
L 276.956727 198.939098 
L 275.282027 200.097365 
L 271.804864 202.078318 
L 270.066382 202.887583 
L 268.354194 203.518088 
L 266.678806 203.941315 
L 265.045493 204.157228 
L 263.455663 204.133921 
L 261.899527 203.855186 
L 260.354526 203.333507 
L 258.787404 202.563266 
L 257.16349 201.524521 
L 255.46403 200.208618 
L 253.685858 198.637206 
L 249.903377 194.83053 
L 245.848864 190.2924 
L 239.334032 182.529507 
L 232.35292 174.267259 
L 227.402136 168.886447 
L 224.869709 166.416607 
L 222.32391 164.150463 
L 219.77549 162.10341 
L 217.230165 160.278853 
L 214.69976 158.676795 
L 212.206694 157.29706 
L 209.788869 156.14048 
L 207.49762 155.200835 
L 205.393583 154.463335 
L 203.484844 153.923372 
L 200.193795 153.324188 
L 197.10437 153.041366 
L 193.462877 152.898949 
L 188.694635 152.958671 
L 182.650872 153.378008 
L 179.482827 153.729913 
L 176.385617 154.22659 
L 173.415804 154.888273 
L 170.638922 155.694779 
L 168.125168 156.624256 
L 165.958325 157.648493 
L 164.250027 158.71667 
L 163.096465 159.754493 
L 162.510188 160.692147 
L 162.430701 161.48981 
L 162.769679 162.150328 
L 163.447944 162.704358 
L 164.41358 163.178827 
L 165.641191 163.583659 
L 168.814571 164.216158 
L 172.861971 164.662752 
L 180.398664 165.102148 
L 196.01841 165.832507 
L 206.668102 166.723644 
L 226.436614 168.541054 
L 245.31895 169.47231 
L 255.141401 170.467977 
L 259.945975 171.121245 
L 264.603485 171.928061 
L 269.087444 172.914438 
L 273.388945 174.092293 
L 277.506829 175.465049 
L 281.442076 177.030945 
L 285.196678 178.786054 
L 288.766258 180.723753 
L 292.142693 182.836706 
L 295.311146 185.116778 
L 298.248041 187.555049 
L 300.918967 190.141527 
L 303.272633 192.863556 
L 305.234866 195.702414 
L 306.722808 198.628113 
L 307.729976 201.603052 
L 308.243174 204.546151 
L 308.229473 207.34352 
L 307.719029 209.919061 
L 306.757244 212.205815 
L 305.386285 214.119707 
L 303.698844 215.648726 
L 301.838093 216.877708 
L 299.910062 217.867883 
L 297.992506 218.653194 
L 296.147853 219.2473 
L 294.424086 219.642284 
L 292.858914 219.819008 
L 291.483038 219.749201 
L 290.321138 219.391878 
L 289.362728 218.753504 
L 288.592641 217.753696 
L 287.948459 216.31061 
L 285.781658 209.798645 
L 283.656435 203.635614 
L 280.828265 196.118347 
L 277.231058 187.446698 
L 275.112753 182.766911 
L 272.727857 177.929679 
L 270.017069 173.009388 
L 266.964117 168.092074 
L 263.6251 163.280031 
L 260.070579 158.650722 
L 256.34874 154.2497 
L 252.568783 150.132493 
L 248.796669 146.314545 
L 245.039423 142.800094 
L 241.349037 139.609196 
L 237.764363 136.739835 
L 234.284794 134.176622 
L 230.896697 131.90351 
L 227.586621 129.905788 
L 224.344531 128.170054 
L 221.169407 126.685877 
L 218.074409 125.444535 
L 215.08677 124.436393 
L 212.240515 123.64965 
L 209.567269 123.072249 
L 207.092104 122.692673 
L 204.840442 122.49829 
L 202.84882 122.472872 
L 201.149377 122.602537 
L 199.777195 122.873905 
L 198.750073 123.280039 
L 198.05214 123.822276 
L 197.640104 124.504835 
L 197.432435 125.335929 
L 197.329886 127.3851 
L 197.526035 129.853202 
L 197.819668 131.230249 
L 198.28334 132.678102 
L 198.933967 134.165606 
L 199.771788 135.674109 
L 200.785413 137.19953 
L 203.260897 140.342685 
L 206.239548 143.67033 
L 209.682375 147.195726 
L 213.639369 150.831014 
L 215.839703 152.64451 
L 218.203323 154.430369 
L 220.740479 156.171015 
L 223.459942 157.850016 
L 226.370191 159.450631 
L 229.4742 160.961824 
L 232.767232 162.378384 
L 236.240701 163.696393 
L 239.907003 164.883528 
L 247.800721 166.886103 
L 264.298441 170.950516 
L 268.32063 172.048122 
L 272.202503 173.258665 
L 275.915561 174.614448 
L 279.440625 176.131177 
L 282.759773 177.815691 
L 285.843811 179.667092 
L 288.648518 181.679105 
L 291.114525 183.837643 
L 293.167009 186.107362 
L 294.771382 188.438611 
L 295.87711 190.766676 
L 296.434885 192.992975 
L 296.479753 195.016173 
L 296.12991 196.823519 
L 295.478764 198.452237 
L 294.576538 199.955899 
L 293.422407 201.381919 
L 292.004205 202.771401 
L 290.335034 204.142175 
L 288.44897 205.473459 
L 284.255614 207.846959 
L 282.115233 208.905629 
L 280.024267 209.793372 
L 278.032319 210.446284 
L 276.162314 210.85287 
L 274.409361 211.015026 
L 274.409361 211.015026 
" clip-path="url(#p3630f1a0c2)" style="fill: none; stroke-dasharray: 3.7,1.6; stroke-dashoffset: 0; stroke: #0000ff"/>
   </g>
   <g id="Path3DCollection_1">
    <defs>
     <path id="m99c3f40cc6" d="M 0 2.5 
C 0.663008 2.5 1.29895 2.236584 1.767767 1.767767 
C 2.236584 1.29895 2.5 0.663008 2.5 0 
C 2.5 -0.663008 2.236584 -1.29895 1.767767 -1.767767 
C 1.29895 -2.236584 0.663008 -2.5 0 -2.5 
C -0.663008 -2.5 -1.29895 -2.236584 -1.767767 -1.767767 
C -2.236584 -1.29895 -2.5 -0.663008 -2.5 0 
C -2.5 0.663008 -2.236584 1.29895 -1.767767 1.767767 
C -1.29895 2.236584 -0.663008 2.5 0 2.5 
z
" style="stroke: #ff00ff"/>
    </defs>
    <g clip-path="url(#p3630f1a0c2)">
     <use xlink:href="#m99c3f40cc6" x="243.124862" y="209.550393" style="fill: #ff00ff; stroke: #ff00ff"/>
    </g>
   </g>
   <g id="text_26">
    <!-- Time = 19.92 s -->
    <g transform="translate(116.4096 54.7776) scale(0.1 -0.1)">
     <defs>
      <path id="DejaVuSans-54" d="M -19 4666 
L 3928 4666 
L 3928 4134 
L 2272 4134 
L 2272 0 
L 1638 0 
L 1638 4134 
L -19 4134 
L -19 4666 
z
" transform="scale(0.015625)"/>
      <path id="DejaVuSans-6d" d="M 3328 2828 
Q 3544 3216 3844 3400 
Q 4144 3584 4550 3584 
Q 5097 3584 5394 3201 
Q 5691 2819 5691 2113 
L 5691 0 
L 5113 0 
L 5113 2094 
Q 5113 2597 4934 2840 
Q 4756 3084 4391 3084 
Q 3944 3084 3684 2787 
Q 3425 2491 3425 1978 
L 3425 0 
L 2847 0 
L 2847 2094 
Q 2847 2600 2669 2842 
Q 2491 3084 2119 3084 
Q 1678 3084 1418 2786 
Q 1159 2488 1159 1978 
L 1159 0 
L 581 0 
L 581 3500 
L 1159 3500 
L 1159 2956 
Q 1356 3278 1631 3431 
Q 1906 3584 2284 3584 
Q 2666 3584 2933 3390 
Q 3200 3197 3328 2828 
z
" transform="scale(0.015625)"/>
      <path id="DejaVuSans-20" transform="scale(0.015625)"/>
      <path id="DejaVuSans-3d" d="M 678 2906 
L 4684 2906 
L 4684 2381 
L 678 2381 
L 678 2906 
z
M 678 1631 
L 4684 1631 
L 4684 1100 
L 678 1100 
L 678 1631 
z
" transform="scale(0.015625)"/>
      <path id="DejaVuSans-39" d="M 703 97 
L 703 672 
Q 941 559 1184 500 
Q 1428 441 1663 441 
Q 2288 441 2617 861 
Q 2947 1281 2994 2138 
Q 2813 1869 2534 1725 
Q 2256 1581 1919 1581 
Q 1219 1581 811 2004 
Q 403 2428 403 3163 
Q 403 3881 828 4315 
Q 1253 4750 1959 4750 
Q 2769 4750 3195 4129 
Q 3622 3509 3622 2328 
Q 3622 1225 3098 567 
Q 2575 -91 1691 -91 
Q 1453 -91 1209 -44 
Q 966 3 703 97 
z
M 1959 2075 
Q 2384 2075 2632 2365 
Q 2881 2656 2881 3163 
Q 2881 3666 2632 3958 
Q 2384 4250 1959 4250 
Q 1534 4250 1286 3958 
Q 1038 3666 1038 3163 
Q 1038 2656 1286 2365 
Q 1534 2075 1959 2075 
z
" transform="scale(0.015625)"/>
      <path id="DejaVuSans-2e" d="M 684 794 
L 1344 794 
L 1344 0 
L 684 0 
L 684 794 
z
" transform="scale(0.015625)"/>
      <path id="DejaVuSans-73" d="M 2834 3397 
L 2834 2853 
Q 2591 2978 2328 3040 
Q 2066 3103 1784 3103 
Q 1356 3103 1142 2972 
Q 928 2841 928 2578 
Q 928 2378 1081 2264 
Q 1234 2150 1697 2047 
L 1894 2003 
Q 2506 1872 2764 1633 
Q 3022 1394 3022 966 
Q 3022 478 2636 193 
Q 2250 -91 1575 -91 
Q 1294 -91 989 -36 
Q 684 19 347 128 
L 347 722 
Q 666 556 975 473 
Q 1284 391 1588 391 
Q 1994 391 2212 530 
Q 2431 669 2431 922 
Q 2431 1156 2273 1281 
Q 2116 1406 1581 1522 
L 1381 1569 
Q 847 1681 609 1914 
Q 372 2147 372 2553 
Q 372 3047 722 3315 
Q 1072 3584 1716 3584 
Q 2034 3584 2315 3537 
Q 2597 3491 2834 3397 
z
" transform="scale(0.015625)"/>
     </defs>
     <use xlink:href="#DejaVuSans-54"/>
     <use xlink:href="#DejaVuSans-69" x="57.958984"/>
     <use xlink:href="#DejaVuSans-6d" x="85.742188"/>
     <use xlink:href="#DejaVuSans-65" x="183.154297"/>
     <use xlink:href="#DejaVuSans-20" x="244.677734"/>
     <use xlink:href="#DejaVuSans-3d" x="276.464844"/>
     <use xlink:href="#DejaVuSans-20" x="360.253906"/>
     <use xlink:href="#DejaVuSans-31" x="392.041016"/>
     <use xlink:href="#DejaVuSans-39" x="455.664062"/>
     <use xlink:href="#DejaVuSans-2e" x="519.287109"/>
     <use xlink:href="#DejaVuSans-39" x="551.074219"/>
     <use xlink:href="#DejaVuSans-32" x="614.697266"/>
     <use xlink:href="#DejaVuSans-20" x="678.320312"/>
     <use xlink:href="#DejaVuSans-73" x="710.107422"/>
    </g>
   </g>
   <g id="text_27">
    <!-- fig8 -->
    <g transform="translate(336.901025 54.7776) scale(0.1 -0.1)">
     <defs>
      <path id="DejaVuSans-66" d="M 2375 4863 
L 2375 4384 
L 1825 4384 
Q 1516 4384 1395 4259 
Q 1275 4134 1275 3809 
L 1275 3500 
L 2222 3500 
L 2222 3053 
L 1275 3053 
L 1275 0 
L 697 0 
L 697 3053 
L 147 3053 
L 147 3500 
L 697 3500 
L 697 3744 
Q 697 4328 969 4595 
Q 1241 4863 1831 4863 
L 2375 4863 
z
" transform="scale(0.015625)"/>
      <path id="DejaVuSans-67" d="M 2906 1791 
Q 2906 2416 2648 2759 
Q 2391 3103 1925 3103 
Q 1463 3103 1205 2759 
Q 947 2416 947 1791 
Q 947 1169 1205 825 
Q 1463 481 1925 481 
Q 2391 481 2648 825 
Q 2906 1169 2906 1791 
z
M 3481 434 
Q 3481 -459 3084 -895 
Q 2688 -1331 1869 -1331 
Q 1566 -1331 1297 -1286 
Q 1028 -1241 775 -1147 
L 775 -588 
Q 1028 -725 1275 -790 
Q 1522 -856 1778 -856 
Q 2344 -856 2625 -561 
Q 2906 -266 2906 331 
L 2906 616 
Q 2728 306 2450 153 
Q 2172 0 1784 0 
Q 1141 0 747 490 
Q 353 981 353 1791 
Q 353 2603 747 3093 
Q 1141 3584 1784 3584 
Q 2172 3584 2450 3431 
Q 2728 3278 2906 2969 
L 2906 3500 
L 3481 3500 
L 3481 434 
z
" transform="scale(0.015625)"/>
     </defs>
     <use xlink:href="#DejaVuSans-66"/>
     <use xlink:href="#DejaVuSans-69" x="35.205078"/>
     <use xlink:href="#DejaVuSans-67" x="62.988281"/>
     <use xlink:href="#DejaVuSans-38" x="126.464844"/>
    </g>
   </g>
  </g>
 </g>
 <defs>
  <clipPath id="p3630f1a0c2">
   <rect x="103.104" y="41.472" width="266.112" height="266.112"/>
  </clipPath>
 </defs>
</svg>
