<?xml version="1.0" encoding="utf-8" standalone="no"?>
<!DOCTYPE svg PUBLIC "-//W3C//DTD SVG 1.1//EN"
  "http://www.w3.org/Graphics/SVG/1.1/DTD/svg11.dtd">
<svg xmlns:xlink="http://www.w3.org/1999/xlink" width="460.8pt" height="345.6pt" viewBox="0 0 460.8 345.6" xmlns="http://www.w3.org/2000/svg" version="1.1">
 <metadata>
  <rdf:RDF xmlns:dc="http://purl.org/dc/elements/1.1/" xmlns:cc="http://creativecommons.org/ns#" xmlns:rdf="http://www.w3.org/1999/02/22-rdf-syntax-ns#">
   <cc:Work>
    <dc:type rdf:resource="http://purl.org/dc/dcmitype/StillImage"/>
    <dc:date>2023-11-02T09:02:25.423782</dc:date>
    <dc:format>image/svg+xml</dc:format>
    <dc:creator>
     <cc:Agent>
      <dc:title>Matplotlib v3.8.0, https://matplotlib.org/</dc:title>
     </cc:Agent>
    </dc:creator>
   </cc:Work>
  </rdf:RDF>
 </metadata>
 <defs>
  <style type="text/css">*{stroke-linejoin: round; stroke-linecap: butt}</style>
 </defs>
 <g id="figure_1">
  <g id="patch_1">
   <path d="M 0 345.6 
L 460.8 345.6 
L 460.8 0 
L 0 0 
z
" style="fill: #ffffff"/>
  </g>
  <g id="patch_2">
   <path d="M 103.104 307.584 
L 369.216 307.584 
L 369.216 41.472 
L 103.104 41.472 
z
" style="fill: #ffffff"/>
  </g>
  <g id="pane3d_1">
   <g id="patch_3">
    <path d="M 211.076164 168.307495 
L 123.197291 241.969309 
L 117.770234 129.272941 
L 209.854564 62.073991 
" style="fill: #f2f2f2; opacity: 0.5; stroke: #f2f2f2; stroke-linejoin: miter"/>
   </g>
  </g>
  <g id="pane3d_2">
   <g id="patch_4">
    <path d="M 211.076164 168.307495 
L 352.090401 209.294766 
L 357.122702 99.402171 
L 209.854564 62.073991 
" style="fill: #e6e6e6; opacity: 0.5; stroke: #e6e6e6; stroke-linejoin: miter"/>
   </g>
  </g>
  <g id="pane3d_3">
   <g id="patch_5">
    <path d="M 211.076164 168.307495 
L 352.090401 209.294766 
L 272.679269 290.790123 
L 123.197291 241.969309 
" style="fill: #ececec; opacity: 0.5; stroke: #ececec; stroke-linejoin: miter"/>
   </g>
  </g>
  <g id="grid3d_1">
   <g id="Line3DCollection_1">
    <path d="M 139.442701 247.27506 
L 226.461728 172.779471 
L 225.892274 66.139083 
" style="fill: none; stroke: #b0b0b0; stroke-width: 0.8"/>
    <path d="M 159.468711 253.815555 
L 245.40745 178.286244 
L 245.651191 71.147393 
" style="fill: none; stroke: #b0b0b0; stroke-width: 0.8"/>
    <path d="M 179.785695 260.451081 
L 264.605534 183.866369 
L 265.684733 76.225311 
" style="fill: none; stroke: #b0b0b0; stroke-width: 0.8"/>
    <path d="M 200.40004 267.183727 
L 284.061056 189.521321 
L 285.998664 81.374301 
" style="fill: none; stroke: #b0b0b0; stroke-width: 0.8"/>
    <path d="M 221.318323 274.015638 
L 303.779229 195.252616 
L 306.598913 86.595863 
" style="fill: none; stroke: #b0b0b0; stroke-width: 0.8"/>
    <path d="M 242.547317 280.949027 
L 323.765409 201.061809 
L 327.491577 91.891545 
" style="fill: none; stroke: #b0b0b0; stroke-width: 0.8"/>
    <path d="M 264.093994 287.986172 
L 344.025096 206.9505 
L 348.682925 97.262934 
" style="fill: none; stroke: #b0b0b0; stroke-width: 0.8"/>
   </g>
  </g>
  <g id="grid3d_2">
   <g id="Line3DCollection_2">
    <path d="M 199.204977 69.845575 
L 200.878762 176.85516 
L 342.91149 218.714586 
" style="fill: none; stroke: #b0b0b0; stroke-width: 0.8"/>
    <path d="M 187.134444 78.654099 
L 189.331586 186.534232 
L 332.506278 229.392894 
" style="fill: none; stroke: #b0b0b0; stroke-width: 0.8"/>
    <path d="M 174.768811 87.677976 
L 177.51403 196.439941 
L 321.84493 240.334059 
" style="fill: none; stroke: #b0b0b0; stroke-width: 0.8"/>
    <path d="M 162.09712 96.925198 
L 165.416484 206.580344 
L 310.917872 251.547909 
" style="fill: none; stroke: #b0b0b0; stroke-width: 0.8"/>
    <path d="M 149.107867 106.404163 
L 153.028878 216.963881 
L 299.715045 263.044765 
" style="fill: none; stroke: #b0b0b0; stroke-width: 0.8"/>
    <path d="M 135.788963 116.123693 
L 140.340654 227.599402 
L 288.225877 274.835479 
" style="fill: none; stroke: #b0b0b0; stroke-width: 0.8"/>
    <path d="M 122.127698 126.093062 
L 127.340734 238.496193 
L 276.439245 286.931462 
" style="fill: none; stroke: #b0b0b0; stroke-width: 0.8"/>
   </g>
  </g>
  <g id="grid3d_3">
   <g id="Line3DCollection_3">
    <path d="M 352.454005 201.354584 
L 210.987726 160.61665 
L 122.805777 233.839271 
" style="fill: none; stroke: #b0b0b0; stroke-width: 0.8"/>
    <path d="M 353.129822 186.596456 
L 210.82342 146.328193 
L 122.077832 218.723006 
" style="fill: none; stroke: #b0b0b0; stroke-width: 0.8"/>
    <path d="M 353.813794 171.66026 
L 210.657227 131.875587 
L 121.340767 203.417383 
" style="fill: none; stroke: #b0b0b0; stroke-width: 0.8"/>
    <path d="M 354.506068 156.542754 
L 210.489113 117.255986 
L 120.594411 187.918822 
" style="fill: none; stroke: #b0b0b0; stroke-width: 0.8"/>
    <path d="M 355.206798 141.240614 
L 210.319045 102.466478 
L 119.838587 172.22365 
" style="fill: none; stroke: #b0b0b0; stroke-width: 0.8"/>
    <path d="M 355.916138 125.75044 
L 210.14699 87.504086 
L 119.073114 156.328104 
" style="fill: none; stroke: #b0b0b0; stroke-width: 0.8"/>
    <path d="M 356.634248 110.068742 
L 209.972911 72.365759 
L 118.297806 140.228321 
" style="fill: none; stroke: #b0b0b0; stroke-width: 0.8"/>
   </g>
  </g>
  <g id="axis3d_1">
   <g id="line2d_1">
    <path d="M 123.197291 241.969309 
L 272.679269 290.790123 
" style="fill: none; stroke: #000000; stroke-width: 0.8; stroke-linecap: square"/>
   </g>
   <g id="xtick_1">
    <g id="line2d_2">
     <path d="M 140.200617 246.626219 
L 137.923607 248.575532 
" style="fill: none; stroke: #000000; stroke-width: 0.8; stroke-linecap: square"/>
    </g>
    <g id="text_1">
     <!-- −8 -->
     <g transform="translate(124.549736 270.633915) scale(0.1 -0.1)">
      <defs>
       <path id="DejaVuSans-2212" d="M 678 2272 
L 4684 2272 
L 4684 1741 
L 678 1741 
L 678 2272 
z
" transform="scale(0.015625)"/>
       <path id="DejaVuSans-38" d="M 2034 2216 
Q 1584 2216 1326 1975 
Q 1069 1734 1069 1313 
Q 1069 891 1326 650 
Q 1584 409 2034 409 
Q 2484 409 2743 651 
Q 3003 894 3003 1313 
Q 3003 1734 2745 1975 
Q 2488 2216 2034 2216 
z
M 1403 2484 
Q 997 2584 770 2862 
Q 544 3141 544 3541 
Q 544 4100 942 4425 
Q 1341 4750 2034 4750 
Q 2731 4750 3128 4425 
Q 3525 4100 3525 3541 
Q 3525 3141 3298 2862 
Q 3072 2584 2669 2484 
Q 3125 2378 3379 2068 
Q 3634 1759 3634 1313 
Q 3634 634 3220 271 
Q 2806 -91 2034 -91 
Q 1263 -91 848 271 
Q 434 634 434 1313 
Q 434 1759 690 2068 
Q 947 2378 1403 2484 
z
M 1172 3481 
Q 1172 3119 1398 2916 
Q 1625 2713 2034 2713 
Q 2441 2713 2670 2916 
Q 2900 3119 2900 3481 
Q 2900 3844 2670 4047 
Q 2441 4250 2034 4250 
Q 1625 4250 1398 4047 
Q 1172 3844 1172 3481 
z
" transform="scale(0.015625)"/>
      </defs>
      <use xlink:href="#DejaVuSans-2212"/>
      <use xlink:href="#DejaVuSans-38" x="83.789062"/>
     </g>
    </g>
   </g>
   <g id="xtick_2">
    <g id="line2d_3">
     <path d="M 160.217658 253.157325 
L 157.967571 255.134867 
" style="fill: none; stroke: #000000; stroke-width: 0.8; stroke-linecap: square"/>
    </g>
    <g id="text_2">
     <!-- −6 -->
     <g transform="translate(144.596467 277.313061) scale(0.1 -0.1)">
      <defs>
       <path id="DejaVuSans-36" d="M 2113 2584 
Q 1688 2584 1439 2293 
Q 1191 2003 1191 1497 
Q 1191 994 1439 701 
Q 1688 409 2113 409 
Q 2538 409 2786 701 
Q 3034 994 3034 1497 
Q 3034 2003 2786 2293 
Q 2538 2584 2113 2584 
z
M 3366 4563 
L 3366 3988 
Q 3128 4100 2886 4159 
Q 2644 4219 2406 4219 
Q 1781 4219 1451 3797 
Q 1122 3375 1075 2522 
Q 1259 2794 1537 2939 
Q 1816 3084 2150 3084 
Q 2853 3084 3261 2657 
Q 3669 2231 3669 1497 
Q 3669 778 3244 343 
Q 2819 -91 2113 -91 
Q 1303 -91 875 529 
Q 447 1150 447 2328 
Q 447 3434 972 4092 
Q 1497 4750 2381 4750 
Q 2619 4750 2861 4703 
Q 3103 4656 3366 4563 
z
" transform="scale(0.015625)"/>
      </defs>
      <use xlink:href="#DejaVuSans-2212"/>
      <use xlink:href="#DejaVuSans-36" x="83.789062"/>
     </g>
    </g>
   </g>
   <g id="xtick_3">
    <g id="line2d_4">
     <path d="M 180.525331 259.783256 
L 178.303194 261.789647 
" style="fill: none; stroke: #000000; stroke-width: 0.8; stroke-linecap: square"/>
    </g>
    <g id="text_3">
     <!-- −4 -->
     <g transform="translate(164.935575 284.089621) scale(0.1 -0.1)">
      <defs>
       <path id="DejaVuSans-34" d="M 2419 4116 
L 825 1625 
L 2419 1625 
L 2419 4116 
z
M 2253 4666 
L 3047 4666 
L 3047 1625 
L 3713 1625 
L 3713 1100 
L 3047 1100 
L 3047 0 
L 2419 0 
L 2419 1100 
L 313 1100 
L 313 1709 
L 2253 4666 
z
" transform="scale(0.015625)"/>
      </defs>
      <use xlink:href="#DejaVuSans-2212"/>
      <use xlink:href="#DejaVuSans-34" x="83.789062"/>
     </g>
    </g>
   </g>
   <g id="xtick_4">
    <g id="line2d_5">
     <path d="M 201.130012 266.506095 
L 198.936887 268.54197 
" style="fill: none; stroke: #000000; stroke-width: 0.8; stroke-linecap: square"/>
    </g>
    <g id="text_4">
     <!-- −2 -->
     <g transform="translate(185.573502 290.965741) scale(0.1 -0.1)">
      <defs>
       <path id="DejaVuSans-32" d="M 1228 531 
L 3431 531 
L 3431 0 
L 469 0 
L 469 531 
Q 828 903 1448 1529 
Q 2069 2156 2228 2338 
Q 2531 2678 2651 2914 
Q 2772 3150 2772 3378 
Q 2772 3750 2511 3984 
Q 2250 4219 1831 4219 
Q 1534 4219 1204 4116 
Q 875 4013 500 3803 
L 500 4441 
Q 881 4594 1212 4672 
Q 1544 4750 1819 4750 
Q 2544 4750 2975 4387 
Q 3406 4025 3406 3419 
Q 3406 3131 3298 2873 
Q 3191 2616 2906 2266 
Q 2828 2175 2409 1742 
Q 1991 1309 1228 531 
z
" transform="scale(0.015625)"/>
      </defs>
      <use xlink:href="#DejaVuSans-2212"/>
      <use xlink:href="#DejaVuSans-32" x="83.789062"/>
     </g>
    </g>
   </g>
   <g id="xtick_5">
    <g id="line2d_6">
     <path d="M 222.038264 273.327982 
L 219.875252 275.393996 
" style="fill: none; stroke: #000000; stroke-width: 0.8; stroke-linecap: square"/>
    </g>
    <g id="text_5">
     <!-- 0 -->
     <g transform="translate(210.706725 297.943631) scale(0.1 -0.1)">
      <defs>
       <path id="DejaVuSans-30" d="M 2034 4250 
Q 1547 4250 1301 3770 
Q 1056 3291 1056 2328 
Q 1056 1369 1301 889 
Q 1547 409 2034 409 
Q 2525 409 2770 889 
Q 3016 1369 3016 2328 
Q 3016 3291 2770 3770 
Q 2525 4250 2034 4250 
z
M 2034 4750 
Q 2819 4750 3233 4129 
Q 3647 3509 3647 2328 
Q 3647 1150 3233 529 
Q 2819 -91 2034 -91 
Q 1250 -91 836 529 
Q 422 1150 422 2328 
Q 422 3509 836 4129 
Q 1250 4750 2034 4750 
z
" transform="scale(0.015625)"/>
      </defs>
      <use xlink:href="#DejaVuSans-30"/>
     </g>
    </g>
   </g>
   <g id="xtick_6">
    <g id="line2d_7">
     <path d="M 243.256847 280.251123 
L 241.125089 282.34795 
" style="fill: none; stroke: #000000; stroke-width: 0.8; stroke-linecap: square"/>
    </g>
    <g id="text_6">
     <!-- 2 -->
     <g transform="translate(231.962391 305.025568) scale(0.1 -0.1)">
      <use xlink:href="#DejaVuSans-32"/>
     </g>
    </g>
   </g>
   <g id="xtick_7">
    <g id="line2d_8">
     <path d="M 264.792722 287.277789 
L 262.693398 289.406123 
" style="fill: none; stroke: #000000; stroke-width: 0.8; stroke-linecap: square"/>
    </g>
    <g id="text_7">
     <!-- 4 -->
     <g transform="translate(253.537378 312.213897) scale(0.1 -0.1)">
      <use xlink:href="#DejaVuSans-34"/>
     </g>
    </g>
   </g>
   <g id="text_8">
    <!-- X -->
    <g transform="translate(176.251428 303.76759) scale(0.1 -0.1)">
     <defs>
      <path id="DejaVuSans-58" d="M 403 4666 
L 1081 4666 
L 2241 2931 
L 3406 4666 
L 4084 4666 
L 2584 2425 
L 4184 0 
L 3506 0 
L 2194 1984 
L 872 0 
L 191 0 
L 1856 2491 
L 403 4666 
z
" transform="scale(0.015625)"/>
     </defs>
     <use xlink:href="#DejaVuSans-58"/>
    </g>
   </g>
  </g>
  <g id="axis3d_2">
   <g id="line2d_9">
    <path d="M 352.090401 209.294766 
L 272.679269 290.790123 
" style="fill: none; stroke: #000000; stroke-width: 0.8; stroke-linecap: square"/>
   </g>
   <g id="xtick_8">
    <g id="line2d_10">
     <path d="M 341.71884 218.363092 
L 345.299659 219.418419 
" style="fill: none; stroke: #000000; stroke-width: 0.8; stroke-linecap: square"/>
    </g>
    <g id="text_9">
     <!-- −6 -->
     <g transform="translate(347.550727 238.754812) scale(0.1 -0.1)">
      <use xlink:href="#DejaVuSans-2212"/>
      <use xlink:href="#DejaVuSans-36" x="83.789062"/>
     </g>
    </g>
   </g>
   <g id="xtick_9">
    <g id="line2d_11">
     <path d="M 331.303348 229.032802 
L 334.915066 230.113953 
" style="fill: none; stroke: #000000; stroke-width: 0.8; stroke-linecap: square"/>
    </g>
    <g id="text_10">
     <!-- −4 -->
     <g transform="translate(337.28576 249.590493) scale(0.1 -0.1)">
      <use xlink:href="#DejaVuSans-2212"/>
      <use xlink:href="#DejaVuSans-34" x="83.789062"/>
     </g>
    </g>
   </g>
   <g id="xtick_10">
    <g id="line2d_12">
     <path d="M 320.631572 239.965051 
L 324.274635 241.072985 
" style="fill: none; stroke: #000000; stroke-width: 0.8; stroke-linecap: square"/>
    </g>
    <g id="text_11">
     <!-- −2 -->
     <g transform="translate(326.767967 260.693058) scale(0.1 -0.1)">
      <use xlink:href="#DejaVuSans-2212"/>
      <use xlink:href="#DejaVuSans-32" x="83.789062"/>
     </g>
    </g>
   </g>
   <g id="xtick_11">
    <g id="line2d_13">
     <path d="M 309.693937 251.169648 
L 313.368796 252.305373 
" style="fill: none; stroke: #000000; stroke-width: 0.8; stroke-linecap: square"/>
    </g>
    <g id="text_12">
     <!-- 0 -->
     <g transform="translate(320.177733 272.072489) scale(0.1 -0.1)">
      <use xlink:href="#DejaVuSans-30"/>
     </g>
    </g>
   </g>
   <g id="xtick_12">
    <g id="line2d_14">
     <path d="M 298.480382 262.6569 
L 302.187491 263.821474 
" style="fill: none; stroke: #000000; stroke-width: 0.8; stroke-linecap: square"/>
    </g>
    <g id="text_13">
     <!-- 2 -->
     <g transform="translate(309.125437 283.739274) scale(0.1 -0.1)">
      <use xlink:href="#DejaVuSans-32"/>
     </g>
    </g>
   </g>
   <g id="xtick_13">
    <g id="line2d_15">
     <path d="M 286.980333 274.437639 
L 290.72015 275.632176 
" style="fill: none; stroke: #000000; stroke-width: 0.8; stroke-linecap: square"/>
    </g>
    <g id="text_14">
     <!-- 4 -->
     <g transform="translate(297.790479 295.704436) scale(0.1 -0.1)">
      <use xlink:href="#DejaVuSans-34"/>
     </g>
    </g>
   </g>
   <g id="xtick_14">
    <g id="line2d_16">
     <path d="M 275.182668 286.523257 
L 278.955656 287.748928 
" style="fill: none; stroke: #000000; stroke-width: 0.8; stroke-linecap: square"/>
    </g>
    <g id="text_15">
     <!-- 6 -->
     <g transform="translate(286.161875 307.97957) scale(0.1 -0.1)">
      <use xlink:href="#DejaVuSans-36"/>
     </g>
    </g>
   </g>
   <g id="text_16">
    <!-- Y -->
    <g transform="translate(338.078875 278.988697) scale(0.1 -0.1)">
     <defs>
      <path id="DejaVuSans-59" d="M -13 4666 
L 666 4666 
L 1959 2747 
L 3244 4666 
L 3922 4666 
L 2272 2222 
L 2272 0 
L 1638 0 
L 1638 2222 
L -13 4666 
z
" transform="scale(0.015625)"/>
     </defs>
     <use xlink:href="#DejaVuSans-59"/>
    </g>
   </g>
  </g>
  <g id="axis3d_3">
   <g id="line2d_17">
    <path d="M 352.090401 209.294766 
L 357.122702 99.402171 
" style="fill: none; stroke: #000000; stroke-width: 0.8; stroke-linecap: square"/>
   </g>
   <g id="xtick_15">
    <g id="line2d_18">
     <path d="M 351.266533 201.012628 
L 354.831781 202.03931 
" style="fill: none; stroke: #000000; stroke-width: 0.8; stroke-linecap: square"/>
    </g>
    <g id="text_17">
     <!-- −2 -->
     <g transform="translate(363.389346 206.363501) scale(0.1 -0.1)">
      <use xlink:href="#DejaVuSans-2212"/>
      <use xlink:href="#DejaVuSans-32" x="83.789062"/>
     </g>
    </g>
   </g>
   <g id="xtick_16">
    <g id="line2d_19">
     <path d="M 351.934962 186.258348 
L 355.522409 187.273484 
" style="fill: none; stroke: #000000; stroke-width: 0.8; stroke-linecap: square"/>
    </g>
    <g id="text_18">
     <!-- 0 -->
     <g transform="translate(368.362409 191.634548) scale(0.1 -0.1)">
      <use xlink:href="#DejaVuSans-30"/>
     </g>
    </g>
   </g>
   <g id="xtick_17">
    <g id="line2d_20">
     <path d="M 352.611454 171.326118 
L 356.221378 172.329353 
" style="fill: none; stroke: #000000; stroke-width: 0.8; stroke-linecap: square"/>
    </g>
    <g id="text_19">
     <!-- 2 -->
     <g transform="translate(369.155049 176.728419) scale(0.1 -0.1)">
      <use xlink:href="#DejaVuSans-32"/>
     </g>
    </g>
   </g>
   <g id="xtick_18">
    <g id="line2d_21">
     <path d="M 353.296154 156.212698 
L 356.928838 157.203667 
" style="fill: none; stroke: #000000; stroke-width: 0.8; stroke-linecap: square"/>
    </g>
    <g id="text_20">
     <!-- 4 -->
     <g transform="translate(369.957282 161.641899) scale(0.1 -0.1)">
      <use xlink:href="#DejaVuSans-34"/>
     </g>
    </g>
   </g>
   <g id="xtick_19">
    <g id="line2d_22">
     <path d="M 353.989212 140.91477 
L 357.644945 141.893099 
" style="fill: none; stroke: #000000; stroke-width: 0.8; stroke-linecap: square"/>
    </g>
    <g id="text_21">
     <!-- 6 -->
     <g transform="translate(370.769282 146.371693) scale(0.1 -0.1)">
      <use xlink:href="#DejaVuSans-36"/>
     </g>
    </g>
   </g>
   <g id="xtick_20">
    <g id="line2d_23">
     <path d="M 354.690784 125.428936 
L 358.369859 126.394238 
" style="fill: none; stroke: #000000; stroke-width: 0.8; stroke-linecap: square"/>
    </g>
    <g id="text_22">
     <!-- 8 -->
     <g transform="translate(371.591229 130.914425) scale(0.1 -0.1)">
      <use xlink:href="#DejaVuSans-38"/>
     </g>
    </g>
   </g>
   <g id="xtick_21">
    <g id="line2d_24">
     <path d="M 355.401027 109.751711 
L 359.103743 110.703588 
" style="fill: none; stroke: #000000; stroke-width: 0.8; stroke-linecap: square"/>
    </g>
    <g id="text_23">
     <!-- 10 -->
     <g transform="translate(369.242058 115.266638) scale(0.1 -0.1)">
      <defs>
       <path id="DejaVuSans-31" d="M 794 531 
L 1825 531 
L 1825 4091 
L 703 3866 
L 703 4441 
L 1819 4666 
L 2450 4666 
L 2450 531 
L 3481 531 
L 3481 0 
L 794 0 
L 794 531 
z
" transform="scale(0.015625)"/>
      </defs>
      <use xlink:href="#DejaVuSans-31"/>
      <use xlink:href="#DejaVuSans-30" x="63.623047"/>
     </g>
    </g>
   </g>
   <g id="text_24">
    <!-- Altitude -->
    <g transform="translate(396.789938 169.786959) rotate(-87.378092) scale(0.1 -0.1)">
     <defs>
      <path id="DejaVuSans-41" d="M 2188 4044 
L 1331 1722 
L 3047 1722 
L 2188 4044 
z
M 1831 4666 
L 2547 4666 
L 4325 0 
L 3669 0 
L 3244 1197 
L 1141 1197 
L 716 0 
L 50 0 
L 1831 4666 
z
" transform="scale(0.015625)"/>
      <path id="DejaVuSans-6c" d="M 603 4863 
L 1178 4863 
L 1178 0 
L 603 0 
L 603 4863 
z
" transform="scale(0.015625)"/>
      <path id="DejaVuSans-74" d="M 1172 4494 
L 1172 3500 
L 2356 3500 
L 2356 3053 
L 1172 3053 
L 1172 1153 
Q 1172 725 1289 603 
Q 1406 481 1766 481 
L 2356 481 
L 2356 0 
L 1766 0 
Q 1100 0 847 248 
Q 594 497 594 1153 
L 594 3053 
L 172 3053 
L 172 3500 
L 594 3500 
L 594 4494 
L 1172 4494 
z
" transform="scale(0.015625)"/>
      <path id="DejaVuSans-69" d="M 603 3500 
L 1178 3500 
L 1178 0 
L 603 0 
L 603 3500 
z
M 603 4863 
L 1178 4863 
L 1178 4134 
L 603 4134 
L 603 4863 
z
" transform="scale(0.015625)"/>
      <path id="DejaVuSans-75" d="M 544 1381 
L 544 3500 
L 1119 3500 
L 1119 1403 
Q 1119 906 1312 657 
Q 1506 409 1894 409 
Q 2359 409 2629 706 
Q 2900 1003 2900 1516 
L 2900 3500 
L 3475 3500 
L 3475 0 
L 2900 0 
L 2900 538 
Q 2691 219 2414 64 
Q 2138 -91 1772 -91 
Q 1169 -91 856 284 
Q 544 659 544 1381 
z
M 1991 3584 
L 1991 3584 
z
" transform="scale(0.015625)"/>
      <path id="DejaVuSans-64" d="M 2906 2969 
L 2906 4863 
L 3481 4863 
L 3481 0 
L 2906 0 
L 2906 525 
Q 2725 213 2448 61 
Q 2172 -91 1784 -91 
Q 1150 -91 751 415 
Q 353 922 353 1747 
Q 353 2572 751 3078 
Q 1150 3584 1784 3584 
Q 2172 3584 2448 3432 
Q 2725 3281 2906 2969 
z
M 947 1747 
Q 947 1113 1208 752 
Q 1469 391 1925 391 
Q 2381 391 2643 752 
Q 2906 1113 2906 1747 
Q 2906 2381 2643 2742 
Q 2381 3103 1925 3103 
Q 1469 3103 1208 2742 
Q 947 2381 947 1747 
z
" transform="scale(0.015625)"/>
      <path id="DejaVuSans-65" d="M 3597 1894 
L 3597 1613 
L 953 1613 
Q 991 1019 1311 708 
Q 1631 397 2203 397 
Q 2534 397 2845 478 
Q 3156 559 3463 722 
L 3463 178 
Q 3153 47 2828 -22 
Q 2503 -91 2169 -91 
Q 1331 -91 842 396 
Q 353 884 353 1716 
Q 353 2575 817 3079 
Q 1281 3584 2069 3584 
Q 2775 3584 3186 3129 
Q 3597 2675 3597 1894 
z
M 3022 2063 
Q 3016 2534 2758 2815 
Q 2500 3097 2075 3097 
Q 1594 3097 1305 2825 
Q 1016 2553 972 2059 
L 3022 2063 
z
" transform="scale(0.015625)"/>
     </defs>
     <use xlink:href="#DejaVuSans-41"/>
     <use xlink:href="#DejaVuSans-6c" x="68.408203"/>
     <use xlink:href="#DejaVuSans-74" x="96.191406"/>
     <use xlink:href="#DejaVuSans-69" x="135.400391"/>
     <use xlink:href="#DejaVuSans-74" x="163.183594"/>
     <use xlink:href="#DejaVuSans-75" x="202.392578"/>
     <use xlink:href="#DejaVuSans-64" x="265.771484"/>
     <use xlink:href="#DejaVuSans-65" x="329.248047"/>
    </g>
   </g>
  </g>
  <g id="axes_1">
   <g id="line2d_25">
    <path d="M 304.196637 186.784679 
L 302.624996 190.104819 
L 300.874036 193.401489 
L 298.992362 196.590193 
L 297.005231 199.640283 
L 294.937754 202.522295 
L 292.814503 205.208414 
L 290.659111 207.672929 
L 288.493897 209.892658 
L 286.339512 211.847338 
L 284.214615 213.519959 
L 282.135597 214.897045 
L 280.116348 215.968863 
L 278.168084 216.729559 
L 276.299234 217.177211 
L 274.515384 217.313812 
L 272.819298 217.145164 
L 271.210984 216.680702 
L 269.687836 215.933253 
L 268.24482 214.918729 
L 266.874709 213.655775 
L 265.568365 212.165375 
L 264.315047 210.470436 
L 261.918535 206.565542 
L 259.580226 202.14614 
L 254.652868 192.587497 
L 251.880094 187.827048 
L 248.816276 183.291495 
L 247.166035 181.146816 
L 245.436497 179.100445 
L 243.630355 177.161682 
L 241.752785 175.337491 
L 239.811475 173.632511 
L 237.816617 172.049096 
L 235.780865 170.587379 
L 231.649082 168.019053 
L 227.562544 165.888328 
L 221.909798 163.36196 
L 217.436112 161.363814 
L 215.453964 160.15459 
L 214.835849 159.549179 
L 214.494899 158.928147 
L 214.449503 158.281647 
L 214.715126 157.60133 
L 215.303912 156.88059 
L 216.224344 156.11477 
L 217.480972 155.301329 
L 219.0742 154.43997 
L 223.250695 152.583934 
L 228.67159 150.590737 
L 235.189231 148.539791 
L 242.598573 146.540944 
L 250.649453 144.726908 
L 259.061754 143.243826 
L 263.311753 142.673183 
L 267.541838 142.240877 
L 271.715849 141.96431 
L 275.798731 141.859792 
L 279.756942 141.942265 
L 283.558821 142.225038 
L 287.17491 142.71955 
L 290.578236 143.435163 
L 293.744547 144.378972 
L 296.652505 145.555647 
L 299.283834 146.967298 
L 301.623439 148.613376 
L 303.65948 150.490585 
L 305.383413 152.59284 
L 306.79 154.911244 
L 307.877292 157.434094 
L 308.646568 160.14693 
L 309.102262 163.032601 
L 309.25185 166.071386 
L 309.105709 169.241134 
L 308.676944 172.517461 
L 307.981191 175.873972 
L 307.036385 179.282532 
L 305.862494 182.713583 
L 304.481229 186.136483 
L 302.915725 189.519902 
L 301.19019 192.832235 
L 299.329542 196.042045 
L 297.359021 199.118525 
L 295.303794 202.03197 
L 293.188555 204.754244 
L 291.037128 207.259237 
L 288.87209 209.523296 
L 286.714407 211.525622 
L 284.583107 213.248613 
L 282.494996 214.67816 
L 280.464415 215.803862 
L 278.503058 216.619182 
L 276.619845 217.121511 
L 274.820862 217.312163 
L 273.10936 217.196282 
L 271.485822 216.782687 
L 269.948087 216.083632 
L 268.491529 215.114512 
L 267.109285 213.893523 
L 265.79253 212.441271 
L 264.530779 210.780357 
L 263.312221 208.934942 
L 260.952886 204.792429 
L 253.541042 190.605095 
L 250.653401 185.920746 
L 249.096492 183.675585 
L 247.460205 181.514851 
L 245.744401 179.450562 
L 243.951345 177.492425 
L 242.085775 175.64781 
L 240.15494 173.921762 
L 238.168597 172.31703 
L 236.138974 170.834129 
L 232.010679 168.225268 
L 227.913534 166.058594 
L 224.021684 164.26998 
L 217.651868 161.471841 
L 215.588925 160.259603 
L 214.924451 159.655815 
L 214.533658 159.038262 
L 214.435405 158.39686 
L 214.645697 157.722982 
L 215.177284 157.0097 
L 216.039312 156.252003 
L 217.237034 155.446971 
L 218.771591 154.593907 
L 222.834455 152.752484 
L 228.151591 150.768592 
L 234.580814 148.718707 
L 241.921656 146.710284 
L 249.927324 144.874395 
L 258.31967 143.356415 
L 262.569381 142.763444 
L 266.805578 142.30568 
L 270.991954 142.000683 
L 275.093229 141.864977 
L 279.07557 141.91376 
L 282.906962 142.160646 
L 286.55754 142.617416 
L 289.999879 143.293809 
L 293.209237 144.197329 
L 296.163752 145.33308 
L 298.844607 146.703628 
L 301.236144 148.308894 
L 303.325948 150.146067 
L 305.104899 152.209554 
L 306.567183 154.490946 
L 307.710276 156.979031 
L 308.534899 159.659824 
L 309.044944 162.516641 
L 309.247362 165.530196 
L 309.152035 168.678755 
L 308.771605 171.938305 
L 308.121282 175.282785 
L 307.218617 178.684344 
L 306.083243 182.113648 
L 304.736589 185.540217 
L 303.201564 188.932814 
L 301.502216 192.259848 
L 299.663365 195.489821 
L 297.710225 198.591783 
L 295.668003 201.535801 
L 293.561504 204.293432 
L 291.414734 206.83818 
L 289.250514 209.145932 
L 287.090114 211.195364 
L 284.952925 212.968294 
L 282.85616 214.449984 
L 280.814604 215.629371 
L 278.840426 216.499236 
L 276.943036 217.056282 
L 275.129018 217.301141 
L 273.402115 217.238299 
L 271.763287 216.875945 
L 270.210823 216.225754 
L 268.740512 215.302596 
L 267.345865 214.124203 
L 266.018378 212.71079 
L 264.747833 211.084639 
L 263.522625 209.269673 
L 261.156947 205.174527 
L 252.384449 188.646722 
L 249.374277 184.062258 
L 247.751941 181.885838 
L 246.04994 179.803928 
L 244.270113 177.826641 
L 242.416765 175.961757 
L 240.496703 174.214724 
L 238.519249 172.58869 
L 236.496201 171.084555 
L 232.372495 168.434876 
L 228.266077 166.23176 
L 224.348705 164.413256 
L 217.873873 161.580552 
L 215.7316 160.364537 
L 215.021417 159.762028 
L 214.581359 159.147644 
L 214.430739 158.511077 
L 214.58609 157.843425 
L 215.060758 157.137448 
L 215.864543 156.387785 
L 217.003396 155.59114 
L 218.479187 154.746421 
L 222.427835 152.919924 
L 227.640122 150.945923 
L 233.979388 148.897924 
L 241.249836 146.880933 
L 249.208157 145.024307 
L 257.578299 143.472576 
L 261.826595 142.857836 
L 266.067795 142.375151 
L 270.265456 142.042231 
L 274.38409 141.8758 
L 278.389582 141.891311 
L 282.249573 142.102669 
L 285.933802 142.521995 
L 289.414398 143.159399 
L 292.666134 144.022786 
L 295.666634 145.117691 
L 298.396536 146.447133 
L 300.839625 148.011502 
L 302.982914 149.80847 
L 304.816706 151.83293 
L 306.334608 154.076968 
L 307.533524 156.52986 
L 308.413615 159.178102 
L 308.978222 162.005474 
L 309.233772 164.993136 
L 309.189646 168.11977 
L 308.858016 171.361747 
L 308.253661 174.693345 
L 307.393737 178.087007 
L 306.297535 181.513631 
L 304.986192 184.942915 
L 303.482382 188.343723 
L 301.809979 191.684495 
L 299.993698 194.933685 
L 298.058709 198.060213 
L 296.030251 201.033934 
L 293.933227 203.826112 
L 291.791811 206.409877 
L 289.629058 208.76067 
L 287.466535 210.856653 
L 285.323984 212.679071 
L 283.219016 214.212564 
L 281.166857 215.445416 
L 279.180146 216.369726 
L 277.268781 216.981508 
L 275.439842 217.280712 
L 273.697567 217.271158 
L 272.043396 216.960403 
L 270.476074 216.359531 
L 270.476074 216.359531 
" clip-path="url(#p2b607fcf44)" style="fill: none; stroke-dasharray: 1.3,2.145; stroke-dashoffset: 0; stroke: #008000; stroke-width: 1.3"/>
   </g>
   <g id="line2d_26">
    <path d="M 272.853849 212.110077 
L 271.150302 212.213531 
L 273.246296 212.765317 
" clip-path="url(#p2b607fcf44)" style="fill: none; stroke: #ff0000; stroke-width: 2; stroke-linecap: square"/>
   </g>
   <g id="line2d_27">
    <path d="M 269.494949 212.125977 
L 271.150302 212.213531 
L 269.111872 211.472242 
" clip-path="url(#p2b607fcf44)" style="fill: none; stroke: #0000ff; stroke-width: 2; stroke-linecap: square"/>
   </g>
   <g id="line2d_28">
    <path d="M 261.196932 212.969074 
L 261.127857 216.064933 
L 260.813233 217.972562 
L 259.856597 221.018113 
L 258.955077 223.371471 
L 258.40519 224.473524 
L 257.782411 225.418409 
L 257.088415 226.133776 
L 256.329958 226.55656 
L 255.517783 226.634779 
L 254.665371 226.33446 
L 253.786993 225.645789 
L 252.895518 224.58519 
L 252.000765 223.192559 
L 250.222628 219.628028 
L 248.466624 215.371222 
L 244.940306 205.834482 
L 241.062182 195.310748 
L 238.76395 189.529167 
L 236.067054 183.414782 
L 234.545033 180.298771 
L 232.908482 177.201581 
L 231.169284 174.173608 
L 229.346702 171.263821 
L 227.463036 168.512737 
L 225.539995 165.949033 
L 223.598052 163.591767 
L 221.656261 161.453354 
L 219.731662 159.541529 
L 217.838789 157.86062 
L 215.989655 156.412443 
L 214.1943 155.196661 
L 212.461515 154.210901 
L 210.799475 153.450847 
L 209.216617 152.909861 
L 207.722974 152.577852 
L 206.331535 152.439828 
L 205.059374 152.474307 
L 203.928545 152.651569 
L 202.206031 153.264466 
L 201.433671 153.83154 
L 201.493369 153.918936 
L 201.893109 153.7703 
L 202.654299 153.31603 
L 205.285068 151.335091 
L 211.769439 146.138745 
L 214.500523 144.13731 
L 217.492732 142.113893 
L 220.734373 140.122608 
L 224.200875 138.220891 
L 227.847483 136.472662 
L 231.611361 134.944291 
L 235.423663 133.69558 
L 239.231105 132.766486 
L 243.010159 132.171186 
L 246.75708 131.908831 
L 250.475662 131.973346 
L 254.171349 132.35751 
L 257.848979 133.054192 
L 261.511318 134.057003 
L 265.157941 135.360825 
L 268.78892 136.959253 
L 283.900148 144.628994 
L 291.189891 147.937631 
L 294.326535 149.508267 
L 296.947241 151.019391 
L 298.942664 152.473538 
L 300.260117 153.894147 
L 300.879714 155.308468 
L 300.800067 156.741329 
L 300.085212 158.234869 
L 298.87085 159.849205 
L 291.437416 168.39615 
L 289.299456 171.173287 
L 287.122984 174.226742 
L 284.916369 177.553742 
L 280.371305 184.947979 
L 275.458039 192.881054 
L 270.253877 200.498253 
L 263.802151 209.345474 
L 262.621238 211.225282 
L 262.097125 212.507206 
L 262.23985 213.192178 
L 262.986378 213.310741 
L 264.21789 212.92242 
L 265.797283 212.094158 
L 267.594737 210.884546 
L 269.494849 209.350399 
L 271.4017 207.554736 
L 273.243121 205.565512 
L 274.968644 203.444282 
L 276.538873 201.227307 
L 277.914822 198.922101 
L 279.0547 196.518003 
L 279.911726 193.989683 
L 280.432002 191.295879 
L 280.56518 188.394368 
L 280.28934 185.271704 
L 279.625984 181.957202 
L 278.631786 178.510182 
L 277.381882 175.001426 
L 275.956855 171.502094 
L 272.879008 164.7902 
L 269.852733 158.823897 
L 267.041289 153.899655 
L 265.709781 151.868947 
L 264.41158 150.131903 
L 263.132289 148.687488 
L 261.85911 147.532634 
L 260.582099 146.663879 
L 259.294258 146.078509 
L 257.991046 145.774883 
L 256.669608 145.751423 
L 255.327858 146.005129 
L 253.963498 146.529688 
L 252.573018 147.312767 
L 251.150764 148.332375 
L 248.17461 150.919675 
L 244.953463 153.804027 
L 243.231886 155.099786 
L 241.441828 156.061905 
L 239.623908 156.492364 
L 237.86205 156.27103 
L 236.270199 155.388587 
L 234.966998 153.925827 
L 234.050233 152.018537 
L 233.580409 149.822457 
L 233.587771 147.476033 
L 234.085516 145.086144 
L 235.066737 142.737232 
L 236.49771 140.499009 
L 238.314448 138.430505 
L 240.435158 136.578547 
L 242.774065 134.97835 
L 245.251799 133.655936 
L 247.805209 132.629205 
L 250.393147 131.908125 
L 252.993376 131.496132 
L 255.594149 131.392855 
L 258.188534 131.595925 
L 260.775332 132.098808 
L 263.360367 132.884757 
L 265.956975 133.90771 
L 275.670375 138.078299 
L 278.426898 139.3867 
L 278.677749 139.831493 
L 277.990017 140.242425 
L 273.894015 141.561212 
L 270.754184 142.729752 
L 267.161245 144.324042 
L 263.3159 146.335632 
L 259.351506 148.732093 
L 255.337651 151.484847 
L 251.30814 154.575978 
L 247.283428 157.995212 
L 243.286917 161.734483 
L 239.362488 165.768048 
L 235.570595 170.028546 
L 231.948859 174.427381 
L 228.493512 178.896865 
L 216.058426 195.634703 
L 213.200788 198.742536 
L 210.360408 201.168502 
L 207.499409 202.845659 
L 204.601828 203.732653 
L 201.684317 203.836541 
L 198.798276 203.214784 
L 196.01528 201.987199 
L 193.399458 200.327309 
L 190.996175 198.392418 
L 188.837352 196.29513 
L 186.944728 194.115219 
L 185.332337 191.909614 
L 184.011679 189.714899 
L 182.997975 187.547596 
L 182.314599 185.404968 
L 181.99193 183.268534 
L 182.057848 181.111782 
L 182.527202 178.906144 
L 183.3994 176.61775 
L 184.647 174.211729 
L 187.937667 168.991711 
L 189.728598 166.198435 
L 191.42637 163.317832 
L 192.896141 160.38768 
L 194.025526 157.452074 
L 194.732466 154.558296 
L 194.974256 151.756562 
L 194.76954 149.103619 
L 194.185049 146.652868 
L 193.287457 144.442322 
L 192.127253 142.49675 
L 190.747148 140.833109 
L 189.189141 139.463039 
L 187.494887 138.393707 
L 185.703406 137.628551 
L 183.8496 137.168082 
L 181.964667 137.009998 
L 180.077814 137.148763 
L 178.218496 137.57497 
L 176.419066 138.274105 
L 174.717486 139.224646 
L 173.159561 140.395647 
L 171.798905 141.744887 
L 170.695556 143.217115 
L 169.920936 144.736253 
L 169.558893 146.198184 
L 169.685606 147.482921 
L 170.341533 148.484154 
L 171.524857 149.127635 
L 173.205566 149.368553 
L 175.341108 149.182987 
L 177.886207 148.564326 
L 180.794747 147.533653 
L 187.486687 144.580459 
L 195.082585 141.097444 
L 199.170662 139.338029 
L 203.42887 137.648825 
L 207.827944 136.093614 
L 212.326539 134.736699 
L 216.875963 133.637133 
L 221.42809 132.843053 
L 225.95162 132.380508 
L 230.436877 132.253811 
L 234.884124 132.45842 
L 239.296633 132.987384 
L 243.678879 133.832766 
L 248.035581 134.98617 
L 252.370044 136.439683 
L 256.682169 138.187131 
L 260.969127 140.223654 
L 274.056963 147.321623 
L 282.93264 151.226438 
L 290.637543 154.67887 
L 293.711668 156.30157 
L 296.124571 157.870535 
L 297.849317 159.41821 
L 298.890308 160.973363 
L 299.269409 162.55798 
L 299.059951 164.205502 
L 298.390336 165.966472 
L 296.188671 170.027857 
L 293.388529 175.018322 
L 290.287752 181.034091 
L 285.045463 191.683693 
L 283.039505 195.397607 
L 280.896201 199.011141 
L 278.670082 202.425226 
L 276.451229 205.543905 
L 272.547583 210.507552 
L 272.547583 210.507552 
" clip-path="url(#p2b607fcf44)" style="fill: none; stroke-dasharray: 3.7,1.6; stroke-dashoffset: 0; stroke: #0000ff"/>
   </g>
   <g id="line2d_29">
    <path d="M 271.132451 212.235785 
L 270.123086 213.337923 
L 269.524396 213.72781 
L 269.093751 213.737935 
L 268.713415 213.493848 
L 268.302589 212.942149 
L 267.744804 211.778707 
L 263.186413 200.981303 
L 261.1012 197.021699 
L 258.759598 193.055125 
L 256.233799 189.185661 
L 253.664604 185.607726 
L 250.702693 181.885935 
L 247.93613 178.772918 
L 244.910593 175.74342 
L 242.317683 173.437948 
L 239.589342 171.275759 
L 236.751534 169.277012 
L 233.109377 167.017546 
L 229.459665 165.011809 
L 223.31118 161.947327 
L 218.941218 159.698311 
L 217.373956 158.704404 
L 216.547901 157.993283 
L 216.073183 157.287462 
L 215.977312 156.80557 
L 216.076562 156.3032 
L 216.38668 155.770457 
L 216.922146 155.198447 
L 218.173405 154.252827 
L 219.983619 153.195464 
L 222.357055 152.036864 
L 224.247102 151.219412 
L 224.247102 151.219412 
" clip-path="url(#p2b607fcf44)" style="fill: none; stroke: #000000; stroke-width: 1.5; stroke-linecap: square"/>
   </g>
   <g id="Path3DCollection_1">
    <defs>
     <path id="m9b7db75e33" d="M 0 2.5 
C 0.663008 2.5 1.29895 2.236584 1.767767 1.767767 
C 2.236584 1.29895 2.5 0.663008 2.5 0 
C 2.5 -0.663008 2.236584 -1.29895 1.767767 -1.767767 
C 1.29895 -2.236584 0.663008 -2.5 0 -2.5 
C -0.663008 -2.5 -1.29895 -2.236584 -1.767767 -1.767767 
C -2.236584 -1.29895 -2.5 -0.663008 -2.5 0 
C -2.5 0.663008 -2.236584 1.29895 -1.767767 1.767767 
C -1.29895 2.236584 -0.663008 2.5 0 2.5 
z
" style="stroke: #ff00ff"/>
    </defs>
    <g clip-path="url(#p2b607fcf44)">
     <use xlink:href="#m9b7db75e33" x="272.043396" y="216.960403" style="fill: #ff00ff; stroke: #ff00ff"/>
    </g>
   </g>
   <g id="text_25">
    <!-- Time = 19.90 s -->
    <g transform="translate(116.4096 54.7776) scale(0.1 -0.1)">
     <defs>
      <path id="DejaVuSans-54" d="M -19 4666 
L 3928 4666 
L 3928 4134 
L 2272 4134 
L 2272 0 
L 1638 0 
L 1638 4134 
L -19 4134 
L -19 4666 
z
" transform="scale(0.015625)"/>
      <path id="DejaVuSans-6d" d="M 3328 2828 
Q 3544 3216 3844 3400 
Q 4144 3584 4550 3584 
Q 5097 3584 5394 3201 
Q 5691 2819 5691 2113 
L 5691 0 
L 5113 0 
L 5113 2094 
Q 5113 2597 4934 2840 
Q 4756 3084 4391 3084 
Q 3944 3084 3684 2787 
Q 3425 2491 3425 1978 
L 3425 0 
L 2847 0 
L 2847 2094 
Q 2847 2600 2669 2842 
Q 2491 3084 2119 3084 
Q 1678 3084 1418 2786 
Q 1159 2488 1159 1978 
L 1159 0 
L 581 0 
L 581 3500 
L 1159 3500 
L 1159 2956 
Q 1356 3278 1631 3431 
Q 1906 3584 2284 3584 
Q 2666 3584 2933 3390 
Q 3200 3197 3328 2828 
z
" transform="scale(0.015625)"/>
      <path id="DejaVuSans-20" transform="scale(0.015625)"/>
      <path id="DejaVuSans-3d" d="M 678 2906 
L 4684 2906 
L 4684 2381 
L 678 2381 
L 678 2906 
z
M 678 1631 
L 4684 1631 
L 4684 1100 
L 678 1100 
L 678 1631 
z
" transform="scale(0.015625)"/>
      <path id="DejaVuSans-39" d="M 703 97 
L 703 672 
Q 941 559 1184 500 
Q 1428 441 1663 441 
Q 2288 441 2617 861 
Q 2947 1281 2994 2138 
Q 2813 1869 2534 1725 
Q 2256 1581 1919 1581 
Q 1219 1581 811 2004 
Q 403 2428 403 3163 
Q 403 3881 828 4315 
Q 1253 4750 1959 4750 
Q 2769 4750 3195 4129 
Q 3622 3509 3622 2328 
Q 3622 1225 3098 567 
Q 2575 -91 1691 -91 
Q 1453 -91 1209 -44 
Q 966 3 703 97 
z
M 1959 2075 
Q 2384 2075 2632 2365 
Q 2881 2656 2881 3163 
Q 2881 3666 2632 3958 
Q 2384 4250 1959 4250 
Q 1534 4250 1286 3958 
Q 1038 3666 1038 3163 
Q 1038 2656 1286 2365 
Q 1534 2075 1959 2075 
z
" transform="scale(0.015625)"/>
      <path id="DejaVuSans-2e" d="M 684 794 
L 1344 794 
L 1344 0 
L 684 0 
L 684 794 
z
" transform="scale(0.015625)"/>
      <path id="DejaVuSans-73" d="M 2834 3397 
L 2834 2853 
Q 2591 2978 2328 3040 
Q 2066 3103 1784 3103 
Q 1356 3103 1142 2972 
Q 928 2841 928 2578 
Q 928 2378 1081 2264 
Q 1234 2150 1697 2047 
L 1894 2003 
Q 2506 1872 2764 1633 
Q 3022 1394 3022 966 
Q 3022 478 2636 193 
Q 2250 -91 1575 -91 
Q 1294 -91 989 -36 
Q 684 19 347 128 
L 347 722 
Q 666 556 975 473 
Q 1284 391 1588 391 
Q 1994 391 2212 530 
Q 2431 669 2431 922 
Q 2431 1156 2273 1281 
Q 2116 1406 1581 1522 
L 1381 1569 
Q 847 1681 609 1914 
Q 372 2147 372 2553 
Q 372 3047 722 3315 
Q 1072 3584 1716 3584 
Q 2034 3584 2315 3537 
Q 2597 3491 2834 3397 
z
" transform="scale(0.015625)"/>
     </defs>
     <use xlink:href="#DejaVuSans-54"/>
     <use xlink:href="#DejaVuSans-69" x="57.958984"/>
     <use xlink:href="#DejaVuSans-6d" x="85.742188"/>
     <use xlink:href="#DejaVuSans-65" x="183.154297"/>
     <use xlink:href="#DejaVuSans-20" x="244.677734"/>
     <use xlink:href="#DejaVuSans-3d" x="276.464844"/>
     <use xlink:href="#DejaVuSans-20" x="360.253906"/>
     <use xlink:href="#DejaVuSans-31" x="392.041016"/>
     <use xlink:href="#DejaVuSans-39" x="455.664062"/>
     <use xlink:href="#DejaVuSans-2e" x="519.287109"/>
     <use xlink:href="#DejaVuSans-39" x="551.074219"/>
     <use xlink:href="#DejaVuSans-30" x="614.697266"/>
     <use xlink:href="#DejaVuSans-20" x="678.320312"/>
     <use xlink:href="#DejaVuSans-73" x="710.107422"/>
    </g>
   </g>
   <g id="text_26">
    <!-- fig8 -->
    <g transform="translate(336.901025 54.7776) scale(0.1 -0.1)">
     <defs>
      <path id="DejaVuSans-66" d="M 2375 4863 
L 2375 4384 
L 1825 4384 
Q 1516 4384 1395 4259 
Q 1275 4134 1275 3809 
L 1275 3500 
L 2222 3500 
L 2222 3053 
L 1275 3053 
L 1275 0 
L 697 0 
L 697 3053 
L 147 3053 
L 147 3500 
L 697 3500 
L 697 3744 
Q 697 4328 969 4595 
Q 1241 4863 1831 4863 
L 2375 4863 
z
" transform="scale(0.015625)"/>
      <path id="DejaVuSans-67" d="M 2906 1791 
Q 2906 2416 2648 2759 
Q 2391 3103 1925 3103 
Q 1463 3103 1205 2759 
Q 947 2416 947 1791 
Q 947 1169 1205 825 
Q 1463 481 1925 481 
Q 2391 481 2648 825 
Q 2906 1169 2906 1791 
z
M 3481 434 
Q 3481 -459 3084 -895 
Q 2688 -1331 1869 -1331 
Q 1566 -1331 1297 -1286 
Q 1028 -1241 775 -1147 
L 775 -588 
Q 1028 -725 1275 -790 
Q 1522 -856 1778 -856 
Q 2344 -856 2625 -561 
Q 2906 -266 2906 331 
L 2906 616 
Q 2728 306 2450 153 
Q 2172 0 1784 0 
Q 1141 0 747 490 
Q 353 981 353 1791 
Q 353 2603 747 3093 
Q 1141 3584 1784 3584 
Q 2172 3584 2450 3431 
Q 2728 3278 2906 2969 
L 2906 3500 
L 3481 3500 
L 3481 434 
z
" transform="scale(0.015625)"/>
     </defs>
     <use xlink:href="#DejaVuSans-66"/>
     <use xlink:href="#DejaVuSans-69" x="35.205078"/>
     <use xlink:href="#DejaVuSans-67" x="62.988281"/>
     <use xlink:href="#DejaVuSans-38" x="126.464844"/>
    </g>
   </g>
  </g>
 </g>
 <defs>
  <clipPath id="p2b607fcf44">
   <rect x="103.104" y="41.472" width="266.112" height="266.112"/>
  </clipPath>
 </defs>
</svg>
