<?xml version="1.0" encoding="utf-8" standalone="no"?>
<!DOCTYPE svg PUBLIC "-//W3C//DTD SVG 1.1//EN"
  "http://www.w3.org/Graphics/SVG/1.1/DTD/svg11.dtd">
<svg xmlns:xlink="http://www.w3.org/1999/xlink" width="460.8pt" height="345.6pt" viewBox="0 0 460.8 345.6" xmlns="http://www.w3.org/2000/svg" version="1.1">
 <metadata>
  <rdf:RDF xmlns:dc="http://purl.org/dc/elements/1.1/" xmlns:cc="http://creativecommons.org/ns#" xmlns:rdf="http://www.w3.org/1999/02/22-rdf-syntax-ns#">
   <cc:Work>
    <dc:type rdf:resource="http://purl.org/dc/dcmitype/StillImage"/>
    <dc:date>2023-09-10T23:48:32.477372</dc:date>
    <dc:format>image/svg+xml</dc:format>
    <dc:creator>
     <cc:Agent>
      <dc:title>Matplotlib v3.7.1, https://matplotlib.org/</dc:title>
     </cc:Agent>
    </dc:creator>
   </cc:Work>
  </rdf:RDF>
 </metadata>
 <defs>
  <style type="text/css">*{stroke-linejoin: round; stroke-linecap: butt}</style>
 </defs>
 <g id="figure_1">
  <g id="patch_1">
   <path d="M 0 345.6 
L 460.8 345.6 
L 460.8 0 
L 0 0 
z
" style="fill: #ffffff"/>
  </g>
  <g id="patch_2">
   <path d="M 103.104 307.584 
L 369.216 307.584 
L 369.216 41.472 
L 103.104 41.472 
z
" style="fill: #ffffff"/>
  </g>
  <g id="pane3d_1">
   <g id="patch_3">
    <path d="M 211.076164 168.307495 
L 123.197291 241.969309 
L 117.770234 129.272941 
L 209.854564 62.073991 
" style="fill: #f2f2f2; opacity: 0.5; stroke: #f2f2f2; stroke-linejoin: miter"/>
   </g>
  </g>
  <g id="pane3d_2">
   <g id="patch_4">
    <path d="M 211.076164 168.307495 
L 352.090401 209.294766 
L 357.122702 99.402171 
L 209.854564 62.073991 
" style="fill: #e6e6e6; opacity: 0.5; stroke: #e6e6e6; stroke-linejoin: miter"/>
   </g>
  </g>
  <g id="pane3d_3">
   <g id="patch_5">
    <path d="M 211.076164 168.307495 
L 352.090401 209.294766 
L 272.679269 290.790123 
L 123.197291 241.969309 
" style="fill: #ececec; opacity: 0.5; stroke: #ececec; stroke-linejoin: miter"/>
   </g>
  </g>
  <g id="axis3d_1">
   <g id="line2d_1">
    <path d="M 123.197291 241.969309 
L 272.679269 290.790123 
" style="fill: none; stroke: #000000; stroke-width: 0.8; stroke-linecap: square"/>
   </g>
   <g id="text_1">
    <!-- X -->
    <g transform="translate(176.251428 303.76759) scale(0.1 -0.1)">
     <defs>
      <path id="DejaVuSans-58" d="M 403 4666 
L 1081 4666 
L 2241 2931 
L 3406 4666 
L 4084 4666 
L 2584 2425 
L 4184 0 
L 3506 0 
L 2194 1984 
L 872 0 
L 191 0 
L 1856 2491 
L 403 4666 
z
" transform="scale(0.015625)"/>
     </defs>
     <use xlink:href="#DejaVuSans-58"/>
    </g>
   </g>
   <g id="Line3DCollection_1">
    <path d="M 140.734174 247.696855 
L 227.684211 173.134798 
L 227.166891 66.462161 
" style="fill: none; stroke: #b0b0b0; stroke-width: 0.8"/>
    <path d="M 162.315699 254.745381 
L 248.099038 179.068583 
L 248.459217 71.859145 
" style="fill: none; stroke: #b0b0b0; stroke-width: 0.8"/>
    <path d="M 184.235187 261.904286 
L 268.806907 185.087543 
L 270.070476 77.336969 
" style="fill: none; stroke: #b0b0b0; stroke-width: 0.8"/>
    <path d="M 206.500641 269.176183 
L 289.814174 191.193526 
L 292.007886 82.897463 
" style="fill: none; stroke: #b0b0b0; stroke-width: 0.8"/>
    <path d="M 229.120317 276.563769 
L 311.127379 197.388433 
L 314.278888 88.542513 
" style="fill: none; stroke: #b0b0b0; stroke-width: 0.8"/>
    <path d="M 252.102734 284.069826 
L 332.753255 203.674221 
L 336.89115 94.274062 
" style="fill: none; stroke: #b0b0b0; stroke-width: 0.8"/>
   </g>
   <g id="xtick_1">
    <g id="line2d_2">
     <path d="M 141.491518 247.047411 
L 139.216225 248.998538 
" style="fill: none; stroke: #000000; stroke-width: 0.8; stroke-linecap: square"/>
    </g>
    <g id="text_2">
     <!-- −2 -->
     <g transform="translate(125.842513 271.064641) scale(0.1 -0.1)">
      <defs>
       <path id="DejaVuSans-2212" d="M 678 2272 
L 4684 2272 
L 4684 1741 
L 678 1741 
L 678 2272 
z
" transform="scale(0.015625)"/>
       <path id="DejaVuSans-32" d="M 1228 531 
L 3431 531 
L 3431 0 
L 469 0 
L 469 531 
Q 828 903 1448 1529 
Q 2069 2156 2228 2338 
Q 2531 2678 2651 2914 
Q 2772 3150 2772 3378 
Q 2772 3750 2511 3984 
Q 2250 4219 1831 4219 
Q 1534 4219 1204 4116 
Q 875 4013 500 3803 
L 500 4441 
Q 881 4594 1212 4672 
Q 1544 4750 1819 4750 
Q 2544 4750 2975 4387 
Q 3406 4025 3406 3419 
Q 3406 3131 3298 2873 
Q 3191 2616 2906 2266 
Q 2828 2175 2409 1742 
Q 1991 1309 1228 531 
z
" transform="scale(0.015625)"/>
      </defs>
      <use xlink:href="#DejaVuSans-2212"/>
      <use xlink:href="#DejaVuSans-32" x="83.789062"/>
     </g>
    </g>
   </g>
   <g id="xtick_2">
    <g id="line2d_3">
     <path d="M 163.063354 254.08581 
L 160.817145 256.067383 
" style="fill: none; stroke: #000000; stroke-width: 0.8; stroke-linecap: square"/>
    </g>
    <g id="text_3">
     <!-- −1 -->
     <g transform="translate(147.446489 278.262628) scale(0.1 -0.1)">
      <defs>
       <path id="DejaVuSans-31" d="M 794 531 
L 1825 531 
L 1825 4091 
L 703 3866 
L 703 4441 
L 1819 4666 
L 2450 4666 
L 2450 531 
L 3481 531 
L 3481 0 
L 794 0 
L 794 531 
z
" transform="scale(0.015625)"/>
      </defs>
      <use xlink:href="#DejaVuSans-2212"/>
      <use xlink:href="#DejaVuSans-31" x="83.789062"/>
     </g>
    </g>
   </g>
   <g id="xtick_3">
    <g id="line2d_4">
     <path d="M 184.972756 261.23435 
L 182.756825 263.247086 
" style="fill: none; stroke: #000000; stroke-width: 0.8; stroke-linecap: square"/>
    </g>
    <g id="text_4">
     <!-- 0 -->
     <g transform="translate(173.579905 285.573761) scale(0.1 -0.1)">
      <defs>
       <path id="DejaVuSans-30" d="M 2034 4250 
Q 1547 4250 1301 3770 
Q 1056 3291 1056 2328 
Q 1056 1369 1301 889 
Q 1547 409 2034 409 
Q 2525 409 2770 889 
Q 3016 1369 3016 2328 
Q 3016 3291 2770 3770 
Q 2525 4250 2034 4250 
z
M 2034 4750 
Q 2819 4750 3233 4129 
Q 3647 3509 3647 2328 
Q 3647 1150 3233 529 
Q 2819 -91 2034 -91 
Q 1250 -91 836 529 
Q 422 1150 422 2328 
Q 422 3509 836 4129 
Q 1250 4750 2034 4750 
z
" transform="scale(0.015625)"/>
      </defs>
      <use xlink:href="#DejaVuSans-30"/>
     </g>
    </g>
   </g>
   <g id="xtick_4">
    <g id="line2d_5">
     <path d="M 207.227711 268.495635 
L 205.043298 270.540277 
" style="fill: none; stroke: #000000; stroke-width: 0.8; stroke-linecap: square"/>
    </g>
    <g id="text_5">
     <!-- 1 -->
     <g transform="translate(195.871144 293.00073) scale(0.1 -0.1)">
      <use xlink:href="#DejaVuSans-31"/>
     </g>
    </g>
   </g>
   <g id="xtick_5">
    <g id="line2d_6">
     <path d="M 229.836459 275.872355 
L 227.684852 277.949667 
" style="fill: none; stroke: #000000; stroke-width: 0.8; stroke-linecap: square"/>
    </g>
    <g id="text_6">
     <!-- 2 -->
     <g transform="translate(218.51838 300.546309) scale(0.1 -0.1)">
      <use xlink:href="#DejaVuSans-32"/>
     </g>
    </g>
   </g>
   <g id="xtick_6">
    <g id="line2d_7">
     <path d="M 252.807503 283.367285 
L 250.69004 285.478055 
" style="fill: none; stroke: #000000; stroke-width: 0.8; stroke-linecap: square"/>
    </g>
    <g id="text_7">
     <!-- 3 -->
     <g transform="translate(241.530209 308.213363) scale(0.1 -0.1)">
      <defs>
       <path id="DejaVuSans-33" d="M 2597 2516 
Q 3050 2419 3304 2112 
Q 3559 1806 3559 1356 
Q 3559 666 3084 287 
Q 2609 -91 1734 -91 
Q 1441 -91 1130 -33 
Q 819 25 488 141 
L 488 750 
Q 750 597 1062 519 
Q 1375 441 1716 441 
Q 2309 441 2620 675 
Q 2931 909 2931 1356 
Q 2931 1769 2642 2001 
Q 2353 2234 1838 2234 
L 1294 2234 
L 1294 2753 
L 1863 2753 
Q 2328 2753 2575 2939 
Q 2822 3125 2822 3475 
Q 2822 3834 2567 4026 
Q 2313 4219 1838 4219 
Q 1578 4219 1281 4162 
Q 984 4106 628 3988 
L 628 4550 
Q 988 4650 1302 4700 
Q 1616 4750 1894 4750 
Q 2613 4750 3031 4423 
Q 3450 4097 3450 3541 
Q 3450 3153 3228 2886 
Q 3006 2619 2597 2516 
z
" transform="scale(0.015625)"/>
      </defs>
      <use xlink:href="#DejaVuSans-33"/>
     </g>
    </g>
   </g>
  </g>
  <g id="axis3d_2">
   <g id="line2d_8">
    <path d="M 352.090401 209.294766 
L 272.679269 290.790123 
" style="fill: none; stroke: #000000; stroke-width: 0.8; stroke-linecap: square"/>
   </g>
   <g id="text_8">
    <!-- Y -->
    <g transform="translate(338.078875 278.988697) scale(0.1 -0.1)">
     <defs>
      <path id="DejaVuSans-59" d="M -13 4666 
L 666 4666 
L 1959 2747 
L 3244 4666 
L 3922 4666 
L 2272 2222 
L 2272 0 
L 1638 0 
L 1638 2222 
L -13 4666 
z
" transform="scale(0.015625)"/>
     </defs>
     <use xlink:href="#DejaVuSans-59"/>
    </g>
   </g>
   <g id="Line3DCollection_2">
    <path d="M 198.928499 70.047335 
L 200.614143 177.076969 
L 342.673176 218.959155 
" style="fill: none; stroke: #b0b0b0; stroke-width: 0.8"/>
    <path d="M 185.920478 79.539997 
L 188.170892 187.507148 
L 331.459704 230.466936 
" style="fill: none; stroke: #b0b0b0; stroke-width: 0.8"/>
    <path d="M 172.569506 89.282928 
L 175.413467 198.200675 
L 319.948558 242.280204 
" style="fill: none; stroke: #b0b0b0; stroke-width: 0.8"/>
    <path d="M 158.86184 99.286159 
L 162.329817 209.16765 
L 308.127726 254.411285 
" style="fill: none; stroke: #b0b0b0; stroke-width: 0.8"/>
    <path d="M 144.782991 109.560261 
L 148.907268 220.418697 
L 295.984541 266.873181 
" style="fill: none; stroke: #b0b0b0; stroke-width: 0.8"/>
    <path d="M 130.317677 120.116389 
L 135.132478 231.964999 
L 283.505634 279.679609 
" style="fill: none; stroke: #b0b0b0; stroke-width: 0.8"/>
   </g>
   <g id="xtick_7">
    <g id="line2d_9">
     <path d="M 341.48029 218.607465 
L 345.061819 219.66338 
" style="fill: none; stroke: #000000; stroke-width: 0.8; stroke-linecap: square"/>
    </g>
    <g id="text_9">
     <!-- −2 -->
     <g transform="translate(347.315627 239.002983) scale(0.1 -0.1)">
      <use xlink:href="#DejaVuSans-2212"/>
      <use xlink:href="#DejaVuSans-32" x="83.789062"/>
     </g>
    </g>
   </g>
   <g id="xtick_8">
    <g id="line2d_10">
     <path d="M 330.255745 230.105974 
L 333.870555 231.189739 
" style="fill: none; stroke: #000000; stroke-width: 0.8; stroke-linecap: square"/>
    </g>
    <g id="text_10">
     <!-- −1 -->
     <g transform="translate(336.253285 250.680372) scale(0.1 -0.1)">
      <use xlink:href="#DejaVuSans-2212"/>
      <use xlink:href="#DejaVuSans-31" x="83.789062"/>
     </g>
    </g>
   </g>
   <g id="xtick_9">
    <g id="line2d_11">
     <path d="M 318.733356 241.909598 
L 322.381962 243.02233 
" style="fill: none; stroke: #000000; stroke-width: 0.8; stroke-linecap: square"/>
    </g>
    <g id="text_11">
     <!-- 0 -->
     <g transform="translate(329.086958 262.667927) scale(0.1 -0.1)">
      <use xlink:href="#DejaVuSans-30"/>
     </g>
    </g>
   </g>
   <g id="xtick_10">
    <g id="line2d_12">
     <path d="M 306.901108 254.030644 
L 310.584032 255.173519 
" style="fill: none; stroke: #000000; stroke-width: 0.8; stroke-linecap: square"/>
    </g>
    <g id="text_12">
     <!-- 1 -->
     <g transform="translate(317.425093 274.978171) scale(0.1 -0.1)">
      <use xlink:href="#DejaVuSans-31"/>
     </g>
    </g>
   </g>
   <g id="xtick_11">
    <g id="line2d_13">
     <path d="M 294.746331 266.482091 
L 298.464101 267.656352 
" style="fill: none; stroke: #000000; stroke-width: 0.8; stroke-linecap: square"/>
    </g>
    <g id="text_13">
     <!-- 2 -->
     <g transform="translate(305.445023 287.624312) scale(0.1 -0.1)">
      <use xlink:href="#DejaVuSans-32"/>
     </g>
    </g>
   </g>
   <g id="xtick_12">
    <g id="line2d_14">
     <path d="M 282.255655 279.277635 
L 286.008804 280.484592 
" style="fill: none; stroke: #000000; stroke-width: 0.8; stroke-linecap: square"/>
    </g>
    <g id="text_14">
     <!-- 3 -->
     <g transform="translate(293.133543 300.620289) scale(0.1 -0.1)">
      <use xlink:href="#DejaVuSans-33"/>
     </g>
    </g>
   </g>
  </g>
  <g id="axis3d_3">
   <g id="line2d_15">
    <path d="M 352.090401 209.294766 
L 357.122702 99.402171 
" style="fill: none; stroke: #000000; stroke-width: 0.8; stroke-linecap: square"/>
   </g>
   <g id="text_15">
    <!-- Altitude -->
    <g transform="translate(396.789938 169.786959) rotate(-87.378092) scale(0.1 -0.1)">
     <defs>
      <path id="DejaVuSans-41" d="M 2188 4044 
L 1331 1722 
L 3047 1722 
L 2188 4044 
z
M 1831 4666 
L 2547 4666 
L 4325 0 
L 3669 0 
L 3244 1197 
L 1141 1197 
L 716 0 
L 50 0 
L 1831 4666 
z
" transform="scale(0.015625)"/>
      <path id="DejaVuSans-6c" d="M 603 4863 
L 1178 4863 
L 1178 0 
L 603 0 
L 603 4863 
z
" transform="scale(0.015625)"/>
      <path id="DejaVuSans-74" d="M 1172 4494 
L 1172 3500 
L 2356 3500 
L 2356 3053 
L 1172 3053 
L 1172 1153 
Q 1172 725 1289 603 
Q 1406 481 1766 481 
L 2356 481 
L 2356 0 
L 1766 0 
Q 1100 0 847 248 
Q 594 497 594 1153 
L 594 3053 
L 172 3053 
L 172 3500 
L 594 3500 
L 594 4494 
L 1172 4494 
z
" transform="scale(0.015625)"/>
      <path id="DejaVuSans-69" d="M 603 3500 
L 1178 3500 
L 1178 0 
L 603 0 
L 603 3500 
z
M 603 4863 
L 1178 4863 
L 1178 4134 
L 603 4134 
L 603 4863 
z
" transform="scale(0.015625)"/>
      <path id="DejaVuSans-75" d="M 544 1381 
L 544 3500 
L 1119 3500 
L 1119 1403 
Q 1119 906 1312 657 
Q 1506 409 1894 409 
Q 2359 409 2629 706 
Q 2900 1003 2900 1516 
L 2900 3500 
L 3475 3500 
L 3475 0 
L 2900 0 
L 2900 538 
Q 2691 219 2414 64 
Q 2138 -91 1772 -91 
Q 1169 -91 856 284 
Q 544 659 544 1381 
z
M 1991 3584 
L 1991 3584 
z
" transform="scale(0.015625)"/>
      <path id="DejaVuSans-64" d="M 2906 2969 
L 2906 4863 
L 3481 4863 
L 3481 0 
L 2906 0 
L 2906 525 
Q 2725 213 2448 61 
Q 2172 -91 1784 -91 
Q 1150 -91 751 415 
Q 353 922 353 1747 
Q 353 2572 751 3078 
Q 1150 3584 1784 3584 
Q 2172 3584 2448 3432 
Q 2725 3281 2906 2969 
z
M 947 1747 
Q 947 1113 1208 752 
Q 1469 391 1925 391 
Q 2381 391 2643 752 
Q 2906 1113 2906 1747 
Q 2906 2381 2643 2742 
Q 2381 3103 1925 3103 
Q 1469 3103 1208 2742 
Q 947 2381 947 1747 
z
" transform="scale(0.015625)"/>
      <path id="DejaVuSans-65" d="M 3597 1894 
L 3597 1613 
L 953 1613 
Q 991 1019 1311 708 
Q 1631 397 2203 397 
Q 2534 397 2845 478 
Q 3156 559 3463 722 
L 3463 178 
Q 3153 47 2828 -22 
Q 2503 -91 2169 -91 
Q 1331 -91 842 396 
Q 353 884 353 1716 
Q 353 2575 817 3079 
Q 1281 3584 2069 3584 
Q 2775 3584 3186 3129 
Q 3597 2675 3597 1894 
z
M 3022 2063 
Q 3016 2534 2758 2815 
Q 2500 3097 2075 3097 
Q 1594 3097 1305 2825 
Q 1016 2553 972 2059 
L 3022 2063 
z
" transform="scale(0.015625)"/>
     </defs>
     <use xlink:href="#DejaVuSans-41"/>
     <use xlink:href="#DejaVuSans-6c" x="68.408203"/>
     <use xlink:href="#DejaVuSans-74" x="96.191406"/>
     <use xlink:href="#DejaVuSans-69" x="135.400391"/>
     <use xlink:href="#DejaVuSans-74" x="163.183594"/>
     <use xlink:href="#DejaVuSans-75" x="202.392578"/>
     <use xlink:href="#DejaVuSans-64" x="265.771484"/>
     <use xlink:href="#DejaVuSans-65" x="329.248047"/>
    </g>
   </g>
   <g id="Line3DCollection_3">
    <path d="M 352.858916 192.512363 
L 210.889272 152.054855 
L 122.369674 224.783296 
" style="fill: none; stroke: #b0b0b0; stroke-width: 0.8"/>
    <path d="M 353.591734 176.50947 
L 210.711173 136.566884 
L 121.580101 208.3873 
" style="fill: none; stroke: #b0b0b0; stroke-width: 0.8"/>
    <path d="M 354.334112 160.297852 
L 210.530862 120.886614 
L 120.779834 191.769243 
" style="fill: none; stroke: #b0b0b0; stroke-width: 0.8"/>
    <path d="M 355.086235 143.873398 
L 210.348299 105.010443 
L 119.968655 174.924582 
" style="fill: none; stroke: #b0b0b0; stroke-width: 0.8"/>
    <path d="M 355.848298 127.23189 
L 210.16344 88.934675 
L 119.146338 157.848651 
" style="fill: none; stroke: #b0b0b0; stroke-width: 0.8"/>
    <path d="M 356.620499 110.368996 
L 209.976243 72.655524 
L 118.312654 140.536653 
" style="fill: none; stroke: #b0b0b0; stroke-width: 0.8"/>
   </g>
   <g id="xtick_13">
    <g id="line2d_16">
     <path d="M 351.667018 192.172704 
L 355.245565 193.192493 
" style="fill: none; stroke: #000000; stroke-width: 0.8; stroke-linecap: square"/>
    </g>
    <g id="text_16">
     <!-- −1 -->
     <g transform="translate(363.858609 197.538696) scale(0.1 -0.1)">
      <use xlink:href="#DejaVuSans-2212"/>
      <use xlink:href="#DejaVuSans-31" x="83.789062"/>
     </g>
    </g>
   </g>
   <g id="xtick_14">
    <g id="line2d_17">
     <path d="M 352.391823 176.174032 
L 355.994449 177.181154 
" style="fill: none; stroke: #000000; stroke-width: 0.8; stroke-linecap: square"/>
    </g>
    <g id="text_17">
     <!-- 0 -->
     <g transform="translate(368.897712 181.567808) scale(0.1 -0.1)">
      <use xlink:href="#DejaVuSans-30"/>
     </g>
    </g>
   </g>
   <g id="xtick_15">
    <g id="line2d_18">
     <path d="M 353.126079 159.966774 
L 356.753108 160.960811 
" style="fill: none; stroke: #000000; stroke-width: 0.8; stroke-linecap: square"/>
    </g>
    <g id="text_18">
     <!-- 1 -->
     <g transform="translate(369.758015 165.389249) scale(0.1 -0.1)">
      <use xlink:href="#DejaVuSans-31"/>
     </g>
    </g>
   </g>
   <g id="xtick_16">
    <g id="line2d_19">
     <path d="M 353.86997 143.546824 
L 357.521736 144.527344 
" style="fill: none; stroke: #000000; stroke-width: 0.8; stroke-linecap: square"/>
    </g>
    <g id="text_19">
     <!-- 2 -->
     <g transform="translate(370.629577 148.998942) scale(0.1 -0.1)">
      <use xlink:href="#DejaVuSans-32"/>
     </g>
    </g>
   </g>
   <g id="xtick_17">
    <g id="line2d_20">
     <path d="M 354.623687 126.909968 
L 358.300529 127.876526 
" style="fill: none; stroke: #000000; stroke-width: 0.8; stroke-linecap: square"/>
    </g>
    <g id="text_20">
     <!-- 3 -->
     <g transform="translate(371.512621 132.392704) scale(0.1 -0.1)">
      <use xlink:href="#DejaVuSans-33"/>
     </g>
    </g>
   </g>
   <g id="xtick_18">
    <g id="line2d_21">
     <path d="M 355.387428 110.051879 
L 359.089692 111.004015 
" style="fill: none; stroke: #000000; stroke-width: 0.8; stroke-linecap: square"/>
    </g>
    <g id="text_21">
     <!-- 4 -->
     <g transform="translate(372.407376 115.566237) scale(0.1 -0.1)">
      <defs>
       <path id="DejaVuSans-34" d="M 2419 4116 
L 825 1625 
L 2419 1625 
L 2419 4116 
z
M 2253 4666 
L 3047 4666 
L 3047 1625 
L 3713 1625 
L 3713 1100 
L 3047 1100 
L 3047 0 
L 2419 0 
L 2419 1100 
L 313 1100 
L 313 1709 
L 2253 4666 
z
" transform="scale(0.015625)"/>
      </defs>
      <use xlink:href="#DejaVuSans-34"/>
     </g>
    </g>
   </g>
  </g>
  <g id="axes_1">
   <g id="line2d_22">
    <path d="M 234.452609 183.270594 
L 236.274712 188.381121 
L 238.109542 193.527342 
L 239.957233 198.709634 
L 241.817919 203.928376 
L 243.691739 209.183954 
L 245.578833 214.476761 
L 247.479341 219.807193 
L 249.393406 225.175649 
L 251.321178 230.582547 
L 253.259874 236.024403 
L 247.890587 231.763914 
L 242.516057 227.499268 
L 237.136269 223.230447 
L 231.751223 218.957453 
L 226.360911 214.680284 
L 220.965317 210.39892 
L 215.564433 206.113366 
L 210.15826 201.823608 
L 204.746794 197.529653 
L 199.330012 193.231478 
L 193.907914 188.929086 
L 188.480493 184.622468 
L 183.047746 180.311627 
L 177.609649 175.996544 
L 172.166208 171.677214 
L 166.717411 167.353635 
L 161.263259 163.025811 
L 155.803721 158.693705 
L 150.338819 154.35735 
L 153.186301 150.88604 
L 157.438848 147.589696 
L 161.65693 144.320068 
L 165.840975 141.076823 
L 169.991408 137.859632 
L 174.108605 134.668203 
L 178.192992 131.502208 
L 182.244931 128.361364 
L 186.264822 125.245363 
L 190.253055 122.1539 
L 194.209978 119.086708 
L 198.135972 116.04349 
L 202.031409 113.023959 
L 206.779756 113.625939 
L 212.336065 117.556749 
L 217.891639 121.487031 
L 223.446437 125.416773 
L 229.000484 129.345978 
L 234.553794 133.274664 
L 240.106333 137.202801 
L 245.658118 141.130408 
L 251.209167 145.057493 
L 256.759444 148.984034 
L 262.308987 152.910054 
L 267.857776 156.83554 
L 273.405778 160.76047 
L 278.953061 164.684892 
L 284.499593 168.60878 
L 290.045334 172.532111 
L 295.59036 176.454937 
L 301.134633 180.377229 
L 306.678119 184.298964 
L 312.220892 188.220193 
L 317.762907 192.140889 
L 323.304143 196.06103 
L 323.757287 196.381608 
L 323.757287 196.381608 
L 323.757287 196.381608 
L 323.757287 196.381608 
L 323.757287 196.381608 
L 323.757287 196.381608 
L 323.757287 196.381608 
L 323.757287 196.381608 
L 323.757287 196.381608 
L 323.757287 196.381608 
L 323.757287 196.381608 
L 323.757287 196.381608 
L 323.757287 196.381608 
L 323.757287 196.381608 
L 323.757287 196.381608 
L 323.757287 196.381608 
L 323.757287 196.381608 
L 323.757287 196.381608 
L 323.757287 196.381608 
" clip-path="url(#pb33d801aab)" style="fill: none; stroke-dasharray: 1.3,2.145; stroke-dashoffset: 0; stroke: #008000; stroke-width: 1.3"/>
   </g>
   <g id="line2d_23">
    <path d="M 333.034325 195.869935 
L 327.652084 196.783634 
L 329.415117 199.446025 
" clip-path="url(#pb33d801aab)" style="fill: none; stroke: #ff0000; stroke-width: 2; stroke-linecap: square"/>
   </g>
   <g id="line2d_24">
    <path d="M 322.271822 197.377581 
L 327.652084 196.783634 
L 325.912021 193.818657 
" clip-path="url(#pb33d801aab)" style="fill: none; stroke: #0000ff; stroke-width: 2; stroke-linecap: square"/>
   </g>
   <g id="line2d_25">
    <path d="M 234.452609 183.270594 
L 235.248676 184.421592 
L 237.740079 190.65375 
L 239.970641 196.943351 
L 242.044057 202.872178 
L 244.172243 208.820175 
L 246.254815 214.670097 
L 248.358084 220.454476 
L 250.499245 226.201008 
L 252.635359 231.89214 
L 254.752223 237.537004 
L 254.572819 238.405723 
L 248.462075 233.175563 
L 241.362621 227.041606 
L 235.106812 221.627763 
L 229.05648 216.475771 
L 223.059436 211.476113 
L 217.166055 206.639603 
L 211.352377 201.923316 
L 205.591189 197.292285 
L 199.869977 192.725903 
L 194.178802 188.207733 
L 188.509141 183.724798 
L 182.854616 179.267458 
L 177.210417 174.828423 
L 171.572804 170.402159 
L 165.938909 165.984465 
L 160.30657 161.572142 
L 154.673984 157.162854 
L 149.039063 152.747303 
L 144.591054 147.609659 
L 151.350636 140.903375 
L 158.075247 136.210781 
L 162.476513 132.752231 
L 167.178198 129.230935 
L 171.860461 125.774491 
L 176.367862 122.428182 
L 180.798222 119.139611 
L 185.164455 115.90446 
L 189.465374 112.716868 
L 193.691938 109.549518 
L 197.835827 106.3908 
L 201.905998 103.272026 
L 205.942803 99.744321 
L 211.933339 100.291657 
L 218.711675 105.579544 
L 224.117151 111.247325 
L 229.716045 118.007752 
L 235.393105 124.800822 
L 241.015343 130.942491 
L 246.672596 136.587254 
L 252.341605 141.832356 
L 258.016748 146.762607 
L 263.699854 151.454644 
L 269.387746 155.963875 
L 275.073202 160.324421 
L 280.732428 164.561159 
L 286.365813 168.703309 
L 291.982227 172.773745 
L 297.584755 176.788585 
L 303.176002 180.760409 
L 308.75836 184.698983 
L 314.333529 188.611786 
L 319.90294 192.50454 
L 325.468716 196.381953 
L 329.705305 198.395091 
L 329.778941 198.362688 
L 329.246644 198.096142 
L 329.092249 197.866625 
L 328.953438 197.66082 
L 328.806504 197.501627 
L 328.679249 197.37414 
L 328.564735 197.269498 
L 328.458082 197.183834 
L 328.357321 197.112452 
L 328.261563 197.052108 
L 328.168744 197.000057 
L 328.079449 196.954801 
L 327.992048 196.914541 
L 327.905881 196.878073 
L 327.820644 196.84452 
L 327.7361 196.813216 
" clip-path="url(#pb33d801aab)" style="fill: none; stroke-dasharray: 3.7,1.6; stroke-dashoffset: 0; stroke: #0000ff"/>
   </g>
   <g id="Path3DCollection_1">
    <defs>
     <path id="mf6fa98c9e0" d="M 0 2.5 
C 0.663008 2.5 1.29895 2.236584 1.767767 1.767767 
C 2.236584 1.29895 2.5 0.663008 2.5 0 
C 2.5 -0.663008 2.236584 -1.29895 1.767767 -1.767767 
C 1.29895 -2.236584 0.663008 -2.5 0 -2.5 
C -0.663008 -2.5 -1.29895 -2.236584 -1.767767 -1.767767 
C -2.236584 -1.29895 -2.5 -0.663008 -2.5 0 
C -2.5 0.663008 -2.236584 1.29895 -1.767767 1.767767 
C -1.29895 2.236584 -0.663008 2.5 0 2.5 
z
" style="stroke: #ff00ff"/>
    </defs>
    <g clip-path="url(#pb33d801aab)">
     <use xlink:href="#mf6fa98c9e0" x="323.757287" y="196.381608" style="fill: #ff00ff; stroke: #ff00ff"/>
    </g>
   </g>
   <g id="text_22">
    <!-- Time = 24.60 s -->
    <g transform="translate(116.4096 54.7776) scale(0.1 -0.1)">
     <defs>
      <path id="DejaVuSans-54" d="M -19 4666 
L 3928 4666 
L 3928 4134 
L 2272 4134 
L 2272 0 
L 1638 0 
L 1638 4134 
L -19 4134 
L -19 4666 
z
" transform="scale(0.015625)"/>
      <path id="DejaVuSans-6d" d="M 3328 2828 
Q 3544 3216 3844 3400 
Q 4144 3584 4550 3584 
Q 5097 3584 5394 3201 
Q 5691 2819 5691 2113 
L 5691 0 
L 5113 0 
L 5113 2094 
Q 5113 2597 4934 2840 
Q 4756 3084 4391 3084 
Q 3944 3084 3684 2787 
Q 3425 2491 3425 1978 
L 3425 0 
L 2847 0 
L 2847 2094 
Q 2847 2600 2669 2842 
Q 2491 3084 2119 3084 
Q 1678 3084 1418 2786 
Q 1159 2488 1159 1978 
L 1159 0 
L 581 0 
L 581 3500 
L 1159 3500 
L 1159 2956 
Q 1356 3278 1631 3431 
Q 1906 3584 2284 3584 
Q 2666 3584 2933 3390 
Q 3200 3197 3328 2828 
z
" transform="scale(0.015625)"/>
      <path id="DejaVuSans-20" transform="scale(0.015625)"/>
      <path id="DejaVuSans-3d" d="M 678 2906 
L 4684 2906 
L 4684 2381 
L 678 2381 
L 678 2906 
z
M 678 1631 
L 4684 1631 
L 4684 1100 
L 678 1100 
L 678 1631 
z
" transform="scale(0.015625)"/>
      <path id="DejaVuSans-2e" d="M 684 794 
L 1344 794 
L 1344 0 
L 684 0 
L 684 794 
z
" transform="scale(0.015625)"/>
      <path id="DejaVuSans-36" d="M 2113 2584 
Q 1688 2584 1439 2293 
Q 1191 2003 1191 1497 
Q 1191 994 1439 701 
Q 1688 409 2113 409 
Q 2538 409 2786 701 
Q 3034 994 3034 1497 
Q 3034 2003 2786 2293 
Q 2538 2584 2113 2584 
z
M 3366 4563 
L 3366 3988 
Q 3128 4100 2886 4159 
Q 2644 4219 2406 4219 
Q 1781 4219 1451 3797 
Q 1122 3375 1075 2522 
Q 1259 2794 1537 2939 
Q 1816 3084 2150 3084 
Q 2853 3084 3261 2657 
Q 3669 2231 3669 1497 
Q 3669 778 3244 343 
Q 2819 -91 2113 -91 
Q 1303 -91 875 529 
Q 447 1150 447 2328 
Q 447 3434 972 4092 
Q 1497 4750 2381 4750 
Q 2619 4750 2861 4703 
Q 3103 4656 3366 4563 
z
" transform="scale(0.015625)"/>
      <path id="DejaVuSans-73" d="M 2834 3397 
L 2834 2853 
Q 2591 2978 2328 3040 
Q 2066 3103 1784 3103 
Q 1356 3103 1142 2972 
Q 928 2841 928 2578 
Q 928 2378 1081 2264 
Q 1234 2150 1697 2047 
L 1894 2003 
Q 2506 1872 2764 1633 
Q 3022 1394 3022 966 
Q 3022 478 2636 193 
Q 2250 -91 1575 -91 
Q 1294 -91 989 -36 
Q 684 19 347 128 
L 347 722 
Q 666 556 975 473 
Q 1284 391 1588 391 
Q 1994 391 2212 530 
Q 2431 669 2431 922 
Q 2431 1156 2273 1281 
Q 2116 1406 1581 1522 
L 1381 1569 
Q 847 1681 609 1914 
Q 372 2147 372 2553 
Q 372 3047 722 3315 
Q 1072 3584 1716 3584 
Q 2034 3584 2315 3537 
Q 2597 3491 2834 3397 
z
" transform="scale(0.015625)"/>
     </defs>
     <use xlink:href="#DejaVuSans-54"/>
     <use xlink:href="#DejaVuSans-69" x="57.958984"/>
     <use xlink:href="#DejaVuSans-6d" x="85.742188"/>
     <use xlink:href="#DejaVuSans-65" x="183.154297"/>
     <use xlink:href="#DejaVuSans-20" x="244.677734"/>
     <use xlink:href="#DejaVuSans-3d" x="276.464844"/>
     <use xlink:href="#DejaVuSans-20" x="360.253906"/>
     <use xlink:href="#DejaVuSans-32" x="392.041016"/>
     <use xlink:href="#DejaVuSans-34" x="455.664062"/>
     <use xlink:href="#DejaVuSans-2e" x="519.287109"/>
     <use xlink:href="#DejaVuSans-36" x="551.074219"/>
     <use xlink:href="#DejaVuSans-30" x="614.697266"/>
     <use xlink:href="#DejaVuSans-20" x="678.320312"/>
     <use xlink:href="#DejaVuSans-73" x="710.107422"/>
    </g>
   </g>
   <g id="text_23">
    <!-- wp_traj -->
    <g transform="translate(319.446337 54.7776) scale(0.1 -0.1)">
     <defs>
      <path id="DejaVuSans-77" d="M 269 3500 
L 844 3500 
L 1563 769 
L 2278 3500 
L 2956 3500 
L 3675 769 
L 4391 3500 
L 4966 3500 
L 4050 0 
L 3372 0 
L 2619 2869 
L 1863 0 
L 1184 0 
L 269 3500 
z
" transform="scale(0.015625)"/>
      <path id="DejaVuSans-70" d="M 1159 525 
L 1159 -1331 
L 581 -1331 
L 581 3500 
L 1159 3500 
L 1159 2969 
Q 1341 3281 1617 3432 
Q 1894 3584 2278 3584 
Q 2916 3584 3314 3078 
Q 3713 2572 3713 1747 
Q 3713 922 3314 415 
Q 2916 -91 2278 -91 
Q 1894 -91 1617 61 
Q 1341 213 1159 525 
z
M 3116 1747 
Q 3116 2381 2855 2742 
Q 2594 3103 2138 3103 
Q 1681 3103 1420 2742 
Q 1159 2381 1159 1747 
Q 1159 1113 1420 752 
Q 1681 391 2138 391 
Q 2594 391 2855 752 
Q 3116 1113 3116 1747 
z
" transform="scale(0.015625)"/>
      <path id="DejaVuSans-5f" d="M 3263 -1063 
L 3263 -1509 
L -63 -1509 
L -63 -1063 
L 3263 -1063 
z
" transform="scale(0.015625)"/>
      <path id="DejaVuSans-72" d="M 2631 2963 
Q 2534 3019 2420 3045 
Q 2306 3072 2169 3072 
Q 1681 3072 1420 2755 
Q 1159 2438 1159 1844 
L 1159 0 
L 581 0 
L 581 3500 
L 1159 3500 
L 1159 2956 
Q 1341 3275 1631 3429 
Q 1922 3584 2338 3584 
Q 2397 3584 2469 3576 
Q 2541 3569 2628 3553 
L 2631 2963 
z
" transform="scale(0.015625)"/>
      <path id="DejaVuSans-61" d="M 2194 1759 
Q 1497 1759 1228 1600 
Q 959 1441 959 1056 
Q 959 750 1161 570 
Q 1363 391 1709 391 
Q 2188 391 2477 730 
Q 2766 1069 2766 1631 
L 2766 1759 
L 2194 1759 
z
M 3341 1997 
L 3341 0 
L 2766 0 
L 2766 531 
Q 2569 213 2275 61 
Q 1981 -91 1556 -91 
Q 1019 -91 701 211 
Q 384 513 384 1019 
Q 384 1609 779 1909 
Q 1175 2209 1959 2209 
L 2766 2209 
L 2766 2266 
Q 2766 2663 2505 2880 
Q 2244 3097 1772 3097 
Q 1472 3097 1187 3025 
Q 903 2953 641 2809 
L 641 3341 
Q 956 3463 1253 3523 
Q 1550 3584 1831 3584 
Q 2591 3584 2966 3190 
Q 3341 2797 3341 1997 
z
" transform="scale(0.015625)"/>
      <path id="DejaVuSans-6a" d="M 603 3500 
L 1178 3500 
L 1178 -63 
Q 1178 -731 923 -1031 
Q 669 -1331 103 -1331 
L -116 -1331 
L -116 -844 
L 38 -844 
Q 366 -844 484 -692 
Q 603 -541 603 -63 
L 603 3500 
z
M 603 4863 
L 1178 4863 
L 1178 4134 
L 603 4134 
L 603 4863 
z
" transform="scale(0.015625)"/>
     </defs>
     <use xlink:href="#DejaVuSans-77"/>
     <use xlink:href="#DejaVuSans-70" x="81.787109"/>
     <use xlink:href="#DejaVuSans-5f" x="145.263672"/>
     <use xlink:href="#DejaVuSans-74" x="195.263672"/>
     <use xlink:href="#DejaVuSans-72" x="234.472656"/>
     <use xlink:href="#DejaVuSans-61" x="275.585938"/>
     <use xlink:href="#DejaVuSans-6a" x="336.865234"/>
    </g>
   </g>
   <g id="Path3DCollection_2">
    <defs>
     <path id="C0_0_ab2bf951b5" d="M 0 2.5 
C 0.663008 2.5 1.29895 2.236584 1.767767 1.767767 
C 2.236584 1.29895 2.5 0.663008 2.5 -0 
C 2.5 -0.663008 2.236584 -1.29895 1.767767 -1.767767 
C 1.29895 -2.236584 0.663008 -2.5 0 -2.5 
C -0.663008 -2.5 -1.29895 -2.236584 -1.767767 -1.767767 
C -2.236584 -1.29895 -2.5 -0.663008 -2.5 0 
C -2.5 0.663008 -2.236584 1.29895 -1.767767 1.767767 
C -1.29895 2.236584 -0.663008 2.5 0 2.5 
z
"/>
    </defs>
    <g clip-path="url(#pb33d801aab)">
     <use xlink:href="#C0_0_ab2bf951b5" x="323.757287" y="196.381608" style="fill: #008000; stroke: #008000"/>
    </g>
    <g clip-path="url(#pb33d801aab)">
     <use xlink:href="#C0_0_ab2bf951b5" x="203.891143" y="111.582393" style="fill: #008000; stroke: #008000"/>
    </g>
    <g clip-path="url(#pb33d801aab)">
     <use xlink:href="#C0_0_ab2bf951b5" x="234.452609" y="183.270594" style="fill: #008000; stroke: #008000"/>
    </g>
    <g clip-path="url(#pb33d801aab)">
     <use xlink:href="#C0_0_ab2bf951b5" x="253.262019" y="236.026103" style="fill: #008000; stroke: #008000"/>
    </g>
    <g clip-path="url(#pb33d801aab)">
     <use xlink:href="#C0_0_ab2bf951b5" x="149.532962" y="153.717911" style="fill: #008000; stroke: #008000"/>
    </g>
   </g>
  </g>
 </g>
 <defs>
  <clipPath id="pb33d801aab">
   <rect x="103.104" y="41.472" width="266.112" height="266.112"/>
  </clipPath>
 </defs>
</svg>
