<?xml version="1.0" encoding="utf-8" standalone="no"?>
<!DOCTYPE svg PUBLIC "-//W3C//DTD SVG 1.1//EN"
  "http://www.w3.org/Graphics/SVG/1.1/DTD/svg11.dtd">
<svg xmlns:xlink="http://www.w3.org/1999/xlink" width="460.8pt" height="345.6pt" viewBox="0 0 460.8 345.6" xmlns="http://www.w3.org/2000/svg" version="1.1">
 <metadata>
  <rdf:RDF xmlns:dc="http://purl.org/dc/elements/1.1/" xmlns:cc="http://creativecommons.org/ns#" xmlns:rdf="http://www.w3.org/1999/02/22-rdf-syntax-ns#">
   <cc:Work>
    <dc:type rdf:resource="http://purl.org/dc/dcmitype/StillImage"/>
    <dc:date>2023-09-18T15:46:26.456060</dc:date>
    <dc:format>image/svg+xml</dc:format>
    <dc:creator>
     <cc:Agent>
      <dc:title>Matplotlib v3.7.1, https://matplotlib.org/</dc:title>
     </cc:Agent>
    </dc:creator>
   </cc:Work>
  </rdf:RDF>
 </metadata>
 <defs>
  <style type="text/css">*{stroke-linejoin: round; stroke-linecap: butt}</style>
 </defs>
 <g id="figure_1">
  <g id="patch_1">
   <path d="M 0 345.6 
L 460.8 345.6 
L 460.8 0 
L 0 0 
z
" style="fill: #ffffff"/>
  </g>
  <g id="patch_2">
   <path d="M 103.104 307.584 
L 369.216 307.584 
L 369.216 41.472 
L 103.104 41.472 
z
" style="fill: #ffffff"/>
  </g>
  <g id="pane3d_1">
   <g id="patch_3">
    <path d="M 211.076164 168.307495 
L 123.197291 241.969309 
L 117.770234 129.272941 
L 209.854564 62.073991 
" style="fill: #f2f2f2; opacity: 0.5; stroke: #f2f2f2; stroke-linejoin: miter"/>
   </g>
  </g>
  <g id="pane3d_2">
   <g id="patch_4">
    <path d="M 211.076164 168.307495 
L 352.090401 209.294766 
L 357.122702 99.402171 
L 209.854564 62.073991 
" style="fill: #e6e6e6; opacity: 0.5; stroke: #e6e6e6; stroke-linejoin: miter"/>
   </g>
  </g>
  <g id="pane3d_3">
   <g id="patch_5">
    <path d="M 211.076164 168.307495 
L 352.090401 209.294766 
L 272.679269 290.790123 
L 123.197291 241.969309 
" style="fill: #ececec; opacity: 0.5; stroke: #ececec; stroke-linejoin: miter"/>
   </g>
  </g>
  <g id="axis3d_1">
   <g id="line2d_1">
    <path d="M 123.197291 241.969309 
L 272.679269 290.790123 
" style="fill: none; stroke: #000000; stroke-width: 0.8; stroke-linecap: square"/>
   </g>
   <g id="text_1">
    <!-- X -->
    <g transform="translate(176.251428 303.76759) scale(0.1 -0.1)">
     <defs>
      <path id="DejaVuSans-58" d="M 403 4666 
L 1081 4666 
L 2241 2931 
L 3406 4666 
L 4084 4666 
L 2584 2425 
L 4184 0 
L 3506 0 
L 2194 1984 
L 872 0 
L 191 0 
L 1856 2491 
L 403 4666 
z
" transform="scale(0.015625)"/>
     </defs>
     <use xlink:href="#DejaVuSans-58"/>
    </g>
   </g>
   <g id="Line3DCollection_1">
    <path d="M 131.86727 244.800924 
L 219.289095 170.69467 
L 218.414697 64.243735 
" style="fill: none; stroke: #b0b0b0; stroke-width: 0.8"/>
    <path d="M 154.749761 252.274345 
L 240.945081 176.98921 
L 240.996279 69.967508 
" style="fill: none; stroke: #b0b0b0; stroke-width: 0.8"/>
    <path d="M 178.013596 259.872314 
L 262.931946 183.379923 
L 263.937856 75.782529 
" style="fill: none; stroke: #b0b0b0; stroke-width: 0.8"/>
    <path d="M 201.668389 267.597969 
L 285.257332 189.869032 
L 287.248108 81.690998 
" style="fill: none; stroke: #b0b0b0; stroke-width: 0.8"/>
    <path d="M 225.724079 275.454558 
L 307.929117 196.458824 
L 310.935993 87.695187 
" style="fill: none; stroke: #b0b0b0; stroke-width: 0.8"/>
    <path d="M 250.190944 283.445436 
L 330.955426 203.151663 
L 335.010761 93.797439 
" style="fill: none; stroke: #b0b0b0; stroke-width: 0.8"/>
   </g>
   <g id="xtick_1">
    <g id="line2d_2">
     <path d="M 132.628526 244.155618 
L 130.341492 246.094304 
" style="fill: none; stroke: #000000; stroke-width: 0.8; stroke-linecap: square"/>
    </g>
    <g id="text_2">
     <!-- −6 -->
     <g transform="translate(116.966748 268.107424) scale(0.1 -0.1)">
      <defs>
       <path id="DejaVuSans-2212" d="M 678 2272 
L 4684 2272 
L 4684 1741 
L 678 1741 
L 678 2272 
z
" transform="scale(0.015625)"/>
       <path id="DejaVuSans-36" d="M 2113 2584 
Q 1688 2584 1439 2293 
Q 1191 2003 1191 1497 
Q 1191 994 1439 701 
Q 1688 409 2113 409 
Q 2538 409 2786 701 
Q 3034 994 3034 1497 
Q 3034 2003 2786 2293 
Q 2538 2584 2113 2584 
z
M 3366 4563 
L 3366 3988 
Q 3128 4100 2886 4159 
Q 2644 4219 2406 4219 
Q 1781 4219 1451 3797 
Q 1122 3375 1075 2522 
Q 1259 2794 1537 2939 
Q 1816 3084 2150 3084 
Q 2853 3084 3261 2657 
Q 3669 2231 3669 1497 
Q 3669 778 3244 343 
Q 2819 -91 2113 -91 
Q 1303 -91 875 529 
Q 447 1150 447 2328 
Q 447 3434 972 4092 
Q 1497 4750 2381 4750 
Q 2619 4750 2861 4703 
Q 3103 4656 3366 4563 
z
" transform="scale(0.015625)"/>
      </defs>
      <use xlink:href="#DejaVuSans-2212"/>
      <use xlink:href="#DejaVuSans-36" x="83.789062"/>
     </g>
    </g>
   </g>
   <g id="xtick_2">
    <g id="line2d_3">
     <path d="M 155.50084 251.618334 
L 153.244353 253.589206 
" style="fill: none; stroke: #000000; stroke-width: 0.8; stroke-linecap: square"/>
    </g>
    <g id="text_3">
     <!-- −4 -->
     <g transform="translate(139.872537 275.739148) scale(0.1 -0.1)">
      <defs>
       <path id="DejaVuSans-34" d="M 2419 4116 
L 825 1625 
L 2419 1625 
L 2419 4116 
z
M 2253 4666 
L 3047 4666 
L 3047 1625 
L 3713 1625 
L 3713 1100 
L 3047 1100 
L 3047 0 
L 2419 0 
L 2419 1100 
L 313 1100 
L 313 1709 
L 2253 4666 
z
" transform="scale(0.015625)"/>
      </defs>
      <use xlink:href="#DejaVuSans-2212"/>
      <use xlink:href="#DejaVuSans-34" x="83.789062"/>
     </g>
    </g>
   </g>
   <g id="xtick_3">
    <g id="line2d_4">
     <path d="M 178.754053 259.205328 
L 176.529452 261.209195 
" style="fill: none; stroke: #000000; stroke-width: 0.8; stroke-linecap: square"/>
    </g>
    <g id="text_4">
     <!-- −2 -->
     <g transform="translate(163.161502 283.498538) scale(0.1 -0.1)">
      <defs>
       <path id="DejaVuSans-32" d="M 1228 531 
L 3431 531 
L 3431 0 
L 469 0 
L 469 531 
Q 828 903 1448 1529 
Q 2069 2156 2228 2338 
Q 2531 2678 2651 2914 
Q 2772 3150 2772 3378 
Q 2772 3750 2511 3984 
Q 2250 4219 1831 4219 
Q 1534 4219 1204 4116 
Q 875 4013 500 3803 
L 500 4441 
Q 881 4594 1212 4672 
Q 1544 4750 1819 4750 
Q 2544 4750 2975 4387 
Q 3406 4025 3406 3419 
Q 3406 3131 3298 2873 
Q 3191 2616 2906 2266 
Q 2828 2175 2409 1742 
Q 1991 1309 1228 531 
z
" transform="scale(0.015625)"/>
      </defs>
      <use xlink:href="#DejaVuSans-2212"/>
      <use xlink:href="#DejaVuSans-32" x="83.789062"/>
     </g>
    </g>
   </g>
   <g id="xtick_4">
    <g id="line2d_5">
     <path d="M 202.397759 266.919732 
L 200.206441 268.957428 
" style="fill: none; stroke: #000000; stroke-width: 0.8; stroke-linecap: square"/>
    </g>
    <g id="text_5">
     <!-- 0 -->
     <g transform="translate(191.033183 291.388824) scale(0.1 -0.1)">
      <defs>
       <path id="DejaVuSans-30" d="M 2034 4250 
Q 1547 4250 1301 3770 
Q 1056 3291 1056 2328 
Q 1056 1369 1301 889 
Q 1547 409 2034 409 
Q 2525 409 2770 889 
Q 3016 1369 3016 2328 
Q 3016 3291 2770 3770 
Q 2525 4250 2034 4250 
z
M 2034 4750 
Q 2819 4750 3233 4129 
Q 3647 3509 3647 2328 
Q 3647 1150 3233 529 
Q 2819 -91 2034 -91 
Q 1250 -91 836 529 
Q 422 1150 422 2328 
Q 422 3509 836 4129 
Q 1250 4750 2034 4750 
z
" transform="scale(0.015625)"/>
      </defs>
      <use xlink:href="#DejaVuSans-30"/>
     </g>
    </g>
   </g>
   <g id="xtick_5">
    <g id="line2d_6">
     <path d="M 226.441879 274.764781 
L 224.285295 276.837171 
" style="fill: none; stroke: #000000; stroke-width: 0.8; stroke-linecap: square"/>
    </g>
    <g id="text_6">
     <!-- 2 -->
     <g transform="translate(215.117917 299.413347) scale(0.1 -0.1)">
      <use xlink:href="#DejaVuSans-32"/>
     </g>
    </g>
   </g>
   <g id="xtick_6">
    <g id="line2d_7">
     <path d="M 250.89667 282.743823 
L 248.776335 284.8518 
" style="fill: none; stroke: #000000; stroke-width: 0.8; stroke-linecap: square"/>
    </g>
    <g id="text_7">
     <!-- 4 -->
     <g transform="translate(239.615918 307.575561) scale(0.1 -0.1)">
      <use xlink:href="#DejaVuSans-34"/>
     </g>
    </g>
   </g>
  </g>
  <g id="axis3d_2">
   <g id="line2d_8">
    <path d="M 352.090401 209.294766 
L 272.679269 290.790123 
" style="fill: none; stroke: #000000; stroke-width: 0.8; stroke-linecap: square"/>
   </g>
   <g id="text_8">
    <!-- Y -->
    <g transform="translate(338.078875 278.988697) scale(0.1 -0.1)">
     <defs>
      <path id="DejaVuSans-59" d="M -13 4666 
L 666 4666 
L 1959 2747 
L 3244 4666 
L 3922 4666 
L 2272 2222 
L 2272 0 
L 1638 0 
L 1638 2222 
L -13 4666 
z
" transform="scale(0.015625)"/>
     </defs>
     <use xlink:href="#DejaVuSans-59"/>
    </g>
   </g>
   <g id="Line3DCollection_2">
    <path d="M 201.478042 68.186795 
L 203.054559 175.031364 
L 344.870762 216.703892 
" style="fill: none; stroke: #b0b0b0; stroke-width: 0.8"/>
    <path d="M 187.66341 78.268084 
L 189.837376 186.110269 
L 332.9623 228.924903 
" style="fill: none; stroke: #b0b0b0; stroke-width: 0.8"/>
    <path d="M 173.460657 88.632606 
L 176.264563 197.48727 
L 320.716969 241.491625 
" style="fill: none; stroke: #b0b0b0; stroke-width: 0.8"/>
    <path d="M 158.853194 99.292467 
L 162.32157 209.174562 
L 308.12027 254.418937 
" style="fill: none; stroke: #b0b0b0; stroke-width: 0.8"/>
    <path d="M 143.823472 110.260474 
L 147.993045 221.185016 
L 295.15686 267.722584 
" style="fill: none; stroke: #b0b0b0; stroke-width: 0.8"/>
    <path d="M 128.352914 121.550183 
L 133.262772 233.532223 
L 281.810489 281.419244 
" style="fill: none; stroke: #b0b0b0; stroke-width: 0.8"/>
   </g>
   <g id="xtick_7">
    <g id="line2d_9">
     <path d="M 343.680058 216.354005 
L 347.255025 217.404504 
" style="fill: none; stroke: #000000; stroke-width: 0.8; stroke-linecap: square"/>
    </g>
    <g id="text_9">
     <!-- −6 -->
     <g transform="translate(349.483575 236.714501) scale(0.1 -0.1)">
      <use xlink:href="#DejaVuSans-2212"/>
      <use xlink:href="#DejaVuSans-36" x="83.789062"/>
     </g>
    </g>
   </g>
   <g id="xtick_8">
    <g id="line2d_10">
     <path d="M 331.759818 228.565191 
L 335.370188 229.645203 
" style="fill: none; stroke: #000000; stroke-width: 0.8; stroke-linecap: square"/>
    </g>
    <g id="text_10">
     <!-- −4 -->
     <g transform="translate(337.735639 249.115602) scale(0.1 -0.1)">
      <use xlink:href="#DejaVuSans-2212"/>
      <use xlink:href="#DejaVuSans-34" x="83.789062"/>
     </g>
    </g>
   </g>
   <g id="xtick_9">
    <g id="line2d_11">
     <path d="M 319.502514 241.121667 
L 323.148875 242.232453 
" style="fill: none; stroke: #000000; stroke-width: 0.8; stroke-linecap: square"/>
    </g>
    <g id="text_11">
     <!-- −2 -->
     <g transform="translate(325.655185 261.867708) scale(0.1 -0.1)">
      <use xlink:href="#DejaVuSans-2212"/>
      <use xlink:href="#DejaVuSans-32" x="83.789062"/>
     </g>
    </g>
   </g>
   <g id="xtick_10">
    <g id="line2d_12">
     <path d="M 306.893645 254.038289 
L 310.57659 255.181184 
" style="fill: none; stroke: #000000; stroke-width: 0.8; stroke-linecap: square"/>
    </g>
    <g id="text_12">
     <!-- 0 -->
     <g transform="translate(317.417737 274.985936) scale(0.1 -0.1)">
      <use xlink:href="#DejaVuSans-30"/>
     </g>
    </g>
   </g>
   <g id="xtick_11">
    <g id="line2d_13">
     <path d="M 293.917865 267.330777 
L 297.637996 268.507193 
" style="fill: none; stroke: #000000; stroke-width: 0.8; stroke-linecap: square"/>
    </g>
    <g id="text_13">
     <!-- 2 -->
     <g transform="translate(304.628454 288.486282) scale(0.1 -0.1)">
      <use xlink:href="#DejaVuSans-32"/>
     </g>
    </g>
   </g>
   <g id="xtick_12">
    <g id="line2d_14">
     <path d="M 280.558924 281.01578 
L 284.316844 282.227213 
" style="fill: none; stroke: #000000; stroke-width: 0.8; stroke-linecap: square"/>
    </g>
    <g id="text_14">
     <!-- 4 -->
     <g transform="translate(291.461127 302.385688) scale(0.1 -0.1)">
      <use xlink:href="#DejaVuSans-34"/>
     </g>
    </g>
   </g>
  </g>
  <g id="axis3d_3">
   <g id="line2d_15">
    <path d="M 352.090401 209.294766 
L 357.122702 99.402171 
" style="fill: none; stroke: #000000; stroke-width: 0.8; stroke-linecap: square"/>
   </g>
   <g id="text_15">
    <!-- Altitude -->
    <g transform="translate(396.789938 169.786959) rotate(-87.378092) scale(0.1 -0.1)">
     <defs>
      <path id="DejaVuSans-41" d="M 2188 4044 
L 1331 1722 
L 3047 1722 
L 2188 4044 
z
M 1831 4666 
L 2547 4666 
L 4325 0 
L 3669 0 
L 3244 1197 
L 1141 1197 
L 716 0 
L 50 0 
L 1831 4666 
z
" transform="scale(0.015625)"/>
      <path id="DejaVuSans-6c" d="M 603 4863 
L 1178 4863 
L 1178 0 
L 603 0 
L 603 4863 
z
" transform="scale(0.015625)"/>
      <path id="DejaVuSans-74" d="M 1172 4494 
L 1172 3500 
L 2356 3500 
L 2356 3053 
L 1172 3053 
L 1172 1153 
Q 1172 725 1289 603 
Q 1406 481 1766 481 
L 2356 481 
L 2356 0 
L 1766 0 
Q 1100 0 847 248 
Q 594 497 594 1153 
L 594 3053 
L 172 3053 
L 172 3500 
L 594 3500 
L 594 4494 
L 1172 4494 
z
" transform="scale(0.015625)"/>
      <path id="DejaVuSans-69" d="M 603 3500 
L 1178 3500 
L 1178 0 
L 603 0 
L 603 3500 
z
M 603 4863 
L 1178 4863 
L 1178 4134 
L 603 4134 
L 603 4863 
z
" transform="scale(0.015625)"/>
      <path id="DejaVuSans-75" d="M 544 1381 
L 544 3500 
L 1119 3500 
L 1119 1403 
Q 1119 906 1312 657 
Q 1506 409 1894 409 
Q 2359 409 2629 706 
Q 2900 1003 2900 1516 
L 2900 3500 
L 3475 3500 
L 3475 0 
L 2900 0 
L 2900 538 
Q 2691 219 2414 64 
Q 2138 -91 1772 -91 
Q 1169 -91 856 284 
Q 544 659 544 1381 
z
M 1991 3584 
L 1991 3584 
z
" transform="scale(0.015625)"/>
      <path id="DejaVuSans-64" d="M 2906 2969 
L 2906 4863 
L 3481 4863 
L 3481 0 
L 2906 0 
L 2906 525 
Q 2725 213 2448 61 
Q 2172 -91 1784 -91 
Q 1150 -91 751 415 
Q 353 922 353 1747 
Q 353 2572 751 3078 
Q 1150 3584 1784 3584 
Q 2172 3584 2448 3432 
Q 2725 3281 2906 2969 
z
M 947 1747 
Q 947 1113 1208 752 
Q 1469 391 1925 391 
Q 2381 391 2643 752 
Q 2906 1113 2906 1747 
Q 2906 2381 2643 2742 
Q 2381 3103 1925 3103 
Q 1469 3103 1208 2742 
Q 947 2381 947 1747 
z
" transform="scale(0.015625)"/>
      <path id="DejaVuSans-65" d="M 3597 1894 
L 3597 1613 
L 953 1613 
Q 991 1019 1311 708 
Q 1631 397 2203 397 
Q 2534 397 2845 478 
Q 3156 559 3463 722 
L 3463 178 
Q 3153 47 2828 -22 
Q 2503 -91 2169 -91 
Q 1331 -91 842 396 
Q 353 884 353 1716 
Q 353 2575 817 3079 
Q 1281 3584 2069 3584 
Q 2775 3584 3186 3129 
Q 3597 2675 3597 1894 
z
M 3022 2063 
Q 3016 2534 2758 2815 
Q 2500 3097 2075 3097 
Q 1594 3097 1305 2825 
Q 1016 2553 972 2059 
L 3022 2063 
z
" transform="scale(0.015625)"/>
     </defs>
     <use xlink:href="#DejaVuSans-41"/>
     <use xlink:href="#DejaVuSans-6c" x="68.408203"/>
     <use xlink:href="#DejaVuSans-74" x="96.191406"/>
     <use xlink:href="#DejaVuSans-69" x="135.400391"/>
     <use xlink:href="#DejaVuSans-74" x="163.183594"/>
     <use xlink:href="#DejaVuSans-75" x="202.392578"/>
     <use xlink:href="#DejaVuSans-64" x="265.771484"/>
     <use xlink:href="#DejaVuSans-65" x="329.248047"/>
    </g>
   </g>
   <g id="Line3DCollection_3">
    <path d="M 352.876921 192.119176 
L 210.884895 151.674206 
L 122.350279 224.380548 
" style="fill: none; stroke: #b0b0b0; stroke-width: 0.8"/>
    <path d="M 353.659103 175.038323 
L 210.694806 135.143552 
L 121.507496 206.879612 
" style="fill: none; stroke: #b0b0b0; stroke-width: 0.8"/>
    <path d="M 354.452177 157.719612 
L 210.502197 118.393779 
L 120.652526 189.125602 
" style="fill: none; stroke: #b0b0b0; stroke-width: 0.8"/>
    <path d="M 355.256372 140.15804 
L 210.307017 101.4205 
L 119.785102 171.112991 
" style="fill: none; stroke: #b0b0b0; stroke-width: 0.8"/>
    <path d="M 356.071924 122.348461 
L 210.109216 84.219212 
L 118.904951 152.836085 
" style="fill: none; stroke: #b0b0b0; stroke-width: 0.8"/>
    <path d="M 356.899076 104.285585 
L 209.90874 66.785288 
L 118.01179 134.289025 
" style="fill: none; stroke: #b0b0b0; stroke-width: 0.8"/>
   </g>
   <g id="xtick_13">
    <g id="line2d_16">
     <path d="M 351.684826 191.77962 
L 355.263965 192.799101 
" style="fill: none; stroke: #000000; stroke-width: 0.8; stroke-linecap: square"/>
    </g>
    <g id="text_16">
     <!-- 0 -->
     <g transform="translate(368.069319 197.146288) scale(0.1 -0.1)">
      <use xlink:href="#DejaVuSans-30"/>
     </g>
    </g>
   </g>
   <g id="xtick_14">
    <g id="line2d_17">
     <path d="M 352.458454 174.703278 
L 356.063294 175.709223 
" style="fill: none; stroke: #000000; stroke-width: 0.8; stroke-linecap: square"/>
    </g>
    <g id="text_17">
     <!-- 2 -->
     <g transform="translate(368.975783 180.099635) scale(0.1 -0.1)">
      <use xlink:href="#DejaVuSans-32"/>
     </g>
    </g>
   </g>
   <g id="xtick_15">
    <g id="line2d_18">
     <path d="M 353.242852 157.389235 
L 356.873763 158.381168 
" style="fill: none; stroke: #000000; stroke-width: 0.8; stroke-linecap: square"/>
    </g>
    <g id="text_18">
     <!-- 4 -->
     <g transform="translate(369.894831 162.816326) scale(0.1 -0.1)">
      <use xlink:href="#DejaVuSans-34"/>
     </g>
    </g>
   </g>
   <g id="xtick_16">
    <g id="line2d_19">
     <path d="M 354.038244 139.832496 
L 357.695607 140.809922 
" style="fill: none; stroke: #000000; stroke-width: 0.8; stroke-linecap: square"/>
    </g>
    <g id="text_19">
     <!-- 6 -->
     <g transform="translate(370.826727 145.291399) scale(0.1 -0.1)">
      <use xlink:href="#DejaVuSans-36"/>
     </g>
    </g>
   </g>
   <g id="xtick_17">
    <g id="line2d_20">
     <path d="M 354.844864 122.027921 
L 358.529067 122.99033 
" style="fill: none; stroke: #000000; stroke-width: 0.8; stroke-linecap: square"/>
    </g>
    <g id="text_20">
     <!-- 8 -->
     <g transform="translate(371.771743 127.519752) scale(0.1 -0.1)">
      <defs>
       <path id="DejaVuSans-38" d="M 2034 2216 
Q 1584 2216 1326 1975 
Q 1069 1734 1069 1313 
Q 1069 891 1326 650 
Q 1584 409 2034 409 
Q 2484 409 2743 651 
Q 3003 894 3003 1313 
Q 3003 1734 2745 1975 
Q 2488 2216 2034 2216 
z
M 1403 2484 
Q 997 2584 770 2862 
Q 544 3141 544 3541 
Q 544 4100 942 4425 
Q 1341 4750 2034 4750 
Q 2731 4750 3128 4425 
Q 3525 4100 3525 3541 
Q 3525 3141 3298 2862 
Q 3072 2584 2669 2484 
Q 3125 2378 3379 2068 
Q 3634 1759 3634 1313 
Q 3634 634 3220 271 
Q 2806 -91 2034 -91 
Q 1263 -91 848 271 
Q 434 634 434 1313 
Q 434 1759 690 2068 
Q 947 2378 1403 2484 
z
M 1172 3481 
Q 1172 3119 1398 2916 
Q 1625 2713 2034 2713 
Q 2441 2713 2670 2916 
Q 2900 3119 2900 3481 
Q 2900 3844 2670 4047 
Q 2441 4250 2034 4250 
Q 1625 4250 1398 4047 
Q 1172 3844 1172 3481 
z
" transform="scale(0.015625)"/>
      </defs>
      <use xlink:href="#DejaVuSans-38"/>
     </g>
    </g>
   </g>
   <g id="xtick_18">
    <g id="line2d_21">
     <path d="M 355.662952 103.970224 
L 359.37439 104.91709 
" style="fill: none; stroke: #000000; stroke-width: 0.8; stroke-linecap: square"/>
    </g>
    <g id="text_21">
     <!-- 10 -->
     <g transform="translate(369.548907 109.496138) scale(0.1 -0.1)">
      <defs>
       <path id="DejaVuSans-31" d="M 794 531 
L 1825 531 
L 1825 4091 
L 703 3866 
L 703 4441 
L 1819 4666 
L 2450 4666 
L 2450 531 
L 3481 531 
L 3481 0 
L 794 0 
L 794 531 
z
" transform="scale(0.015625)"/>
      </defs>
      <use xlink:href="#DejaVuSans-31"/>
      <use xlink:href="#DejaVuSans-30" x="63.623047"/>
     </g>
    </g>
   </g>
  </g>
  <g id="axes_1">
   <g id="line2d_22">
    <path d="M 287.4171 185.553989 
L 285.388199 189.77608 
L 282.816636 194.465468 
L 280.030143 198.94269 
L 277.086174 203.139891 
L 274.041132 206.99326 
L 270.948928 210.444684 
L 267.859615 213.443291 
L 264.818108 215.946825 
L 261.863086 217.922773 
L 259.026093 219.349196 
L 257.659601 219.852498 
L 256.330896 220.215218 
L 255.041676 220.437745 
L 253.793119 220.521157 
L 252.585896 220.467204 
L 251.420174 220.278285 
L 250.295633 219.957424 
L 249.211483 219.50824 
L 248.166483 218.934907 
L 247.158972 218.242124 
L 245.247816 216.519338 
L 243.457383 214.386215 
L 241.762341 211.894518 
L 240.133873 209.09987 
L 237.747832 204.466789 
L 231.89769 192.607072 
L 229.044839 187.507756 
L 226.97593 184.217016 
L 224.759711 181.055884 
L 222.391365 178.054048 
L 219.872727 175.234891 
L 217.212589 172.615387 
L 214.426861 170.206129 
L 211.538586 168.01147 
L 208.577808 166.029769 
L 205.581265 164.253745 
L 201.114935 161.946783 
L 196.833772 160.012468 
L 188.647344 156.481236 
L 187.041077 155.599316 
L 185.866319 154.722394 
L 185.174499 153.82494 
L 185.024034 153.361357 
L 185.010559 152.884525 
L 185.138408 152.392282 
L 185.411317 151.882772 
L 186.403998 150.806201 
L 188.005 149.646932 
L 190.218964 148.403203 
L 193.038205 147.079685 
L 196.442536 145.687567 
L 200.399497 144.244405 
L 207.271716 142.036952 
L 215.093365 139.870279 
L 220.72048 138.50824 
L 226.587963 137.258237 
L 232.614093 136.1616 
L 238.715011 135.259995 
L 244.806595 134.594283 
L 250.806233 134.203407 
L 256.634443 134.123354 
L 262.216326 134.386197 
L 267.482807 135.019242 
L 269.978038 135.481632 
L 272.371675 136.044273 
L 274.657149 136.708921 
L 276.828418 137.476911 
L 278.879975 138.349145 
L 280.806867 139.326079 
L 282.604702 140.407712 
L 284.269657 141.593576 
L 285.798488 142.882732 
L 287.188526 144.273762 
L 288.437686 145.764763 
L 289.544462 147.35335 
L 290.507927 149.036652 
L 291.327725 150.811318 
L 292.00407 152.673515 
L 292.537731 154.618941 
L 292.930028 156.642829 
L 293.182819 158.739958 
L 293.298483 160.904671 
L 293.279906 163.130884 
L 293.130466 165.412113 
L 292.854007 167.741488 
L 291.937635 172.515433 
L 290.570066 177.391112 
L 288.796471 182.302658 
L 286.666905 187.181149 
L 284.235168 191.955971 
L 281.557553 196.556342 
L 278.691485 200.912925 
L 275.694116 204.95952 
L 272.620877 208.634734 
L 269.524069 211.883606 
L 266.45153 214.659071 
L 263.445431 216.923234 
L 260.541265 218.648363 
L 259.136473 219.303077 
L 257.767059 219.817571 
L 256.435277 220.19148 
L 255.142862 220.425141 
L 253.891036 220.519576 
L 252.680509 220.476482 
L 251.511487 220.298208 
L 250.38369 219.987729 
L 249.296363 219.548617 
L 248.248301 218.985006 
L 247.237875 218.301551 
L 245.32145 216.596103 
L 243.526667 214.47836 
L 241.828359 211.999898 
L 240.197823 209.216215 
L 237.811051 204.59521 
L 231.969756 192.74402 
L 229.124301 187.640981 
L 227.061069 184.345782 
L 224.85085 181.17888 
L 222.488571 178.170213 
L 219.975796 175.343415 
L 217.321035 172.715717 
L 214.539914 170.297964 
L 211.655194 168.094752 
L 208.696643 166.104676 
L 205.700742 164.320668 
L 201.231892 162.002891 
L 196.94345 160.059639 
L 187.858062 156.073046 
L 186.443636 155.196754 
L 185.485083 154.31339 
L 185.192228 153.861358 
L 185.031057 153.398728 
L 185.006506 152.923034 
L 185.122957 152.432091 
L 185.384192 151.924016 
L 186.352916 150.850614 
L 187.929528 149.694713 
L 190.11915 148.454301 
L 192.914595 147.133789 
L 196.29617 145.744108 
L 200.231896 144.302566 
L 207.076077 142.095521 
L 214.875401 139.926262 
L 220.491304 138.5606 
L 226.350758 137.305353 
L 232.372166 136.201811 
L 238.471719 135.291651 
L 244.565269 134.615786 
L 250.570112 134.213256 
L 256.406615 134.120185 
L 261.999669 134.368819 
L 267.279945 134.986668 
L 269.782969 135.441162 
L 272.184943 135.995751 
L 274.479259 136.652221 
L 276.659832 137.411943 
L 278.721111 138.275853 
L 280.658099 139.244443 
L 282.466358 140.31775 
L 284.142022 141.495342 
L 285.681797 142.776318 
L 287.082972 144.159299 
L 288.343413 145.64242 
L 289.46157 147.223335 
L 290.436467 148.899211 
L 291.267706 150.666735 
L 291.955453 152.522114 
L 292.500435 154.461081 
L 292.903929 156.478905 
L 293.167748 158.570404 
L 293.294233 160.729952 
L 293.286229 162.951501 
L 293.147074 165.228596 
L 292.880579 167.554397 
L 292.491002 169.921704 
L 291.361739 174.750401 
L 289.801393 179.650981 
L 287.857515 184.556012 
L 285.582031 189.395614 
L 283.030052 194.098899 
L 280.258564 198.595545 
L 277.325046 202.817447 
L 274.286035 206.700412 
L 271.195694 210.185812 
L 268.104428 213.222148 
L 265.057609 215.766432 
L 262.094445 217.785341 
L 259.247077 219.25607 
L 257.874757 219.781752 
L 256.539907 220.166853 
L 255.244306 220.411654 
L 253.989215 220.517122 
L 252.775385 220.484902 
L 251.603062 220.317292 
L 250.472003 220.017218 
L 249.381492 219.588205 
L 248.330358 219.034344 
L 247.317004 218.36025 
L 245.395277 216.672214 
L 243.596105 214.569933 
L 241.894485 212.104793 
L 240.261832 209.332168 
L 237.874253 204.723379 
L 231.125973 191.164697 
L 229.203547 187.774353 
L 227.145974 184.474751 
L 224.941747 181.302128 
L 222.585538 178.286666 
L 220.078639 175.452255 
L 217.42928 172.81638 
L 217.42928 172.81638 
" clip-path="url(#p9e6e5ee756)" style="fill: none; stroke-dasharray: 1.3,2.145; stroke-dashoffset: 0; stroke: #008000; stroke-width: 1.3"/>
   </g>
   <g id="line2d_23">
    <path d="M 211.719606 162.503988 
L 208.933734 163.283097 
L 209.672056 165.517288 
" clip-path="url(#p9e6e5ee756)" style="fill: none; stroke: #ff0000; stroke-width: 2; stroke-linecap: square"/>
   </g>
   <g id="line2d_24">
    <path d="M 206.091478 164.012778 
L 208.933734 163.283097 
L 208.140005 161.003936 
" clip-path="url(#p9e6e5ee756)" style="fill: none; stroke: #0000ff; stroke-width: 2; stroke-linecap: square"/>
   </g>
   <g id="line2d_25">
    <path d="M 238.924732 215.471578 
L 238.816432 218.507061 
L 238.402549 220.138824 
L 237.203573 223.462599 
L 236.183447 225.603107 
L 235.362996 226.793747 
L 234.439222 227.60818 
L 233.945246 227.832469 
L 233.434688 227.91902 
L 232.911514 227.861298 
L 232.379605 227.656673 
L 231.842503 227.305589 
L 230.76429 226.178489 
L 229.693849 224.532099 
L 228.638313 222.443379 
L 227.07898 218.657334 
L 224.997596 212.742693 
L 220.342647 199.07861 
L 218.187493 193.489449 
L 215.666949 187.74682 
L 213.753577 183.908945 
L 211.651829 180.136389 
L 209.377427 176.49621 
L 206.959126 173.050097 
L 204.432034 169.844958 
L 201.832855 166.909703 
L 199.199201 164.260298 
L 196.568421 161.90368 
L 193.976333 159.839936 
L 191.456869 158.063388 
L 189.042085 156.563458 
L 185.682783 154.79824 
L 182.731429 153.545913 
L 178.167724 151.810067 
L 177.697951 151.303507 
L 177.642208 150.989799 
L 177.716907 150.618924 
L 178.287276 149.660312 
L 179.458782 148.355351 
L 181.261063 146.675328 
L 183.691217 144.660884 
L 186.711356 142.420861 
L 190.283658 140.068521 
L 194.375145 137.70345 
L 198.942468 135.421697 
L 203.927344 133.315362 
L 209.260036 131.468641 
L 214.866931 129.95408 
L 220.678627 128.829992 
L 223.641721 128.428907 
L 226.633757 128.141311 
L 229.649032 127.970577 
L 232.683248 127.918708 
L 235.733698 127.986134 
L 238.799283 128.171583 
L 244.979261 128.881783 
L 251.243273 129.996137 
L 257.617008 131.419995 
L 267.309006 133.901021 
L 276.690949 136.598465 
L 282.349299 138.488418 
L 287.209148 140.475472 
L 289.272311 141.517208 
L 291.070623 142.598718 
L 292.600787 143.726406 
L 293.86569 144.906081 
L 294.870624 146.142115 
L 295.622756 147.437754 
L 296.131988 148.795786 
L 296.411408 150.219029 
L 296.47684 151.710497 
L 296.345769 153.273317 
L 296.036147 154.910546 
L 295.565383 156.624963 
L 294.20379 160.294275 
L 292.372037 164.293608 
L 290.155419 168.625231 
L 286.235509 175.716871 
L 281.697766 183.397525 
L 278.363168 188.703344 
L 274.828575 193.997559 
L 271.190144 199.108612 
L 265.905641 206.039233 
L 259.469147 214.280454 
L 258.298216 216.084225 
L 257.9725 217.01546 
L 258.080008 217.176848 
L 258.334924 217.145596 
L 259.17575 216.531 
L 260.262611 215.241638 
L 261.3772 213.373482 
L 262.342905 211.026148 
L 263.026775 208.283043 
L 263.230788 206.782463 
L 263.328775 205.203184 
L 263.311768 203.549221 
L 263.172044 201.823855 
L 262.903252 200.030054 
L 262.500644 198.170957 
L 261.961314 196.250225 
L 261.284311 194.27218 
L 259.523357 190.164553 
L 257.252096 185.898215 
L 254.542836 181.542795 
L 251.500695 177.186456 
L 248.245914 172.924335 
L 244.892529 168.844428 
L 241.53298 165.018547 
L 238.231689 161.500191 
L 235.026497 158.324938 
L 231.936058 155.510085 
L 228.965764 153.059306 
L 226.111323 150.967317 
L 223.362615 149.222292 
L 220.707252 147.807806 
L 218.133436 146.704134 
L 215.631895 145.889047 
L 213.196846 145.338183 
L 210.826369 145.024079 
L 208.522583 144.913709 
L 205.207889 145.032055 
L 200.203836 145.369776 
L 198.483138 145.218143 
L 197.711716 145.005648 
L 197.013574 144.676176 
L 196.401301 144.213183 
L 195.888983 143.604657 
L 195.491719 142.845008 
L 195.224665 141.936761 
L 195.101702 140.891307 
L 195.134213 139.727918 
L 195.331014 138.470358 
L 195.699886 137.142232 
L 196.248739 135.76454 
L 196.984911 134.356173 
L 197.913535 132.935054 
L 199.036223 131.518605 
L 200.350596 130.123533 
L 201.850624 128.765329 
L 203.527287 127.457898 
L 205.369242 126.213441 
L 207.363364 125.042521 
L 209.495256 123.954236 
L 211.749951 122.956342 
L 214.112712 122.055318 
L 216.569592 121.256483 
L 219.107689 120.564171 
L 221.715227 119.981882 
L 224.381589 119.512366 
L 227.097543 119.157567 
L 229.855489 118.918472 
L 232.649546 118.794934 
L 238.330481 118.88701 
L 244.120866 119.40092 
L 250.006396 120.265065 
L 255.935971 121.371606 
L 264.607966 123.247052 
L 272.322039 125.138232 
L 276.447791 126.337279 
L 279.405857 127.504864 
L 280.374414 128.104291 
L 280.990825 128.740573 
L 281.269912 129.438909 
L 281.239812 130.2243 
L 280.93153 131.118253 
L 280.371597 132.137899 
L 278.586479 134.604568 
L 265.674607 150.689956 
L 261.687488 156.136605 
L 257.584555 162.049504 
L 253.415308 168.360791 
L 247.124411 178.311489 
L 238.980228 191.325735 
L 235.191727 197.071002 
L 231.695941 201.916497 
L 230.075683 203.929669 
L 228.546295 205.645292 
L 227.109414 207.056365 
L 225.764529 208.165813 
L 224.509147 208.986397 
L 223.339154 209.539383 
L 222.249276 209.852429 
L 221.233562 209.957018 
L 220.285872 209.885718 
L 219.400547 209.668549 
L 218.573132 209.329318 
L 217.080479 208.347075 
L 215.79218 207.022131 
L 214.698103 205.399299 
L 213.789436 203.503692 
L 213.056937 201.347126 
L 212.489288 198.933993 
L 212.071427 196.267372 
L 211.679559 191.809284 
L 211.437815 185.105571 
L 211.200218 177.757532 
L 210.939628 173.980222 
L 210.502979 170.247777 
L 209.842946 166.654502 
L 209.420173 164.93669 
L 209.420173 164.93669 
" clip-path="url(#p9e6e5ee756)" style="fill: none; stroke-dasharray: 3.7,1.6; stroke-dashoffset: 0; stroke: #0000ff"/>
   </g>
   <g id="line2d_26">
    <path d="M 208.802196 162.880578 
L 208.670653 162.478045 
L 208.450003 161.834218 
L 208.128189 160.963343 
L 207.687954 159.886657 
L 207.10662 158.632782 
L 206.35602 157.238078 
L 205.404367 155.746717 
L 204.220896 154.210307 
L 202.781441 152.685627 
L 201.073229 151.229759 
L 199.099816 149.893685 
L 196.887515 148.715906 
L 194.492958 147.717661 
L 192.00979 146.901621 
L 189.571818 146.254721 
L 187.350382 145.751342 
L 185.552255 145.352141 
L 184.424736 144.99305 
L 184.267924 144.568645 
L 185.438165 143.927466 
L 188.315075 142.897941 
L 193.217018 141.345183 
L 200.249722 139.281473 
L 209.301934 136.83227 
L 220.014051 134.283516 
L 231.826476 132.131912 
L 244.168026 130.9848 
L 256.639889 131.301012 
L 268.999008 133.06438 
L 280.935219 135.888114 
" clip-path="url(#p9e6e5ee756)" style="fill: none; stroke: #000000; stroke-width: 1.5; stroke-linecap: square"/>
   </g>
   <g id="Path3DCollection_1">
    <defs>
     <path id="m10f3a15856" d="M 0 2.5 
C 0.663008 2.5 1.29895 2.236584 1.767767 1.767767 
C 2.236584 1.29895 2.5 0.663008 2.5 0 
C 2.5 -0.663008 2.236584 -1.29895 1.767767 -1.767767 
C 1.29895 -2.236584 0.663008 -2.5 0 -2.5 
C -0.663008 -2.5 -1.29895 -2.236584 -1.767767 -1.767767 
C -2.236584 -1.29895 -2.5 -0.663008 -2.5 0 
C -2.5 0.663008 -2.236584 1.29895 -1.767767 1.767767 
C -1.29895 2.236584 -0.663008 2.5 0 2.5 
z
" style="stroke: #ff00ff"/>
    </defs>
    <g clip-path="url(#p9e6e5ee756)">
     <use xlink:href="#m10f3a15856" x="218.770976" y="174.108658" style="fill: #ff00ff; stroke: #ff00ff"/>
    </g>
   </g>
   <g id="text_22">
    <!-- Time = 14.95 s -->
    <g transform="translate(116.4096 54.7776) scale(0.1 -0.1)">
     <defs>
      <path id="DejaVuSans-54" d="M -19 4666 
L 3928 4666 
L 3928 4134 
L 2272 4134 
L 2272 0 
L 1638 0 
L 1638 4134 
L -19 4134 
L -19 4666 
z
" transform="scale(0.015625)"/>
      <path id="DejaVuSans-6d" d="M 3328 2828 
Q 3544 3216 3844 3400 
Q 4144 3584 4550 3584 
Q 5097 3584 5394 3201 
Q 5691 2819 5691 2113 
L 5691 0 
L 5113 0 
L 5113 2094 
Q 5113 2597 4934 2840 
Q 4756 3084 4391 3084 
Q 3944 3084 3684 2787 
Q 3425 2491 3425 1978 
L 3425 0 
L 2847 0 
L 2847 2094 
Q 2847 2600 2669 2842 
Q 2491 3084 2119 3084 
Q 1678 3084 1418 2786 
Q 1159 2488 1159 1978 
L 1159 0 
L 581 0 
L 581 3500 
L 1159 3500 
L 1159 2956 
Q 1356 3278 1631 3431 
Q 1906 3584 2284 3584 
Q 2666 3584 2933 3390 
Q 3200 3197 3328 2828 
z
" transform="scale(0.015625)"/>
      <path id="DejaVuSans-20" transform="scale(0.015625)"/>
      <path id="DejaVuSans-3d" d="M 678 2906 
L 4684 2906 
L 4684 2381 
L 678 2381 
L 678 2906 
z
M 678 1631 
L 4684 1631 
L 4684 1100 
L 678 1100 
L 678 1631 
z
" transform="scale(0.015625)"/>
      <path id="DejaVuSans-2e" d="M 684 794 
L 1344 794 
L 1344 0 
L 684 0 
L 684 794 
z
" transform="scale(0.015625)"/>
      <path id="DejaVuSans-39" d="M 703 97 
L 703 672 
Q 941 559 1184 500 
Q 1428 441 1663 441 
Q 2288 441 2617 861 
Q 2947 1281 2994 2138 
Q 2813 1869 2534 1725 
Q 2256 1581 1919 1581 
Q 1219 1581 811 2004 
Q 403 2428 403 3163 
Q 403 3881 828 4315 
Q 1253 4750 1959 4750 
Q 2769 4750 3195 4129 
Q 3622 3509 3622 2328 
Q 3622 1225 3098 567 
Q 2575 -91 1691 -91 
Q 1453 -91 1209 -44 
Q 966 3 703 97 
z
M 1959 2075 
Q 2384 2075 2632 2365 
Q 2881 2656 2881 3163 
Q 2881 3666 2632 3958 
Q 2384 4250 1959 4250 
Q 1534 4250 1286 3958 
Q 1038 3666 1038 3163 
Q 1038 2656 1286 2365 
Q 1534 2075 1959 2075 
z
" transform="scale(0.015625)"/>
      <path id="DejaVuSans-35" d="M 691 4666 
L 3169 4666 
L 3169 4134 
L 1269 4134 
L 1269 2991 
Q 1406 3038 1543 3061 
Q 1681 3084 1819 3084 
Q 2600 3084 3056 2656 
Q 3513 2228 3513 1497 
Q 3513 744 3044 326 
Q 2575 -91 1722 -91 
Q 1428 -91 1123 -41 
Q 819 9 494 109 
L 494 744 
Q 775 591 1075 516 
Q 1375 441 1709 441 
Q 2250 441 2565 725 
Q 2881 1009 2881 1497 
Q 2881 1984 2565 2268 
Q 2250 2553 1709 2553 
Q 1456 2553 1204 2497 
Q 953 2441 691 2322 
L 691 4666 
z
" transform="scale(0.015625)"/>
      <path id="DejaVuSans-73" d="M 2834 3397 
L 2834 2853 
Q 2591 2978 2328 3040 
Q 2066 3103 1784 3103 
Q 1356 3103 1142 2972 
Q 928 2841 928 2578 
Q 928 2378 1081 2264 
Q 1234 2150 1697 2047 
L 1894 2003 
Q 2506 1872 2764 1633 
Q 3022 1394 3022 966 
Q 3022 478 2636 193 
Q 2250 -91 1575 -91 
Q 1294 -91 989 -36 
Q 684 19 347 128 
L 347 722 
Q 666 556 975 473 
Q 1284 391 1588 391 
Q 1994 391 2212 530 
Q 2431 669 2431 922 
Q 2431 1156 2273 1281 
Q 2116 1406 1581 1522 
L 1381 1569 
Q 847 1681 609 1914 
Q 372 2147 372 2553 
Q 372 3047 722 3315 
Q 1072 3584 1716 3584 
Q 2034 3584 2315 3537 
Q 2597 3491 2834 3397 
z
" transform="scale(0.015625)"/>
     </defs>
     <use xlink:href="#DejaVuSans-54"/>
     <use xlink:href="#DejaVuSans-69" x="57.958984"/>
     <use xlink:href="#DejaVuSans-6d" x="85.742188"/>
     <use xlink:href="#DejaVuSans-65" x="183.154297"/>
     <use xlink:href="#DejaVuSans-20" x="244.677734"/>
     <use xlink:href="#DejaVuSans-3d" x="276.464844"/>
     <use xlink:href="#DejaVuSans-20" x="360.253906"/>
     <use xlink:href="#DejaVuSans-31" x="392.041016"/>
     <use xlink:href="#DejaVuSans-34" x="455.664062"/>
     <use xlink:href="#DejaVuSans-2e" x="519.287109"/>
     <use xlink:href="#DejaVuSans-39" x="551.074219"/>
     <use xlink:href="#DejaVuSans-35" x="614.697266"/>
     <use xlink:href="#DejaVuSans-20" x="678.320312"/>
     <use xlink:href="#DejaVuSans-73" x="710.107422"/>
    </g>
   </g>
   <g id="text_23">
    <!-- fig8 -->
    <g transform="translate(336.901025 54.7776) scale(0.1 -0.1)">
     <defs>
      <path id="DejaVuSans-66" d="M 2375 4863 
L 2375 4384 
L 1825 4384 
Q 1516 4384 1395 4259 
Q 1275 4134 1275 3809 
L 1275 3500 
L 2222 3500 
L 2222 3053 
L 1275 3053 
L 1275 0 
L 697 0 
L 697 3053 
L 147 3053 
L 147 3500 
L 697 3500 
L 697 3744 
Q 697 4328 969 4595 
Q 1241 4863 1831 4863 
L 2375 4863 
z
" transform="scale(0.015625)"/>
      <path id="DejaVuSans-67" d="M 2906 1791 
Q 2906 2416 2648 2759 
Q 2391 3103 1925 3103 
Q 1463 3103 1205 2759 
Q 947 2416 947 1791 
Q 947 1169 1205 825 
Q 1463 481 1925 481 
Q 2391 481 2648 825 
Q 2906 1169 2906 1791 
z
M 3481 434 
Q 3481 -459 3084 -895 
Q 2688 -1331 1869 -1331 
Q 1566 -1331 1297 -1286 
Q 1028 -1241 775 -1147 
L 775 -588 
Q 1028 -725 1275 -790 
Q 1522 -856 1778 -856 
Q 2344 -856 2625 -561 
Q 2906 -266 2906 331 
L 2906 616 
Q 2728 306 2450 153 
Q 2172 0 1784 0 
Q 1141 0 747 490 
Q 353 981 353 1791 
Q 353 2603 747 3093 
Q 1141 3584 1784 3584 
Q 2172 3584 2450 3431 
Q 2728 3278 2906 2969 
L 2906 3500 
L 3481 3500 
L 3481 434 
z
" transform="scale(0.015625)"/>
     </defs>
     <use xlink:href="#DejaVuSans-66"/>
     <use xlink:href="#DejaVuSans-69" x="35.205078"/>
     <use xlink:href="#DejaVuSans-67" x="62.988281"/>
     <use xlink:href="#DejaVuSans-38" x="126.464844"/>
    </g>
   </g>
  </g>
 </g>
 <defs>
  <clipPath id="p9e6e5ee756">
   <rect x="103.104" y="41.472" width="266.112" height="266.112"/>
  </clipPath>
 </defs>
</svg>
