<?xml version="1.0" encoding="utf-8" standalone="no"?>
<!DOCTYPE svg PUBLIC "-//W3C//DTD SVG 1.1//EN"
  "http://www.w3.org/Graphics/SVG/1.1/DTD/svg11.dtd">
<svg xmlns:xlink="http://www.w3.org/1999/xlink" width="460.8pt" height="345.6pt" viewBox="0 0 460.8 345.6" xmlns="http://www.w3.org/2000/svg" version="1.1">
 <metadata>
  <rdf:RDF xmlns:dc="http://purl.org/dc/elements/1.1/" xmlns:cc="http://creativecommons.org/ns#" xmlns:rdf="http://www.w3.org/1999/02/22-rdf-syntax-ns#">
   <cc:Work>
    <dc:type rdf:resource="http://purl.org/dc/dcmitype/StillImage"/>
    <dc:date>2023-11-03T14:39:47.022175</dc:date>
    <dc:format>image/svg+xml</dc:format>
    <dc:creator>
     <cc:Agent>
      <dc:title>Matplotlib v3.8.0, https://matplotlib.org/</dc:title>
     </cc:Agent>
    </dc:creator>
   </cc:Work>
  </rdf:RDF>
 </metadata>
 <defs>
  <style type="text/css">*{stroke-linejoin: round; stroke-linecap: butt}</style>
 </defs>
 <g id="figure_1">
  <g id="patch_1">
   <path d="M 0 345.6 
L 460.8 345.6 
L 460.8 0 
L 0 0 
z
" style="fill: #ffffff"/>
  </g>
  <g id="patch_2">
   <path d="M 103.104 307.584 
L 369.216 307.584 
L 369.216 41.472 
L 103.104 41.472 
z
" style="fill: #ffffff"/>
  </g>
  <g id="pane3d_1">
   <g id="patch_3">
    <path d="M 211.076164 168.307495 
L 123.197291 241.969309 
L 117.770234 129.272941 
L 209.854564 62.073991 
" style="fill: #f2f2f2; opacity: 0.5; stroke: #f2f2f2; stroke-linejoin: miter"/>
   </g>
  </g>
  <g id="pane3d_2">
   <g id="patch_4">
    <path d="M 211.076164 168.307495 
L 352.090401 209.294766 
L 357.122702 99.402171 
L 209.854564 62.073991 
" style="fill: #e6e6e6; opacity: 0.5; stroke: #e6e6e6; stroke-linejoin: miter"/>
   </g>
  </g>
  <g id="pane3d_3">
   <g id="patch_5">
    <path d="M 211.076164 168.307495 
L 352.090401 209.294766 
L 272.679269 290.790123 
L 123.197291 241.969309 
" style="fill: #ececec; opacity: 0.5; stroke: #ececec; stroke-linejoin: miter"/>
   </g>
  </g>
  <g id="grid3d_1">
   <g id="Line3DCollection_1">
    <path d="M 149.450088 250.543472 
L 235.93208 175.532128 
L 235.767716 68.64222 
" style="fill: none; stroke: #b0b0b0; stroke-width: 0.8"/>
    <path d="M 174.508087 258.727415 
L 259.620792 182.417502 
L 260.48196 74.90656 
" style="fill: none; stroke: #b0b0b0; stroke-width: 0.8"/>
    <path d="M 200.020836 267.059879 
L 283.703383 189.41736 
L 285.625103 81.279614 
" style="fill: none; stroke: #b0b0b0; stroke-width: 0.8"/>
    <path d="M 226.00083 275.544945 
L 308.18976 196.534583 
L 311.20841 87.764237 
" style="fill: none; stroke: #b0b0b0; stroke-width: 0.8"/>
    <path d="M 252.461023 284.186843 
L 333.090163 203.772147 
L 337.243541 94.363383 
" style="fill: none; stroke: #b0b0b0; stroke-width: 0.8"/>
   </g>
  </g>
  <g id="grid3d_2">
   <g id="Line3DCollection_2">
    <path d="M 194.211819 73.489354 
L 196.100703 180.860224 
L 338.607422 223.131619 
" style="fill: none; stroke: #b0b0b0; stroke-width: 0.8"/>
    <path d="M 179.047998 84.55522 
L 181.602188 193.013166 
L 325.534541 236.547611 
" style="fill: none; stroke: #b0b0b0; stroke-width: 0.8"/>
    <path d="M 163.419339 95.960303 
L 166.678204 205.522746 
L 312.058136 250.377718 
" style="fill: none; stroke: #b0b0b0; stroke-width: 0.8"/>
    <path d="M 147.304138 107.720443 
L 151.309744 218.404894 
L 298.15923 264.641414 
" style="fill: none; stroke: #b0b0b0; stroke-width: 0.8"/>
    <path d="M 130.679313 119.852483 
L 135.476651 231.676506 
L 283.817639 279.359415 
" style="fill: none; stroke: #b0b0b0; stroke-width: 0.8"/>
   </g>
  </g>
  <g id="grid3d_3">
   <g id="Line3DCollection_3">
    <path d="M 352.743846 195.025198 
L 210.917248 154.487701 
L 122.49362 227.357127 
" style="fill: none; stroke: #b0b0b0; stroke-width: 0.8"/>
    <path d="M 353.587481 176.602359 
L 210.712206 136.656757 
L 121.584685 208.482495 
" style="fill: none; stroke: #b0b0b0; stroke-width: 0.8"/>
    <path d="M 354.443809 157.902339 
L 210.504228 118.570444 
L 120.661549 189.312971 
" style="fill: none; stroke: #b0b0b0; stroke-width: 0.8"/>
    <path d="M 355.313119 138.918833 
L 210.29325 100.223238 
L 119.723876 169.84159 
" style="fill: none; stroke: #b0b0b0; stroke-width: 0.8"/>
    <path d="M 356.195708 119.645347 
L 210.079206 81.609451 
L 118.771321 150.061167 
" style="fill: none; stroke: #b0b0b0; stroke-width: 0.8"/>
   </g>
  </g>
  <g id="axis3d_1">
   <g id="line2d_1">
    <path d="M 123.197291 241.969309 
L 272.679269 290.790123 
" style="fill: none; stroke: #000000; stroke-width: 0.8; stroke-linecap: square"/>
   </g>
   <g id="xtick_1">
    <g id="line2d_2">
     <path d="M 150.203548 249.889948 
L 147.939914 251.853342 
" style="fill: none; stroke: #000000; stroke-width: 0.8; stroke-linecap: square"/>
    </g>
    <g id="text_1">
     <!-- −4 -->
     <g transform="translate(134.567344 273.97157) scale(0.1 -0.1)">
      <defs>
       <path id="DejaVuSans-2212" d="M 678 2272 
L 4684 2272 
L 4684 1741 
L 678 1741 
L 678 2272 
z
" transform="scale(0.015625)"/>
       <path id="DejaVuSans-34" d="M 2419 4116 
L 825 1625 
L 2419 1625 
L 2419 4116 
z
M 2253 4666 
L 3047 4666 
L 3047 1625 
L 3713 1625 
L 3713 1100 
L 3047 1100 
L 3047 0 
L 2419 0 
L 2419 1100 
L 313 1100 
L 313 1709 
L 2253 4666 
z
" transform="scale(0.015625)"/>
      </defs>
      <use xlink:href="#DejaVuSans-2212"/>
      <use xlink:href="#DejaVuSans-34" x="83.789062"/>
     </g>
    </g>
   </g>
   <g id="xtick_2">
    <g id="line2d_3">
     <path d="M 175.250162 258.062089 
L 173.020703 260.060966 
" style="fill: none; stroke: #000000; stroke-width: 0.8; stroke-linecap: square"/>
    </g>
    <g id="text_2">
     <!-- −2 -->
     <g transform="translate(159.652113 282.329283) scale(0.1 -0.1)">
      <defs>
       <path id="DejaVuSans-32" d="M 1228 531 
L 3431 531 
L 3431 0 
L 469 0 
L 469 531 
Q 828 903 1448 1529 
Q 2069 2156 2228 2338 
Q 2531 2678 2651 2914 
Q 2772 3150 2772 3378 
Q 2772 3750 2511 3984 
Q 2250 4219 1831 4219 
Q 1534 4219 1204 4116 
Q 875 4013 500 3803 
L 500 4441 
Q 881 4594 1212 4672 
Q 1544 4750 1819 4750 
Q 2544 4750 2975 4387 
Q 3406 4025 3406 3419 
Q 3406 3131 3298 2873 
Q 3191 2616 2906 2266 
Q 2828 2175 2409 1742 
Q 1991 1309 1228 531 
z
" transform="scale(0.015625)"/>
      </defs>
      <use xlink:href="#DejaVuSans-2212"/>
      <use xlink:href="#DejaVuSans-32" x="83.789062"/>
     </g>
    </g>
   </g>
   <g id="xtick_3">
    <g id="line2d_4">
     <path d="M 200.750988 266.382428 
L 198.557323 268.417759 
" style="fill: none; stroke: #000000; stroke-width: 0.8; stroke-linecap: square"/>
    </g>
    <g id="text_3">
     <!-- 0 -->
     <g transform="translate(189.383698 290.83925) scale(0.1 -0.1)">
      <defs>
       <path id="DejaVuSans-30" d="M 2034 4250 
Q 1547 4250 1301 3770 
Q 1056 3291 1056 2328 
Q 1056 1369 1301 889 
Q 1547 409 2034 409 
Q 2525 409 2770 889 
Q 3016 1369 3016 2328 
Q 3016 3291 2770 3770 
Q 2525 4250 2034 4250 
z
M 2034 4750 
Q 2819 4750 3233 4129 
Q 3647 3509 3647 2328 
Q 3647 1150 3233 529 
Q 2819 -91 2034 -91 
Q 1250 -91 836 529 
Q 422 1150 422 2328 
Q 422 3509 836 4129 
Q 1250 4750 2034 4750 
z
" transform="scale(0.015625)"/>
      </defs>
      <use xlink:href="#DejaVuSans-30"/>
     </g>
    </g>
   </g>
   <g id="xtick_4">
    <g id="line2d_5">
     <path d="M 226.718495 274.855035 
L 224.562317 276.927825 
" style="fill: none; stroke: #000000; stroke-width: 0.8; stroke-linecap: square"/>
    </g>
    <g id="text_4">
     <!-- 2 -->
     <g transform="translate(215.395011 299.505669) scale(0.1 -0.1)">
      <use xlink:href="#DejaVuSans-32"/>
     </g>
    </g>
   </g>
   <g id="xtick_5">
    <g id="line2d_6">
     <path d="M 253.165613 283.484128 
L 251.048688 285.595422 
" style="fill: none; stroke: #000000; stroke-width: 0.8; stroke-linecap: square"/>
    </g>
    <g id="text_5">
     <!-- 4 -->
     <g transform="translate(241.888967 308.332893) scale(0.1 -0.1)">
      <use xlink:href="#DejaVuSans-34"/>
     </g>
    </g>
   </g>
   <g id="text_6">
    <!-- X -->
    <g transform="translate(176.251428 303.76759) scale(0.1 -0.1)">
     <defs>
      <path id="DejaVuSans-58" d="M 403 4666 
L 1081 4666 
L 2241 2931 
L 3406 4666 
L 4084 4666 
L 2584 2425 
L 4184 0 
L 3506 0 
L 2194 1984 
L 872 0 
L 191 0 
L 1856 2491 
L 403 4666 
z
" transform="scale(0.015625)"/>
     </defs>
     <use xlink:href="#DejaVuSans-58"/>
    </g>
   </g>
  </g>
  <g id="axis3d_2">
   <g id="line2d_7">
    <path d="M 352.090401 209.294766 
L 272.679269 290.790123 
" style="fill: none; stroke: #000000; stroke-width: 0.8; stroke-linecap: square"/>
   </g>
   <g id="xtick_6">
    <g id="line2d_8">
     <path d="M 337.410507 222.776581 
L 341.004144 223.842552 
" style="fill: none; stroke: #000000; stroke-width: 0.8; stroke-linecap: square"/>
    </g>
    <g id="text_7">
     <!-- −4 -->
     <g transform="translate(343.304688 243.236924) scale(0.1 -0.1)">
      <use xlink:href="#DejaVuSans-2212"/>
      <use xlink:href="#DejaVuSans-34" x="83.789062"/>
     </g>
    </g>
   </g>
   <g id="xtick_7">
    <g id="line2d_9">
     <path d="M 324.32478 236.181701 
L 327.957032 237.280328 
" style="fill: none; stroke: #000000; stroke-width: 0.8; stroke-linecap: square"/>
    </g>
    <g id="text_8">
     <!-- −2 -->
     <g transform="translate(330.407914 256.850736) scale(0.1 -0.1)">
      <use xlink:href="#DejaVuSans-2212"/>
      <use xlink:href="#DejaVuSans-32" x="83.789062"/>
     </g>
    </g>
   </g>
   <g id="xtick_8">
    <g id="line2d_10">
     <path d="M 310.835299 250.000428 
L 314.506856 251.133236 
" style="fill: none; stroke: #000000; stroke-width: 0.8; stroke-linecap: square"/>
    </g>
    <g id="text_9">
     <!-- 0 -->
     <g transform="translate(321.302666 270.885011) scale(0.1 -0.1)">
      <use xlink:href="#DejaVuSans-30"/>
     </g>
    </g>
   </g>
   <g id="xtick_9">
    <g id="line2d_11">
     <path d="M 296.923086 264.252206 
L 300.634646 265.420815 
" style="fill: none; stroke: #000000; stroke-width: 0.8; stroke-linecap: square"/>
    </g>
    <g id="text_10">
     <!-- 2 -->
     <g transform="translate(307.590514 285.359535) scale(0.1 -0.1)">
      <use xlink:href="#DejaVuSans-32"/>
     </g>
    </g>
   </g>
   <g id="xtick_10">
    <g id="line2d_12">
     <path d="M 282.567953 278.957715 
L 286.320222 280.163849 
" style="fill: none; stroke: #000000; stroke-width: 0.8; stroke-linecap: square"/>
    </g>
    <g id="text_11">
     <!-- 4 -->
     <g transform="translate(293.441365 300.295353) scale(0.1 -0.1)">
      <use xlink:href="#DejaVuSans-34"/>
     </g>
    </g>
   </g>
   <g id="text_12">
    <!-- Y -->
    <g transform="translate(338.078875 278.988697) scale(0.1 -0.1)">
     <defs>
      <path id="DejaVuSans-59" d="M -13 4666 
L 666 4666 
L 1959 2747 
L 3244 4666 
L 3922 4666 
L 2272 2222 
L 2272 0 
L 1638 0 
L 1638 2222 
L -13 4666 
z
" transform="scale(0.015625)"/>
     </defs>
     <use xlink:href="#DejaVuSans-59"/>
    </g>
   </g>
  </g>
  <g id="axis3d_3">
   <g id="line2d_13">
    <path d="M 352.090401 209.294766 
L 357.122702 99.402171 
" style="fill: none; stroke: #000000; stroke-width: 0.8; stroke-linecap: square"/>
   </g>
   <g id="xtick_11">
    <g id="line2d_14">
     <path d="M 351.553206 194.684884 
L 355.127973 195.70664 
" style="fill: none; stroke: #000000; stroke-width: 0.8; stroke-linecap: square"/>
    </g>
    <g id="text_13">
     <!-- 0 -->
     <g transform="translate(367.915096 200.046562) scale(0.1 -0.1)">
      <use xlink:href="#DejaVuSans-30"/>
     </g>
    </g>
   </g>
   <g id="xtick_12">
    <g id="line2d_15">
     <path d="M 352.387616 176.266897 
L 355.990102 177.274093 
" style="fill: none; stroke: #000000; stroke-width: 0.8; stroke-linecap: square"/>
    </g>
    <g id="text_14">
     <!-- 2 -->
     <g transform="translate(368.892783 181.660509) scale(0.1 -0.1)">
      <use xlink:href="#DejaVuSans-32"/>
     </g>
    </g>
   </g>
   <g id="xtick_13">
    <g id="line2d_16">
     <path d="M 353.234576 157.571912 
L 356.865212 158.563994 
" style="fill: none; stroke: #000000; stroke-width: 0.8; stroke-linecap: square"/>
    </g>
    <g id="text_15">
     <!-- 4 -->
     <g transform="translate(369.885135 162.998675) scale(0.1 -0.1)">
      <use xlink:href="#DejaVuSans-34"/>
     </g>
    </g>
   </g>
   <g id="xtick_14">
    <g id="line2d_17">
     <path d="M 354.094369 138.593634 
L 357.7536 139.570025 
" style="fill: none; stroke: #000000; stroke-width: 0.8; stroke-linecap: square"/>
    </g>
    <g id="text_16">
     <!-- 6 -->
     <g transform="translate(370.892484 144.054807) scale(0.1 -0.1)">
      <defs>
       <path id="DejaVuSans-36" d="M 2113 2584 
Q 1688 2584 1439 2293 
Q 1191 2003 1191 1497 
Q 1191 994 1439 701 
Q 1688 409 2113 409 
Q 2538 409 2786 701 
Q 3034 994 3034 1497 
Q 3034 2003 2786 2293 
Q 2538 2584 2113 2584 
z
M 3366 4563 
L 3366 3988 
Q 3128 4100 2886 4159 
Q 2644 4219 2406 4219 
Q 1781 4219 1451 3797 
Q 1122 3375 1075 2522 
Q 1259 2794 1537 2939 
Q 1816 3084 2150 3084 
Q 2853 3084 3261 2657 
Q 3669 2231 3669 1497 
Q 3669 778 3244 343 
Q 2819 -91 2113 -91 
Q 1303 -91 875 529 
Q 447 1150 447 2328 
Q 447 3434 972 4092 
Q 1497 4750 2381 4750 
Q 2619 4750 2861 4703 
Q 3103 4656 3366 4563 
z
" transform="scale(0.015625)"/>
      </defs>
      <use xlink:href="#DejaVuSans-36"/>
     </g>
    </g>
   </g>
   <g id="xtick_15">
    <g id="line2d_18">
     <path d="M 354.967291 119.325575 
L 358.655569 120.285678 
" style="fill: none; stroke: #000000; stroke-width: 0.8; stroke-linecap: square"/>
    </g>
    <g id="text_17">
     <!-- 8 -->
     <g transform="translate(371.915172 124.822463) scale(0.1 -0.1)">
      <defs>
       <path id="DejaVuSans-38" d="M 2034 2216 
Q 1584 2216 1326 1975 
Q 1069 1734 1069 1313 
Q 1069 891 1326 650 
Q 1584 409 2034 409 
Q 2484 409 2743 651 
Q 3003 894 3003 1313 
Q 3003 1734 2745 1975 
Q 2488 2216 2034 2216 
z
M 1403 2484 
Q 997 2584 770 2862 
Q 544 3141 544 3541 
Q 544 4100 942 4425 
Q 1341 4750 2034 4750 
Q 2731 4750 3128 4425 
Q 3525 4100 3525 3541 
Q 3525 3141 3298 2862 
Q 3072 2584 2669 2484 
Q 3125 2378 3379 2068 
Q 3634 1759 3634 1313 
Q 3634 634 3220 271 
Q 2806 -91 2034 -91 
Q 1263 -91 848 271 
Q 434 634 434 1313 
Q 434 1759 690 2068 
Q 947 2378 1403 2484 
z
M 1172 3481 
Q 1172 3119 1398 2916 
Q 1625 2713 2034 2713 
Q 2441 2713 2670 2916 
Q 2900 3119 2900 3481 
Q 2900 3844 2670 4047 
Q 2441 4250 2034 4250 
Q 1625 4250 1398 4047 
Q 1172 3844 1172 3481 
z
" transform="scale(0.015625)"/>
      </defs>
      <use xlink:href="#DejaVuSans-38"/>
     </g>
    </g>
   </g>
   <g id="text_18">
    <!-- Altitude -->
    <g transform="translate(396.789938 169.786959) rotate(-87.378092) scale(0.1 -0.1)">
     <defs>
      <path id="DejaVuSans-41" d="M 2188 4044 
L 1331 1722 
L 3047 1722 
L 2188 4044 
z
M 1831 4666 
L 2547 4666 
L 4325 0 
L 3669 0 
L 3244 1197 
L 1141 1197 
L 716 0 
L 50 0 
L 1831 4666 
z
" transform="scale(0.015625)"/>
      <path id="DejaVuSans-6c" d="M 603 4863 
L 1178 4863 
L 1178 0 
L 603 0 
L 603 4863 
z
" transform="scale(0.015625)"/>
      <path id="DejaVuSans-74" d="M 1172 4494 
L 1172 3500 
L 2356 3500 
L 2356 3053 
L 1172 3053 
L 1172 1153 
Q 1172 725 1289 603 
Q 1406 481 1766 481 
L 2356 481 
L 2356 0 
L 1766 0 
Q 1100 0 847 248 
Q 594 497 594 1153 
L 594 3053 
L 172 3053 
L 172 3500 
L 594 3500 
L 594 4494 
L 1172 4494 
z
" transform="scale(0.015625)"/>
      <path id="DejaVuSans-69" d="M 603 3500 
L 1178 3500 
L 1178 0 
L 603 0 
L 603 3500 
z
M 603 4863 
L 1178 4863 
L 1178 4134 
L 603 4134 
L 603 4863 
z
" transform="scale(0.015625)"/>
      <path id="DejaVuSans-75" d="M 544 1381 
L 544 3500 
L 1119 3500 
L 1119 1403 
Q 1119 906 1312 657 
Q 1506 409 1894 409 
Q 2359 409 2629 706 
Q 2900 1003 2900 1516 
L 2900 3500 
L 3475 3500 
L 3475 0 
L 2900 0 
L 2900 538 
Q 2691 219 2414 64 
Q 2138 -91 1772 -91 
Q 1169 -91 856 284 
Q 544 659 544 1381 
z
M 1991 3584 
L 1991 3584 
z
" transform="scale(0.015625)"/>
      <path id="DejaVuSans-64" d="M 2906 2969 
L 2906 4863 
L 3481 4863 
L 3481 0 
L 2906 0 
L 2906 525 
Q 2725 213 2448 61 
Q 2172 -91 1784 -91 
Q 1150 -91 751 415 
Q 353 922 353 1747 
Q 353 2572 751 3078 
Q 1150 3584 1784 3584 
Q 2172 3584 2448 3432 
Q 2725 3281 2906 2969 
z
M 947 1747 
Q 947 1113 1208 752 
Q 1469 391 1925 391 
Q 2381 391 2643 752 
Q 2906 1113 2906 1747 
Q 2906 2381 2643 2742 
Q 2381 3103 1925 3103 
Q 1469 3103 1208 2742 
Q 947 2381 947 1747 
z
" transform="scale(0.015625)"/>
      <path id="DejaVuSans-65" d="M 3597 1894 
L 3597 1613 
L 953 1613 
Q 991 1019 1311 708 
Q 1631 397 2203 397 
Q 2534 397 2845 478 
Q 3156 559 3463 722 
L 3463 178 
Q 3153 47 2828 -22 
Q 2503 -91 2169 -91 
Q 1331 -91 842 396 
Q 353 884 353 1716 
Q 353 2575 817 3079 
Q 1281 3584 2069 3584 
Q 2775 3584 3186 3129 
Q 3597 2675 3597 1894 
z
M 3022 2063 
Q 3016 2534 2758 2815 
Q 2500 3097 2075 3097 
Q 1594 3097 1305 2825 
Q 1016 2553 972 2059 
L 3022 2063 
z
" transform="scale(0.015625)"/>
     </defs>
     <use xlink:href="#DejaVuSans-41"/>
     <use xlink:href="#DejaVuSans-6c" x="68.408203"/>
     <use xlink:href="#DejaVuSans-74" x="96.191406"/>
     <use xlink:href="#DejaVuSans-69" x="135.400391"/>
     <use xlink:href="#DejaVuSans-74" x="163.183594"/>
     <use xlink:href="#DejaVuSans-75" x="202.392578"/>
     <use xlink:href="#DejaVuSans-64" x="265.771484"/>
     <use xlink:href="#DejaVuSans-65" x="329.248047"/>
    </g>
   </g>
  </g>
  <g id="axes_1">
   <g id="line2d_19">
    <path d="M 293.792515 181.862282 
L 291.940195 185.762111 
L 289.918 189.582068 
L 287.751626 193.290037 
L 285.467117 196.854461 
L 283.090497 200.244782 
L 280.647394 203.431865 
L 278.162693 206.388456 
L 275.660145 209.089566 
L 273.162056 211.512878 
L 270.68893 213.639085 
L 268.259215 215.452186 
L 265.889027 216.939727 
L 263.591961 218.092973 
L 261.378933 218.907013 
L 259.258089 219.3808 
L 257.234757 219.517096 
L 255.311481 219.32237 
L 253.488069 218.806615 
L 251.76175 217.983111 
L 250.127337 216.86813 
L 248.577441 215.4806 
L 247.102741 213.841742 
L 245.692255 211.974656 
L 244.333659 209.903938 
L 241.718037 205.254956 
L 237.834227 197.409669 
L 235.107978 191.900361 
L 232.156603 186.390375 
L 228.904357 181.044472 
L 227.149249 178.476657 
L 225.303501 175.998196 
L 223.366332 173.620907 
L 221.33927 171.354487 
L 219.226172 169.206437 
L 217.033328 167.18215 
L 214.769412 165.284872 
L 212.445546 163.51581 
L 210.075185 161.87416 
L 205.260243 158.960506 
L 200.47622 156.501553 
L 195.904637 154.430679 
L 188.228289 151.099294 
L 185.558853 149.638829 
L 184.608796 148.915854 
L 183.947168 148.18223 
L 183.595407 147.427532 
L 183.57239 146.642593 
L 183.894033 145.819735 
L 184.5729 144.952957 
L 185.617875 144.038159 
L 187.033925 143.073241 
L 188.821853 142.058246 
L 190.978215 140.995384 
L 196.360871 138.746057 
L 203.069196 136.386543 
L 210.927422 134.009951 
L 219.706279 131.735602 
L 229.135873 129.701625 
L 234.002909 128.820916 
L 238.920638 128.056137 
L 243.850793 127.4258 
L 248.75533 126.947949 
L 253.596981 126.639779 
L 258.339777 126.517463 
L 262.949177 126.595851 
L 267.392515 126.888286 
L 271.639356 127.406391 
L 275.661658 128.159911 
L 279.433918 129.156527 
L 282.93344 130.401714 
L 286.140399 131.89863 
L 289.038057 133.648082 
L 291.612662 135.648333 
L 293.853575 137.895084 
L 295.753354 140.381505 
L 297.307603 143.09812 
L 298.51504 146.032854 
L 299.377414 149.171029 
L 299.899468 152.495531 
L 300.088773 155.986738 
L 299.955689 159.622687 
L 299.513165 163.379331 
L 298.776621 167.230544 
L 297.763734 171.148447 
L 296.494231 175.1036 
L 294.989635 179.065434 
L 293.273013 183.002368 
L 291.368702 186.882281 
L 289.301916 190.672985 
L 287.098505 194.34245 
L 284.784557 197.859334 
L 282.385988 201.193509 
L 279.928264 204.31631 
L 277.435976 207.2011 
L 274.932516 209.823608 
L 272.439648 212.162403 
L 269.977336 214.199087 
L 267.563385 215.918654 
L 265.213164 217.309746 
L 262.939521 218.364719 
L 260.752572 219.079782 
L 258.659664 219.455001 
L 256.665275 219.494237 
L 254.771164 219.205 
L 252.976384 218.598273 
L 251.277418 217.688229 
L 249.668423 216.491952 
L 248.141426 215.029075 
L 246.686598 213.321418 
L 245.292516 211.392539 
L 243.946535 209.267397 
L 241.343933 204.532521 
L 231.704011 185.599542 
L 228.403341 180.289549 
L 226.622087 177.746356 
L 224.749738 175.296178 
L 222.786171 172.950213 
L 220.733586 170.717519 
L 218.596548 168.604989 
L 216.382068 166.617408 
L 214.099472 164.757369 
L 211.760586 163.025509 
L 209.37956 161.42047 
L 204.55891 158.576165 
L 199.793891 156.178284 
L 193.162025 153.260863 
L 187.782281 150.883056 
L 185.254271 149.42909 
L 184.385722 148.70416 
L 183.812069 147.965431 
L 183.554054 147.202824 
L 183.629739 146.407583 
L 184.054089 145.572501 
L 184.054089 145.572501 
" clip-path="url(#p1237000f44)" style="fill: none; stroke-dasharray: 1.3,2.145; stroke-dashoffset: 0; stroke: #008000; stroke-width: 1.3"/>
   </g>
   <g id="line2d_20">
    <path d="M 166.827544 160.502932 
L 163.493652 160.912328 
L 163.938082 163.324168 
" clip-path="url(#p1237000f44)" style="fill: none; stroke: #ff0000; stroke-width: 2; stroke-linecap: square"/>
   </g>
   <g id="line2d_21">
    <path d="M 160.158397 161.218351 
L 163.493652 160.912328 
L 163.051031 158.403581 
" clip-path="url(#p1237000f44)" style="fill: none; stroke: #0000ff; stroke-width: 2; stroke-linecap: square"/>
   </g>
   <g id="line2d_22">
    <path d="M 241.483207 214.125945 
L 241.523515 213.951642 
L 241.413812 215.096721 
L 240.755271 217.15818 
L 240.061356 218.572978 
L 239.029578 220.190815 
L 237.549207 221.899996 
L 233.77084 225.621028 
L 223.499463 234.802705 
L 221.796023 236.198173 
L 220.319706 237.258649 
L 219.106456 237.90552 
L 218.189664 238.059677 
L 217.593854 237.66822 
L 217.338106 236.688671 
L 217.415321 235.11496 
L 217.774317 232.993258 
L 219.169656 227.249091 
L 221.338795 219.77819 
L 225.739269 206.011741 
L 228.967262 195.669155 
L 230.445795 190.297065 
L 231.755204 184.897628 
L 232.85875 179.566448 
L 233.718149 174.371637 
L 234.302978 169.391221 
L 234.603876 164.68197 
L 234.633556 160.276596 
L 234.418834 156.19276 
L 233.985613 152.43574 
L 233.358428 149.005263 
L 232.563496 145.899712 
L 231.623027 143.115804 
L 230.549982 140.647966 
L 229.353031 138.489995 
L 228.040601 136.636248 
L 226.621449 135.08171 
L 225.10797 133.822742 
L 223.516093 132.855625 
L 221.86528 132.175355 
L 220.182045 131.775565 
L 218.499271 131.648145 
L 216.84729 131.784483 
L 215.231617 132.17962 
L 213.625677 132.827819 
L 211.989552 133.718951 
L 210.289769 134.841964 
L 208.504674 136.185959 
L 204.665919 139.493173 
L 202.680463 141.424249 
L 200.754761 143.478613 
L 198.973865 145.55168 
L 197.376854 147.614484 
L 195.967647 149.701704 
L 194.745965 151.833429 
L 193.705628 154.039031 
L 192.841839 156.339523 
L 192.154664 158.739496 
L 191.653037 161.224683 
L 191.346528 163.778211 
L 191.238741 166.391613 
L 191.330278 169.060704 
L 191.625025 171.775892 
L 192.126507 174.527575 
L 192.834644 177.310778 
L 193.745347 180.125857 
L 194.856819 182.969285 
L 196.177173 185.823572 
L 197.713555 188.67363 
L 199.471634 191.507257 
L 201.465037 194.302303 
L 203.725406 197.014361 
L 206.291837 199.592787 
L 209.217248 201.976142 
L 212.544451 204.125969 
L 216.286392 206.048663 
L 220.4446 207.769101 
L 225.031651 209.307965 
L 230.101896 210.662296 
L 235.609899 211.890192 
L 258.321193 216.395192 
L 263.439819 217.700383 
L 268.177092 219.161947 
L 272.467072 220.78177 
L 276.241266 222.546163 
L 279.434955 224.427178 
L 281.988645 226.382267 
L 283.874117 228.373958 
L 285.079109 230.375012 
L 285.599927 232.366724 
L 285.436087 234.333464 
L 284.628544 236.262645 
L 283.239799 238.109931 
L 281.36385 239.790726 
L 279.159823 241.22437 
L 276.823447 242.386856 
L 274.515477 243.266586 
L 272.359846 243.794154 
L 270.449265 243.982528 
L 268.866119 243.823305 
L 267.497688 243.485224 
L 266.173176 242.904537 
L 264.78625 242.023668 
L 261.564134 239.442224 
L 257.300711 235.912041 
L 254.820954 233.729645 
L 252.223307 231.242157 
L 249.574564 228.451149 
L 246.927056 225.36123 
L 244.324168 221.979713 
L 241.80147 218.317882 
L 239.387278 214.393383 
L 237.103366 210.237344 
L 234.964717 205.887971 
L 232.97861 201.391981 
L 231.149715 196.805293 
L 229.485097 192.176292 
L 227.994354 187.546542 
L 223.103485 170.747843 
L 221.848974 167.259377 
L 220.471754 164.074446 
L 218.932514 161.188185 
L 217.204973 158.594511 
L 215.292867 156.293392 
L 213.218104 154.2872 
L 210.991459 152.57532 
L 208.625657 151.15725 
L 206.133813 150.031397 
L 203.524821 149.193362 
L 200.81225 148.638096 
L 198.008887 148.361078 
L 195.111763 148.353276 
L 192.121964 148.604887 
L 189.049659 149.106786 
L 185.910194 149.850202 
L 182.720937 150.826537 
L 179.498858 152.027318 
L 176.258832 153.444056 
L 173.014473 155.067786 
L 169.782179 156.882584 
L 166.589243 158.856708 
L 166.589243 158.856708 
" clip-path="url(#p1237000f44)" style="fill: none; stroke-dasharray: 3.7,1.6; stroke-dashoffset: 0; stroke: #0000ff"/>
   </g>
   <g id="Path3DCollection_1">
    <defs>
     <path id="mea9ee16d48" d="M 0 2.5 
C 0.663008 2.5 1.29895 2.236584 1.767767 1.767767 
C 2.236584 1.29895 2.5 0.663008 2.5 0 
C 2.5 -0.663008 2.236584 -1.29895 1.767767 -1.767767 
C 1.29895 -2.236584 0.663008 -2.5 0 -2.5 
C -0.663008 -2.5 -1.29895 -2.236584 -1.767767 -1.767767 
C -2.236584 -1.29895 -2.5 -0.663008 -2.5 0 
C -2.5 0.663008 -2.236584 1.29895 -1.767767 1.767767 
C -1.29895 2.236584 -0.663008 2.5 0 2.5 
z
" style="stroke: #ff00ff"/>
    </defs>
    <g clip-path="url(#p1237000f44)">
     <use xlink:href="#mea9ee16d48" x="183.629739" y="146.407583" style="fill: #ff00ff; stroke: #ff00ff"/>
    </g>
   </g>
   <g id="text_19">
    <!-- Time = 9.90 s -->
    <g transform="translate(116.4096 54.7776) scale(0.1 -0.1)">
     <defs>
      <path id="DejaVuSans-54" d="M -19 4666 
L 3928 4666 
L 3928 4134 
L 2272 4134 
L 2272 0 
L 1638 0 
L 1638 4134 
L -19 4134 
L -19 4666 
z
" transform="scale(0.015625)"/>
      <path id="DejaVuSans-6d" d="M 3328 2828 
Q 3544 3216 3844 3400 
Q 4144 3584 4550 3584 
Q 5097 3584 5394 3201 
Q 5691 2819 5691 2113 
L 5691 0 
L 5113 0 
L 5113 2094 
Q 5113 2597 4934 2840 
Q 4756 3084 4391 3084 
Q 3944 3084 3684 2787 
Q 3425 2491 3425 1978 
L 3425 0 
L 2847 0 
L 2847 2094 
Q 2847 2600 2669 2842 
Q 2491 3084 2119 3084 
Q 1678 3084 1418 2786 
Q 1159 2488 1159 1978 
L 1159 0 
L 581 0 
L 581 3500 
L 1159 3500 
L 1159 2956 
Q 1356 3278 1631 3431 
Q 1906 3584 2284 3584 
Q 2666 3584 2933 3390 
Q 3200 3197 3328 2828 
z
" transform="scale(0.015625)"/>
      <path id="DejaVuSans-20" transform="scale(0.015625)"/>
      <path id="DejaVuSans-3d" d="M 678 2906 
L 4684 2906 
L 4684 2381 
L 678 2381 
L 678 2906 
z
M 678 1631 
L 4684 1631 
L 4684 1100 
L 678 1100 
L 678 1631 
z
" transform="scale(0.015625)"/>
      <path id="DejaVuSans-39" d="M 703 97 
L 703 672 
Q 941 559 1184 500 
Q 1428 441 1663 441 
Q 2288 441 2617 861 
Q 2947 1281 2994 2138 
Q 2813 1869 2534 1725 
Q 2256 1581 1919 1581 
Q 1219 1581 811 2004 
Q 403 2428 403 3163 
Q 403 3881 828 4315 
Q 1253 4750 1959 4750 
Q 2769 4750 3195 4129 
Q 3622 3509 3622 2328 
Q 3622 1225 3098 567 
Q 2575 -91 1691 -91 
Q 1453 -91 1209 -44 
Q 966 3 703 97 
z
M 1959 2075 
Q 2384 2075 2632 2365 
Q 2881 2656 2881 3163 
Q 2881 3666 2632 3958 
Q 2384 4250 1959 4250 
Q 1534 4250 1286 3958 
Q 1038 3666 1038 3163 
Q 1038 2656 1286 2365 
Q 1534 2075 1959 2075 
z
" transform="scale(0.015625)"/>
      <path id="DejaVuSans-2e" d="M 684 794 
L 1344 794 
L 1344 0 
L 684 0 
L 684 794 
z
" transform="scale(0.015625)"/>
      <path id="DejaVuSans-73" d="M 2834 3397 
L 2834 2853 
Q 2591 2978 2328 3040 
Q 2066 3103 1784 3103 
Q 1356 3103 1142 2972 
Q 928 2841 928 2578 
Q 928 2378 1081 2264 
Q 1234 2150 1697 2047 
L 1894 2003 
Q 2506 1872 2764 1633 
Q 3022 1394 3022 966 
Q 3022 478 2636 193 
Q 2250 -91 1575 -91 
Q 1294 -91 989 -36 
Q 684 19 347 128 
L 347 722 
Q 666 556 975 473 
Q 1284 391 1588 391 
Q 1994 391 2212 530 
Q 2431 669 2431 922 
Q 2431 1156 2273 1281 
Q 2116 1406 1581 1522 
L 1381 1569 
Q 847 1681 609 1914 
Q 372 2147 372 2553 
Q 372 3047 722 3315 
Q 1072 3584 1716 3584 
Q 2034 3584 2315 3537 
Q 2597 3491 2834 3397 
z
" transform="scale(0.015625)"/>
     </defs>
     <use xlink:href="#DejaVuSans-54"/>
     <use xlink:href="#DejaVuSans-69" x="57.958984"/>
     <use xlink:href="#DejaVuSans-6d" x="85.742188"/>
     <use xlink:href="#DejaVuSans-65" x="183.154297"/>
     <use xlink:href="#DejaVuSans-20" x="244.677734"/>
     <use xlink:href="#DejaVuSans-3d" x="276.464844"/>
     <use xlink:href="#DejaVuSans-20" x="360.253906"/>
     <use xlink:href="#DejaVuSans-39" x="392.041016"/>
     <use xlink:href="#DejaVuSans-2e" x="455.664062"/>
     <use xlink:href="#DejaVuSans-39" x="487.451172"/>
     <use xlink:href="#DejaVuSans-30" x="551.074219"/>
     <use xlink:href="#DejaVuSans-20" x="614.697266"/>
     <use xlink:href="#DejaVuSans-73" x="646.484375"/>
    </g>
   </g>
   <g id="text_20">
    <!-- fig8 -->
    <g transform="translate(336.901025 54.7776) scale(0.1 -0.1)">
     <defs>
      <path id="DejaVuSans-66" d="M 2375 4863 
L 2375 4384 
L 1825 4384 
Q 1516 4384 1395 4259 
Q 1275 4134 1275 3809 
L 1275 3500 
L 2222 3500 
L 2222 3053 
L 1275 3053 
L 1275 0 
L 697 0 
L 697 3053 
L 147 3053 
L 147 3500 
L 697 3500 
L 697 3744 
Q 697 4328 969 4595 
Q 1241 4863 1831 4863 
L 2375 4863 
z
" transform="scale(0.015625)"/>
      <path id="DejaVuSans-67" d="M 2906 1791 
Q 2906 2416 2648 2759 
Q 2391 3103 1925 3103 
Q 1463 3103 1205 2759 
Q 947 2416 947 1791 
Q 947 1169 1205 825 
Q 1463 481 1925 481 
Q 2391 481 2648 825 
Q 2906 1169 2906 1791 
z
M 3481 434 
Q 3481 -459 3084 -895 
Q 2688 -1331 1869 -1331 
Q 1566 -1331 1297 -1286 
Q 1028 -1241 775 -1147 
L 775 -588 
Q 1028 -725 1275 -790 
Q 1522 -856 1778 -856 
Q 2344 -856 2625 -561 
Q 2906 -266 2906 331 
L 2906 616 
Q 2728 306 2450 153 
Q 2172 0 1784 0 
Q 1141 0 747 490 
Q 353 981 353 1791 
Q 353 2603 747 3093 
Q 1141 3584 1784 3584 
Q 2172 3584 2450 3431 
Q 2728 3278 2906 2969 
L 2906 3500 
L 3481 3500 
L 3481 434 
z
" transform="scale(0.015625)"/>
     </defs>
     <use xlink:href="#DejaVuSans-66"/>
     <use xlink:href="#DejaVuSans-69" x="35.205078"/>
     <use xlink:href="#DejaVuSans-67" x="62.988281"/>
     <use xlink:href="#DejaVuSans-38" x="126.464844"/>
    </g>
   </g>
  </g>
 </g>
 <defs>
  <clipPath id="p1237000f44">
   <rect x="103.104" y="41.472" width="266.112" height="266.112"/>
  </clipPath>
 </defs>
</svg>
