<?xml version="1.0" encoding="utf-8" standalone="no"?>
<!DOCTYPE svg PUBLIC "-//W3C//DTD SVG 1.1//EN"
  "http://www.w3.org/Graphics/SVG/1.1/DTD/svg11.dtd">
<svg xmlns:xlink="http://www.w3.org/1999/xlink" width="460.8pt" height="345.6pt" viewBox="0 0 460.8 345.6" xmlns="http://www.w3.org/2000/svg" version="1.1">
 <metadata>
  <rdf:RDF xmlns:dc="http://purl.org/dc/elements/1.1/" xmlns:cc="http://creativecommons.org/ns#" xmlns:rdf="http://www.w3.org/1999/02/22-rdf-syntax-ns#">
   <cc:Work>
    <dc:type rdf:resource="http://purl.org/dc/dcmitype/StillImage"/>
    <dc:date>2023-11-04T13:01:38.316289</dc:date>
    <dc:format>image/svg+xml</dc:format>
    <dc:creator>
     <cc:Agent>
      <dc:title>Matplotlib v3.8.0, https://matplotlib.org/</dc:title>
     </cc:Agent>
    </dc:creator>
   </cc:Work>
  </rdf:RDF>
 </metadata>
 <defs>
  <style type="text/css">*{stroke-linejoin: round; stroke-linecap: butt}</style>
 </defs>
 <g id="figure_1">
  <g id="patch_1">
   <path d="M 0 345.6 
L 460.8 345.6 
L 460.8 0 
L 0 0 
z
" style="fill: #ffffff"/>
  </g>
  <g id="patch_2">
   <path d="M 103.104 307.584 
L 369.216 307.584 
L 369.216 41.472 
L 103.104 41.472 
z
" style="fill: #ffffff"/>
  </g>
  <g id="pane3d_1">
   <g id="patch_3">
    <path d="M 211.076164 168.307495 
L 123.197291 241.969309 
L 117.770234 129.272941 
L 209.854564 62.073991 
" style="fill: #f2f2f2; opacity: 0.5; stroke: #f2f2f2; stroke-linejoin: miter"/>
   </g>
  </g>
  <g id="pane3d_2">
   <g id="patch_4">
    <path d="M 211.076164 168.307495 
L 352.090401 209.294766 
L 357.122702 99.402171 
L 209.854564 62.073991 
" style="fill: #e6e6e6; opacity: 0.5; stroke: #e6e6e6; stroke-linejoin: miter"/>
   </g>
  </g>
  <g id="pane3d_3">
   <g id="patch_5">
    <path d="M 211.076164 168.307495 
L 352.090401 209.294766 
L 272.679269 290.790123 
L 123.197291 241.969309 
" style="fill: #ececec; opacity: 0.5; stroke: #ececec; stroke-linejoin: miter"/>
   </g>
  </g>
  <g id="grid3d_1">
   <g id="Line3DCollection_1">
    <path d="M 144.6854 248.987325 
L 231.423784 174.221744 
L 231.06623 67.45053 
" style="fill: none; stroke: #b0b0b0; stroke-width: 0.8"/>
    <path d="M 171.915892 257.880804 
L 257.171874 181.705698 
L 257.926211 74.258752 
" style="fill: none; stroke: #b0b0b0; stroke-width: 0.8"/>
    <path d="M 199.684758 266.950116 
L 283.38638 189.32522 
L 285.294023 81.195695 
" style="fill: none; stroke: #b0b0b0; stroke-width: 0.8"/>
    <path d="M 228.008125 276.200527 
L 310.080091 197.084028 
L 313.184204 88.265043 
" style="fill: none; stroke: #b0b0b0; stroke-width: 0.8"/>
    <path d="M 256.902769 285.637518 
L 337.266267 204.985976 
L 341.611855 95.470623 
" style="fill: none; stroke: #b0b0b0; stroke-width: 0.8"/>
   </g>
  </g>
  <g id="grid3d_2">
   <g id="Line3DCollection_2">
    <path d="M 198.080645 70.666061 
L 199.802693 177.757142 
L 341.942349 219.709163 
" style="fill: none; stroke: #b0b0b0; stroke-width: 0.8"/>
    <path d="M 181.664552 82.645778 
L 184.102647 190.917232 
L 327.790489 234.232454 
" style="fill: none; stroke: #b0b0b0; stroke-width: 0.8"/>
    <path d="M 164.700842 95.02512 
L 167.901202 204.497605 
L 313.163267 249.243581 
" style="fill: none; stroke: #b0b0b0; stroke-width: 0.8"/>
    <path d="M 147.161649 107.824425 
L 151.173949 218.518719 
L 298.036325 264.767545 
" style="fill: none; stroke: #b0b0b0; stroke-width: 0.8"/>
    <path d="M 129.017184 121.065429 
L 133.89487 233.002386 
L 282.383608 280.831083 
" style="fill: none; stroke: #b0b0b0; stroke-width: 0.8"/>
   </g>
  </g>
  <g id="grid3d_3">
   <g id="Line3DCollection_3">
    <path d="M 352.496574 200.424971 
L 210.977374 159.716382 
L 122.759934 232.887302 
" style="fill: none; stroke: #b0b0b0; stroke-width: 0.8"/>
    <path d="M 353.412346 180.426846 
L 210.75476 140.357331 
L 121.773417 212.401649 
" style="fill: none; stroke: #b0b0b0; stroke-width: 0.8"/>
    <path d="M 354.343118 160.101177 
L 210.528675 120.696446 
L 120.770123 191.567587 
" style="fill: none; stroke: #b0b0b0; stroke-width: 0.8"/>
    <path d="M 355.28926 139.439851 
L 210.299038 100.726614 
L 119.749618 170.37615 
" style="fill: none; stroke: #b0b0b0; stroke-width: 0.8"/>
    <path d="M 356.251157 118.434484 
L 210.065764 80.440494 
L 118.711457 148.818065 
" style="fill: none; stroke: #b0b0b0; stroke-width: 0.8"/>
   </g>
  </g>
  <g id="axis3d_1">
   <g id="line2d_1">
    <path d="M 123.197291 241.969309 
L 272.679269 290.790123 
" style="fill: none; stroke: #000000; stroke-width: 0.8; stroke-linecap: square"/>
   </g>
   <g id="xtick_1">
    <g id="line2d_2">
     <path d="M 145.440989 248.336033 
L 143.170967 250.292717 
" style="fill: none; stroke: #000000; stroke-width: 0.8; stroke-linecap: square"/>
    </g>
    <g id="text_1">
     <!-- −4 -->
     <g transform="translate(129.797756 272.382444) scale(0.1 -0.1)">
      <defs>
       <path id="DejaVuSans-2212" d="M 678 2272 
L 4684 2272 
L 4684 1741 
L 678 1741 
L 678 2272 
z
" transform="scale(0.015625)"/>
       <path id="DejaVuSans-34" d="M 2419 4116 
L 825 1625 
L 2419 1625 
L 2419 4116 
z
M 2253 4666 
L 3047 4666 
L 3047 1625 
L 3713 1625 
L 3713 1100 
L 3047 1100 
L 3047 0 
L 2419 0 
L 2419 1100 
L 313 1100 
L 313 1709 
L 2253 4666 
z
" transform="scale(0.015625)"/>
      </defs>
      <use xlink:href="#DejaVuSans-2212"/>
      <use xlink:href="#DejaVuSans-34" x="83.789062"/>
     </g>
    </g>
   </g>
   <g id="xtick_2">
    <g id="line2d_3">
     <path d="M 172.65916 257.216704 
L 170.42612 259.211895 
" style="fill: none; stroke: #000000; stroke-width: 0.8; stroke-linecap: square"/>
    </g>
    <g id="text_2">
     <!-- −2 -->
     <g transform="translate(157.057071 281.46467) scale(0.1 -0.1)">
      <defs>
       <path id="DejaVuSans-32" d="M 1228 531 
L 3431 531 
L 3431 0 
L 469 0 
L 469 531 
Q 828 903 1448 1529 
Q 2069 2156 2228 2338 
Q 2531 2678 2651 2914 
Q 2772 3150 2772 3378 
Q 2772 3750 2511 3984 
Q 2250 4219 1831 4219 
Q 1534 4219 1204 4116 
Q 875 4013 500 3803 
L 500 4441 
Q 881 4594 1212 4672 
Q 1544 4750 1819 4750 
Q 2544 4750 2975 4387 
Q 3406 4025 3406 3419 
Q 3406 3131 3298 2873 
Q 3191 2616 2906 2266 
Q 2828 2175 2409 1742 
Q 1991 1309 1228 531 
z
" transform="scale(0.015625)"/>
      </defs>
      <use xlink:href="#DejaVuSans-2212"/>
      <use xlink:href="#DejaVuSans-32" x="83.789062"/>
     </g>
    </g>
   </g>
   <g id="xtick_3">
    <g id="line2d_4">
     <path d="M 200.415069 266.272825 
L 198.220926 268.307673 
" style="fill: none; stroke: #000000; stroke-width: 0.8; stroke-linecap: square"/>
    </g>
    <g id="text_3">
     <!-- 0 -->
     <g transform="translate(189.047226 290.727145) scale(0.1 -0.1)">
      <defs>
       <path id="DejaVuSans-30" d="M 2034 4250 
Q 1547 4250 1301 3770 
Q 1056 3291 1056 2328 
Q 1056 1369 1301 889 
Q 1547 409 2034 409 
Q 2525 409 2770 889 
Q 3016 1369 3016 2328 
Q 3016 3291 2770 3770 
Q 2525 4250 2034 4250 
z
M 2034 4750 
Q 2819 4750 3233 4129 
Q 3647 3509 3647 2328 
Q 3647 1150 3233 529 
Q 2819 -91 2034 -91 
Q 1250 -91 836 529 
Q 422 1150 422 2328 
Q 422 3509 836 4129 
Q 1250 4750 2034 4750 
z
" transform="scale(0.015625)"/>
      </defs>
      <use xlink:href="#DejaVuSans-30"/>
     </g>
    </g>
   </g>
   <g id="xtick_4">
    <g id="line2d_5">
     <path d="M 228.724811 275.50965 
L 226.571572 277.585349 
" style="fill: none; stroke: #000000; stroke-width: 0.8; stroke-linecap: square"/>
    </g>
    <g id="text_4">
     <!-- 2 -->
     <g transform="translate(217.404801 300.175288) scale(0.1 -0.1)">
      <use xlink:href="#DejaVuSans-32"/>
     </g>
    </g>
   </g>
   <g id="xtick_5">
    <g id="line2d_6">
     <path d="M 257.605129 284.932641 
L 255.4949 287.050433 
" style="fill: none; stroke: #000000; stroke-width: 0.8; stroke-linecap: square"/>
    </g>
    <g id="text_5">
     <!-- 4 -->
     <g transform="translate(246.336566 309.814739) scale(0.1 -0.1)">
      <use xlink:href="#DejaVuSans-34"/>
     </g>
    </g>
   </g>
   <g id="text_6">
    <!-- X -->
    <g transform="translate(176.251428 303.76759) scale(0.1 -0.1)">
     <defs>
      <path id="DejaVuSans-58" d="M 403 4666 
L 1081 4666 
L 2241 2931 
L 3406 4666 
L 4084 4666 
L 2584 2425 
L 4184 0 
L 3506 0 
L 2194 1984 
L 872 0 
L 191 0 
L 1856 2491 
L 403 4666 
z
" transform="scale(0.015625)"/>
     </defs>
     <use xlink:href="#DejaVuSans-58"/>
    </g>
   </g>
  </g>
  <g id="axis3d_2">
   <g id="line2d_7">
    <path d="M 352.090401 209.294766 
L 272.679269 290.790123 
" style="fill: none; stroke: #000000; stroke-width: 0.8; stroke-linecap: square"/>
   </g>
   <g id="xtick_6">
    <g id="line2d_8">
     <path d="M 340.748737 219.356873 
L 344.332446 220.414592 
" style="fill: none; stroke: #000000; stroke-width: 0.8; stroke-linecap: square"/>
    </g>
    <g id="text_7">
     <!-- −4 -->
     <g transform="translate(346.594654 239.764041) scale(0.1 -0.1)">
      <use xlink:href="#DejaVuSans-2212"/>
      <use xlink:href="#DejaVuSans-34" x="83.789062"/>
     </g>
    </g>
   </g>
   <g id="xtick_7">
    <g id="line2d_9">
     <path d="M 326.582933 233.868432 
L 330.208555 234.961389 
" style="fill: none; stroke: #000000; stroke-width: 0.8; stroke-linecap: square"/>
    </g>
    <g id="text_8">
     <!-- −2 -->
     <g transform="translate(332.633487 254.501425) scale(0.1 -0.1)">
      <use xlink:href="#DejaVuSans-2212"/>
      <use xlink:href="#DejaVuSans-32" x="83.789062"/>
     </g>
    </g>
   </g>
   <g id="xtick_8">
    <g id="line2d_10">
     <path d="M 311.941496 248.867232 
L 315.609849 249.997217 
" style="fill: none; stroke: #000000; stroke-width: 0.8; stroke-linecap: square"/>
    </g>
    <g id="text_9">
     <!-- 0 -->
     <g transform="translate(322.392937 269.734123) scale(0.1 -0.1)">
      <use xlink:href="#DejaVuSans-30"/>
     </g>
    </g>
   </g>
   <g id="xtick_9">
    <g id="line2d_11">
     <path d="M 296.800064 264.378231 
L 300.511975 265.547159 
" style="fill: none; stroke: #000000; stroke-width: 0.8; stroke-linecap: square"/>
    </g>
    <g id="text_10">
     <!-- 2 -->
     <g transform="translate(307.469259 285.487532) scale(0.1 -0.1)">
      <use xlink:href="#DejaVuSans-32"/>
     </g>
    </g>
   </g>
   <g id="xtick_10">
    <g id="line2d_12">
     <path d="M 281.132579 280.428123 
L 284.888887 281.638042 
" style="fill: none; stroke: #000000; stroke-width: 0.8; stroke-linecap: square"/>
    </g>
    <g id="text_11">
     <!-- 4 -->
     <g transform="translate(292.026562 301.788816) scale(0.1 -0.1)">
      <use xlink:href="#DejaVuSans-34"/>
     </g>
    </g>
   </g>
   <g id="text_12">
    <!-- Y -->
    <g transform="translate(338.078875 278.988697) scale(0.1 -0.1)">
     <defs>
      <path id="DejaVuSans-59" d="M -13 4666 
L 666 4666 
L 1959 2747 
L 3244 4666 
L 3922 4666 
L 2272 2222 
L 2272 0 
L 1638 0 
L 1638 2222 
L -13 4666 
z
" transform="scale(0.015625)"/>
     </defs>
     <use xlink:href="#DejaVuSans-59"/>
    </g>
   </g>
  </g>
  <g id="axis3d_3">
   <g id="line2d_13">
    <path d="M 352.090401 209.294766 
L 357.122702 99.402171 
" style="fill: none; stroke: #000000; stroke-width: 0.8; stroke-linecap: square"/>
   </g>
   <g id="xtick_11">
    <g id="line2d_14">
     <path d="M 351.308637 200.083256 
L 354.875283 201.109217 
" style="fill: none; stroke: #000000; stroke-width: 0.8; stroke-linecap: square"/>
    </g>
    <g id="text_13">
     <!-- 0 -->
     <g transform="translate(367.628525 205.43571) scale(0.1 -0.1)">
      <use xlink:href="#DejaVuSans-30"/>
     </g>
    </g>
   </g>
   <g id="xtick_12">
    <g id="line2d_15">
     <path d="M 352.214397 180.090367 
L 355.811128 181.100613 
" style="fill: none; stroke: #000000; stroke-width: 0.8; stroke-linecap: square"/>
    </g>
    <g id="text_14">
     <!-- 2 -->
     <g transform="translate(368.689824 185.477291) scale(0.1 -0.1)">
      <use xlink:href="#DejaVuSans-32"/>
     </g>
    </g>
   </g>
   <g id="xtick_13">
    <g id="line2d_16">
     <path d="M 353.134986 159.770153 
L 356.762312 160.764029 
" style="fill: none; stroke: #000000; stroke-width: 0.8; stroke-linecap: square"/>
    </g>
    <g id="text_15">
     <!-- 4 -->
     <g transform="translate(369.768451 165.192979) scale(0.1 -0.1)">
      <use xlink:href="#DejaVuSans-34"/>
     </g>
    </g>
   </g>
   <g id="xtick_14">
    <g id="line2d_17">
     <path d="M 354.070772 139.114508 
L 357.729217 140.091334 
" style="fill: none; stroke: #000000; stroke-width: 0.8; stroke-linecap: square"/>
    </g>
    <g id="text_16">
     <!-- 6 -->
     <g transform="translate(370.864837 144.574726) scale(0.1 -0.1)">
      <defs>
       <path id="DejaVuSans-36" d="M 2113 2584 
Q 1688 2584 1439 2293 
Q 1191 2003 1191 1497 
Q 1191 994 1439 701 
Q 1688 409 2113 409 
Q 2538 409 2786 701 
Q 3034 994 3034 1497 
Q 3034 2003 2786 2293 
Q 2538 2584 2113 2584 
z
M 3366 4563 
L 3366 3988 
Q 3128 4100 2886 4159 
Q 2644 4219 2406 4219 
Q 1781 4219 1451 3797 
Q 1122 3375 1075 2522 
Q 1259 2794 1537 2939 
Q 1816 3084 2150 3084 
Q 2853 3084 3261 2657 
Q 3669 2231 3669 1497 
Q 3669 778 3244 343 
Q 2819 -91 2113 -91 
Q 1303 -91 875 529 
Q 447 1150 447 2328 
Q 447 3434 972 4092 
Q 1497 4750 2381 4750 
Q 2619 4750 2861 4703 
Q 3103 4656 3366 4563 
z
" transform="scale(0.015625)"/>
      </defs>
      <use xlink:href="#DejaVuSans-36"/>
     </g>
    </g>
   </g>
   <g id="xtick_15">
    <g id="line2d_18">
     <path d="M 355.022133 118.115058 
L 358.712236 119.074126 
" style="fill: none; stroke: #000000; stroke-width: 0.8; stroke-linecap: square"/>
    </g>
    <g id="text_17">
     <!-- 8 -->
     <g transform="translate(371.979421 123.614216) scale(0.1 -0.1)">
      <defs>
       <path id="DejaVuSans-38" d="M 2034 2216 
Q 1584 2216 1326 1975 
Q 1069 1734 1069 1313 
Q 1069 891 1326 650 
Q 1584 409 2034 409 
Q 2484 409 2743 651 
Q 3003 894 3003 1313 
Q 3003 1734 2745 1975 
Q 2488 2216 2034 2216 
z
M 1403 2484 
Q 997 2584 770 2862 
Q 544 3141 544 3541 
Q 544 4100 942 4425 
Q 1341 4750 2034 4750 
Q 2731 4750 3128 4425 
Q 3525 4100 3525 3541 
Q 3525 3141 3298 2862 
Q 3072 2584 2669 2484 
Q 3125 2378 3379 2068 
Q 3634 1759 3634 1313 
Q 3634 634 3220 271 
Q 2806 -91 2034 -91 
Q 1263 -91 848 271 
Q 434 634 434 1313 
Q 434 1759 690 2068 
Q 947 2378 1403 2484 
z
M 1172 3481 
Q 1172 3119 1398 2916 
Q 1625 2713 2034 2713 
Q 2441 2713 2670 2916 
Q 2900 3119 2900 3481 
Q 2900 3844 2670 4047 
Q 2441 4250 2034 4250 
Q 1625 4250 1398 4047 
Q 1172 3844 1172 3481 
z
" transform="scale(0.015625)"/>
      </defs>
      <use xlink:href="#DejaVuSans-38"/>
     </g>
    </g>
   </g>
   <g id="text_18">
    <!-- Altitude -->
    <g transform="translate(396.789938 169.786959) rotate(-87.378092) scale(0.1 -0.1)">
     <defs>
      <path id="DejaVuSans-41" d="M 2188 4044 
L 1331 1722 
L 3047 1722 
L 2188 4044 
z
M 1831 4666 
L 2547 4666 
L 4325 0 
L 3669 0 
L 3244 1197 
L 1141 1197 
L 716 0 
L 50 0 
L 1831 4666 
z
" transform="scale(0.015625)"/>
      <path id="DejaVuSans-6c" d="M 603 4863 
L 1178 4863 
L 1178 0 
L 603 0 
L 603 4863 
z
" transform="scale(0.015625)"/>
      <path id="DejaVuSans-74" d="M 1172 4494 
L 1172 3500 
L 2356 3500 
L 2356 3053 
L 1172 3053 
L 1172 1153 
Q 1172 725 1289 603 
Q 1406 481 1766 481 
L 2356 481 
L 2356 0 
L 1766 0 
Q 1100 0 847 248 
Q 594 497 594 1153 
L 594 3053 
L 172 3053 
L 172 3500 
L 594 3500 
L 594 4494 
L 1172 4494 
z
" transform="scale(0.015625)"/>
      <path id="DejaVuSans-69" d="M 603 3500 
L 1178 3500 
L 1178 0 
L 603 0 
L 603 3500 
z
M 603 4863 
L 1178 4863 
L 1178 4134 
L 603 4134 
L 603 4863 
z
" transform="scale(0.015625)"/>
      <path id="DejaVuSans-75" d="M 544 1381 
L 544 3500 
L 1119 3500 
L 1119 1403 
Q 1119 906 1312 657 
Q 1506 409 1894 409 
Q 2359 409 2629 706 
Q 2900 1003 2900 1516 
L 2900 3500 
L 3475 3500 
L 3475 0 
L 2900 0 
L 2900 538 
Q 2691 219 2414 64 
Q 2138 -91 1772 -91 
Q 1169 -91 856 284 
Q 544 659 544 1381 
z
M 1991 3584 
L 1991 3584 
z
" transform="scale(0.015625)"/>
      <path id="DejaVuSans-64" d="M 2906 2969 
L 2906 4863 
L 3481 4863 
L 3481 0 
L 2906 0 
L 2906 525 
Q 2725 213 2448 61 
Q 2172 -91 1784 -91 
Q 1150 -91 751 415 
Q 353 922 353 1747 
Q 353 2572 751 3078 
Q 1150 3584 1784 3584 
Q 2172 3584 2448 3432 
Q 2725 3281 2906 2969 
z
M 947 1747 
Q 947 1113 1208 752 
Q 1469 391 1925 391 
Q 2381 391 2643 752 
Q 2906 1113 2906 1747 
Q 2906 2381 2643 2742 
Q 2381 3103 1925 3103 
Q 1469 3103 1208 2742 
Q 947 2381 947 1747 
z
" transform="scale(0.015625)"/>
      <path id="DejaVuSans-65" d="M 3597 1894 
L 3597 1613 
L 953 1613 
Q 991 1019 1311 708 
Q 1631 397 2203 397 
Q 2534 397 2845 478 
Q 3156 559 3463 722 
L 3463 178 
Q 3153 47 2828 -22 
Q 2503 -91 2169 -91 
Q 1331 -91 842 396 
Q 353 884 353 1716 
Q 353 2575 817 3079 
Q 1281 3584 2069 3584 
Q 2775 3584 3186 3129 
Q 3597 2675 3597 1894 
z
M 3022 2063 
Q 3016 2534 2758 2815 
Q 2500 3097 2075 3097 
Q 1594 3097 1305 2825 
Q 1016 2553 972 2059 
L 3022 2063 
z
" transform="scale(0.015625)"/>
     </defs>
     <use xlink:href="#DejaVuSans-41"/>
     <use xlink:href="#DejaVuSans-6c" x="68.408203"/>
     <use xlink:href="#DejaVuSans-74" x="96.191406"/>
     <use xlink:href="#DejaVuSans-69" x="135.400391"/>
     <use xlink:href="#DejaVuSans-74" x="163.183594"/>
     <use xlink:href="#DejaVuSans-75" x="202.392578"/>
     <use xlink:href="#DejaVuSans-64" x="265.771484"/>
     <use xlink:href="#DejaVuSans-65" x="329.248047"/>
    </g>
   </g>
  </g>
  <g id="axes_1">
   <g id="line2d_19">
    <path d="M 299.330483 183.465479 
L 297.212743 187.925183 
L 294.853324 192.355791 
L 292.317908 196.643326 
L 289.64085 200.745978 
L 286.856437 204.623424 
L 283.99833 208.237505 
L 281.099009 211.552888 
L 278.189229 214.537688 
L 275.297508 217.164051 
L 272.449658 219.408647 
L 269.668367 221.253089 
L 266.972863 222.684241 
L 264.378648 223.69441 
L 261.897327 224.281428 
L 259.536527 224.448598 
L 257.299913 224.204532 
L 255.187295 223.56287 
L 253.194823 222.541902 
L 251.31526 221.164106 
L 249.538328 219.455608 
L 247.851101 217.445603 
L 246.238456 215.165731 
L 244.683539 212.649456 
L 242.419617 208.507764 
L 239.429411 202.484806 
L 234.705131 192.932589 
L 232.115884 188.15309 
L 229.317583 183.494059 
L 226.281982 179.031392 
L 224.118865 176.196349 
L 221.84339 173.490736 
L 219.458436 170.926058 
L 216.970198 168.510816 
L 214.38824 166.250539 
L 211.72551 164.147849 
L 208.998307 162.202564 
L 204.830295 159.572799 
L 200.641143 157.269973 
L 196.524401 155.262535 
L 190.115873 152.457811 
L 183.84823 149.690016 
L 181.581067 148.419839 
L 180.470397 147.577513 
L 179.717398 146.721093 
L 179.350546 145.837002 
L 179.394653 144.913465 
L 179.870234 143.940847 
L 180.792947 142.911967 
L 182.173101 141.822353 
L 184.015275 140.670444 
L 186.318047 139.457728 
L 190.617591 137.535566 
L 195.883666 135.516247 
L 202.03513 133.443255 
L 208.963724 131.373438 
L 216.537982 129.374771 
L 224.608133 127.523577 
L 233.011603 125.901382 
L 238.715451 124.988354 
L 244.441267 124.238696 
L 250.138684 123.676189 
L 255.758448 123.3235 
L 261.253023 123.201801 
L 266.577137 123.330418 
L 271.688258 123.726516 
L 276.546996 124.40481 
L 281.117448 125.377309 
L 285.367469 126.653097 
L 289.268891 128.238136 
L 291.081202 129.147596 
L 292.797682 130.135111 
L 294.415991 131.200482 
L 295.934061 132.34329 
L 297.350093 133.562893 
L 298.662562 134.858425 
L 299.870216 136.228794 
L 300.97207 137.672679 
L 301.967415 139.188534 
L 302.855807 140.774581 
L 303.637071 142.428817 
L 304.311296 144.149014 
L 304.878834 145.932717 
L 305.340292 147.777248 
L 305.696535 149.679714 
L 306.098074 153.64579 
L 306.095266 157.803559 
L 305.703661 162.122451 
L 304.94232 166.568954 
L 303.833564 171.106907 
L 302.402669 175.697866 
L 300.677528 180.301516 
L 298.688261 184.876158 
L 296.466793 189.379245 
L 294.046383 193.767973 
L 291.461123 197.999907 
L 288.745407 202.033649 
L 285.933379 205.829505 
L 283.058377 209.350163 
L 280.152377 212.561344 
L 277.245464 215.432417 
L 274.365323 217.936945 
L 271.536791 220.053168 
L 268.781467 221.764376 
L 266.117391 223.059188 
L 263.558811 223.931707 
L 261.116043 224.381554 
L 258.79542 224.413782 
L 256.599336 224.038675 
L 254.526386 223.271432 
L 252.571584 222.131759 
L 250.726665 220.643381 
L 248.980441 218.833489 
L 247.319224 216.732142 
L 245.727273 214.371643 
L 243.431048 210.419466 
L 241.18904 206.078759 
L 233.30435 190.293267 
L 230.604377 185.569827 
L 227.678146 181.010336 
L 225.590844 178.095978 
L 223.391069 175.301583 
L 221.079513 172.640689 
L 218.660125 170.123825 
L 216.140193 167.758518 
L 213.530382 165.549343 
L 210.844734 163.497999 
L 208.100625 161.603415 
L 203.920786 159.046665 
L 199.738931 156.810925 
L 195.651475 154.862393 
L 189.346588 152.13291 
L 184.154891 149.840629 
L 181.809595 148.566705 
L 180.63957 147.725336 
L 179.821914 146.872403 
L 179.385675 145.994053 
L 179.356349 145.078169 
L 179.755248 144.11472 
L 180.120653 143.612672 
L 180.120653 143.612672 
" clip-path="url(#p738adacdc6)" style="fill: none; stroke-dasharray: 1.3,2.145; stroke-dashoffset: 0; stroke: #008000; stroke-width: 1.3"/>
   </g>
   <g id="line2d_20">
    <path d="M 175.619746 144.261813 
L 172.68327 142.762234 
L 173.325164 143.692514 
" clip-path="url(#p738adacdc6)" style="fill: none; stroke: #ff0000; stroke-width: 2; stroke-linecap: square"/>
   </g>
   <g id="line2d_21">
    <path d="M 169.943621 141.05727 
L 172.68327 142.762234 
L 172.243875 141.633162 
" clip-path="url(#p738adacdc6)" style="fill: none; stroke: #0000ff; stroke-width: 2; stroke-linecap: square"/>
   </g>
   <g id="line2d_22">
    <path d="M 242.320444 218.429927 
L 242.304601 218.710932 
L 242.210567 218.63026 
L 241.879859 218.231973 
L 241.630847 218.333087 
L 241.38056 218.834333 
L 241.002541 220.331866 
L 239.936044 225.720212 
L 239.513771 226.837061 
L 239.043811 227.530016 
L 238.539306 227.763571 
L 238.012116 227.541671 
L 237.4701 226.888226 
L 236.916484 225.834117 
L 236.061158 223.577215 
L 234.844475 219.503015 
L 230.959738 205.708095 
L 228.845798 199.353782 
L 226.972969 194.454005 
L 224.822237 189.527714 
L 222.376504 184.66118 
L 220.580333 181.494057 
L 218.654995 178.418066 
L 216.606794 175.455294 
L 214.444861 172.624287 
L 212.180928 169.939934 
L 209.828311 167.41203 
L 207.40156 165.045046 
L 204.916934 162.839597 
L 201.121732 159.828376 
L 197.307005 157.156175 
L 193.55102 154.79493 
L 188.778841 152.073894 
L 178.553123 146.456027 
L 177.381691 145.591696 
L 176.495355 144.71776 
L 175.928914 143.804203 
L 175.718358 142.8213 
L 175.899083 141.742864 
L 176.503944 140.549417 
L 177.561373 139.230647 
L 179.093036 137.787474 
L 181.111044 136.233583 
L 183.61985 134.590751 
L 186.62004 132.88228 
L 190.104432 131.134951 
L 194.053999 129.380957 
L 198.43697 127.657104 
L 203.209933 126.003244 
L 208.320432 124.460543 
L 213.711144 123.069391 
L 219.324697 121.867122 
L 225.107666 120.886067 
L 231.012795 120.152378 
L 236.999268 119.685859 
L 243.031976 119.49978 
L 249.080264 119.599209 
L 255.114575 119.978286 
L 261.099715 120.620314 
L 266.98777 121.504189 
L 272.715476 122.610708 
L 278.206504 123.926412 
L 283.377812 125.445102 
L 288.14843 127.167415 
L 292.448246 129.098779 
L 294.404379 130.145111 
L 296.224756 131.246441 
L 297.906279 132.403657 
L 299.447399 133.617618 
L 300.847979 134.889097 
L 302.108742 136.218615 
L 303.230695 137.606274 
L 304.215003 139.051751 
L 305.063112 140.554366 
L 305.776883 142.113154 
L 306.358651 143.726914 
L 306.811237 145.394236 
L 307.13792 147.113531 
L 307.342405 148.883043 
L 307.428788 150.700878 
L 307.26535 154.473424 
L 306.686661 158.414313 
L 305.735102 162.506112 
L 304.454302 166.730984 
L 302.887019 171.07 
L 301.073608 175.501544 
L 299.051604 179.999205 
L 295.705268 186.794851 
L 292.09128 193.515558 
L 288.344479 199.974208 
L 284.616967 205.960613 
L 281.062888 211.26993 
L 277.8063 215.732494 
L 274.908242 219.233569 
L 273.170718 221.002491 
L 271.566194 222.309047 
L 270.065687 223.147083 
L 268.635472 223.516991 
L 267.935757 223.529463 
L 266.546032 223.221037 
L 265.143833 222.489353 
L 263.702774 221.364594 
L 262.201225 219.879467 
L 259.798395 217.049332 
L 256.247917 212.327677 
L 246.511192 199.049441 
L 242.680187 194.195536 
L 238.555268 189.298121 
L 234.154054 184.456379 
L 229.509779 179.76523 
L 224.669664 175.308613 
L 219.690133 171.152667 
L 214.630933 167.341513 
L 209.551206 163.897704 
L 204.509697 160.826087 
L 199.567544 158.116155 
L 194.791756 155.744618 
L 188.812462 153.052841 
L 179.952207 149.394335 
L 175.344011 147.374605 
L 173.447499 146.289912 
L 172.599609 145.577188 
L 172.117135 144.844445 
L 172.027368 144.066335 
L 172.355536 143.218744 
L 172.355536 143.218744 
" clip-path="url(#p738adacdc6)" style="fill: none; stroke-dasharray: 3.7,1.6; stroke-dashoffset: 0; stroke: #0000ff"/>
   </g>
   <g id="line2d_23">
    <path d="M 172.695309 142.747579 
L 173.463809 141.985412 
L 174.709192 141.087245 
L 176.609144 140.006582 
L 179.417796 138.67987 
L 183.297096 137.104032 
L 188.60803 135.197884 
L 195.648923 132.916142 
L 204.082779 130.420196 
L 212.473713 128.165416 
L 219.915016 126.38936 
L 226.506381 125.03912 
L 232.492872 124.037995 
L 238.005433 123.34145 
L 243.113168 122.916404 
L 247.981073 122.729598 
L 252.68789 122.766996 
L 257.309268 123.02328 
L 261.913946 123.503046 
L 266.40424 124.193391 
L 270.836813 125.098992 
L 275.10722 126.1963 
L 279.18595 127.474198 
L 282.911225 128.872356 
L 286.276358 130.370555 
L 289.225767 131.920814 
L 291.831593 133.535741 
L 294.108042 135.202514 
L 296.116297 136.947858 
L 297.866709 138.766717 
L 299.372722 140.653353 
L 300.676181 142.647035 
L 301.778485 144.746247 
L 302.682033 146.948264 
L 303.4042 149.302878 
L 303.936366 151.812218 
L 304.271149 154.477281 
L 304.40226 157.297918 
L 304.320505 160.334473 
L 304.008123 163.58975 
L 303.447705 167.064321 
L 302.6216 170.75607 
L 301.532448 174.59175 
L 300.17298 178.559332 
L 298.533939 182.644714 
L 296.638654 186.76251 
L 294.488553 190.89699 
L 292.086068 195.035993 
L 289.341951 199.312761 
L 286.290217 203.655412 
L 282.927429 208.065108 
L 282.927429 208.065108 
" clip-path="url(#p738adacdc6)" style="fill: none; stroke: #000000; stroke-width: 1.5; stroke-linecap: square"/>
   </g>
   <g id="Path3DCollection_1">
    <defs>
     <path id="mc9eba29595" d="M 0 2.5 
C 0.663008 2.5 1.29895 2.236584 1.767767 1.767767 
C 2.236584 1.29895 2.5 0.663008 2.5 0 
C 2.5 -0.663008 2.236584 -1.29895 1.767767 -1.767767 
C 1.29895 -2.236584 0.663008 -2.5 0 -2.5 
C -0.663008 -2.5 -1.29895 -2.236584 -1.767767 -1.767767 
C -2.236584 -1.29895 -2.5 -0.663008 -2.5 0 
C -2.5 0.663008 -2.236584 1.29895 -1.767767 1.767767 
C -1.29895 2.236584 -0.663008 2.5 0 2.5 
z
" style="stroke: #ff00ff"/>
    </defs>
    <g clip-path="url(#p738adacdc6)">
     <use xlink:href="#mc9eba29595" x="179.755248" y="144.11472" style="fill: #ff00ff; stroke: #ff00ff"/>
    </g>
   </g>
   <g id="text_19">
    <!-- Time = 9.95 s -->
    <g transform="translate(116.4096 54.7776) scale(0.1 -0.1)">
     <defs>
      <path id="DejaVuSans-54" d="M -19 4666 
L 3928 4666 
L 3928 4134 
L 2272 4134 
L 2272 0 
L 1638 0 
L 1638 4134 
L -19 4134 
L -19 4666 
z
" transform="scale(0.015625)"/>
      <path id="DejaVuSans-6d" d="M 3328 2828 
Q 3544 3216 3844 3400 
Q 4144 3584 4550 3584 
Q 5097 3584 5394 3201 
Q 5691 2819 5691 2113 
L 5691 0 
L 5113 0 
L 5113 2094 
Q 5113 2597 4934 2840 
Q 4756 3084 4391 3084 
Q 3944 3084 3684 2787 
Q 3425 2491 3425 1978 
L 3425 0 
L 2847 0 
L 2847 2094 
Q 2847 2600 2669 2842 
Q 2491 3084 2119 3084 
Q 1678 3084 1418 2786 
Q 1159 2488 1159 1978 
L 1159 0 
L 581 0 
L 581 3500 
L 1159 3500 
L 1159 2956 
Q 1356 3278 1631 3431 
Q 1906 3584 2284 3584 
Q 2666 3584 2933 3390 
Q 3200 3197 3328 2828 
z
" transform="scale(0.015625)"/>
      <path id="DejaVuSans-20" transform="scale(0.015625)"/>
      <path id="DejaVuSans-3d" d="M 678 2906 
L 4684 2906 
L 4684 2381 
L 678 2381 
L 678 2906 
z
M 678 1631 
L 4684 1631 
L 4684 1100 
L 678 1100 
L 678 1631 
z
" transform="scale(0.015625)"/>
      <path id="DejaVuSans-39" d="M 703 97 
L 703 672 
Q 941 559 1184 500 
Q 1428 441 1663 441 
Q 2288 441 2617 861 
Q 2947 1281 2994 2138 
Q 2813 1869 2534 1725 
Q 2256 1581 1919 1581 
Q 1219 1581 811 2004 
Q 403 2428 403 3163 
Q 403 3881 828 4315 
Q 1253 4750 1959 4750 
Q 2769 4750 3195 4129 
Q 3622 3509 3622 2328 
Q 3622 1225 3098 567 
Q 2575 -91 1691 -91 
Q 1453 -91 1209 -44 
Q 966 3 703 97 
z
M 1959 2075 
Q 2384 2075 2632 2365 
Q 2881 2656 2881 3163 
Q 2881 3666 2632 3958 
Q 2384 4250 1959 4250 
Q 1534 4250 1286 3958 
Q 1038 3666 1038 3163 
Q 1038 2656 1286 2365 
Q 1534 2075 1959 2075 
z
" transform="scale(0.015625)"/>
      <path id="DejaVuSans-2e" d="M 684 794 
L 1344 794 
L 1344 0 
L 684 0 
L 684 794 
z
" transform="scale(0.015625)"/>
      <path id="DejaVuSans-35" d="M 691 4666 
L 3169 4666 
L 3169 4134 
L 1269 4134 
L 1269 2991 
Q 1406 3038 1543 3061 
Q 1681 3084 1819 3084 
Q 2600 3084 3056 2656 
Q 3513 2228 3513 1497 
Q 3513 744 3044 326 
Q 2575 -91 1722 -91 
Q 1428 -91 1123 -41 
Q 819 9 494 109 
L 494 744 
Q 775 591 1075 516 
Q 1375 441 1709 441 
Q 2250 441 2565 725 
Q 2881 1009 2881 1497 
Q 2881 1984 2565 2268 
Q 2250 2553 1709 2553 
Q 1456 2553 1204 2497 
Q 953 2441 691 2322 
L 691 4666 
z
" transform="scale(0.015625)"/>
      <path id="DejaVuSans-73" d="M 2834 3397 
L 2834 2853 
Q 2591 2978 2328 3040 
Q 2066 3103 1784 3103 
Q 1356 3103 1142 2972 
Q 928 2841 928 2578 
Q 928 2378 1081 2264 
Q 1234 2150 1697 2047 
L 1894 2003 
Q 2506 1872 2764 1633 
Q 3022 1394 3022 966 
Q 3022 478 2636 193 
Q 2250 -91 1575 -91 
Q 1294 -91 989 -36 
Q 684 19 347 128 
L 347 722 
Q 666 556 975 473 
Q 1284 391 1588 391 
Q 1994 391 2212 530 
Q 2431 669 2431 922 
Q 2431 1156 2273 1281 
Q 2116 1406 1581 1522 
L 1381 1569 
Q 847 1681 609 1914 
Q 372 2147 372 2553 
Q 372 3047 722 3315 
Q 1072 3584 1716 3584 
Q 2034 3584 2315 3537 
Q 2597 3491 2834 3397 
z
" transform="scale(0.015625)"/>
     </defs>
     <use xlink:href="#DejaVuSans-54"/>
     <use xlink:href="#DejaVuSans-69" x="57.958984"/>
     <use xlink:href="#DejaVuSans-6d" x="85.742188"/>
     <use xlink:href="#DejaVuSans-65" x="183.154297"/>
     <use xlink:href="#DejaVuSans-20" x="244.677734"/>
     <use xlink:href="#DejaVuSans-3d" x="276.464844"/>
     <use xlink:href="#DejaVuSans-20" x="360.253906"/>
     <use xlink:href="#DejaVuSans-39" x="392.041016"/>
     <use xlink:href="#DejaVuSans-2e" x="455.664062"/>
     <use xlink:href="#DejaVuSans-39" x="487.451172"/>
     <use xlink:href="#DejaVuSans-35" x="551.074219"/>
     <use xlink:href="#DejaVuSans-20" x="614.697266"/>
     <use xlink:href="#DejaVuSans-73" x="646.484375"/>
    </g>
   </g>
   <g id="text_20">
    <!-- fig8 -->
    <g transform="translate(336.901025 54.7776) scale(0.1 -0.1)">
     <defs>
      <path id="DejaVuSans-66" d="M 2375 4863 
L 2375 4384 
L 1825 4384 
Q 1516 4384 1395 4259 
Q 1275 4134 1275 3809 
L 1275 3500 
L 2222 3500 
L 2222 3053 
L 1275 3053 
L 1275 0 
L 697 0 
L 697 3053 
L 147 3053 
L 147 3500 
L 697 3500 
L 697 3744 
Q 697 4328 969 4595 
Q 1241 4863 1831 4863 
L 2375 4863 
z
" transform="scale(0.015625)"/>
      <path id="DejaVuSans-67" d="M 2906 1791 
Q 2906 2416 2648 2759 
Q 2391 3103 1925 3103 
Q 1463 3103 1205 2759 
Q 947 2416 947 1791 
Q 947 1169 1205 825 
Q 1463 481 1925 481 
Q 2391 481 2648 825 
Q 2906 1169 2906 1791 
z
M 3481 434 
Q 3481 -459 3084 -895 
Q 2688 -1331 1869 -1331 
Q 1566 -1331 1297 -1286 
Q 1028 -1241 775 -1147 
L 775 -588 
Q 1028 -725 1275 -790 
Q 1522 -856 1778 -856 
Q 2344 -856 2625 -561 
Q 2906 -266 2906 331 
L 2906 616 
Q 2728 306 2450 153 
Q 2172 0 1784 0 
Q 1141 0 747 490 
Q 353 981 353 1791 
Q 353 2603 747 3093 
Q 1141 3584 1784 3584 
Q 2172 3584 2450 3431 
Q 2728 3278 2906 2969 
L 2906 3500 
L 3481 3500 
L 3481 434 
z
" transform="scale(0.015625)"/>
     </defs>
     <use xlink:href="#DejaVuSans-66"/>
     <use xlink:href="#DejaVuSans-69" x="35.205078"/>
     <use xlink:href="#DejaVuSans-67" x="62.988281"/>
     <use xlink:href="#DejaVuSans-38" x="126.464844"/>
    </g>
   </g>
  </g>
 </g>
 <defs>
  <clipPath id="p738adacdc6">
   <rect x="103.104" y="41.472" width="266.112" height="266.112"/>
  </clipPath>
 </defs>
</svg>
