<?xml version="1.0" encoding="utf-8" standalone="no"?>
<!DOCTYPE svg PUBLIC "-//W3C//DTD SVG 1.1//EN"
  "http://www.w3.org/Graphics/SVG/1.1/DTD/svg11.dtd">
<svg xmlns:xlink="http://www.w3.org/1999/xlink" width="460.8pt" height="345.6pt" viewBox="0 0 460.8 345.6" xmlns="http://www.w3.org/2000/svg" version="1.1">
 <metadata>
  <rdf:RDF xmlns:dc="http://purl.org/dc/elements/1.1/" xmlns:cc="http://creativecommons.org/ns#" xmlns:rdf="http://www.w3.org/1999/02/22-rdf-syntax-ns#">
   <cc:Work>
    <dc:type rdf:resource="http://purl.org/dc/dcmitype/StillImage"/>
    <dc:date>2023-09-26T18:22:45.925682</dc:date>
    <dc:format>image/svg+xml</dc:format>
    <dc:creator>
     <cc:Agent>
      <dc:title>Matplotlib v3.7.1, https://matplotlib.org/</dc:title>
     </cc:Agent>
    </dc:creator>
   </cc:Work>
  </rdf:RDF>
 </metadata>
 <defs>
  <style type="text/css">*{stroke-linejoin: round; stroke-linecap: butt}</style>
 </defs>
 <g id="figure_1">
  <g id="patch_1">
   <path d="M 0 345.6 
L 460.8 345.6 
L 460.8 0 
L 0 0 
z
" style="fill: #ffffff"/>
  </g>
  <g id="patch_2">
   <path d="M 103.104 307.584 
L 369.216 307.584 
L 369.216 41.472 
L 103.104 41.472 
z
" style="fill: #ffffff"/>
  </g>
  <g id="pane3d_1">
   <g id="patch_3">
    <path d="M 211.076164 168.307495 
L 123.197291 241.969309 
L 117.770234 129.272941 
L 209.854564 62.073991 
" style="fill: #f2f2f2; opacity: 0.5; stroke: #f2f2f2; stroke-linejoin: miter"/>
   </g>
  </g>
  <g id="pane3d_2">
   <g id="patch_4">
    <path d="M 211.076164 168.307495 
L 352.090401 209.294766 
L 357.122702 99.402171 
L 209.854564 62.073991 
" style="fill: #e6e6e6; opacity: 0.5; stroke: #e6e6e6; stroke-linejoin: miter"/>
   </g>
  </g>
  <g id="pane3d_3">
   <g id="patch_5">
    <path d="M 211.076164 168.307495 
L 352.090401 209.294766 
L 272.679269 290.790123 
L 123.197291 241.969309 
" style="fill: #ececec; opacity: 0.5; stroke: #ececec; stroke-linejoin: miter"/>
   </g>
  </g>
  <g id="axis3d_1">
   <g id="line2d_1">
    <path d="M 123.197291 241.969309 
L 272.679269 290.790123 
" style="fill: none; stroke: #000000; stroke-width: 0.8; stroke-linecap: square"/>
   </g>
   <g id="text_1">
    <!-- X -->
    <g transform="translate(176.251428 303.76759) scale(0.1 -0.1)">
     <defs>
      <path id="DejaVuSans-58" d="M 403 4666 
L 1081 4666 
L 2241 2931 
L 3406 4666 
L 4084 4666 
L 2584 2425 
L 4184 0 
L 3506 0 
L 2194 1984 
L 872 0 
L 191 0 
L 1856 2491 
L 403 4666 
z
" transform="scale(0.015625)"/>
     </defs>
     <use xlink:href="#DejaVuSans-58"/>
    </g>
   </g>
   <g id="Line3DCollection_1">
    <path d="M 142.875895 248.396341 
L 229.711316 173.723998 
L 229.280546 66.997911 
" style="fill: none; stroke: #b0b0b0; stroke-width: 0.8"/>
    <path d="M 160.414823 254.124555 
L 246.30197 178.546246 
L 246.584383 71.383929 
" style="fill: none; stroke: #b0b0b0; stroke-width: 0.8"/>
    <path d="M 178.17646 259.925505 
L 263.085764 183.424632 
L 264.098406 75.823224 
" style="fill: none; stroke: #b0b0b0; stroke-width: 0.8"/>
    <path d="M 196.165076 265.800587 
L 280.066092 188.360143 
L 281.82647 80.316771 
" style="fill: none; stroke: #b0b0b0; stroke-width: 0.8"/>
    <path d="M 214.385049 271.751231 
L 297.246425 193.353788 
L 299.772522 84.865572 
" style="fill: none; stroke: #b0b0b0; stroke-width: 0.8"/>
    <path d="M 232.840873 277.778902 
L 314.630318 198.406599 
L 317.940607 89.470652 
" style="fill: none; stroke: #b0b0b0; stroke-width: 0.8"/>
    <path d="M 251.537155 283.885108 
L 332.221411 203.519635 
L 336.334872 94.133062 
" style="fill: none; stroke: #b0b0b0; stroke-width: 0.8"/>
   </g>
   <g id="xtick_1">
    <g id="line2d_2">
     <path d="M 143.632289 247.745896 
L 141.35985 249.700033 
" style="fill: none; stroke: #000000; stroke-width: 0.8; stroke-linecap: square"/>
    </g>
    <g id="text_2">
     <!-- −6 -->
     <g transform="translate(127.986406 271.778941) scale(0.1 -0.1)">
      <defs>
       <path id="DejaVuSans-2212" d="M 678 2272 
L 4684 2272 
L 4684 1741 
L 678 1741 
L 678 2272 
z
" transform="scale(0.015625)"/>
       <path id="DejaVuSans-36" d="M 2113 2584 
Q 1688 2584 1439 2293 
Q 1191 2003 1191 1497 
Q 1191 994 1439 701 
Q 1688 409 2113 409 
Q 2538 409 2786 701 
Q 3034 994 3034 1497 
Q 3034 2003 2786 2293 
Q 2538 2584 2113 2584 
z
M 3366 4563 
L 3366 3988 
Q 3128 4100 2886 4159 
Q 2644 4219 2406 4219 
Q 1781 4219 1451 3797 
Q 1122 3375 1075 2522 
Q 1259 2794 1537 2939 
Q 1816 3084 2150 3084 
Q 2853 3084 3261 2657 
Q 3669 2231 3669 1497 
Q 3669 778 3244 343 
Q 2819 -91 2113 -91 
Q 1303 -91 875 529 
Q 447 1150 447 2328 
Q 447 3434 972 4092 
Q 1497 4750 2381 4750 
Q 2619 4750 2861 4703 
Q 3103 4656 3366 4563 
z
" transform="scale(0.015625)"/>
      </defs>
      <use xlink:href="#DejaVuSans-2212"/>
      <use xlink:href="#DejaVuSans-36" x="83.789062"/>
     </g>
    </g>
   </g>
   <g id="xtick_2">
    <g id="line2d_3">
     <path d="M 161.163341 253.465879 
L 158.914541 255.444761 
" style="fill: none; stroke: #000000; stroke-width: 0.8; stroke-linecap: square"/>
    </g>
    <g id="text_3">
     <!-- −4 -->
     <g transform="translate(145.543585 277.628621) scale(0.1 -0.1)">
      <defs>
       <path id="DejaVuSans-34" d="M 2419 4116 
L 825 1625 
L 2419 1625 
L 2419 4116 
z
M 2253 4666 
L 3047 4666 
L 3047 1625 
L 3713 1625 
L 3713 1100 
L 3047 1100 
L 3047 0 
L 2419 0 
L 2419 1100 
L 313 1100 
L 313 1709 
L 2253 4666 
z
" transform="scale(0.015625)"/>
      </defs>
      <use xlink:href="#DejaVuSans-2212"/>
      <use xlink:href="#DejaVuSans-34" x="83.789062"/>
     </g>
    </g>
   </g>
   <g id="xtick_3">
    <g id="line2d_4">
     <path d="M 178.916842 259.258443 
L 176.692467 261.262541 
" style="fill: none; stroke: #000000; stroke-width: 0.8; stroke-linecap: square"/>
    </g>
    <g id="text_4">
     <!-- −2 -->
     <g transform="translate(163.324547 283.552861) scale(0.1 -0.1)">
      <defs>
       <path id="DejaVuSans-32" d="M 1228 531 
L 3431 531 
L 3431 0 
L 469 0 
L 469 531 
Q 828 903 1448 1529 
Q 2069 2156 2228 2338 
Q 2531 2678 2651 2914 
Q 2772 3150 2772 3378 
Q 2772 3750 2511 3984 
Q 2250 4219 1831 4219 
Q 1534 4219 1204 4116 
Q 875 4013 500 3803 
L 500 4441 
Q 881 4594 1212 4672 
Q 1544 4750 1819 4750 
Q 2544 4750 2975 4387 
Q 3406 4025 3406 3419 
Q 3406 3131 3298 2873 
Q 3191 2616 2906 2266 
Q 2828 2175 2409 1742 
Q 1991 1309 1228 531 
z
" transform="scale(0.015625)"/>
      </defs>
      <use xlink:href="#DejaVuSans-2212"/>
      <use xlink:href="#DejaVuSans-32" x="83.789062"/>
     </g>
    </g>
   </g>
   <g id="xtick_4">
    <g id="line2d_5">
     <path d="M 196.897051 265.124976 
L 194.697912 267.154776 
" style="fill: none; stroke: #000000; stroke-width: 0.8; stroke-linecap: square"/>
    </g>
    <g id="text_5">
     <!-- 0 -->
     <g transform="translate(185.523444 289.553095) scale(0.1 -0.1)">
      <defs>
       <path id="DejaVuSans-30" d="M 2034 4250 
Q 1547 4250 1301 3770 
Q 1056 3291 1056 2328 
Q 1056 1369 1301 889 
Q 1547 409 2034 409 
Q 2525 409 2770 889 
Q 3016 1369 3016 2328 
Q 3016 3291 2770 3770 
Q 2525 4250 2034 4250 
z
M 2034 4750 
Q 2819 4750 3233 4129 
Q 3647 3509 3647 2328 
Q 3647 1150 3233 529 
Q 2819 -91 2034 -91 
Q 1250 -91 836 529 
Q 422 1150 422 2328 
Q 422 3509 836 4129 
Q 1250 4750 2034 4750 
z
" transform="scale(0.015625)"/>
      </defs>
      <use xlink:href="#DejaVuSans-30"/>
     </g>
    </g>
   </g>
   <g id="xtick_5">
    <g id="line2d_6">
     <path d="M 215.10834 271.066905 
L 212.935272 273.122905 
" style="fill: none; stroke: #000000; stroke-width: 0.8; stroke-linecap: square"/>
    </g>
    <g id="text_6">
     <!-- 2 -->
     <g transform="translate(203.765003 295.630796) scale(0.1 -0.1)">
      <use xlink:href="#DejaVuSans-32"/>
     </g>
    </g>
   </g>
   <g id="xtick_6">
    <g id="line2d_7">
     <path d="M 233.555192 277.085693 
L 231.409057 279.168403 
" style="fill: none; stroke: #000000; stroke-width: 0.8; stroke-linecap: square"/>
    </g>
    <g id="text_7">
     <!-- 4 -->
     <g transform="translate(222.243601 301.787474) scale(0.1 -0.1)">
      <use xlink:href="#DejaVuSans-34"/>
     </g>
    </g>
   </g>
   <g id="xtick_7">
    <g id="line2d_8">
     <path d="M 252.242207 283.182841 
L 250.123894 285.292785 
" style="fill: none; stroke: #000000; stroke-width: 0.8; stroke-linecap: square"/>
    </g>
    <g id="text_8">
     <!-- 6 -->
     <g transform="translate(240.963889 308.024677) scale(0.1 -0.1)">
      <use xlink:href="#DejaVuSans-36"/>
     </g>
    </g>
   </g>
  </g>
  <g id="axis3d_2">
   <g id="line2d_9">
    <path d="M 352.090401 209.294766 
L 272.679269 290.790123 
" style="fill: none; stroke: #000000; stroke-width: 0.8; stroke-linecap: square"/>
   </g>
   <g id="text_9">
    <!-- Y -->
    <g transform="translate(338.078875 278.988697) scale(0.1 -0.1)">
     <defs>
      <path id="DejaVuSans-59" d="M -13 4666 
L 666 4666 
L 1959 2747 
L 3244 4666 
L 3922 4666 
L 2272 2222 
L 2272 0 
L 1638 0 
L 1638 2222 
L -13 4666 
z
" transform="scale(0.015625)"/>
     </defs>
     <use xlink:href="#DejaVuSans-59"/>
    </g>
   </g>
   <g id="Line3DCollection_2">
    <path d="M 206.366666 64.6193 
L 207.735376 171.10781 
L 349.084316 212.379749 
" style="fill: none; stroke: #b0b0b0; stroke-width: 0.8"/>
    <path d="M 195.979082 72.199686 
L 197.791609 179.442873 
L 340.130823 221.568234 
" style="fill: none; stroke: #b0b0b0; stroke-width: 0.8"/>
    <path d="M 185.371729 79.940448 
L 187.646262 187.946903 
L 330.986616 230.95244 
" style="fill: none; stroke: #b0b0b0; stroke-width: 0.8"/>
    <path d="M 174.537561 87.846731 
L 177.293145 196.625092 
L 321.645535 240.538687 
" style="fill: none; stroke: #b0b0b0; stroke-width: 0.8"/>
    <path d="M 163.469222 95.923901 
L 166.725807 205.482844 
L 312.101154 250.333571 
" style="fill: none; stroke: #b0b0b0; stroke-width: 0.8"/>
    <path d="M 152.159038 104.177558 
L 155.937531 214.525791 
L 302.346761 260.343977 
" style="fill: none; stroke: #b0b0b0; stroke-width: 0.8"/>
    <path d="M 140.598995 112.613551 
L 144.921314 223.759802 
L 292.375349 270.577099 
" style="fill: none; stroke: #b0b0b0; stroke-width: 0.8"/>
    <path d="M 128.780721 121.237989 
L 133.669856 233.190998 
L 282.179593 281.040453 
" style="fill: none; stroke: #b0b0b0; stroke-width: 0.8"/>
   </g>
   <g id="xtick_8">
    <g id="line2d_10">
     <path d="M 347.897812 212.033306 
L 351.460156 213.073461 
" style="fill: none; stroke: #000000; stroke-width: 0.8; stroke-linecap: square"/>
    </g>
    <g id="text_10">
     <!-- −8 -->
     <g transform="translate(353.640287 232.326683) scale(0.1 -0.1)">
      <defs>
       <path id="DejaVuSans-38" d="M 2034 2216 
Q 1584 2216 1326 1975 
Q 1069 1734 1069 1313 
Q 1069 891 1326 650 
Q 1584 409 2034 409 
Q 2484 409 2743 651 
Q 3003 894 3003 1313 
Q 3003 1734 2745 1975 
Q 2488 2216 2034 2216 
z
M 1403 2484 
Q 997 2584 770 2862 
Q 544 3141 544 3541 
Q 544 4100 942 4425 
Q 1341 4750 2034 4750 
Q 2731 4750 3128 4425 
Q 3525 4100 3525 3541 
Q 3525 3141 3298 2862 
Q 3072 2584 2669 2484 
Q 3125 2378 3379 2068 
Q 3634 1759 3634 1313 
Q 3634 634 3220 271 
Q 2806 -91 2034 -91 
Q 1263 -91 848 271 
Q 434 634 434 1313 
Q 434 1759 690 2068 
Q 947 2378 1403 2484 
z
M 1172 3481 
Q 1172 3119 1398 2916 
Q 1625 2713 2034 2713 
Q 2441 2713 2670 2916 
Q 2900 3119 2900 3481 
Q 2900 3844 2670 4047 
Q 2441 4250 2034 4250 
Q 1625 4250 1398 4047 
Q 1172 3844 1172 3481 
z
" transform="scale(0.015625)"/>
      </defs>
      <use xlink:href="#DejaVuSans-2212"/>
      <use xlink:href="#DejaVuSans-38" x="83.789062"/>
     </g>
    </g>
   </g>
   <g id="xtick_9">
    <g id="line2d_11">
     <path d="M 338.935416 221.214453 
L 342.524522 222.276651 
" style="fill: none; stroke: #000000; stroke-width: 0.8; stroke-linecap: square"/>
    </g>
    <g id="text_11">
     <!-- −6 -->
     <g transform="translate(344.807553 241.650502) scale(0.1 -0.1)">
      <use xlink:href="#DejaVuSans-2212"/>
      <use xlink:href="#DejaVuSans-36" x="83.789062"/>
     </g>
    </g>
   </g>
   <g id="xtick_10">
    <g id="line2d_12">
     <path d="M 329.782193 230.591085 
L 333.398399 231.676033 
" style="fill: none; stroke: #000000; stroke-width: 0.8; stroke-linecap: square"/>
    </g>
    <g id="text_12">
     <!-- −4 -->
     <g transform="translate(335.78657 251.173036) scale(0.1 -0.1)">
      <use xlink:href="#DejaVuSans-2212"/>
      <use xlink:href="#DejaVuSans-34" x="83.789062"/>
     </g>
    </g>
   </g>
   <g id="xtick_11">
    <g id="line2d_13">
     <path d="M 320.431983 240.169511 
L 324.07563 241.277949 
" style="fill: none; stroke: #000000; stroke-width: 0.8; stroke-linecap: square"/>
    </g>
    <g id="text_13">
     <!-- −2 -->
     <g transform="translate(326.571256 260.900706) scale(0.1 -0.1)">
      <use xlink:href="#DejaVuSans-2212"/>
      <use xlink:href="#DejaVuSans-32" x="83.789062"/>
     </g>
    </g>
   </g>
   <g id="xtick_12">
    <g id="line2d_14">
     <path d="M 310.878358 249.956318 
L 314.54979 251.089016 
" style="fill: none; stroke: #000000; stroke-width: 0.8; stroke-linecap: square"/>
    </g>
    <g id="text_14">
     <!-- 0 -->
     <g transform="translate(321.345106 270.840213) scale(0.1 -0.1)">
      <use xlink:href="#DejaVuSans-30"/>
     </g>
    </g>
   </g>
   <g id="xtick_13">
    <g id="line2d_15">
     <path d="M 301.114607 259.95838 
L 304.814172 261.116144 
" style="fill: none; stroke: #000000; stroke-width: 0.8; stroke-linecap: square"/>
    </g>
    <g id="text_15">
     <!-- 2 -->
     <g transform="translate(311.721805 280.998552) scale(0.1 -0.1)">
      <use xlink:href="#DejaVuSans-32"/>
     </g>
    </g>
   </g>
   <g id="xtick_14">
    <g id="line2d_16">
     <path d="M 291.13372 270.182877 
L 294.861768 271.366548 
" style="fill: none; stroke: #000000; stroke-width: 0.8; stroke-linecap: square"/>
    </g>
    <g id="text_16">
     <!-- 4 -->
     <g transform="translate(301.884276 291.383031) scale(0.1 -0.1)">
      <use xlink:href="#DejaVuSans-34"/>
     </g>
    </g>
   </g>
   <g id="xtick_15">
    <g id="line2d_17">
     <path d="M 280.928373 280.637313 
L 284.685255 281.847771 
" style="fill: none; stroke: #000000; stroke-width: 0.8; stroke-linecap: square"/>
    </g>
    <g id="text_17">
     <!-- 6 -->
     <g transform="translate(291.825283 302.001287) scale(0.1 -0.1)">
      <use xlink:href="#DejaVuSans-36"/>
     </g>
    </g>
   </g>
  </g>
  <g id="axis3d_3">
   <g id="line2d_18">
    <path d="M 352.090401 209.294766 
L 357.122702 99.402171 
" style="fill: none; stroke: #000000; stroke-width: 0.8; stroke-linecap: square"/>
   </g>
   <g id="text_18">
    <!-- Altitude -->
    <g transform="translate(396.789938 169.786959) rotate(-87.378092) scale(0.1 -0.1)">
     <defs>
      <path id="DejaVuSans-41" d="M 2188 4044 
L 1331 1722 
L 3047 1722 
L 2188 4044 
z
M 1831 4666 
L 2547 4666 
L 4325 0 
L 3669 0 
L 3244 1197 
L 1141 1197 
L 716 0 
L 50 0 
L 1831 4666 
z
" transform="scale(0.015625)"/>
      <path id="DejaVuSans-6c" d="M 603 4863 
L 1178 4863 
L 1178 0 
L 603 0 
L 603 4863 
z
" transform="scale(0.015625)"/>
      <path id="DejaVuSans-74" d="M 1172 4494 
L 1172 3500 
L 2356 3500 
L 2356 3053 
L 1172 3053 
L 1172 1153 
Q 1172 725 1289 603 
Q 1406 481 1766 481 
L 2356 481 
L 2356 0 
L 1766 0 
Q 1100 0 847 248 
Q 594 497 594 1153 
L 594 3053 
L 172 3053 
L 172 3500 
L 594 3500 
L 594 4494 
L 1172 4494 
z
" transform="scale(0.015625)"/>
      <path id="DejaVuSans-69" d="M 603 3500 
L 1178 3500 
L 1178 0 
L 603 0 
L 603 3500 
z
M 603 4863 
L 1178 4863 
L 1178 4134 
L 603 4134 
L 603 4863 
z
" transform="scale(0.015625)"/>
      <path id="DejaVuSans-75" d="M 544 1381 
L 544 3500 
L 1119 3500 
L 1119 1403 
Q 1119 906 1312 657 
Q 1506 409 1894 409 
Q 2359 409 2629 706 
Q 2900 1003 2900 1516 
L 2900 3500 
L 3475 3500 
L 3475 0 
L 2900 0 
L 2900 538 
Q 2691 219 2414 64 
Q 2138 -91 1772 -91 
Q 1169 -91 856 284 
Q 544 659 544 1381 
z
M 1991 3584 
L 1991 3584 
z
" transform="scale(0.015625)"/>
      <path id="DejaVuSans-64" d="M 2906 2969 
L 2906 4863 
L 3481 4863 
L 3481 0 
L 2906 0 
L 2906 525 
Q 2725 213 2448 61 
Q 2172 -91 1784 -91 
Q 1150 -91 751 415 
Q 353 922 353 1747 
Q 353 2572 751 3078 
Q 1150 3584 1784 3584 
Q 2172 3584 2448 3432 
Q 2725 3281 2906 2969 
z
M 947 1747 
Q 947 1113 1208 752 
Q 1469 391 1925 391 
Q 2381 391 2643 752 
Q 2906 1113 2906 1747 
Q 2906 2381 2643 2742 
Q 2381 3103 1925 3103 
Q 1469 3103 1208 2742 
Q 947 2381 947 1747 
z
" transform="scale(0.015625)"/>
      <path id="DejaVuSans-65" d="M 3597 1894 
L 3597 1613 
L 953 1613 
Q 991 1019 1311 708 
Q 1631 397 2203 397 
Q 2534 397 2845 478 
Q 3156 559 3463 722 
L 3463 178 
Q 3153 47 2828 -22 
Q 2503 -91 2169 -91 
Q 1331 -91 842 396 
Q 353 884 353 1716 
Q 353 2575 817 3079 
Q 1281 3584 2069 3584 
Q 2775 3584 3186 3129 
Q 3597 2675 3597 1894 
z
M 3022 2063 
Q 3016 2534 2758 2815 
Q 2500 3097 2075 3097 
Q 1594 3097 1305 2825 
Q 1016 2553 972 2059 
L 3022 2063 
z
" transform="scale(0.015625)"/>
     </defs>
     <use xlink:href="#DejaVuSans-41"/>
     <use xlink:href="#DejaVuSans-6c" x="68.408203"/>
     <use xlink:href="#DejaVuSans-74" x="96.191406"/>
     <use xlink:href="#DejaVuSans-69" x="135.400391"/>
     <use xlink:href="#DejaVuSans-74" x="163.183594"/>
     <use xlink:href="#DejaVuSans-75" x="202.392578"/>
     <use xlink:href="#DejaVuSans-64" x="265.771484"/>
     <use xlink:href="#DejaVuSans-65" x="329.248047"/>
    </g>
   </g>
   <g id="Line3DCollection_3">
    <path d="M 352.569743 198.827157 
L 210.959581 158.169082 
L 122.681135 231.250997 
" style="fill: none; stroke: #b0b0b0; stroke-width: 0.8"/>
    <path d="M 353.16147 185.905349 
L 210.815728 145.659279 
L 122.043735 218.01496 
" style="fill: none; stroke: #b0b0b0; stroke-width: 0.8"/>
    <path d="M 353.759437 172.847272 
L 210.670431 133.023863 
L 121.399356 204.634011 
" style="fill: none; stroke: #b0b0b0; stroke-width: 0.8"/>
    <path d="M 354.363744 159.650759 
L 210.523667 120.260933 
L 120.747883 191.105755 
" style="fill: none; stroke: #b0b0b0; stroke-width: 0.8"/>
    <path d="M 354.974491 146.313597 
L 210.375415 107.368549 
L 120.089198 177.427748 
" style="fill: none; stroke: #b0b0b0; stroke-width: 0.8"/>
    <path d="M 355.591783 132.833524 
L 210.225652 94.344731 
L 119.423182 163.597488 
" style="fill: none; stroke: #b0b0b0; stroke-width: 0.8"/>
    <path d="M 356.215724 119.208233 
L 210.074354 81.187459 
L 118.749711 149.61242 
" style="fill: none; stroke: #b0b0b0; stroke-width: 0.8"/>
    <path d="M 356.846424 105.435363 
L 209.921497 67.894671 
L 118.068659 135.46993 
" style="fill: none; stroke: #b0b0b0; stroke-width: 0.8"/>
   </g>
   <g id="xtick_16">
    <g id="line2d_19">
     <path d="M 351.381006 198.485856 
L 354.950055 199.510575 
" style="fill: none; stroke: #000000; stroke-width: 0.8; stroke-linecap: square"/>
    </g>
    <g id="text_19">
     <!-- 0 -->
     <g transform="translate(367.713323 203.841033) scale(0.1 -0.1)">
      <use xlink:href="#DejaVuSans-30"/>
     </g>
    </g>
   </g>
   <g id="xtick_17">
    <g id="line2d_20">
     <path d="M 351.966264 185.567423 
L 355.554751 186.582013 
" style="fill: none; stroke: #000000; stroke-width: 0.8; stroke-linecap: square"/>
    </g>
    <g id="text_20">
     <!-- 2 -->
     <g transform="translate(368.399085 190.94482) scale(0.1 -0.1)">
      <use xlink:href="#DejaVuSans-32"/>
     </g>
    </g>
   </g>
   <g id="xtick_18">
    <g id="line2d_21">
     <path d="M 352.557692 172.512812 
L 356.165829 173.517 
" style="fill: none; stroke: #000000; stroke-width: 0.8; stroke-linecap: square"/>
    </g>
    <g id="text_21">
     <!-- 4 -->
     <g transform="translate(369.092057 177.913022) scale(0.1 -0.1)">
      <use xlink:href="#DejaVuSans-34"/>
     </g>
    </g>
   </g>
   <g id="xtick_19">
    <g id="line2d_22">
     <path d="M 353.155387 159.319857 
L 356.78339 160.313366 
" style="fill: none; stroke: #000000; stroke-width: 0.8; stroke-linecap: square"/>
    </g>
    <g id="text_22">
     <!-- 6 -->
     <g transform="translate(369.792353 164.743489) scale(0.1 -0.1)">
      <use xlink:href="#DejaVuSans-36"/>
     </g>
    </g>
   </g>
   <g id="xtick_20">
    <g id="line2d_23">
     <path d="M 353.759449 145.986348 
L 357.407539 146.968892 
" style="fill: none; stroke: #000000; stroke-width: 0.8; stroke-linecap: square"/>
    </g>
    <g id="text_23">
     <!-- 8 -->
     <g transform="translate(370.50009 151.434026) scale(0.1 -0.1)">
      <use xlink:href="#DejaVuSans-38"/>
     </g>
    </g>
   </g>
   <g id="xtick_21">
    <g id="line2d_24">
     <path d="M 354.369982 132.510026 
L 358.038382 133.481314 
" style="fill: none; stroke: #000000; stroke-width: 0.8; stroke-linecap: square"/>
    </g>
    <g id="text_24">
     <!-- 10 -->
     <g transform="translate(368.034137 137.98239) scale(0.1 -0.1)">
      <defs>
       <path id="DejaVuSans-31" d="M 794 531 
L 1825 531 
L 1825 4091 
L 703 3866 
L 703 4441 
L 1819 4666 
L 2450 4666 
L 2450 531 
L 3481 531 
L 3481 0 
L 794 0 
L 794 531 
z
" transform="scale(0.015625)"/>
      </defs>
      <use xlink:href="#DejaVuSans-31"/>
      <use xlink:href="#DejaVuSans-30" x="63.623047"/>
     </g>
    </g>
   </g>
   <g id="xtick_22">
    <g id="line2d_25">
     <path d="M 354.987089 118.888586 
L 358.676025 119.848316 
" style="fill: none; stroke: #000000; stroke-width: 0.8; stroke-linecap: square"/>
    </g>
    <g id="text_25">
     <!-- 12 -->
     <g transform="translate(368.757116 124.386293) scale(0.1 -0.1)">
      <use xlink:href="#DejaVuSans-31"/>
      <use xlink:href="#DejaVuSans-32" x="63.623047"/>
     </g>
    </g>
   </g>
   <g id="xtick_23">
    <g id="line2d_26">
     <path d="M 355.610877 105.119669 
L 359.320581 106.067533 
" style="fill: none; stroke: #000000; stroke-width: 0.8; stroke-linecap: square"/>
    </g>
    <g id="text_26">
     <!-- 14 -->
     <g transform="translate(369.487901 110.643393) scale(0.1 -0.1)">
      <use xlink:href="#DejaVuSans-31"/>
      <use xlink:href="#DejaVuSans-34" x="63.623047"/>
     </g>
    </g>
   </g>
  </g>
  <g id="axes_1">
   <g id="line2d_27">
    <path d="M 274.030006 194.431702 
L 272.035504 198.489092 
L 269.799965 202.391853 
L 267.384857 206.066311 
L 264.851115 209.442635 
L 262.257228 212.456969 
L 259.657405 215.053447 
L 257.099881 217.18597 
L 255.438866 218.332188 
L 253.824998 219.249131 
L 252.266491 219.931999 
L 250.769676 220.378564 
L 249.33897 220.589173 
L 247.976864 220.566704 
L 246.683955 220.316481 
L 245.459028 219.846154 
L 244.299146 219.165533 
L 243.199791 218.286399 
L 242.155026 217.222289 
L 240.674223 215.312545 
L 239.271432 213.076542 
L 237.466738 209.691995 
L 231.213151 197.197705 
L 228.918185 193.39743 
L 227.033865 190.683789 
L 225.003561 188.125619 
L 222.830557 185.749098 
L 220.52674 183.572392 
L 218.112747 181.605679 
L 215.617819 179.851304 
L 213.079445 178.304188 
L 209.706282 176.542256 
L 205.686734 174.757518 
L 198.94066 171.86639 
L 197.909176 171.171608 
L 197.471042 170.700751 
L 197.249338 170.214637 
L 197.256478 169.70645 
L 197.50283 169.170433 
L 197.996473 168.602045 
L 199.212147 167.682145 
L 201.003864 166.677851 
L 203.365157 165.592228 
L 207.361408 164.038385 
L 212.243241 162.407791 
L 217.881813 160.769894 
L 224.113977 159.212196 
L 230.750864 157.834884 
L 235.871201 156.984368 
L 241.015066 156.340525 
L 246.094017 155.94693 
L 251.022423 155.843996 
L 254.184264 155.954793 
L 257.220771 156.220062 
L 260.111159 156.647732 
L 262.836243 157.244301 
L 265.378786 158.014697 
L 267.723448 158.962192 
L 269.85705 160.088327 
L 271.768567 161.392834 
L 273.449155 162.873554 
L 274.892295 164.526476 
L 276.093696 166.345636 
L 277.051369 168.323227 
L 277.765546 170.449495 
L 278.238663 172.712915 
L 278.475294 175.100203 
L 278.48204 177.596338 
L 278.267447 180.184822 
L 277.841882 182.847651 
L 277.217371 185.565626 
L 276.407453 188.318459 
L 275.427001 191.084915 
L 273.671813 195.21232 
L 271.626727 199.246085 
L 269.35228 203.110962 
L 266.909935 206.733921 
L 264.360348 210.046052 
L 261.761316 212.984885 
L 259.166036 215.496288 
L 256.621436 217.536198 
L 254.97293 218.617603 
L 253.374114 219.468096 
L 251.832661 220.083616 
L 250.354348 220.462676 
L 248.943058 220.606343 
L 247.600732 220.518207 
L 246.327425 220.204271 
L 245.121432 219.672814 
L 243.979361 218.934241 
L 242.896258 218.000852 
L 241.865801 216.886628 
L 240.40217 214.910332 
L 239.01068 212.618948 
L 237.211125 209.178922 
L 231.445607 197.614092 
L 229.175924 193.796334 
L 227.312277 191.063073 
L 225.302833 188.480865 
L 223.149702 186.077051 
L 220.86355 183.870978 
L 218.463706 181.873899 
L 215.978256 180.08931 
L 213.443488 178.513122 
L 210.064298 176.71586 
L 206.016973 174.894999 
L 199.122254 171.966038 
L 198.030019 171.271353 
L 197.3851 170.563848 
L 197.227542 170.07208 
L 197.302011 169.556491 
L 197.61824 169.011637 
L 197.869423 168.726885 
L 197.869423 168.726885 
" clip-path="url(#p8e5368ef97)" style="fill: none; stroke-dasharray: 1.3,2.145; stroke-dashoffset: 0; stroke: #008000; stroke-width: 1.3"/>
   </g>
   <g id="line2d_28">
    <path d="M 165.090052 141.934833 
L 162.823119 141.730481 
L 163.477679 142.585887 
" clip-path="url(#p8e5368ef97)" style="fill: none; stroke: #ff0000; stroke-width: 2; stroke-linecap: square"/>
   </g>
   <g id="line2d_29">
    <path d="M 160.6181 141.37325 
L 162.823119 141.730481 
L 162.234895 140.725233 
" clip-path="url(#p8e5368ef97)" style="fill: none; stroke: #0000ff; stroke-width: 2; stroke-linecap: square"/>
   </g>
   <g id="line2d_30">
    <path d="M 237.759857 216.792892 
L 237.768525 216.697304 
L 237.862965 217.393411 
L 237.859802 218.828348 
L 237.568862 221.079922 
L 236.892488 223.78733 
L 235.924613 226.350777 
L 234.872203 228.332096 
L 233.985798 229.559938 
L 233.336075 230.208924 
L 232.82681 230.48418 
L 232.334167 230.508898 
L 231.519411 230.228604 
L 230.929905 229.821134 
L 229.976792 228.84679 
L 229.004971 227.602385 
L 228.457933 226.650926 
L 228.081474 225.531468 
L 227.932623 224.164535 
L 228.008038 222.512199 
L 228.213139 219.641285 
L 228.125938 216.542097 
L 227.485785 209.543772 
L 226.687727 202.864456 
L 225.58313 195.515451 
L 224.737739 190.876938 
L 223.881107 187.764228 
L 222.630842 184.728408 
L 221.00312 181.743457 
L 219.014633 178.792903 
L 216.645207 175.909748 
L 213.889632 173.15648 
L 210.819164 170.600136 
L 207.53057 168.295689 
L 204.078866 166.285434 
L 200.531868 164.572131 
L 197.002455 163.13307 
L 191.831345 161.272636 
L 188.361449 160.175865 
L 184.800711 159.317469 
L 181.243839 158.708147 
L 173.289032 157.530067 
L 170.833063 156.779795 
L 168.958599 155.77727 
L 166.924317 154.212571 
L 164.536903 152.311926 
L 164.105349 151.570783 
L 163.956836 150.822869 
L 164.192521 149.962038 
L 164.922293 148.940594 
L 166.146143 147.810521 
L 167.859937 146.566654 
L 171.39552 144.342114 
L 174.372874 142.657342 
L 177.851337 140.945059 
L 181.884791 139.24857 
L 186.464881 137.565804 
L 191.619705 135.930005 
L 197.391238 134.426286 
L 203.814282 133.137311 
L 210.882107 132.020998 
L 226.405981 129.757393 
L 234.350343 128.346635 
L 238.234745 127.515195 
L 242.007802 126.588992 
L 245.633068 125.567853 
L 249.076204 124.456643 
L 252.304609 123.265134 
L 258.074558 120.814096 
L 267.506953 116.59953 
L 269.679623 115.8435 
L 271.858135 115.221884 
L 274.082143 114.748545 
L 276.377995 114.424261 
L 278.724637 114.264585 
L 281.068007 114.291489 
L 285.519815 114.691367 
L 292.978886 115.679914 
L 296.36705 116.373886 
L 301.300285 116.935377 
L 302.891083 117.303018 
L 304.460412 117.835 
L 306.011443 118.514087 
L 307.540464 119.335339 
L 309.039365 120.310673 
L 310.499071 121.451291 
L 311.908671 122.762457 
L 313.252758 124.245776 
L 314.508521 125.901368 
L 315.644377 127.726193 
L 316.611931 129.707241 
L 317.368825 131.80612 
L 317.835756 133.926251 
L 318.021831 136.045072 
L 318.02679 138.184481 
L 317.847139 140.248995 
L 317.136463 144.406249 
L 316.071971 148.970352 
L 314.522632 154.048906 
L 312.38687 159.87217 
L 311.027444 163.066447 
L 309.391788 166.336809 
L 307.452429 169.607326 
L 305.299788 172.861928 
L 303.021659 176.087841 
L 298.292414 182.222811 
L 281.591512 202.801659 
L 279.332123 205.10757 
L 275.409324 208.454212 
L 272.239502 210.804571 
L 268.837565 212.865598 
L 263.862686 215.500543 
L 259.015901 217.884842 
L 257.403283 218.547095 
L 255.786258 219.086684 
L 254.162707 219.481189 
L 252.531777 219.718263 
L 250.894039 219.787242 
L 249.252191 219.685703 
L 247.609938 219.411128 
L 245.971118 218.961324 
L 244.337833 218.35112 
L 242.710399 217.61853 
L 241.088815 216.765857 
L 239.491834 215.766319 
L 237.949374 214.621649 
L 236.486164 213.343355 
L 233.855041 210.519798 
L 231.637068 207.580165 
L 229.881897 204.770863 
L 228.163985 201.664603 
L 227.664699 200.297206 
L 227.874625 199.232086 
L 228.154013 197.168381 
L 228.402356 194.204513 
L 228.448547 192.605845 
L 228.382215 190.983953 
L 228.160175 189.351206 
L 227.717246 187.677993 
L 227.059479 186.023536 
L 225.356729 182.950003 
L 220.834701 175.962958 
L 219.765764 174.517764 
L 218.584632 173.123556 
L 217.304192 171.830959 
L 215.928723 170.639233 
L 212.956951 168.459817 
L 204.976941 163.171114 
L 201.584663 161.159694 
L 198.090047 159.356611 
L 192.859991 157.028814 
L 187.715952 155.041531 
L 184.273148 153.910543 
L 179.178479 152.564146 
L 173.114865 151.025844 
L 170.649966 150.105302 
L 168.644168 149.061433 
L 163.700688 145.951273 
L 162.908834 145.152334 
L 162.375268 144.380555 
L 162.087444 143.647413 
L 162.077236 143.247959 
L 162.192622 142.791198 
L 162.443144 142.278922 
L 162.443144 142.278922 
" clip-path="url(#p8e5368ef97)" style="fill: none; stroke-dasharray: 3.7,1.6; stroke-dashoffset: 0; stroke: #0000ff"/>
   </g>
   <g id="Path3DCollection_1">
    <defs>
     <path id="mcbf8a02909" d="M 0 2.5 
C 0.663008 2.5 1.29895 2.236584 1.767767 1.767767 
C 2.236584 1.29895 2.5 0.663008 2.5 0 
C 2.5 -0.663008 2.236584 -1.29895 1.767767 -1.767767 
C 1.29895 -2.236584 0.663008 -2.5 0 -2.5 
C -0.663008 -2.5 -1.29895 -2.236584 -1.767767 -1.767767 
C -2.236584 -1.29895 -2.5 -0.663008 -2.5 0 
C -2.5 0.663008 -2.236584 1.29895 -1.767767 1.767767 
C -1.29895 2.236584 -0.663008 2.5 0 2.5 
z
" style="stroke: #ff00ff"/>
    </defs>
    <g clip-path="url(#p8e5368ef97)">
     <use xlink:href="#mcbf8a02909" x="197.61824" y="169.011637" style="fill: #ff00ff; stroke: #ff00ff"/>
    </g>
   </g>
   <g id="text_27">
    <!-- Time = 19.92 s -->
    <g transform="translate(116.4096 54.7776) scale(0.1 -0.1)">
     <defs>
      <path id="DejaVuSans-54" d="M -19 4666 
L 3928 4666 
L 3928 4134 
L 2272 4134 
L 2272 0 
L 1638 0 
L 1638 4134 
L -19 4134 
L -19 4666 
z
" transform="scale(0.015625)"/>
      <path id="DejaVuSans-6d" d="M 3328 2828 
Q 3544 3216 3844 3400 
Q 4144 3584 4550 3584 
Q 5097 3584 5394 3201 
Q 5691 2819 5691 2113 
L 5691 0 
L 5113 0 
L 5113 2094 
Q 5113 2597 4934 2840 
Q 4756 3084 4391 3084 
Q 3944 3084 3684 2787 
Q 3425 2491 3425 1978 
L 3425 0 
L 2847 0 
L 2847 2094 
Q 2847 2600 2669 2842 
Q 2491 3084 2119 3084 
Q 1678 3084 1418 2786 
Q 1159 2488 1159 1978 
L 1159 0 
L 581 0 
L 581 3500 
L 1159 3500 
L 1159 2956 
Q 1356 3278 1631 3431 
Q 1906 3584 2284 3584 
Q 2666 3584 2933 3390 
Q 3200 3197 3328 2828 
z
" transform="scale(0.015625)"/>
      <path id="DejaVuSans-20" transform="scale(0.015625)"/>
      <path id="DejaVuSans-3d" d="M 678 2906 
L 4684 2906 
L 4684 2381 
L 678 2381 
L 678 2906 
z
M 678 1631 
L 4684 1631 
L 4684 1100 
L 678 1100 
L 678 1631 
z
" transform="scale(0.015625)"/>
      <path id="DejaVuSans-39" d="M 703 97 
L 703 672 
Q 941 559 1184 500 
Q 1428 441 1663 441 
Q 2288 441 2617 861 
Q 2947 1281 2994 2138 
Q 2813 1869 2534 1725 
Q 2256 1581 1919 1581 
Q 1219 1581 811 2004 
Q 403 2428 403 3163 
Q 403 3881 828 4315 
Q 1253 4750 1959 4750 
Q 2769 4750 3195 4129 
Q 3622 3509 3622 2328 
Q 3622 1225 3098 567 
Q 2575 -91 1691 -91 
Q 1453 -91 1209 -44 
Q 966 3 703 97 
z
M 1959 2075 
Q 2384 2075 2632 2365 
Q 2881 2656 2881 3163 
Q 2881 3666 2632 3958 
Q 2384 4250 1959 4250 
Q 1534 4250 1286 3958 
Q 1038 3666 1038 3163 
Q 1038 2656 1286 2365 
Q 1534 2075 1959 2075 
z
" transform="scale(0.015625)"/>
      <path id="DejaVuSans-2e" d="M 684 794 
L 1344 794 
L 1344 0 
L 684 0 
L 684 794 
z
" transform="scale(0.015625)"/>
      <path id="DejaVuSans-73" d="M 2834 3397 
L 2834 2853 
Q 2591 2978 2328 3040 
Q 2066 3103 1784 3103 
Q 1356 3103 1142 2972 
Q 928 2841 928 2578 
Q 928 2378 1081 2264 
Q 1234 2150 1697 2047 
L 1894 2003 
Q 2506 1872 2764 1633 
Q 3022 1394 3022 966 
Q 3022 478 2636 193 
Q 2250 -91 1575 -91 
Q 1294 -91 989 -36 
Q 684 19 347 128 
L 347 722 
Q 666 556 975 473 
Q 1284 391 1588 391 
Q 1994 391 2212 530 
Q 2431 669 2431 922 
Q 2431 1156 2273 1281 
Q 2116 1406 1581 1522 
L 1381 1569 
Q 847 1681 609 1914 
Q 372 2147 372 2553 
Q 372 3047 722 3315 
Q 1072 3584 1716 3584 
Q 2034 3584 2315 3537 
Q 2597 3491 2834 3397 
z
" transform="scale(0.015625)"/>
     </defs>
     <use xlink:href="#DejaVuSans-54"/>
     <use xlink:href="#DejaVuSans-69" x="57.958984"/>
     <use xlink:href="#DejaVuSans-6d" x="85.742188"/>
     <use xlink:href="#DejaVuSans-65" x="183.154297"/>
     <use xlink:href="#DejaVuSans-20" x="244.677734"/>
     <use xlink:href="#DejaVuSans-3d" x="276.464844"/>
     <use xlink:href="#DejaVuSans-20" x="360.253906"/>
     <use xlink:href="#DejaVuSans-31" x="392.041016"/>
     <use xlink:href="#DejaVuSans-39" x="455.664062"/>
     <use xlink:href="#DejaVuSans-2e" x="519.287109"/>
     <use xlink:href="#DejaVuSans-39" x="551.074219"/>
     <use xlink:href="#DejaVuSans-32" x="614.697266"/>
     <use xlink:href="#DejaVuSans-20" x="678.320312"/>
     <use xlink:href="#DejaVuSans-73" x="710.107422"/>
    </g>
   </g>
   <g id="text_28">
    <!-- fig8 -->
    <g transform="translate(336.901025 54.7776) scale(0.1 -0.1)">
     <defs>
      <path id="DejaVuSans-66" d="M 2375 4863 
L 2375 4384 
L 1825 4384 
Q 1516 4384 1395 4259 
Q 1275 4134 1275 3809 
L 1275 3500 
L 2222 3500 
L 2222 3053 
L 1275 3053 
L 1275 0 
L 697 0 
L 697 3053 
L 147 3053 
L 147 3500 
L 697 3500 
L 697 3744 
Q 697 4328 969 4595 
Q 1241 4863 1831 4863 
L 2375 4863 
z
" transform="scale(0.015625)"/>
      <path id="DejaVuSans-67" d="M 2906 1791 
Q 2906 2416 2648 2759 
Q 2391 3103 1925 3103 
Q 1463 3103 1205 2759 
Q 947 2416 947 1791 
Q 947 1169 1205 825 
Q 1463 481 1925 481 
Q 2391 481 2648 825 
Q 2906 1169 2906 1791 
z
M 3481 434 
Q 3481 -459 3084 -895 
Q 2688 -1331 1869 -1331 
Q 1566 -1331 1297 -1286 
Q 1028 -1241 775 -1147 
L 775 -588 
Q 1028 -725 1275 -790 
Q 1522 -856 1778 -856 
Q 2344 -856 2625 -561 
Q 2906 -266 2906 331 
L 2906 616 
Q 2728 306 2450 153 
Q 2172 0 1784 0 
Q 1141 0 747 490 
Q 353 981 353 1791 
Q 353 2603 747 3093 
Q 1141 3584 1784 3584 
Q 2172 3584 2450 3431 
Q 2728 3278 2906 2969 
L 2906 3500 
L 3481 3500 
L 3481 434 
z
" transform="scale(0.015625)"/>
     </defs>
     <use xlink:href="#DejaVuSans-66"/>
     <use xlink:href="#DejaVuSans-69" x="35.205078"/>
     <use xlink:href="#DejaVuSans-67" x="62.988281"/>
     <use xlink:href="#DejaVuSans-38" x="126.464844"/>
    </g>
   </g>
  </g>
 </g>
 <defs>
  <clipPath id="p8e5368ef97">
   <rect x="103.104" y="41.472" width="266.112" height="266.112"/>
  </clipPath>
 </defs>
</svg>
